<svg width="16" height="17" viewBox="0 0 16 17" fill="none" xmlns="http://www.w3.org/2000/svg">
<path d="M4.41333 8.00583C5.37333 9.8925 6.92 11.4392 8.80667 12.3992L10.2733 10.9325C10.46 10.7458 10.72 10.6925 10.9533 10.7658C11.7 11.0125 12.5 11.1458 13.3333 11.1458C13.5101 11.1458 13.6797 11.2161 13.8047 11.3411C13.9298 11.4661 14 11.6357 14 11.8125V14.1458C14 14.3226 13.9298 14.4922 13.8047 14.6172C13.6797 14.7423 13.5101 14.8125 13.3333 14.8125C10.3275 14.8125 7.44487 13.6185 5.31946 11.493C3.19404 9.36763 2 6.48495 2 3.47917C2 3.30236 2.07024 3.13279 2.19526 3.00776C2.32029 2.88274 2.48986 2.8125 2.66667 2.8125H5C5.17681 2.8125 5.34638 2.88274 5.4714 3.00776C5.59643 3.13279 5.66667 3.30236 5.66667 3.47917C5.66667 4.3125 5.8 5.1125 6.04667 5.85917C6.12 6.0925 6.06667 6.3525 5.88 6.53917L4.41333 8.00583Z" fill="#565656"/>
</svg>
