<svg width="100" height="100" viewBox="0 0 100 100" fill="none" xmlns="http://www.w3.org/2000/svg">
<path d="M84.5473 29.2098H76.4603C79.2781 27.526 81.1654 24.4469 81.1654 20.9256C81.1654 20.8863 81.1631 20.8479 81.1625 20.8084H61.8773C61.877 20.8477 61.8744 20.8861 61.8744 20.9256C61.8744 24.4469 63.7619 27.526 66.5795 29.2098H58.5461C56.8766 29.2098 55.5229 30.5635 55.5229 32.233C55.5229 33.2801 56.0555 34.2023 56.8641 34.7449L53.408 35.7777L50.3334 25.4764C49.3387 22.1436 46.2732 19.8594 42.7953 19.8594H40.5562L32.2627 37.8641L23.9691 19.8596H21.7379C16.6311 19.8596 12.4555 24.0143 12.4297 29.1406V57.5535C12.4297 59.7258 14.1906 61.4867 16.3631 61.4867C18.5354 61.4867 20.2963 59.7258 20.2963 57.5535C20.2961 27.0342 20.2865 28.9098 20.3133 28.7303C20.4541 27.7877 21.8568 27.8891 21.8568 28.8459V95.2807C21.8568 97.8875 23.9701 100.001 26.577 100.001C29.1838 100.001 31.2971 97.8875 31.2971 95.2807V57.5537H33.335V95.2809C33.335 97.8877 35.4482 100.001 38.0549 100.001C40.6617 100.001 42.7748 97.8877 42.7748 95.2809L42.7768 27.7326L46.9955 41.7982C47.6164 43.8787 49.8094 45.0641 51.891 44.4418L66.3605 40.1172C68.4307 39.4986 69.6106 37.3275 69.0111 35.2563H84.5475C86.2168 35.2564 87.5705 33.9027 87.5705 32.233C87.5705 30.5635 86.2168 29.2098 84.5473 29.2098Z" fill="#01AAFF"/>
<path d="M32.2615 16.3043C36.7638 16.3043 40.4137 12.6545 40.4137 8.15215C40.4137 3.64984 36.7638 0 32.2615 0C27.7592 0 24.1094 3.64984 24.1094 8.15215C24.1094 12.6545 27.7592 16.3043 32.2615 16.3043Z" fill="#01AAFF"/>
<path d="M36.2162 17.3713L32.3619 19.6651L28.5076 17.3713C28.0504 17.099 27.4688 17.4295 27.4688 17.9619V23.3092C27.4688 23.8414 28.0498 24.1719 28.5076 23.8998L32.3619 21.6061L36.2162 23.8998C36.6734 24.1719 37.2551 23.8418 37.2551 23.3092V17.9617C37.2551 17.4299 36.674 17.099 36.2162 17.3713ZM73.5897 10.2434C73.4342 8.2176 71.7943 6.76741 71.6281 5.13069C71.5688 4.54553 71.6541 3.12151 71.7084 2.3467C71.712 2.29625 71.701 2.24583 71.6769 2.20137C71.6528 2.15691 71.6165 2.12026 71.5723 2.09573C71.5281 2.07122 71.4778 2.05987 71.4274 2.06301C71.377 2.06616 71.3285 2.08368 71.2877 2.1135C70.2527 2.86604 69.6863 4.001 69.5684 4.60471C68.883 7.26389 71.2199 9.27874 71.4096 11.1778C71.4678 11.7633 71.382 13.1924 71.3281 13.9615C71.3249 14.0114 71.3357 14.0611 71.3594 14.1051C71.383 14.1491 71.4186 14.1855 71.462 14.2102C71.5054 14.2349 71.5549 14.2468 71.6048 14.2447C71.6547 14.2426 71.703 14.2265 71.7441 14.1983C73.002 13.3283 73.7057 11.8135 73.5897 10.2434Z" fill="#01AAFF"/>
</svg>
