<svg width="100" height="100" viewBox="0 0 100 100" fill="none" xmlns="http://www.w3.org/2000/svg">
<g clip-path="url(#clip0_5220_5112)">
<path d="M68.75 47.45C63.5812 47.45 59.375 51.6562 59.375 56.825C59.375 60.8938 61.9969 64.3312 65.625 65.625V81.25C65.625 84.6969 62.8219 87.5 59.375 87.5H34.375C30.9281 87.5 28.125 84.6969 28.125 81.25V74.6375C30.8996 74.06 33.4553 72.7125 35.4993 70.7492C37.5432 68.786 38.9926 66.2866 39.6812 63.5375L43.6563 47.6312C43.7188 47.3844 43.75 47.1313 43.75 46.875C43.75 41.7062 39.5438 37.5 34.375 37.5H31.25C30.4212 37.5 29.6263 37.8292 29.0403 38.4153C28.4542 39.0013 28.125 39.7962 28.125 40.625C28.125 41.4538 28.4542 42.2487 29.0403 42.8347C29.6263 43.4208 30.4212 43.75 31.25 43.75H34.375C35.1482 43.7498 35.8941 44.0362 36.4684 44.5539C37.0428 45.0717 37.4047 45.784 37.4844 46.5531L33.6156 62.0219C32.625 65.9844 29.0844 68.75 25 68.75C20.9156 68.75 17.375 65.9844 16.3844 62.0219L12.5156 46.5531C12.5953 45.784 12.9572 45.0717 13.5316 44.5539C14.1059 44.0362 14.8518 43.7498 15.625 43.75H18.75C19.5788 43.75 20.3737 43.4208 20.9597 42.8347C21.5458 42.2487 21.875 41.4538 21.875 40.625C21.875 39.7962 21.5458 39.0013 20.9597 38.4153C20.3737 37.8292 19.5788 37.5 18.75 37.5H15.625C10.4562 37.5 6.25 41.7062 6.25 46.875C6.25 47.1313 6.28125 47.3844 6.34375 47.6344L10.3188 63.5375C11.0074 66.2866 12.4568 68.786 14.5007 70.7492C16.5447 72.7125 19.1004 74.06 21.875 74.6375V81.25C21.875 88.1438 27.4812 93.75 34.375 93.75H59.375C66.2688 93.75 71.875 88.1438 71.875 81.25V65.625C73.6979 64.983 75.2773 63.7924 76.3963 62.2167C77.5154 60.6411 78.1193 58.7576 78.125 56.825C78.125 51.6562 73.9188 47.45 68.75 47.45ZM25 6.25C18.1062 6.25 12.5 11.8562 12.5 18.75C12.5 25.6438 18.1062 31.25 25 31.25C31.8938 31.25 37.5 25.6438 37.5 18.75C37.5 11.8562 31.8938 6.25 25 6.25ZM32.8125 20.3125H26.5625V26.5625C26.5625 26.9769 26.3979 27.3743 26.1049 27.6674C25.8118 27.9604 25.4144 28.125 25 28.125C24.5856 28.125 24.1882 27.9604 23.8951 27.6674C23.6021 27.3743 23.4375 26.9769 23.4375 26.5625V20.3125H17.1875C16.7731 20.3125 16.3757 20.1479 16.0826 19.8549C15.7896 19.5618 15.625 19.1644 15.625 18.75C15.625 18.3356 15.7896 17.9382 16.0826 17.6451C16.3757 17.3521 16.7731 17.1875 17.1875 17.1875H23.4375V10.9375C23.4375 10.5231 23.6021 10.1257 23.8951 9.83265C24.1882 9.53962 24.5856 9.375 25 9.375C25.4144 9.375 25.8118 9.53962 26.1049 9.83265C26.3979 10.1257 26.5625 10.5231 26.5625 10.9375V17.1875H32.8125C33.2269 17.1875 33.6243 17.3521 33.9174 17.6451C34.2104 17.9382 34.375 18.3356 34.375 18.75C34.375 19.1644 34.2104 19.5618 33.9174 19.8549C33.6243 20.1479 33.2269 20.3125 32.8125 20.3125ZM84.375 28.2281L71.2125 33.8688C70.4347 34.2058 69.5961 34.3797 68.7484 34.3797C67.9008 34.3797 67.0621 34.2058 66.2844 33.8688L53.125 28.225V34.375C53.1247 34.9557 53.2863 35.525 53.5915 36.0191C53.8968 36.5131 54.3336 36.9123 54.8531 37.1719L67.3531 43.4219C67.7869 43.6386 68.2651 43.7515 68.75 43.7515C69.2349 43.7515 69.7131 43.6386 70.1469 43.4219L82.6469 37.1719C83.1664 36.9123 83.6032 36.5131 83.9085 36.0191C84.2137 35.525 84.3753 34.9557 84.375 34.375V28.2281Z" fill="black"/>
<path d="M91.8554 15.8789L69.9804 6.50389C69.5916 6.33639 69.1726 6.25 68.7492 6.25C68.3258 6.25 67.9068 6.33639 67.5179 6.50389L45.6429 15.8789C45.0811 16.1199 44.6023 16.5205 44.2658 17.031C43.9293 17.5414 43.75 18.1394 43.75 18.7508C43.75 19.3621 43.9293 19.9601 44.2658 20.4706C44.6023 20.981 45.0811 21.3816 45.6429 21.6226L67.5179 30.9976C67.9068 31.1653 68.3258 31.2518 68.7492 31.2518C69.1726 31.2518 69.5916 31.1653 69.9804 30.9976L87.4992 23.4883V40.6258C87.4992 41.4546 87.8284 42.2494 88.4145 42.8355C89.0005 43.4215 89.7954 43.7508 90.6242 43.7508C91.453 43.7508 92.2479 43.4215 92.8339 42.8355C93.42 42.2494 93.7492 41.4546 93.7492 40.6258V18.7508C93.7491 18.1393 93.5697 17.5413 93.2331 17.0308C92.8964 16.5203 92.4175 16.1198 91.8554 15.8789Z" fill="black"/>
<path d="M68.75 47.45C63.5812 47.45 59.375 51.6562 59.375 56.825C59.375 60.8938 61.9969 64.3312 65.625 65.625V81.25C65.625 84.6969 62.8219 87.5 59.375 87.5H34.375C30.9281 87.5 28.125 84.6969 28.125 81.25V74.6375C30.8996 74.06 33.4553 72.7125 35.4993 70.7492C37.5432 68.786 38.9926 66.2866 39.6812 63.5375L43.6563 47.6312C43.7188 47.3844 43.75 47.1313 43.75 46.875C43.75 41.7062 39.5438 37.5 34.375 37.5H31.25C30.4212 37.5 29.6263 37.8292 29.0403 38.4153C28.4542 39.0013 28.125 39.7962 28.125 40.625C28.125 41.4538 28.4542 42.2487 29.0403 42.8347C29.6263 43.4208 30.4212 43.75 31.25 43.75H34.375C35.1482 43.7498 35.8941 44.0362 36.4684 44.5539C37.0428 45.0717 37.4047 45.784 37.4844 46.5531L33.6156 62.0219C32.625 65.9844 29.0844 68.75 25 68.75C20.9156 68.75 17.375 65.9844 16.3844 62.0219L12.5156 46.5531C12.5953 45.784 12.9572 45.0717 13.5316 44.5539C14.1059 44.0362 14.8518 43.7498 15.625 43.75H18.75C19.5788 43.75 20.3737 43.4208 20.9597 42.8347C21.5458 42.2487 21.875 41.4538 21.875 40.625C21.875 39.7962 21.5458 39.0013 20.9597 38.4153C20.3737 37.8292 19.5788 37.5 18.75 37.5H15.625C10.4562 37.5 6.25 41.7062 6.25 46.875C6.25 47.1313 6.28125 47.3844 6.34375 47.6344L10.3188 63.5375C11.0074 66.2866 12.4568 68.786 14.5007 70.7492C16.5447 72.7125 19.1004 74.06 21.875 74.6375V81.25C21.875 88.1438 27.4812 93.75 34.375 93.75H59.375C66.2688 93.75 71.875 88.1438 71.875 81.25V65.625C73.6979 64.983 75.2773 63.7924 76.3963 62.2167C77.5154 60.6411 78.1193 58.7576 78.125 56.825C78.125 51.6562 73.9188 47.45 68.75 47.45ZM25 6.25C18.1062 6.25 12.5 11.8562 12.5 18.75C12.5 25.6438 18.1062 31.25 25 31.25C31.8938 31.25 37.5 25.6438 37.5 18.75C37.5 11.8562 31.8938 6.25 25 6.25ZM32.8125 20.3125H26.5625V26.5625C26.5625 26.9769 26.3979 27.3743 26.1049 27.6674C25.8118 27.9604 25.4144 28.125 25 28.125C24.5856 28.125 24.1882 27.9604 23.8951 27.6674C23.6021 27.3743 23.4375 26.9769 23.4375 26.5625V20.3125H17.1875C16.7731 20.3125 16.3757 20.1479 16.0826 19.8549C15.7896 19.5618 15.625 19.1644 15.625 18.75C15.625 18.3356 15.7896 17.9382 16.0826 17.6451C16.3757 17.3521 16.7731 17.1875 17.1875 17.1875H23.4375V10.9375C23.4375 10.5231 23.6021 10.1257 23.8951 9.83265C24.1882 9.53962 24.5856 9.375 25 9.375C25.4144 9.375 25.8118 9.53962 26.1049 9.83265C26.3979 10.1257 26.5625 10.5231 26.5625 10.9375V17.1875H32.8125C33.2269 17.1875 33.6243 17.3521 33.9174 17.6451C34.2104 17.9382 34.375 18.3356 34.375 18.75C34.375 19.1644 34.2104 19.5618 33.9174 19.8549C33.6243 20.1479 33.2269 20.3125 32.8125 20.3125ZM84.375 28.2281L71.2125 33.8688C70.4347 34.2058 69.5961 34.3797 68.7484 34.3797C67.9008 34.3797 67.0621 34.2058 66.2844 33.8688L53.125 28.225V34.375C53.1247 34.9557 53.2863 35.525 53.5915 36.0191C53.8968 36.5131 54.3336 36.9123 54.8531 37.1719L67.3531 43.4219C67.7869 43.6386 68.2651 43.7515 68.75 43.7515C69.2349 43.7515 69.7131 43.6386 70.1469 43.4219L82.6469 37.1719C83.1664 36.9123 83.6032 36.5131 83.9085 36.0191C84.2137 35.525 84.3753 34.9557 84.375 34.375V28.2281Z" fill="#01AAFF"/>
<path d="M91.8554 15.8789L69.9804 6.50389C69.5916 6.33639 69.1726 6.25 68.7492 6.25C68.3258 6.25 67.9068 6.33639 67.5179 6.50389L45.6429 15.8789C45.0811 16.1199 44.6023 16.5205 44.2658 17.031C43.9293 17.5414 43.75 18.1394 43.75 18.7508C43.75 19.3621 43.9293 19.9601 44.2658 20.4706C44.6023 20.981 45.0811 21.3816 45.6429 21.6226L67.5179 30.9976C67.9068 31.1653 68.3258 31.2518 68.7492 31.2518C69.1726 31.2518 69.5916 31.1653 69.9804 30.9976L87.4992 23.4883V40.6258C87.4992 41.4546 87.8284 42.2494 88.4145 42.8355C89.0005 43.4215 89.7954 43.7508 90.6242 43.7508C91.453 43.7508 92.2479 43.4215 92.8339 42.8355C93.42 42.2494 93.7492 41.4546 93.7492 40.6258V18.7508C93.7491 18.1393 93.5697 17.5413 93.2331 17.0308C92.8964 16.5203 92.4175 16.1198 91.8554 15.8789Z" fill="#01AAFF"/>
</g>
<defs>
<clipPath id="clip0_5220_5112">
<rect width="100" height="100" fill="white"/>
</clipPath>
</defs>
</svg>
