<svg width="28" height="28" viewBox="0 0 28 28" fill="none" xmlns="http://www.w3.org/2000/svg">
<rect width="28" height="28" rx="14" fill="#42C0FF"/>
<path d="M14.1921 9.08512L14.0057 9.29075L13.8193 9.08453C13.1756 8.38522 12.3084 7.99545 11.4062 8.00004C10.5041 8.00463 9.64016 8.40319 9.00227 9.10903C8.36438 9.81486 8.00418 10.7709 8.00004 11.7691C7.99589 12.7672 8.34813 13.7269 8.98014 14.4392L9.1665 14.6454L14.0057 20L18.8449 14.6454L19.0313 14.4392C19.6582 13.7258 20.0062 12.7679 19.9999 11.7728C19.9936 10.7777 19.6335 9.8254 18.9976 9.12179C18.3616 8.41817 17.5009 8.01986 16.6016 8.013C15.7023 8.00613 14.8367 8.39128 14.1921 9.08512Z" fill="white"/>
</svg>
