<svg width="100" height="100" viewBox="0 0 100 100" fill="none" xmlns="http://www.w3.org/2000/svg">
<g clip-path="url(#clip0_5220_5102)">
<path d="M68.7695 95.8417H31.25C39.4336 91.2323 42.3047 82.0526 43.5547 76.1346H56.4844C57.6953 82.0526 60.5664 91.2128 68.7695 95.8417ZM96.1523 63.7909H3.84766C1.71875 63.7909 0 65.5096 0 67.619C0 71.1542 2.89062 74.0448 6.44531 74.0448H93.5742C97.1094 74.0448 100 71.1542 100 67.619C100 65.5096 98.2812 63.7909 96.1523 63.7909ZM81.7187 97.912H18.3008C16.9141 97.912 16.9141 100.002 18.3008 100.002H81.7187C83.0859 100.002 83.0859 97.912 81.7187 97.912ZM50 19.1815C25.918 19.1815 6.13281 37.9706 4.53125 61.7011H95.4687C93.9062 37.9901 74.1016 19.1815 50 19.1815ZM50 10.1386C46.9336 10.1386 44.4336 12.6386 44.4336 15.705C44.4336 16.2909 44.5312 16.8768 44.707 17.4042C46.4453 17.2089 48.2227 17.1112 50 17.1112C51.7969 17.1112 53.5547 17.2089 55.293 17.4042C55.4688 16.8573 55.5664 16.2909 55.5664 15.705C55.5664 12.6386 53.0664 10.1386 50 10.1386ZM81.9141 25.0604C82.6953 24.3768 83.1445 23.3807 83.1445 22.3456C83.1445 21.3104 82.6953 20.3143 81.9141 19.6307C81.2305 19.0253 81.2109 17.951 81.9141 17.326C82.6953 16.6425 83.1445 15.6464 83.1445 14.6112C83.1445 13.5761 82.6953 12.58 81.9141 11.8964C81.2109 11.2909 81.2109 10.1971 81.9141 9.59168C82.9492 8.67371 81.582 7.11121 80.5469 8.02918C79.7656 8.71277 79.3164 9.70886 79.3164 10.744C79.3164 11.7792 79.7656 12.7753 80.5469 13.4589C81.25 14.0643 81.25 15.1581 80.5469 15.7635C79.7656 16.4471 79.3164 17.4432 79.3164 18.4784C79.3164 19.5135 79.7656 20.5096 80.5469 21.1932C81.25 21.7987 81.2305 22.8925 80.5469 23.4979C79.4922 24.4159 80.8594 25.9784 81.9141 25.0604ZM87.0508 17.326C87.832 16.6425 88.2812 15.6464 88.2812 14.6112C88.2812 13.5761 87.832 12.58 87.0508 11.8964C86.3672 11.2909 86.3477 10.2167 87.0508 9.59168C87.832 8.90808 88.2812 7.91199 88.2812 6.87683C88.2812 5.84168 87.832 4.84558 87.0508 4.16199C86.3477 3.55652 86.3477 2.46277 87.0508 1.8573C88.0859 0.939332 86.7188 -0.623168 85.6836 0.2948C84.9023 0.978394 84.4531 1.97449 84.4531 3.00964C84.4531 4.0448 84.9023 5.04089 85.6836 5.72449C86.3867 6.32996 86.3867 7.40418 85.6836 8.02918C84.9023 8.71277 84.4531 9.70886 84.4531 10.744C84.4531 11.7792 84.9023 12.7753 85.6836 13.4784C86.3867 14.0839 86.3672 15.1776 85.6836 15.7831C84.6484 16.662 86.0156 18.244 87.0508 17.326ZM92.1875 25.0604C92.9688 24.3768 93.418 23.3807 93.418 22.3456C93.418 21.3104 92.9688 20.3143 92.1875 19.6307C91.5039 19.0253 91.4844 17.951 92.1875 17.326C92.9688 16.6425 93.418 15.6464 93.418 14.6112C93.418 13.5761 92.9688 12.58 92.1875 11.8964C91.4844 11.2909 91.4844 10.1971 92.1875 9.59168C93.2227 8.67371 91.8555 7.11121 90.8203 8.02918C89.1797 9.47449 89.1797 12.0331 90.8203 13.4589C91.5039 14.0643 91.5234 15.1385 90.8203 15.7635C90.0391 16.4471 89.5898 17.4432 89.5898 18.4784C89.5898 19.5135 90.0391 20.5096 90.8203 21.1932C91.5234 21.7987 91.5039 22.8925 90.8203 23.4979C89.7852 24.4159 91.1523 25.9784 92.1875 25.0604ZM9.19922 25.0604C9.98047 24.3768 10.4297 23.3807 10.4297 22.3456C10.4297 21.3104 9.98047 20.3143 9.19922 19.6307C8.51562 19.0253 8.49609 17.951 9.19922 17.326C9.98047 16.6425 10.4297 15.6464 10.4297 14.6112C10.4297 13.5761 9.98047 12.58 9.19922 11.8964C8.49609 11.2909 8.51562 10.1971 9.19922 9.59168C10.2344 8.67371 8.86719 7.11121 7.83203 8.02918C7.05078 8.71277 6.60156 9.70886 6.60156 10.744C6.60156 11.7792 7.05078 12.7753 7.83203 13.4589C8.53516 14.0643 8.53516 15.1581 7.83203 15.7635C7.05078 16.4471 6.60156 17.4432 6.60156 18.4784C6.60156 19.5135 7.05078 20.5096 7.83203 21.1932C8.53516 21.7987 8.51562 22.8925 7.83203 23.4979C6.77734 24.4159 8.16406 25.9784 9.19922 25.0604ZM14.3359 17.326C15.1172 16.6425 15.5664 15.6464 15.5664 14.6112C15.5664 13.5761 15.1172 12.58 14.3359 11.8964C13.6328 11.2909 13.6328 10.2167 14.3359 9.59168C15.1172 8.90808 15.5664 7.91199 15.5664 6.87683C15.5664 5.84168 15.1172 4.84558 14.3359 4.16199C13.6328 3.53699 13.6523 2.46277 14.3359 1.8573C15.3711 0.958863 14.0039 -0.623168 12.9688 0.2948C12.168 0.958863 11.7188 1.95496 11.7188 2.99011C11.7188 4.02527 12.168 5.02136 12.9492 5.70496C13.6328 6.31043 13.6523 7.38464 12.9492 8.00964C12.168 8.69324 11.7188 9.68933 11.7188 10.7245C11.7188 11.7596 12.168 12.7557 12.9492 13.4393C13.2813 13.7323 13.4766 14.1425 13.4766 14.5917C13.4766 15.0409 13.3008 15.451 12.9492 15.744C12.5195 16.1151 12.4805 16.7792 12.8516 17.2089C13.2422 17.6581 13.9063 17.6971 14.3359 17.326ZM19.4727 25.0604C20.2539 24.3768 20.7031 23.3807 20.7031 22.3456C20.7031 21.3104 20.2539 20.3143 19.4727 19.6307C18.7891 19.0253 18.7695 17.951 19.4727 17.326C20.2539 16.6425 20.7031 15.6464 20.7031 14.6112C20.7031 13.5761 20.2539 12.58 19.4727 11.8964C18.7695 11.2909 18.7891 10.1971 19.4727 9.59168C20.5078 8.67371 19.1406 7.11121 18.1055 8.02918C17.3242 8.71277 16.875 9.70886 16.875 10.744C16.875 11.7792 17.3242 12.7753 18.1055 13.4589C18.4375 13.7518 18.6328 14.162 18.6328 14.6112C18.6328 15.0604 18.457 15.4706 18.1055 15.7635C17.3242 16.4471 16.875 17.4432 16.875 18.4784C16.875 19.5135 17.3242 20.5096 18.1055 21.1932C18.4375 21.4862 18.6328 21.8964 18.6328 22.3456C18.6328 22.7948 18.457 23.205 18.1055 23.4979C17.0703 24.4159 18.4375 25.9784 19.4727 25.0604Z" fill="#01AAFF"/>
</g>
<defs>
<clipPath id="clip0_5220_5102">
<rect width="100" height="100" fill="white"/>
</clipPath>
</defs>
</svg>
