<svg width="16" height="17" viewBox="0 0 16 17" fill="none" xmlns="http://www.w3.org/2000/svg">
<path d="M8.68832 2.14844C9.43832 2.15044 9.81899 2.15444 10.1477 2.16377L10.277 2.16844C10.4263 2.17377 10.5737 2.18044 10.7517 2.18844C11.461 2.22177 11.945 2.33377 12.3697 2.49844C12.8097 2.66777 13.1803 2.8971 13.551 3.2671C13.89 3.60037 14.1523 4.0035 14.3197 4.44844C14.4843 4.8731 14.5963 5.3571 14.6297 6.0671C14.6377 6.24444 14.6443 6.39177 14.6497 6.54177L14.6537 6.6711C14.6637 6.9991 14.6677 7.37977 14.669 8.12977L14.6697 8.6271V9.50044C14.6713 9.98671 14.6662 10.473 14.6543 10.9591L14.6503 11.0884C14.645 11.2384 14.6383 11.3858 14.6303 11.5631C14.597 12.2731 14.4837 12.7564 14.3197 13.1818C14.1528 13.627 13.8904 14.0302 13.551 14.3631C13.2176 14.702 12.8145 14.9643 12.3697 15.1318C11.945 15.2964 11.461 15.4084 10.7517 15.4418C10.5935 15.4492 10.4352 15.4559 10.277 15.4618L10.1477 15.4658C9.81899 15.4751 9.43832 15.4798 8.68832 15.4811L8.19099 15.4818H7.31832C6.83183 15.4834 6.34534 15.4783 5.85899 15.4664L5.72966 15.4624C5.5714 15.4564 5.41317 15.4496 5.25499 15.4418C4.54566 15.4084 4.06166 15.2964 3.63632 15.1318C3.19143 14.9647 2.78847 14.7023 2.45566 14.3631C2.11635 14.03 1.8538 13.6268 1.68632 13.1818C1.52166 12.7571 1.40966 12.2731 1.37632 11.5631C1.36889 11.4049 1.36223 11.2467 1.35632 11.0884L1.35299 10.9591C1.3407 10.473 1.33515 9.98671 1.33632 9.50044V8.12977C1.33446 7.6435 1.33935 7.15724 1.35099 6.6711L1.35566 6.54177C1.36099 6.39177 1.36766 6.24444 1.37566 6.0671C1.40899 5.3571 1.52099 4.87377 1.68566 4.44844C1.85306 4.00304 2.11614 3.59979 2.45632 3.2671C2.78905 2.92809 3.19175 2.66576 3.63632 2.49844C4.06166 2.33377 4.54499 2.22177 5.25499 2.18844C5.43232 2.18044 5.58032 2.17377 5.72966 2.16844L5.85899 2.16444C6.34512 2.15259 6.83139 2.14748 7.31766 2.1491L8.68832 2.14844ZM8.00299 5.48177C7.11893 5.48177 6.27109 5.83296 5.64597 6.45808C5.02084 7.0832 4.66966 7.93105 4.66966 8.8151C4.66966 9.69916 5.02084 10.547 5.64597 11.1721C6.27109 11.7972 7.11893 12.1484 8.00299 12.1484C8.88704 12.1484 9.73489 11.7972 10.36 11.1721C10.9851 10.547 11.3363 9.69916 11.3363 8.8151C11.3363 7.93105 10.9851 7.0832 10.36 6.45808C9.73489 5.83296 8.88704 5.48177 8.00299 5.48177ZM8.00299 6.8151C8.26563 6.81506 8.52571 6.86675 8.76838 6.96722C9.01105 7.06769 9.23155 7.21497 9.4173 7.40066C9.60305 7.58634 9.7504 7.8068 9.85095 8.04943C9.9515 8.29206 10.0033 8.55213 10.0033 8.81477C10.0034 9.07741 9.95168 9.3375 9.85121 9.58016C9.75074 9.82283 9.60346 10.0433 9.41777 10.2291C9.23208 10.4148 9.01163 10.5622 8.769 10.6627C8.52636 10.7633 8.2663 10.8151 8.00366 10.8151C7.47322 10.8151 6.96451 10.6044 6.58944 10.2293C6.21437 9.85425 6.00366 9.34554 6.00366 8.8151C6.00366 8.28467 6.21437 7.77596 6.58944 7.40089C6.96451 7.02582 7.47322 6.8151 8.00366 6.8151M11.5037 4.48177C11.2826 4.48177 11.0707 4.56957 10.9144 4.72585C10.7581 4.88213 10.6703 5.09409 10.6703 5.3151C10.6703 5.53612 10.7581 5.74808 10.9144 5.90436C11.0707 6.06064 11.2826 6.14844 11.5037 6.14844C11.7247 6.14844 11.9366 6.06064 12.0929 5.90436C12.2492 5.74808 12.337 5.53612 12.337 5.3151C12.337 5.09409 12.2492 4.88213 12.0929 4.72585C11.9366 4.56957 11.7247 4.48177 11.5037 4.48177Z" fill="#565656"/>
</svg>
