<svg width="16" height="17" viewBox="0 0 16 17" fill="none" xmlns="http://www.w3.org/2000/svg">
<g clip-path="url(#clip0_58_243)">
<path d="M7.99741 0.8125C5.05666 0.8125 2.66406 3.20509 2.66406 6.14584C2.66406 7.02866 2.88478 7.90397 3.30437 8.68034L7.70575 16.6406C7.76434 16.7467 7.876 16.8125 7.99741 16.8125C8.11881 16.8125 8.23047 16.7467 8.28906 16.6406L12.6921 8.67772C13.11 7.90397 13.3307 7.02863 13.3307 6.14581C13.3307 3.20509 10.9382 0.8125 7.99741 0.8125ZM7.99741 8.8125C6.52703 8.8125 5.33075 7.61622 5.33075 6.14584C5.33075 4.67547 6.52703 3.47919 7.99741 3.47919C9.46778 3.47919 10.6641 4.67547 10.6641 6.14584C10.6641 7.61622 9.46778 8.8125 7.99741 8.8125Z" fill="#565656"/>
</g>
<defs>
<clipPath id="clip0_58_243">
<rect width="16" height="16" fill="white" transform="translate(0 0.8125)"/>
</clipPath>
</defs>
</svg>
