<svg width="194" height="32" viewBox="0 0 194 32" fill="none" xmlns="http://www.w3.org/2000/svg">
<path d="M105.27 1.19531C104.743 1.19531 104.293 1.31168 103.928 1.53664C103.548 1.77712 103.246 2.14948 103.005 2.70026L97.1329 16.6094L91.3768 2.70803C90.9734 1.7461 90.1356 1.19531 89.0806 1.19531C87.7696 1.19531 87.1956 1.94779 86.9706 2.39772C86.6293 3.08814 86.6448 3.90267 87.0249 4.83356L94.8987 22.955C95.3486 23.948 96.1477 24.491 97.1561 24.491C97.6992 24.491 98.1724 24.3436 98.5757 24.041C98.9326 23.7695 99.2196 23.4049 99.4213 22.9395L107.357 4.6086C107.815 3.62341 107.598 2.8399 107.342 2.35118C107.124 1.92452 106.543 1.19531 105.27 1.19531Z" fill="black"/>
<path d="M112.49 1.19531C111.815 1.19531 111.202 1.4358 110.729 1.90124C110.248 2.36669 109.992 2.98729 109.992 3.70098V22.0008C109.992 22.6835 110.24 23.2963 110.714 23.7695C111.187 24.2427 111.8 24.4987 112.482 24.4987C113.188 24.4987 113.809 24.2427 114.282 23.754C114.732 23.2808 114.972 22.6757 114.972 21.9931V3.69322C114.972 2.99504 114.732 2.37445 114.267 1.909C113.809 1.44355 113.196 1.19531 112.49 1.19531Z" fill="black"/>
<path d="M128.155 10.1845C126.891 10.0526 125.937 9.83542 125.308 9.53288C124.781 9.27688 124.416 8.98986 124.253 8.70283C124.067 8.36926 123.974 8.03568 123.974 7.6866C123.974 7.0117 124.215 6.5928 124.765 6.27474C125.456 5.87911 126.356 5.67742 127.418 5.67742H127.55C128.163 5.67742 128.698 5.75499 129.125 5.9179C129.552 6.0808 129.924 6.29802 130.234 6.56953C130.545 6.84104 130.816 7.19012 131.057 7.61678C131.39 8.19083 131.91 8.60974 132.554 8.81919C132.802 8.89676 133.058 8.94331 133.314 8.94331C133.764 8.94331 134.183 8.81919 134.586 8.56319C135.16 8.19083 135.51 7.6323 135.595 6.9574C135.672 6.35232 135.517 5.73172 135.137 5.12664C134.633 4.29659 134.028 3.56739 133.345 2.95455C132.639 2.3262 131.809 1.82971 130.871 1.48063C129.94 1.13154 128.846 0.953125 127.628 0.953125C126.107 0.953125 124.696 1.1936 123.439 1.67456C122.12 2.1788 121.057 2.92352 120.274 3.90872C119.452 4.9327 119.04 6.18165 119.04 7.61678C119.04 9.5639 119.808 11.2162 121.329 12.5273C122.772 13.7762 124.734 14.5287 127.162 14.7614C128.598 14.9166 129.606 15.2812 130.165 15.8474C130.7 16.3982 130.964 16.9878 130.964 17.6472C130.964 18.1437 130.84 18.516 130.56 18.8341C130.234 19.2142 129.8 19.4935 129.249 19.7029C128.652 19.9279 127.977 20.0365 127.256 20.0365C126.612 20.0365 125.983 19.9356 125.402 19.7417C124.82 19.5478 124.331 19.2995 123.935 18.9892C123.586 18.7177 123.338 18.4384 123.198 18.1437C122.935 17.5929 122.539 17.1662 122.019 16.8792C121.639 16.6697 121.236 16.5689 120.825 16.5689C120.654 16.5689 120.476 16.5922 120.32 16.6232C119.366 16.8171 118.878 17.3524 118.637 17.7713C118.272 18.4074 118.249 19.1444 118.559 19.8038C118.986 20.8045 119.653 21.6966 120.553 22.4568C121.422 23.186 122.454 23.7678 123.61 24.1712C124.758 24.5668 125.983 24.7763 127.248 24.7763C128.311 24.7763 129.35 24.6367 130.351 24.3574C131.375 24.0704 132.306 23.6282 133.12 23.0386C133.95 22.4335 134.633 21.6733 135.122 20.7812C135.634 19.8658 135.89 18.7798 135.89 17.5774C135.89 15.4828 135.168 13.7607 133.749 12.4574C132.399 11.1775 130.514 10.425 128.155 10.1845Z" fill="black"/>
<path d="M141.818 1.19531C141.143 1.19531 140.53 1.4358 140.057 1.90124C139.576 2.36669 139.32 2.98729 139.32 3.70098V22.0008C139.32 22.6835 139.569 23.2963 140.042 23.7695C140.515 24.2427 141.128 24.4987 141.81 24.4987C142.516 24.4987 143.137 24.2427 143.61 23.754C144.06 23.2808 144.301 22.6757 144.301 21.9931V3.69322C144.301 2.99504 144.06 2.37445 143.595 1.909C143.137 1.44355 142.524 1.19531 141.818 1.19531Z" fill="black"/>
<path d="M193.33 1.92452C192.872 1.45131 192.26 1.19531 191.546 1.19531C190.871 1.19531 190.266 1.4358 189.785 1.90124C189.304 2.36669 189.048 2.98729 189.048 3.70098V15.1898L179.274 2.10293C178.777 1.51337 178.118 1.19531 177.357 1.19531C176.675 1.19531 176.07 1.44355 175.597 1.909C175.131 2.37445 174.891 2.99504 174.891 3.69322V21.9931C174.891 22.668 175.131 23.2808 175.589 23.754C176.054 24.235 176.667 24.4987 177.357 24.4987C178.071 24.4987 178.692 24.2427 179.157 23.754C179.607 23.2808 179.848 22.6757 179.848 21.9931V10.5353L189.591 23.5833C189.839 23.9014 190.165 24.1496 190.553 24.297C190.887 24.4289 191.212 24.4987 191.53 24.4987C192.244 24.4987 192.865 24.235 193.33 23.7463C193.765 23.2731 193.997 22.668 193.997 22.0008V3.70098C194.013 3.00281 193.78 2.38996 193.33 1.92452Z" fill="black"/>
<path d="M171.417 12.1487C171.37 11.4039 170.734 10.8377 169.989 10.8842C169.245 10.9307 168.678 11.5669 168.725 12.3116C168.88 14.9336 167.895 17.5091 166.033 19.3786C162.434 22.9781 156.577 22.9781 152.985 19.3786C149.386 15.7792 149.386 9.92226 152.985 6.33056C154.451 4.8644 156.398 3.92575 158.477 3.69303C159.214 3.6077 159.75 2.94055 159.664 2.19583C159.579 1.45887 158.912 0.923609 158.167 1.00894C155.491 1.31924 152.97 2.52941 151.077 4.42223C146.422 9.07671 146.422 16.6402 151.077 21.2947C155.731 25.9492 163.295 25.9492 167.949 21.2947C170.354 18.8744 171.619 15.5464 171.417 12.1487Z" fill="black"/>
<path d="M159.669 4.52344C155.162 4.52344 151.508 8.17721 151.508 12.6843C151.508 17.1914 155.162 20.8451 159.669 20.8451C164.176 20.8451 167.829 17.1914 167.829 12.6843C167.829 8.17721 164.176 4.52344 159.669 4.52344ZM157.745 11.8155C156.077 11.8155 154.719 10.4579 154.719 8.79004C154.719 7.12219 156.077 5.76464 157.745 5.76464C159.413 5.76464 160.77 7.12219 160.77 8.79004C160.77 10.4579 159.413 11.8155 157.745 11.8155Z" fill="#00ACFF"/>
<path d="M1.46615 10.6122C1.03173 10.6122 0.674891 10.4881 0.403379 10.2398C0.131868 9.99161 0 9.68131 0 9.3012C0 8.8823 0.131868 8.54872 0.403379 8.30048C0.674891 8.05224 1.02397 7.92813 1.46615 7.92813H9.17707C9.61148 7.92813 9.96832 8.05224 10.2398 8.30048C10.5113 8.54872 10.6432 8.8823 10.6432 9.3012C10.6432 9.67356 10.5113 9.99161 10.2398 10.2398C9.96832 10.4881 9.61924 10.6122 9.17707 10.6122H1.46615ZM4.33642 24.3739C3.94079 24.3739 3.58395 24.2265 3.27365 23.9395C2.96335 23.6447 2.8082 23.2646 2.8082 22.7837V7.40061C2.8082 5.90342 3.10298 4.60017 3.7003 3.49861C4.28987 2.39705 5.11993 1.53598 6.1827 0.92314C7.24547 0.3103 8.47115 0 9.86749 0C10.3252 0 10.7053 0.13188 11.0078 0.403391C11.3104 0.674902 11.4578 1.01623 11.4578 1.43513C11.4578 1.83077 11.3104 2.17209 11.0078 2.45136C10.7053 2.73063 10.3252 2.87026 9.86749 2.87026C9.0995 2.87026 8.42459 3.04869 7.84278 3.39777C7.26097 3.74686 6.81104 4.24333 6.48523 4.86393C6.15941 5.48453 6.00427 6.22924 6.00427 7.08257V22.7837C6.00427 23.2646 5.85688 23.6447 5.56985 23.9395C5.25955 24.2343 4.85617 24.3739 4.33642 24.3739Z" fill="black"/>
<path d="M21.0639 24.4943C19.3805 24.4943 17.8911 24.122 16.6034 23.385C15.3156 22.6481 14.2994 21.6241 13.5624 20.3286C12.8255 19.0253 12.4531 17.5359 12.4531 15.8525C12.4531 14.1459 12.8255 12.6409 13.5624 11.3455C14.2994 10.0422 15.3156 9.02597 16.6034 8.28901C17.8911 7.55205 19.3805 7.17969 21.0639 7.17969C22.7318 7.17969 24.2057 7.55205 25.4934 8.28901C26.7812 9.02597 27.7974 10.05 28.5343 11.3455C29.2713 12.6487 29.6437 14.1459 29.6437 15.8525C29.6437 17.5359 29.2791 19.0331 28.5499 20.3286C27.8207 21.6318 26.8122 22.6481 25.5244 23.385C24.2367 24.1297 22.755 24.4943 21.0639 24.4943ZM21.0639 21.6861C22.1422 21.6861 23.1041 21.4379 23.9342 20.9337C24.7642 20.4372 25.4158 19.7468 25.8813 18.8702C26.3467 17.9936 26.5872 16.9851 26.5872 15.8448C26.5872 14.7044 26.3545 13.6882 25.8813 12.8038C25.4158 11.9195 24.7642 11.2291 23.9342 10.7249C23.1041 10.2284 22.1422 9.97238 21.0639 9.97238C19.9856 9.97238 19.0237 10.2206 18.1936 10.7249C17.3636 11.2213 16.7042 11.9195 16.2232 12.8038C15.7423 13.6882 15.5096 14.7044 15.5096 15.8448C15.5096 16.9929 15.75 18.0014 16.2232 18.8702C16.7042 19.7468 17.3558 20.4294 18.1936 20.9337C19.0314 21.4379 19.9856 21.6861 21.0639 21.6861Z" fill="black"/>
<path d="M35.9499 24.3775C35.4534 24.3775 35.0655 24.2457 34.794 23.9897C34.5225 23.7337 34.3906 23.338 34.3906 22.8183V8.87037C34.3906 8.37389 34.5225 7.98603 34.794 7.71452C35.0655 7.443 35.4456 7.31112 35.9499 7.31112C36.4696 7.31112 36.8575 7.443 37.1212 7.699C37.3772 7.96275 37.5091 8.35062 37.5091 8.87037V22.8183C37.5091 23.3148 37.3772 23.7026 37.1212 23.9741C36.8652 24.2457 36.4774 24.3775 35.9499 24.3775ZM35.9188 13.7033C35.9188 12.4543 36.2214 11.3372 36.842 10.352C37.4548 9.36685 38.2849 8.57559 39.3244 7.99378C40.3639 7.41197 41.512 7.11719 42.7532 7.11719C44.0021 7.11719 44.933 7.31888 45.5459 7.72227C46.1587 8.12566 46.3914 8.61437 46.2518 9.17291C46.1897 9.46769 46.0656 9.6849 45.8949 9.84005C45.7165 9.9952 45.5148 10.0961 45.2898 10.1348C45.0571 10.1736 44.8089 10.1659 44.5374 10.1038C43.2031 9.8323 42.0085 9.80903 40.9457 10.0418C39.8829 10.2745 39.0451 10.7011 38.4323 11.3217C37.8194 11.9423 37.5091 12.7336 37.5091 13.6955H35.9188V13.7033Z" fill="black"/>
<path d="M55.4277 24.4943C53.8684 24.4943 52.4876 24.122 51.293 23.385C50.0983 22.6481 49.1519 21.6241 48.4692 20.3286C47.7866 19.0253 47.4375 17.5359 47.4375 15.8525C47.4375 14.1459 47.8099 12.6409 48.5468 11.3455C49.2838 10.0422 50.3 9.02597 51.5877 8.28901C52.8755 7.55205 54.3649 7.17969 56.0483 7.17969C57.7161 7.17969 59.1901 7.55205 60.4778 8.28901C61.7655 9.02597 62.7817 10.05 63.5187 11.3455C64.2557 12.6487 64.628 14.1459 64.628 15.8525H62.7895C62.7895 17.5359 62.4715 19.0331 61.8353 20.3286C61.1992 21.6318 60.3304 22.6481 59.2288 23.385C58.1273 24.122 56.8628 24.4943 55.4277 24.4943ZM55.9862 31.4605C54.5123 31.4605 53.1237 31.1658 51.836 30.5839C50.5482 30.0021 49.4544 29.1488 48.5623 28.024C48.2908 27.6672 48.19 27.3025 48.2676 26.9302C48.3374 26.5578 48.5468 26.2553 48.8726 26.0226C49.245 25.7743 49.6406 25.689 50.044 25.7743C50.4474 25.8597 50.781 26.0691 51.0292 26.3949C51.5877 27.1009 52.3014 27.6516 53.1547 28.0473C54.0081 28.4429 54.9777 28.6368 56.056 28.6368C57.0567 28.6368 57.9721 28.3963 58.8177 27.9231C59.6632 27.4422 60.3304 26.7362 60.8346 25.7976C61.3311 24.8589 61.5871 23.7186 61.5871 22.361V17.9315L62.6189 15.1854L64.6435 15.837V22.5783C64.6435 24.2228 64.2789 25.7123 63.5497 27.0543C62.8205 28.3964 61.8043 29.4591 60.5088 30.2504C59.1978 31.0649 57.6929 31.4605 55.9862 31.4605ZM56.0483 21.6861C57.1266 21.6861 58.0885 21.4379 58.9185 20.9337C59.7486 20.4372 60.4002 19.7468 60.8657 18.8702C61.3311 17.9936 61.5716 16.9851 61.5716 15.8448C61.5716 14.7044 61.3389 13.6882 60.8657 12.8038C60.4002 11.9195 59.7486 11.2291 58.9185 10.7249C58.0885 10.2284 57.1266 9.97238 56.0483 9.97238C54.97 9.97238 54.0081 10.2206 53.178 10.7249C52.348 11.2213 51.6886 11.9195 51.2076 12.8038C50.7267 13.6882 50.4939 14.7044 50.4939 15.8448C50.4939 16.9929 50.7344 18.0014 51.2076 18.8702C51.6886 19.7468 52.3402 20.4294 53.178 20.9337C54.0081 21.4379 54.97 21.6861 56.0483 21.6861Z" fill="black"/>
<path d="M77.3979 24.4943C75.6679 24.4943 74.1397 24.122 72.7977 23.385C71.4556 22.6481 70.4084 21.6241 69.6482 20.3286C68.8879 19.0253 68.5078 17.5359 68.5078 15.8525C68.5078 14.1459 68.8646 12.6409 69.5861 11.3455C70.2998 10.0422 71.2927 9.02597 72.5649 8.28901C73.8372 7.55205 75.2878 7.17969 76.9324 7.17969C78.5537 7.17969 79.9501 7.53653 81.1137 8.25797C82.2773 8.97942 83.1694 9.96462 83.7823 11.2213C84.3951 12.478 84.7054 13.9287 84.7054 15.5733C84.7054 15.9689 84.5735 16.2947 84.302 16.5585C84.0305 16.8222 83.6892 16.9463 83.2703 16.9463H70.6954V14.4484H83.1772L81.8972 15.325C81.8739 14.2855 81.6645 13.3546 81.2766 12.5323C80.881 11.7101 80.3224 11.0584 79.5932 10.5852C78.864 10.1042 77.9797 9.86377 76.9402 9.86377C75.7533 9.86377 74.737 10.1275 73.8992 10.6473C73.0537 11.167 72.4176 11.8807 71.9831 12.7883C71.5487 13.696 71.3238 14.7199 71.3238 15.8603C71.3238 17.0084 71.5798 18.0246 72.1073 18.9167C72.627 19.8088 73.3485 20.5225 74.2638 21.0423C75.1792 21.562 76.2265 21.8258 77.4134 21.8258C78.0572 21.8258 78.7166 21.7094 79.3915 21.4689C80.0664 21.2284 80.6172 20.9569 81.0283 20.6389C81.3386 20.4062 81.68 20.2898 82.0446 20.282C82.4092 20.2743 82.7272 20.3829 82.9987 20.6079C83.3556 20.9181 83.5418 21.2595 83.565 21.6396C83.5883 22.012 83.4176 22.3378 83.0686 22.6093C82.3626 23.1678 81.4783 23.6255 80.431 23.9824C79.3605 24.3237 78.352 24.4943 77.3979 24.4943Z" fill="black"/>
</svg>
