<svg width="278" height="32" viewBox="0 0 278 32" fill="none" xmlns="http://www.w3.org/2000/svg">
<path d="M161.842 0.976562C161.162 0.976562 160.582 1.12656 160.112 1.41656C159.622 1.72656 159.232 2.20656 158.922 2.91656L151.352 20.8466L143.932 2.92656C143.412 1.68656 142.332 0.976562 140.972 0.976562C139.282 0.976562 138.542 1.94657 138.252 2.52657C137.812 3.41657 137.832 4.46656 138.322 5.66656L148.472 29.0266C149.052 30.3066 150.082 31.0066 151.382 31.0066C152.082 31.0066 152.692 30.8166 153.212 30.4266C153.672 30.0766 154.042 29.6066 154.302 29.0066L164.532 5.37656C165.122 4.10656 164.842 3.09657 164.512 2.46657C164.232 1.90657 163.482 0.976562 161.842 0.976562Z" fill="black"/>
<path d="M172.618 0.976562C171.748 0.976562 170.958 1.28657 170.348 1.88657C169.728 2.48657 169.398 3.28656 169.398 4.20656V27.7966C169.398 28.6766 169.718 29.4666 170.328 30.0766C170.938 30.6866 171.728 31.0166 172.608 31.0166C173.518 31.0166 174.318 30.6866 174.928 30.0566C175.508 29.4466 175.818 28.6666 175.818 27.7866V4.19656C175.818 3.29656 175.508 2.49656 174.908 1.89656C174.308 1.28656 173.518 0.976562 172.618 0.976562Z" fill="black"/>
<path d="M192.707 12.6431C191.117 12.4831 189.907 12.2031 189.117 11.8231C188.457 11.5031 187.987 11.1331 187.787 10.7731C187.557 10.3531 187.437 9.93312 187.437 9.48312C187.437 8.63312 187.737 8.10313 188.437 7.69313C189.307 7.19313 190.437 6.93312 191.787 6.93312H191.957C192.737 6.93312 193.407 7.03312 193.947 7.23312C194.487 7.43312 194.957 7.71313 195.347 8.05313C195.737 8.40313 196.087 8.83312 196.377 9.37312C196.797 10.1031 197.447 10.6231 198.267 10.8831C198.587 10.9831 198.907 11.0331 199.227 11.0331C199.787 11.0331 200.327 10.8731 200.837 10.5531C201.567 10.0831 202.007 9.38313 202.117 8.53313C202.217 7.76313 202.017 6.98313 201.537 6.22313C200.897 5.17313 200.137 4.25312 199.277 3.48312C198.387 2.69312 197.337 2.06312 196.147 1.62312C194.967 1.18312 193.587 0.953125 192.047 0.953125C190.127 0.953125 188.347 1.26313 186.757 1.86313C185.097 2.49313 183.747 3.44312 182.767 4.68312C181.737 5.97312 181.207 7.55313 181.207 9.36313C181.207 11.8231 182.177 13.9031 184.097 15.5631C185.917 17.1331 188.397 18.0831 191.467 18.3831C193.277 18.5731 194.547 19.0331 195.257 19.7531C195.937 20.4431 196.267 21.1931 196.267 22.0231C196.267 22.6431 196.107 23.1231 195.757 23.5231C195.347 24.0031 194.797 24.3531 194.097 24.6231C193.337 24.9031 192.497 25.0431 191.577 25.0431C190.757 25.0431 189.977 24.9231 189.237 24.6731C188.507 24.4331 187.887 24.1131 187.387 23.7231C186.947 23.3831 186.627 23.0231 186.457 22.6631C186.127 21.9631 185.627 21.4231 184.967 21.0631C184.487 20.8031 183.977 20.6631 183.457 20.6631C183.237 20.6631 183.017 20.6831 182.827 20.7331C181.617 20.9731 181.007 21.6531 180.697 22.1831C180.237 22.9831 180.207 23.9131 180.607 24.7431C181.147 26.0131 181.987 27.1331 183.127 28.0931C184.227 29.0131 185.527 29.7431 186.987 30.2531C188.437 30.7531 189.977 31.0131 191.577 31.0131C192.917 31.0131 194.227 30.8331 195.487 30.4831C196.777 30.1231 197.957 29.5631 198.977 28.8231C200.027 28.0631 200.877 27.1031 201.507 25.9731C202.147 24.8131 202.477 23.4531 202.477 21.9231C202.477 19.2831 201.567 17.1031 199.777 15.4631C198.067 13.8931 195.687 12.9431 192.707 12.6431Z" fill="black"/>
<path d="M210.22 0.976562C209.35 0.976562 208.56 1.28657 207.95 1.88657C207.33 2.48657 207 3.28656 207 4.20656V27.7966C207 28.6766 207.32 29.4666 207.93 30.0766C208.54 30.6866 209.33 31.0166 210.21 31.0166C211.12 31.0166 211.92 30.6866 212.53 30.0566C213.11 29.4466 213.42 28.6666 213.42 27.7866V4.19656C213.42 3.29656 213.11 2.49656 212.51 1.89656C211.92 1.28656 211.13 0.976562 210.22 0.976562Z" fill="black"/>
<path d="M276.379 1.90092C275.789 1.29092 274.999 0.960938 274.079 0.960938C273.209 0.960938 272.429 1.27093 271.809 1.87093C271.189 2.47093 270.859 3.27093 270.859 4.19093V19.0009L258.259 2.13094C257.619 1.37094 256.769 0.960938 255.789 0.960938C254.909 0.960938 254.129 1.28094 253.519 1.88094C252.919 2.48094 252.609 3.28092 252.609 4.18092V27.7709C252.609 28.6409 252.919 29.4309 253.509 30.0409C254.109 30.6609 254.899 31.0009 255.789 31.0009C256.709 31.0009 257.509 30.6709 258.109 30.0409C258.689 29.4309 258.999 28.6509 258.999 27.7709V13.0009L271.559 29.8209C271.879 30.2309 272.299 30.5509 272.799 30.7409C273.229 30.9109 273.649 31.0009 274.059 31.0009C274.979 31.0009 275.779 30.6609 276.379 30.0309C276.939 29.4209 277.239 28.6409 277.239 27.7809V4.19093C277.259 3.29093 276.949 2.51092 276.379 1.90092Z" fill="black"/>
<path d="M2.75 31.0209C2.19 31.0209 1.70999 30.8309 1.32999 30.4409C0.939987 30.0609 0.75 29.5809 0.75 29.0209V2.96094C0.75 2.37094 0.939987 1.89094 1.32999 1.52094C1.70999 1.15094 2.19 0.960938 2.75 0.960938H20.15C20.74 0.960938 21.21 1.13093 21.57 1.48093C21.93 1.83093 22.11 2.28094 22.11 2.85094C22.11 3.39094 21.93 3.83093 21.57 4.16093C21.21 4.49093 20.74 4.66093 20.15 4.66093H4.75V14.0109H15.8C16.39 14.0109 16.86 14.1809 17.22 14.5309C17.58 14.8809 17.76 15.3209 17.76 15.8609C17.76 16.4009 17.58 16.8409 17.22 17.1909C16.86 17.5409 16.39 17.7109 15.8 17.7109H4.75V29.0309C4.75 29.5909 4.56001 30.0709 4.17001 30.4509C3.78001 30.8309 3.31 31.0209 2.75 31.0209Z" fill="black"/>
<path d="M40.5172 31.0209C38.3172 31.0209 36.2972 30.6509 34.4772 29.9109C32.6472 29.1709 31.0772 28.1309 29.7672 26.8009C28.4572 25.4609 27.4372 23.8709 26.7072 22.0309C25.9772 20.1909 25.6172 18.1709 25.6172 15.9709C25.6172 13.7709 25.9772 11.7609 26.7072 9.93092C27.4272 8.10092 28.4472 6.52092 29.7672 5.18092C31.0772 3.84092 32.6472 2.80094 34.4772 2.07094C36.3072 1.33094 38.3172 0.960938 40.5172 0.960938C42.7172 0.960938 44.7272 1.33094 46.5372 2.07094C48.3472 2.81094 49.9172 3.85092 51.2472 5.18092C52.5772 6.52092 53.5972 8.10092 54.3272 9.93092C55.0572 11.7609 55.4172 13.7709 55.4172 15.9709C55.4172 18.1709 55.0572 20.1909 54.3272 22.0309C53.5972 23.8709 52.5772 25.4609 51.2472 26.8009C49.9172 28.1409 48.3472 29.1809 46.5372 29.9109C44.7272 30.6509 42.7172 31.0209 40.5172 31.0209ZM40.5172 27.4909C42.1472 27.4909 43.6372 27.2009 44.9972 26.6109C46.3572 26.0209 47.5472 25.2109 48.5472 24.1709C49.5472 23.1309 50.3172 21.9109 50.8572 20.5109C51.3972 19.1109 51.6672 17.6009 51.6672 15.9709C51.6672 14.3409 51.3972 12.8309 50.8572 11.4309C50.3172 10.0309 49.5472 8.81094 48.5472 7.77094C47.5472 6.73094 46.3672 5.93094 44.9972 5.35094C43.6372 4.77094 42.1372 4.49094 40.5172 4.49094C38.8972 4.49094 37.3972 4.78094 36.0372 5.35094C34.6772 5.93094 33.4972 6.73094 32.5072 7.77094C31.5172 8.81094 30.7472 10.0309 30.1972 11.4309C29.6472 12.8309 29.3772 14.3509 29.3772 15.9709C29.3772 17.6009 29.6472 19.1109 30.1972 20.5109C30.7472 21.9109 31.5172 23.1309 32.5072 24.1709C33.4972 25.2109 34.6672 26.0209 36.0372 26.6109C37.3972 27.2009 38.8872 27.4909 40.5172 27.4909Z" fill="black"/>
<path d="M61.9297 31.0269C61.3697 31.0269 60.8897 30.8369 60.5097 30.4469C60.1297 30.0669 59.9297 29.5869 59.9297 29.0269V3.04688C59.9297 2.45688 60.1197 1.97689 60.5097 1.60689C60.8897 1.23689 61.3697 1.04688 61.9297 1.04688H68.8397C70.7597 1.04688 72.4597 1.44688 73.9397 2.25688C75.4197 3.06688 76.5797 4.16689 77.4097 5.57689C78.2397 6.98689 78.6597 8.61688 78.6597 10.4869C78.6597 12.2269 78.2397 13.7769 77.4097 15.1269C76.5797 16.4869 75.4197 17.5469 73.9397 18.3069C72.4597 19.0769 70.7497 19.4569 68.8397 19.4569H63.9297V29.0169C63.9297 29.5769 63.7397 30.0569 63.3697 30.4369C62.9997 30.8369 62.5197 31.0269 61.9297 31.0269ZM63.9297 15.7869H68.8397C70.0197 15.7869 71.0497 15.5669 71.9497 15.1169C72.8497 14.6669 73.5497 14.0469 74.0597 13.2369C74.5697 12.4269 74.8297 11.5169 74.8297 10.4969C74.8297 9.36689 74.5697 8.37688 74.0597 7.50688C73.5497 6.63688 72.8497 5.95688 71.9497 5.47688C71.0497 4.98688 70.0197 4.74689 68.8397 4.74689H63.9297V15.7869ZM77.8597 31.0269C77.4997 31.0269 77.1797 30.9469 76.8797 30.7969C76.5897 30.6469 76.3397 30.3969 76.1297 30.0669L69.2197 18.9369L73.0997 17.8269L79.3897 27.9569C79.8497 28.6969 79.9097 29.3969 79.5797 30.0469C79.2497 30.6969 78.6797 31.0269 77.8597 31.0269Z" fill="black"/>
<path d="M97.7166 31.0266C95.6866 31.0266 93.7966 30.6466 92.0366 29.8866C90.2766 29.1266 88.7366 28.0566 87.4166 26.6966C86.1066 25.3366 85.0765 23.7366 84.3365 21.9166C83.5965 20.0866 83.2266 18.1166 83.2266 15.9866C83.2266 13.8866 83.5965 11.9266 84.3365 10.1166C85.0765 8.30656 86.0966 6.71656 87.4166 5.34656C88.7266 3.98656 90.2665 2.91657 92.0165 2.13657C93.7665 1.35657 95.6666 0.976562 97.7166 0.976562C99.6466 0.976562 101.297 1.22656 102.687 1.72656C104.077 2.22656 105.467 3.05656 106.867 4.20656C107.067 4.35656 107.227 4.51656 107.337 4.67656C107.447 4.83656 107.527 5.00656 107.567 5.16656C107.607 5.32656 107.627 5.52657 107.627 5.74657C107.627 6.21657 107.457 6.62656 107.117 6.94656C106.777 7.27656 106.367 7.44657 105.877 7.46657C105.387 7.49657 104.937 7.32656 104.507 6.97656C103.577 6.17656 102.627 5.56657 101.637 5.13657C100.647 4.71657 99.3366 4.49657 97.7166 4.49657C96.2366 4.49657 94.8565 4.79656 93.5565 5.39656C92.2565 5.99656 91.1066 6.82656 90.1266 7.87656C89.1366 8.92656 88.3666 10.1466 87.8166 11.5366C87.2666 12.9266 86.9966 14.4066 86.9966 15.9866C86.9966 17.5866 87.2666 19.0866 87.8166 20.4666C88.3666 21.8566 89.1366 23.0766 90.1266 24.1266C91.1166 25.1766 92.2565 25.9966 93.5565 26.5866C94.8565 27.1766 96.2466 27.4666 97.7166 27.4666C98.9966 27.4666 100.197 27.2466 101.337 26.8066C102.477 26.3666 103.567 25.7666 104.617 24.9866C105.067 24.6566 105.507 24.5166 105.947 24.5566C106.387 24.5966 106.757 24.7666 107.057 25.0766C107.357 25.3866 107.507 25.8166 107.507 26.3666C107.507 26.6166 107.467 26.8566 107.377 27.0966C107.287 27.3366 107.137 27.5566 106.907 27.7566C105.577 28.8566 104.147 29.6766 102.587 30.2166C101.047 30.7566 99.4166 31.0266 97.7166 31.0266ZM107.517 26.3766L103.767 25.6266V18.9066H98.5865C98.0365 18.9066 97.5766 18.7466 97.1966 18.4166C96.8166 18.0966 96.6366 17.6766 96.6366 17.1766C96.6366 16.6766 96.8266 16.2666 97.1966 15.9366C97.5766 15.6166 98.0365 15.4466 98.5865 15.4466H105.607C106.187 15.4466 106.647 15.6266 106.997 15.9866C107.347 16.3466 107.517 16.8166 107.517 17.3966V26.3766Z" fill="black"/>
<path d="M114.062 31.0209C113.502 31.0209 113.023 30.8309 112.643 30.4409C112.263 30.0609 112.062 29.5809 112.062 29.0209V2.96094C112.062 2.37094 112.253 1.89094 112.643 1.52094C113.033 1.15094 113.502 0.960938 114.062 0.960938H131.462C132.052 0.960938 132.523 1.13093 132.893 1.48093C133.253 1.83093 133.432 2.28094 133.432 2.85094C133.432 3.39094 133.253 3.83093 132.893 4.16093C132.533 4.49093 132.052 4.66093 131.462 4.66093H116.062V14.0109H127.112C127.702 14.0109 128.173 14.1809 128.543 14.5309C128.903 14.8809 129.082 15.3209 129.082 15.8609C129.082 16.4009 128.903 16.8409 128.543 17.1909C128.183 17.5409 127.702 17.7109 127.112 17.7109H116.062V27.3309H131.462C132.052 27.3309 132.523 27.5009 132.893 27.8309C133.253 28.1609 133.432 28.6009 133.432 29.1409C133.432 29.7009 133.253 30.1609 132.893 30.5109C132.533 30.8609 132.052 31.0309 131.462 31.0309H114.062V31.0209Z" fill="black"/>
<path d="M248.081 15.0728C248.021 14.1328 247.221 13.4128 246.281 13.4728C245.341 13.5328 244.621 14.3328 244.681 15.2728C244.881 18.5928 243.641 21.8428 241.281 24.2028C236.731 28.7528 229.331 28.7528 224.781 24.2028C220.231 19.6528 220.231 12.2528 224.781 7.70275C226.631 5.85275 229.101 4.66276 231.721 4.36276C232.661 4.25276 233.331 3.41276 233.221 2.47276C233.111 1.53276 232.271 0.862757 231.331 0.972757C227.941 1.36276 224.761 2.89275 222.371 5.29275C216.491 11.1727 216.491 20.7328 222.371 26.6128C228.251 32.4928 237.821 32.4928 243.691 26.6128C246.731 23.5628 248.341 19.3628 248.081 15.0728Z" fill="black"/>
<path d="M233.242 5.42188C227.542 5.42188 222.922 10.0419 222.922 15.7419C222.922 21.4419 227.542 26.0619 233.242 26.0619C238.942 26.0619 243.562 21.4419 243.562 15.7419C243.552 10.0419 238.932 5.42188 233.242 5.42188ZM230.802 14.6419C228.692 14.6419 226.982 12.9319 226.982 10.8219C226.982 8.71188 228.692 7.00188 230.802 7.00188C232.912 7.00188 234.622 8.71188 234.622 10.8219C234.632 12.9319 232.922 14.6419 230.802 14.6419Z" fill="#00ACFF"/>
</svg>
