<svg width="363" height="298" viewBox="0 0 363 298" fill="none" xmlns="http://www.w3.org/2000/svg">
<path d="M79.9891 101.82L89.7731 107.475L79.9881 113.127L70.2031 107.472L79.9891 101.82Z" fill="#D1EBFF"/>
<path d="M89.7822 171.386L79.9922 177.038V113.121L89.7822 107.469V171.386Z" fill="#72B5E8"/>
<path d="M79.9931 177.038L70.2031 171.386V107.469L79.9931 113.121V177.038Z" fill="#A8CFF0"/>
<path d="M63.9344 122.539L73.7184 128.194L63.9334 133.846L54.1484 128.19L63.9344 122.539Z" fill="#D1EBFF"/>
<path d="M73.7275 180.261L63.9375 185.913V133.84L73.7275 128.188V180.261Z" fill="#72B5E8"/>
<path d="M63.9384 185.913L54.1484 180.261V128.188L63.9384 133.84V185.913Z" fill="#A8CFF0"/>
<path d="M48.1444 146.297L57.9284 151.953L48.1434 157.605L38.3594 151.949L48.1444 146.297Z" fill="#D1EBFF"/>
<path d="M57.9384 189.297L48.1484 194.949V157.597L57.9384 151.945V189.297Z" fill="#72B5E8"/>
<path d="M48.1494 194.949L38.3594 189.297V151.945L48.1494 157.597V194.949Z" fill="#A8CFF0"/>
<path d="M32.0048 171.523L41.7888 177.179L32.0038 182.831L22.2188 177.175L32.0048 171.523Z" fill="#D1EBFF"/>
<path d="M41.7978 198.337L32.0078 203.989V182.824L41.7978 177.172V198.337Z" fill="#72B5E8"/>
<path d="M32.0088 203.989L22.2188 198.337V177.172L32.0088 182.824V203.989Z" fill="#A8CFF0"/>
<path d="M214.659 36.2674C190.883 22.5404 169.231 20.4674 152.98 28.1684L139.906 35.5745L139.908 35.6414C156.125 28.1054 177.66 30.2405 201.292 43.8835C251.736 73.0075 292.63 143.542 292.63 201.426C292.63 229.523 282.994 249.473 267.308 259.237L276.073 254.115C294.456 245.556 305.997 224.561 305.997 193.81C305.996 135.925 265.103 65.3914 214.659 36.2674Z" fill="#001A46"/>
<path d="M201.291 43.88C150.847 14.756 109.953 38.071 109.953 95.956C109.953 153.841 150.846 224.375 201.291 253.499C251.735 282.623 292.629 259.308 292.629 201.423C292.629 143.539 251.735 73.005 201.291 43.88Z" fill="url(#paint0_linear_5214_5096)"/>
<path d="M202.644 43.1094C177.062 28.3394 153.94 27.0644 137.359 36.9374C153.834 27.9164 176.397 29.5104 201.291 43.8834C251.735 73.0074 292.629 143.541 292.629 201.426C292.629 229.955 282.691 250.079 266.577 259.674C283.487 250.415 293.982 229.972 293.982 200.653C293.981 142.768 253.088 72.2334 202.644 43.1094Z" fill="#084C94"/>
<path d="M266.285 259.853C301.73 239.131 301.367 172.561 265.474 111.165C229.581 49.7695 171.75 16.7967 136.304 37.5186C100.859 58.2406 101.222 124.81 137.115 186.206C173.008 247.602 230.84 280.575 266.285 259.853Z" fill="#03336E"/>
<path d="M262.765 253.839C296.291 234.239 295.948 171.273 261.998 113.201C228.048 55.1297 173.348 23.9422 139.822 43.5423C106.296 63.1423 106.639 126.108 140.589 184.179C174.538 242.251 229.239 273.439 262.765 253.839Z" fill="#E3F3FF"/>
<path d="M253.904 238.681C282.598 221.906 282.304 168.016 253.248 118.315C224.192 68.6135 177.376 41.9214 148.682 58.6965C119.988 75.4715 120.281 129.361 149.338 179.062C178.394 228.764 225.21 255.456 253.904 238.681Z" fill="#72B5E8"/>
<path d="M243.935 221.631C267.192 208.034 266.954 164.355 243.403 124.071C219.853 83.7865 181.907 62.1518 158.65 75.7484C135.393 89.345 135.631 133.024 159.182 173.308C182.733 213.593 220.678 235.227 243.935 221.631Z" fill="#E3F3FF"/>
<path d="M234.519 205.522C252.641 194.928 252.456 160.892 234.104 129.502C215.753 98.1118 186.185 81.2535 168.063 91.8481C149.941 102.443 150.127 136.478 168.478 167.868C186.829 199.259 216.397 216.117 234.519 205.522Z" fill="#72B5E8"/>
<path d="M225.665 190.37C238.955 182.601 238.819 157.642 225.361 134.622C211.904 111.603 190.221 99.2406 176.931 107.01C163.641 114.78 163.777 139.739 177.234 162.758C190.692 185.778 212.375 198.14 225.665 190.37Z" fill="#E3F3FF"/>
<path d="M202.624 246.998C154.911 219.451 116.231 152.735 116.231 97.9844C116.231 71.8464 125.051 53.1674 139.457 43.7734C124.263 52.8684 114.898 71.8824 114.898 98.8184C114.898 153.569 153.577 220.284 201.291 247.832C226.226 262.228 248.689 263.071 264.458 252.787C248.768 262.179 226.864 260.993 202.624 246.998Z" fill="#A8CFF0"/>
<path d="M202.63 216.631C169.531 197.521 142.7 151.241 142.7 113.261C142.7 95.0598 148.873 82.0858 158.935 75.5938C148.081 81.7737 141.367 95.0958 141.367 114.095C141.367 152.075 168.199 198.356 201.297 217.465C218.534 227.417 234.06 228.018 244.993 220.963C234.148 227.137 219.172 226.182 202.63 216.631Z" fill="#A8CFF0"/>
<path d="M202.626 187.156C183.712 176.236 168.38 149.79 168.38 128.087C168.38 117.969 171.715 110.671 177.189 106.867C170.928 110.373 167.047 118.005 167.047 128.921C167.047 150.624 182.379 177.07 201.293 187.99C211.389 193.819 220.462 194.042 226.73 189.686C220.541 193.149 212.027 192.583 202.626 187.156Z" fill="#A8CFF0"/>
<path d="M216.25 174.264C224.404 169.496 224.321 154.18 216.063 140.054C207.804 125.929 194.499 118.342 186.344 123.11C178.189 127.877 178.273 143.193 186.531 157.319C194.789 171.445 208.095 179.031 216.25 174.264Z" fill="#103040"/>
<path opacity="0.5" d="M203.328 149.129C203.328 150.08 202.656 150.462 201.828 149.984C201 149.506 200.328 148.347 200.328 147.397C200.328 146.446 201 146.064 201.828 146.542C202.656 147.02 203.328 148.179 203.328 149.129Z" fill="#231F20"/>
<path d="M201.291 124.576C196.042 121.546 191.246 120.99 187.562 122.515C191.026 121.629 195.286 122.381 199.894 125.041C211.5 131.742 220.908 147.97 220.908 161.288C220.908 168.583 218.081 173.484 213.621 175.33C218.881 173.984 222.304 168.852 222.304 160.822C222.306 147.505 212.897 131.277 201.291 124.576Z" fill="#103040"/>
<path d="M11.7746 259.497L3.59162 258.394C-0.884377 257.791 -1.30438 251.48 3.05262 250.289L48.9256 237.75L11.7746 259.497Z" fill="#103040"/>
<path d="M12.0921 258.696L3.90916 257.593C1.07216 257.211 -0.128849 254.537 0.476151 252.326C-0.719849 254.635 0.39515 257.964 3.58815 258.394L11.7712 259.497L48.9222 237.75L46.9562 238.288L12.0921 258.696Z" fill="#1E3D4C"/>
<path opacity="0.5" d="M3.78868 257.83L11.9717 258.933L47.4797 238.148L46.9597 238.29L12.0957 258.699L3.91271 257.596C1.07571 257.214 -0.125306 254.54 0.479694 252.329C0.431694 252.422 0.39271 252.519 0.35271 252.615C-0.22529 254.816 0.972685 257.45 3.78868 257.83Z" fill="white"/>
<path d="M202.492 148.57C202.492 148.754 202.428 148.885 202.325 148.948C202.325 148.948 197.674 155.279 186.287 161.875C170.02 171.297 167.417 171.932 167.417 171.932C166.979 172.177 167.254 171.631 166.6 171.253C165.284 170.493 164.217 168.653 164.217 167.142C164.217 166.395 163.527 166.389 163.949 166.14C163.949 166.14 165.832 164.298 182.12 154.877C193.545 148.268 201.479 147.497 201.479 147.497C201.588 147.438 201.734 147.449 201.896 147.542C202.225 147.732 202.492 148.192 202.492 148.57Z" fill="#FFCC00"/>
<path d="M168.016 170.446C168.016 171.956 166.949 172.565 165.633 171.805C164.317 171.045 163.25 169.204 163.25 167.694C163.25 166.184 164.317 165.575 165.633 166.335C166.949 167.095 168.016 168.935 168.016 170.446Z" fill="#FFDE17"/>
<path d="M167.54 170.495C167.54 171.199 167.297 171.698 166.902 171.94L9.25435 264.282C8.84335 264.512 9.10637 263.99 8.48137 263.63C7.22437 262.905 6.20635 261.147 6.20635 259.706C6.20635 258.993 5.54737 258.987 5.95137 258.749C5.95137 258.749 163.666 166.402 163.677 166.395C164.087 166.173 164.647 166.214 165.265 166.571C166.521 167.296 167.54 169.053 167.54 170.495Z" fill="#2672AB"/>
<path d="M9.83127 262.854C9.83127 264.296 8.81227 264.877 7.55627 264.151C6.29927 263.426 5.28125 261.669 5.28125 260.227C5.28125 258.785 6.30027 258.204 7.55627 258.93C8.81327 259.655 9.83127 261.412 9.83127 262.854Z" fill="#3F92D1"/>
<path d="M10.4049 256.495L48.3489 234.635L18.7359 232.21C7.64389 231.302 0.750893 243.998 7.55489 252.806L10.4049 256.495Z" fill="#1E3D4C"/>
<path d="M11.0065 256.37L48.9505 234.51L19.3375 232.085C8.24545 231.177 1.35246 243.873 8.15646 252.68L11.0065 256.37Z" fill="#103040"/>
<path opacity="0.5" d="M8.71645 252.921C1.91245 244.114 8.80545 231.417 19.8975 232.325L48.6545 234.68L48.9495 234.51L19.3375 232.085C8.24545 231.177 1.35246 243.874 8.15646 252.681L11.0065 256.37L11.2665 256.22L8.71645 252.921Z" fill="white"/>
<path d="M12.8125 260.95L13.7435 264.298C16.2285 273.232 28.1205 275.002 33.0985 267.178L50.7565 239.43L12.8125 260.95Z" fill="#1E3D4C"/>
<path d="M13.3984 260.465L14.3294 263.813C16.8144 272.747 28.7064 274.517 33.6844 266.693L51.3414 238.945L13.3984 260.465Z" fill="#103040"/>
<path opacity="0.5" d="M34.0054 266.133C29.0264 273.956 17.1344 272.186 14.6504 263.253L13.8104 260.232L13.3984 260.465L14.3294 263.813C16.8144 272.747 28.7054 274.517 33.6844 266.694L51.3414 238.945L51.2844 238.978L34.0054 266.133Z" fill="white"/>
<path d="M347.794 98.9894L352.624 96.6384L327.593 44.8594L322.703 47.5624L347.794 98.9894Z" fill="#72B5E8"/>
<path d="M333.094 151.531L337.924 149.18V145.547L333.094 147.898V151.531Z" fill="#72B5E8"/>
<path d="M312.43 135.968L317.26 133.617L337.924 145.547L333.094 147.898L312.43 135.968Z" fill="#D1EBFF"/>
<path d="M312.43 124.312L317.26 121.961L337.924 133.891L333.094 136.242L312.43 124.312Z" fill="#D1EBFF"/>
<path d="M312.43 132.713L333.094 144.643V136.164L312.43 124.234V132.713Z" fill="#A8CFF0"/>
<path d="M312.43 139.602L333.094 151.532V147.899L312.43 135.969V139.602Z" fill="#A8CFF0"/>
<path d="M333.094 144.643L337.924 142.292V133.812L333.094 136.164V144.643Z" fill="#72B5E8"/>
<path d="M333.094 133.3L337.924 130.949V88.1562L333.094 90.5072V133.3Z" fill="#72B5E8"/>
<path d="M344.095 143.903C343.819 143.903 343.595 143.679 343.595 143.403V141.403C343.595 141.127 343.819 140.903 344.095 140.903C344.371 140.903 344.595 141.127 344.595 141.403V143.403C344.595 143.679 344.372 143.903 344.095 143.903ZM344.095 138.903C343.819 138.903 343.595 138.679 343.595 138.403V136.403C343.595 136.127 343.819 135.903 344.095 135.903C344.371 135.903 344.595 136.127 344.595 136.403V138.403C344.595 138.68 344.372 138.903 344.095 138.903ZM344.095 133.903C343.819 133.903 343.595 133.679 343.595 133.403V131.403C343.595 131.127 343.819 130.903 344.095 130.903C344.371 130.903 344.595 131.127 344.595 131.403V133.403C344.595 133.68 344.372 133.903 344.095 133.903ZM344.095 128.903C343.819 128.903 343.595 128.679 343.595 128.403V126.403C343.595 126.127 343.819 125.903 344.095 125.903C344.371 125.903 344.595 126.127 344.595 126.403V128.403C344.595 128.68 344.372 128.903 344.095 128.903ZM344.095 123.903C343.819 123.903 343.595 123.679 343.595 123.403V121.403C343.595 121.127 343.819 120.903 344.095 120.903C344.371 120.903 344.595 121.127 344.595 121.403V123.403C344.595 123.68 344.372 123.903 344.095 123.903ZM344.095 118.903C343.819 118.903 343.595 118.679 343.595 118.403V116.403C343.595 116.127 343.819 115.903 344.095 115.903C344.371 115.903 344.595 116.127 344.595 116.403V118.403C344.595 118.68 344.372 118.903 344.095 118.903ZM344.095 113.903C343.819 113.903 343.595 113.679 343.595 113.403V111.403C343.595 111.127 343.819 110.903 344.095 110.903C344.371 110.903 344.595 111.127 344.595 111.403V113.403C344.595 113.68 344.372 113.903 344.095 113.903ZM359.484 109.84C359.229 109.84 359.011 109.646 358.987 109.386C358.962 109.111 359.164 108.867 359.438 108.842C359.967 108.793 360.482 108.528 360.852 108.116C361.037 107.91 361.353 107.894 361.558 108.077C361.763 108.262 361.781 108.578 361.596 108.783C361.053 109.389 360.32 109.764 359.532 109.838C359.516 109.839 359.5 109.84 359.484 109.84ZM344.095 108.903C343.819 108.903 343.595 108.679 343.595 108.403V106.403C343.595 106.127 343.819 105.903 344.095 105.903C344.371 105.903 344.595 106.127 344.595 106.403V108.403C344.595 108.68 344.372 108.903 344.095 108.903ZM356.736 108.796C356.651 108.796 356.565 108.775 356.486 108.729L354.753 107.729C354.514 107.591 354.432 107.285 354.57 107.046C354.708 106.807 355.014 106.726 355.253 106.863L356.986 107.863C357.225 108.001 357.307 108.307 357.169 108.546C357.077 108.706 356.908 108.796 356.736 108.796ZM352.405 106.296C352.32 106.296 352.234 106.275 352.155 106.229L350.424 105.229C350.185 105.091 350.103 104.785 350.241 104.546C350.379 104.306 350.685 104.227 350.924 104.363L352.655 105.363C352.894 105.501 352.976 105.807 352.838 106.046C352.746 106.207 352.577 106.296 352.405 106.296ZM361.678 106.151C361.487 106.151 361.303 106.04 361.221 105.853L360.36 104.067C360.24 103.819 360.344 103.519 360.592 103.399C360.841 103.28 361.141 103.384 361.26 103.631L362.135 105.448C362.247 105.701 362.132 105.996 361.88 106.108C361.815 106.137 361.746 106.151 361.678 106.151ZM344.095 103.903C343.819 103.903 343.595 103.679 343.595 103.403V101.403C343.595 101.127 343.819 100.903 344.095 100.903C344.371 100.903 344.595 101.127 344.595 101.403V103.403C344.595 103.68 344.372 103.903 344.095 103.903ZM348.075 103.796C347.99 103.796 347.904 103.775 347.825 103.729L346.094 102.729C345.855 102.591 345.773 102.285 345.911 102.046C346.048 101.807 346.355 101.727 346.594 101.863L348.325 102.863C348.564 103.001 348.646 103.307 348.508 103.546C348.416 103.707 348.247 103.796 348.075 103.796ZM359.505 101.648C359.32 101.648 359.141 101.544 359.055 101.365L358.185 99.5645C358.065 99.3155 358.169 99.0165 358.417 98.8965C358.666 98.7785 358.966 98.8805 359.085 99.1285L359.955 100.93C360.075 101.179 359.971 101.478 359.723 101.598C359.652 101.632 359.578 101.648 359.505 101.648ZM357.329 97.1465C357.144 97.1465 356.965 97.0425 356.879 96.8645L356.009 95.0635C355.889 94.8145 355.993 94.5165 356.241 94.3965C356.49 94.2785 356.79 94.3795 356.909 94.6295L357.779 96.4295C357.899 96.6785 357.795 96.9775 357.547 97.0975C357.476 97.1305 357.402 97.1465 357.329 97.1465ZM355.153 92.6445C354.968 92.6445 354.789 92.5405 354.703 92.3625L353.832 90.5615C353.712 90.3125 353.815 90.0135 354.064 89.8935C354.313 89.7755 354.613 89.8775 354.732 90.1255L355.603 91.9265C355.723 92.1745 355.62 92.4745 355.371 92.5945C355.3 92.6285 355.226 92.6445 355.153 92.6445ZM352.976 88.1425C352.79 88.1425 352.612 88.0385 352.526 87.8605L351.656 86.0605C351.536 85.8115 351.64 85.5125 351.888 85.3925C352.137 85.2745 352.437 85.3765 352.556 85.6245L353.426 87.4245C353.546 87.6735 353.442 87.9725 353.194 88.0925C353.124 88.1265 353.049 88.1425 352.976 88.1425ZM350.8 83.6415C350.614 83.6415 350.436 83.5375 350.35 83.3595L349.479 81.5585C349.359 81.3105 349.462 81.0105 349.711 80.8905C349.961 80.7715 350.26 80.8745 350.379 81.1225L351.25 82.9235C351.37 83.1715 351.267 83.4715 351.018 83.5915C350.948 83.6255 350.874 83.6415 350.8 83.6415ZM348.624 79.1395C348.439 79.1395 348.26 79.0355 348.174 78.8575L347.304 77.0565C347.184 76.8075 347.288 76.5085 347.536 76.3885C347.785 76.2705 348.085 76.3725 348.204 76.6205L349.074 78.4215C349.194 78.6705 349.09 78.9695 348.842 79.0895C348.771 79.1235 348.697 79.1395 348.624 79.1395ZM346.448 74.6385C346.262 74.6385 346.084 74.5345 345.998 74.3565L345.128 72.5555C345.008 72.3065 345.112 72.0085 345.36 71.8875C345.609 71.7695 345.909 71.8715 346.028 72.1205L346.898 73.9215C347.018 74.1705 346.914 74.4685 346.666 74.5885C346.595 74.6225 346.521 74.6385 346.448 74.6385ZM344.272 70.1365C344.086 70.1365 343.909 70.0325 343.822 69.8545L342.951 68.0545C342.831 67.8065 342.934 67.5075 343.183 67.3865C343.433 67.2685 343.73 67.3705 343.851 67.6185L344.722 69.4185C344.842 69.6675 344.739 69.9655 344.49 70.0865C344.419 70.1205 344.345 70.1365 344.272 70.1365ZM342.095 65.6345C341.91 65.6345 341.731 65.5305 341.645 65.3525L340.775 63.5515C340.655 63.3025 340.759 63.0035 341.007 62.8835C341.256 62.7645 341.556 62.8675 341.675 63.1165L342.545 64.9165C342.665 65.1655 342.561 65.4645 342.313 65.5845C342.243 65.6185 342.169 65.6345 342.095 65.6345ZM339.919 61.1335C339.734 61.1335 339.555 61.0295 339.469 60.8505L338.599 59.0505C338.479 58.8015 338.583 58.5025 338.831 58.3825C339.08 58.2635 339.38 58.3665 339.499 58.6145L340.369 60.4155C340.489 60.6645 340.385 60.9625 340.137 61.0825C340.067 61.1175 339.993 61.1335 339.919 61.1335ZM337.744 56.6315C337.558 56.6315 337.38 56.5275 337.294 56.3495L336.423 54.5485C336.303 54.2995 336.406 54.0005 336.655 53.8805C336.905 53.7625 337.204 53.8645 337.323 54.1125L338.194 55.9135C338.314 56.1615 338.211 56.4615 337.961 56.5815C337.891 56.6155 337.817 56.6315 337.744 56.6315ZM335.567 52.1305C335.381 52.1305 335.203 52.0265 335.117 51.8485L334.247 50.0485C334.127 49.7995 334.231 49.5005 334.479 49.3805C334.727 49.2625 335.028 49.3645 335.147 49.6125L336.017 51.4125C336.137 51.6615 336.033 51.9605 335.785 52.0805C335.714 52.1135 335.64 52.1305 335.567 52.1305ZM333.391 47.6285C333.206 47.6285 333.027 47.5245 332.941 47.3465L332.07 45.5455C331.95 45.2975 332.053 44.9975 332.302 44.8775C332.552 44.7585 332.85 44.8615 332.97 45.1095L333.841 46.9105C333.961 47.1585 333.858 47.4585 333.609 47.5785C333.539 47.6125 333.464 47.6285 333.391 47.6285ZM331.214 43.1275C331.028 43.1275 330.85 43.0235 330.764 42.8455L329.894 41.0445C329.774 40.7965 329.878 40.4975 330.126 40.3775C330.376 40.2585 330.675 40.3615 330.794 40.6105L331.664 42.4105C331.784 42.6595 331.68 42.9585 331.432 43.0785C331.362 43.1115 331.288 43.1275 331.214 43.1275Z" fill="#A8CFF0"/>
<path d="M312.433 78.5739V121.367L333.097 133.297V90.5039L347.796 98.9899L322.765 47.2109L297.734 70.0869L312.433 78.5739Z" fill="#A8CFF0"/>
<defs>
<linearGradient id="paint0_linear_5214_5096" x1="109.954" y1="95.9542" x2="292.629" y2="95.9542" gradientUnits="userSpaceOnUse">
<stop stop-color="#311B61"/>
<stop offset="0.2031" stop-color="#290F52"/>
<stop offset="0.4949" stop-color="#200041"/>
<stop offset="1" stop-color="#0F001F"/>
</linearGradient>
</defs>
</svg>
