<svg width="32" height="24" viewBox="0 0 32 24" fill="none" xmlns="http://www.w3.org/2000/svg">
<path d="M29.1236 1.94118C30.9213 3.88235 32 6 32 9.52941C32 15.7059 27.5056 21.1765 21.2135 24L19.5955 21.7059C25.5281 18.5294 26.7865 14.4706 27.1461 11.8235C26.2472 12.3529 24.9888 12.5294 23.7303 12.3529C20.4944 12 17.9775 9.52941 17.9775 6.17647C17.9775 4.58824 18.6966 3 19.7753 1.76471C21.0337 0.529412 22.4719 0 24.2697 0C26.2472 0 28.0449 0.882354 29.1236 1.94118ZM11.1461 1.94118C12.9438 3.88235 14.0225 6 14.0225 9.52941C14.0225 15.7059 9.52809 21.1765 3.23596 24L1.61798 21.7059C7.55056 18.5294 8.80899 14.4706 9.16854 11.8235C8.26966 12.3529 7.01124 12.5294 5.75281 12.3529C2.51685 12 0 9.35294 0 6.17647C0 4.58824 0.719101 3 1.79775 1.76471C3.05618 0.529412 4.49438 0 6.29214 0C8.26966 0 10.0674 0.882354 11.1461 1.94118Z" fill="#103040"/>
</svg>
