<svg width="48" height="48" viewBox="0 0 48 48" fill="none" xmlns="http://www.w3.org/2000/svg">
<path d="M44.8443 6.7178C44.7581 6.09893 44.3129 5.58986 43.7109 5.42254L24.4189 0.0574118C24.1439 -0.0191373 23.8534 -0.0191373 23.5781 0.0574118L4.28609 5.42254C3.68415 5.58986 3.23887 6.09872 3.1527 6.7178C3.04081 7.52241 0.488129 26.5333 7.03558 35.9907C13.5753 45.4368 23.2228 47.8575 23.6302 47.956C23.7513 47.9853 23.8747 47.9997 23.9985 47.9997C24.1223 47.9997 24.2457 47.985 24.3668 47.956C24.7745 47.8575 34.4219 45.4368 40.9614 35.9907C47.5089 26.5335 44.9562 7.52261 44.8443 6.7178ZM36.4394 17.8166L23.2803 30.9757C22.9741 31.2819 22.5725 31.4352 22.1712 31.4352C21.7698 31.4352 21.3682 31.2821 21.062 30.9757L12.9259 22.8395C12.6316 22.5455 12.4664 22.1464 12.4664 21.7304C12.4664 21.3144 12.6318 20.9153 12.9259 20.6213L14.5414 19.0058C15.154 18.3934 16.1472 18.3932 16.7596 19.0058L22.1712 24.4174L32.6057 13.9826C32.8997 13.6884 33.2988 13.5231 33.7148 13.5231C34.1308 13.5231 34.5299 13.6884 34.8239 13.9826L36.4394 15.5981C37.052 16.2107 37.052 17.204 36.4394 17.8166Z" fill="url(#paint0_linear_4984_4270)"/>
<defs>
<linearGradient id="paint0_linear_4984_4270" x1="8.57021" y1="43.0283" x2="51.9202" y2="-1.26731" gradientUnits="userSpaceOnUse">
<stop stop-color="#103040"/>
<stop offset="1" stop-color="#4C7D8E"/>
</linearGradient>
</defs>
</svg>
