<svg width="100" height="100" viewBox="0 0 100 100" fill="none" xmlns="http://www.w3.org/2000/svg">
<path d="M14.8438 75H20.625V98.4375H14.8438C13.9063 98.4375 13.2812 97.8125 13.2812 96.875V76.5625C13.2812 75.625 14.0625 75 14.8438 75ZM85.625 76.0938L60.1563 96.25C59.2188 96.875 57.9688 97.1875 56.7188 96.875L31.5625 91.4063H31.4063C29.6875 91.0938 27.9687 91.5625 26.25 92.5L23.75 94.0625V79.0625L34.375 72.6563C35.3125 72.3438 36.25 72.3438 37.1875 72.6563L59.8438 80.7813C61.875 81.5625 62.6563 83.9063 61.4063 85.7813C60.4688 87.0313 58.9063 87.5 57.3438 86.875L43.9063 81.5625C43.125 81.25 42.1875 81.7188 41.875 82.5C41.5625 83.2813 42.0313 84.2188 42.8125 84.5313L56.25 89.6875C59.0625 90.9375 62.1875 90 63.9063 87.6563C65.1563 85.9375 65.625 83.75 64.6875 81.5625L79.5313 72.6563C81.0938 71.7188 82.9688 71.4062 84.6875 72.0312C87.0313 72.8125 87.1875 75 85.625 76.0938ZM71.25 61.4063C71.25 63.9063 69.2188 66.0938 66.5625 66.0938H52.3438C49.8438 66.0938 47.6563 64.0625 47.6563 61.4063C47.6563 58.9063 49.6875 56.7188 52.3438 56.7188H66.5625C69.2188 56.875 71.25 58.9063 71.25 61.4063Z" fill="#01AAFF"/>
<path d="M52.3437 69.2187H51.7187L51.875 70.9375C52.0313 71.7188 52.6563 72.3437 53.4375 72.3437H65.625C66.4062 72.3437 67.0312 71.7188 67.1875 70.9375L67.3437 69.0625H52.3437V69.2187ZM58.4375 14.2188C47.3438 14.6875 38.125 24.2188 37.9687 35.3125C37.8125 47.9688 47.5 52.9688 48.5937 54.5313C49.6875 53.9063 50.9375 53.5937 52.1875 53.5937C65.3125 53.9062 67.1875 52.9688 70 54.5313C70.3125 54.0625 70.7812 53.5937 71.4062 53.2812C77.1875 49.2187 80.7812 42.6562 80.7812 35.625C80.9375 23.5937 70.7813 13.75 58.4375 14.2188ZM71.5625 37.1875C70.625 37.1875 70 36.5625 70 35.625C70 29.6875 65 24.8438 59.0625 25.1563C58.125 25.1563 57.5 24.5313 57.5 23.5938C57.5 22.6563 58.125 22.0313 59.0625 22.0313C66.875 21.7188 73.2812 27.9687 73.2812 35.625C73.125 36.5625 72.3437 37.1875 71.5625 37.1875ZM59.5312 10.7813C58.5937 10.7813 57.9687 10.1563 57.9687 9.21875V3.125C57.9687 2.1875 58.5937 1.5625 59.5312 1.5625C60.4687 1.5625 61.0937 2.1875 61.0937 3.125V9.21875C61.0937 10.1563 60.3125 10.7813 59.5312 10.7813ZM48.4375 11.5625L46.0937 5.9375C45.7812 5.15625 46.0937 4.21875 46.875 3.90625C47.6562 3.59375 48.5937 3.90625 48.9062 4.6875L51.25 10.3125C51.5625 11.0937 51.25 12.0313 50.4687 12.3438C49.6875 12.8125 48.75 12.5 48.4375 11.5625ZM40.625 17.5L36.25 13.125C35.625 12.5 35.625 11.5625 36.25 10.9375C36.875 10.3125 37.8125 10.3125 38.4375 10.9375L42.8125 15.3125C43.4375 15.9375 43.4375 16.875 42.8125 17.5C42.1875 18.125 41.25 18.125 40.625 17.5ZM76.0937 17.8125C75.4687 17.1875 75.4687 16.25 76.0937 15.625L80.4687 11.25C81.0937 10.625 82.0312 10.625 82.6562 11.25C83.2813 11.875 83.2813 12.8125 82.6562 13.4375L78.2812 17.8125C77.6562 18.4375 76.7187 18.4375 76.0937 17.8125ZM68.4375 12.6563C67.6562 12.3438 67.1875 11.4063 67.6562 10.625L70 5C70.3125 4.21875 71.25 3.75 72.0312 4.21875C72.8125 4.53125 73.2812 5.46875 72.8125 6.25L70.4687 11.875C70.1562 12.6562 69.2187 12.9688 68.4375 12.6563Z" fill="#01AAFF"/>
</svg>
