<svg version="1.1" xmlns="http://www.w3.org/2000/svg" style="display: block;" viewBox="0 0 2048 2048" width="512" height="512">
<defs>
	<linearGradient id="Gradient1" gradientUnits="userSpaceOnUse" x1="1139.14" y1="725.763" x2="1127.07" y2="740.983">
		<stop class="stop0" offset="0" stop-opacity="1" stop-color="rgb(246,195,7)"/>
		<stop class="stop1" offset="1" stop-opacity="1" stop-color="rgb(255,163,16)"/>
	</linearGradient>
	<linearGradient id="Gradient2" gradientUnits="userSpaceOnUse" x1="309.218" y1="587.256" x2="376.504" y2="850.037">
		<stop class="stop0" offset="0" stop-opacity="1" stop-color="rgb(1,0,1)"/>
		<stop class="stop1" offset="1" stop-opacity="1" stop-color="rgb(4,23,44)"/>
	</linearGradient>
</defs>
<path transform="translate(0,0)" fill="rgb(253,254,254)" d="M 438.223 500.398 C 445.58 499.677 455.005 500.7 461.917 503.269 C 477.51 509.063 486.378 522.319 493.2 536.614 C 497.326 534.896 501.516 533.097 505.791 531.793 C 518.125 528.031 531.707 530.221 542.865 536.412 C 563.929 548.1 576.35 573.708 582.718 595.929 C 591.852 591.141 602.117 588.911 610.797 583.221 C 616.005 567.619 616.066 549.109 627.849 536.442 C 637.106 526.491 651.008 521.256 664.465 521.255 C 673.758 521.254 683.228 523.567 691.283 528.249 C 717.362 543.408 707.972 566.734 720.474 581.535 C 729.464 592.179 745.217 596.535 755.45 606.896 C 757.729 599.735 760.826 592.252 764.665 585.782 C 770.323 576.244 778.229 568.685 789.253 566.127 C 803.116 562.909 819.939 565.439 831.942 572.956 C 849.379 583.877 851.413 601.233 855.919 619.566 C 867.097 629.798 881.088 632.352 888.817 646.952 C 894.707 658.079 895.461 671.865 891.704 683.792 C 886.318 700.884 874.604 709.224 859.661 717.336 C 854.385 740.628 844.552 767.91 824.665 782.77 C 836.623 790.206 845.686 798.408 852.607 810.764 C 876.885 798.531 951.934 767.964 977.087 768.33 C 992.423 768.553 1007.96 775.053 1018.48 786.296 C 1030.17 798.782 1034.41 814.858 1034.07 831.56 C 1050.8 834.823 1069.3 839.828 1085.22 845.872 L 1098.47 822.592 C 1088.55 813.629 1078.68 804.231 1068.01 796.172 C 1053.34 785.098 1036.07 781.194 1026.53 763.94 C 1018.94 750.193 1019.08 730.169 1023.34 715.302 C 1034.47 676.458 1084.24 676.324 1113.95 659.421 C 1114.28 659.234 1114.6 659.036 1114.93 658.844 C 1128.96 634.353 1129.52 603.662 1138.62 577.51 C 1143.31 564.035 1152.39 552.079 1165.58 546.031 C 1178.61 540.061 1194.72 540.366 1207.99 545.586 C 1216.52 548.942 1223.5 554.484 1228.29 562.346 C 1236.32 575.551 1237.93 592.894 1242.37 607.579 A 416.343 416.343 0 0 0 1263.23 662.601 C 1273.47 665.65 1283.55 669.255 1293.73 672.495 C 1315.76 679.509 1337.71 684.742 1354.42 701.756 C 1373.88 664.733 1388.51 612.743 1417.19 582.478 C 1429.29 569.715 1446.23 560.188 1463.31 556.152 C 1480.42 552.109 1498.75 552.738 1516.22 551.018 C 1573.1 545.421 1630 542.122 1686.96 537.604 L 1822.98 525.628 C 1840.44 524.211 1857.67 522.281 1875.21 521.897 C 1908.48 521.169 1925.69 524.781 1950.24 548.564 C 1968.27 566.025 1997.61 593.269 2001.91 618.281 C 2004.79 635.081 2001.99 652.391 1996.89 668.486 C 1991.3 686.13 1982.89 703.061 1975.29 719.906 L 1942.04 793.389 A 22368.7 22368.7 0 0 0 1831.23 1038 C 1822.25 1058.16 1800.31 1096.88 1798.02 1116.13 C 1796.47 1129.22 1803.55 1149.25 1806.13 1162.66 C 1818.02 1224.4 1832.02 1285.88 1845.13 1347.38 C 1850.45 1372.35 1861.4 1411.26 1861.71 1435.2 C 1861.93 1451.9 1855.88 1468.47 1844.06 1480.34 C 1835.51 1488.93 1824.44 1497 1812.45 1499.74 C 1795.87 1503.52 1778.27 1502.75 1761.37 1502.96 A 4194.73 4194.73 0 0 1 1710.6 1503.69 L 1501.5 1503.86 L 1334.7 1503.73 A 1793.14 1793.14 0 0 1 1296.79 1503.15 C 1269.51 1502.66 1244.69 1502.5 1224.32 1481.66 C 1212.58 1469.63 1207.97 1455.36 1208.35 1438.73 C 1208.9 1414.45 1218.27 1385.27 1236.33 1368.25 C 1244.93 1360.15 1254.29 1356.36 1265.75 1353.92 C 1282.43 1350.39 1300.11 1350.33 1317.1 1349.51 L 1384.34 1346.25 L 1449.37 1343.19 C 1466.12 1342.25 1483.08 1340.63 1499.85 1340.99 L 1499.46 1339.5 C 1494.97 1322.68 1493.09 1302.98 1492.83 1285.55 C 1492.5 1285.58 1492.16 1285.6 1491.82 1285.62 C 1479.94 1286.29 1467.47 1284.62 1455.55 1284.11 A 6157.86 6157.86 0 0 1 1379.78 1280.7 C 1339.08 1278.56 1297.79 1278.57 1257.23 1275.14 C 1251.04 1274.62 1243.86 1273.95 1238.09 1271.57 C 1216.64 1262.71 1183.51 1232.11 1165.26 1215.88 C 1160.85 1219.56 1156.27 1222.93 1151.04 1225.35 C 1139.7 1230.6 1126.77 1233.18 1114.7 1236.24 A 851.189 851.189 0 0 1 960.437 1260.88 C 954.267 1261.3 902.959 1261.14 902.083 1261.69 C 900.798 1262.49 894.454 1289.03 874.048 1300.3 C 862.659 1306.6 848.635 1308.54 836.078 1304.82 A 51.8165 51.8165 0 0 1 822.92 1298.94 C 807.863 1289.67 793.88 1277.76 779.629 1267.26 C 765.695 1256.99 750.152 1247.32 737.295 1235.75 C 731.245 1230.3 724.734 1223.27 721.009 1215.98 C 713.797 1201.87 717.851 1186.24 722.698 1172.2 A 868.747 868.747 0 0 0 707.064 1143.33 C 692.423 1147.74 679.724 1146.91 664.895 1144.12 C 655.771 1147.97 646.513 1153.19 638.186 1158.54 C 635.653 1168.38 634.146 1178.43 631.246 1188.21 C 618.05 1232.7 594.119 1264.89 556.896 1291.98 C 564.134 1306.14 565.535 1322.62 564.565 1338.29 C 564.308 1342.43 560.596 1354.29 561.8 1356.72 C 565.585 1356.9 568.92 1358.05 572.47 1359.3 C 598.561 1368.48 617.362 1384.12 629.336 1409.44 C 636.52 1424.63 641.283 1444.62 635.11 1460.97 C 629.428 1476.02 619.054 1490.37 603.713 1496.58 C 567.272 1511.34 497.235 1508.5 458.26 1503.52 C 445.776 1501.92 432.941 1496.91 420.424 1496.74 C 406.664 1496.56 391.826 1502.85 378.055 1504.74 C 340.102 1509.96 267.412 1511.76 232.873 1496.05 C 218.209 1489.38 205.163 1476.25 199.749 1460.97 C 196.13 1450.76 195.886 1439.52 196.642 1428.83 C 200.085 1380.14 228.773 1361.41 248.23 1321.77 C 225.357 1313.92 206.27 1300.14 188.013 1284.64 A 133.41 133.41 0 0 1 134.821 1291.31 A 89.9577 89.9577 0 0 1 71.4348 1259.39 C 44.6145 1227.98 44.1457 1202.51 47.3407 1163.11 C 34.0658 1142.18 18.1539 1123.54 12.3014 1098.7 C 6.21848 1072.89 8.67272 1042.05 23.074 1019.34 C 42.9738 987.951 78.6419 970.408 113.815 962.288 C 110.157 933.728 117.404 901.581 113.581 873.452 C 112.05 862.186 105.336 851.696 101.185 841.187 C 96.8272 830.156 94.9315 818.809 93.8113 807.046 C 89.1464 758.055 98.8482 698.447 143.982 670.018 C 166.372 655.916 171.856 661.724 191.275 638.462 C 215.208 609.792 248.908 594.931 285.997 592.618 C 301.813 591.631 317.639 592.606 333.46 591.114 C 346.076 589.925 356.034 586.879 366.412 579.419 C 392.957 560.336 388.079 535.128 406.947 513.415 C 415.657 503.392 425.707 501.542 438.223 500.398 z"/>
<path transform="translate(0,0)" fill="rgb(1,3,8)" d="M 709.899 767.646 C 713.311 765.378 716.415 763.59 720.514 762.913 C 726.143 761.984 730.467 763.557 735.084 766.664 C 733.635 768.236 733.222 768.802 731.149 769.53 C 725.683 767.501 721.998 766.512 716.527 769.053 C 715.337 769.605 714.228 770.265 713.098 770.929 L 709.899 767.646 z"/>
<path transform="translate(0,0)" fill="rgb(95,18,4)" d="M 96.6226 1207.53 L 102.077 1206.55 C 105.391 1214.57 108.816 1220.42 114.881 1226.75 L 110.069 1225.36 C 110.67 1227.2 111.332 1229.04 111.843 1230.91 C 103.764 1225.12 100.239 1216.38 96.6226 1207.53 z"/>
<path transform="translate(0,0)" fill="rgb(52,9,0)" d="M 814.703 841.59 C 820.495 853.206 820.919 865.348 819.56 878.049 C 817.631 875.37 817.583 874.446 817.832 871.075 C 817.996 868.843 817.489 868.624 816.409 866.731 C 816.439 869.284 816.401 871.646 816.079 874.188 L 814.738 873.334 C 815.057 863.743 814.95 855.312 811.418 846.194 L 814.703 841.59 z"/>
<path transform="translate(0,0)" fill="rgb(52,9,0)" d="M 735.084 766.664 C 742.257 772.406 745.765 778.183 746.735 787.464 C 747.115 791.099 747.095 794.865 747.142 798.518 C 745.664 798.35 744.193 798.228 742.71 798.112 C 742.653 796.388 742.568 795.023 742.047 793.357 C 741.917 792.941 741.757 792.534 741.612 792.123 C 740.572 782.103 738.021 776.779 731.149 769.53 C 733.222 768.802 733.635 768.236 735.084 766.664 z"/>
<path transform="translate(0,0)" fill="rgb(95,18,4)" d="M 814.738 873.334 L 816.079 874.188 C 816.401 871.646 816.439 869.284 816.409 866.731 C 817.489 868.624 817.996 868.843 817.832 871.075 C 817.583 874.446 817.631 875.37 819.56 878.049 C 817.721 888.497 815.615 897.873 810.831 907.397 C 808.02 903.824 808.049 901.951 808.047 897.525 C 811.028 889.76 812.39 882.439 814.423 874.488 C 814.522 874.102 814.633 873.719 814.738 873.334 z"/>
<path transform="translate(0,0)" fill="rgb(95,18,4)" d="M 111.843 1230.91 C 111.332 1229.04 110.67 1227.2 110.069 1225.36 L 114.881 1226.75 C 125.569 1234.34 135.856 1241.28 149.656 1240.04 C 151.441 1240.79 152.542 1241.31 154.072 1242.55 C 153.769 1242.84 153.483 1243.14 153.163 1243.42 C 150.243 1245.89 146.751 1246.22 143.071 1245.92 C 133.058 1245.12 118.379 1238.83 111.843 1230.91 z"/>
<path transform="translate(0,0)" fill="rgb(128,20,2)" d="M 97.9672 1141.53 C 97.9172 1144.82 97.6159 1148.64 98.2768 1151.86 C 100.115 1160.84 110.883 1167.73 106.643 1177.24 C 101.108 1183.58 100.51 1189.22 101.033 1197.41 C 101.228 1200.47 101.649 1203.51 102.077 1206.55 L 96.6226 1207.53 A 49.0021 49.0021 0 0 1 95.5757 1203.06 C 93.0604 1190.08 97.0304 1181.6 103.993 1171.05 C 98.3349 1163.68 93.6366 1156.68 93.7846 1147.02 C 96.295 1145.39 96.7846 1144.16 97.9672 1141.53 z"/>
<path transform="translate(0,0)" fill="rgb(95,18,4)" d="M 691.85 852.713 A 295.323 295.323 0 0 0 697.409 816.634 C 698.651 804.157 698.664 789.955 702.862 778.043 C 704.407 773.659 706.534 770.798 709.899 767.646 L 713.098 770.929 C 702.39 787.393 704.124 811.349 702.572 830.529 C 699.788 838.657 697.883 847.049 695.832 855.384 C 693.899 854.671 693.309 854.097 691.85 852.713 z"/>
<path transform="translate(0,0)" fill="rgb(234,113,15)" d="M 613.188 732.818 C 615.912 742.536 617.779 752.888 627.198 758.443 C 630.817 760.578 635.016 762.03 638.932 763.526 C 632.164 764.579 626.428 765.058 620.778 769.232 C 617.29 777.153 615.857 786.322 613.367 794.66 C 611.857 785.511 612.533 776.826 607.322 768.74 C 601.369 765.995 595.956 764.113 589.526 762.733 C 597.314 760.143 605.586 758.245 609.586 750.283 C 612.169 745.142 612.531 738.498 613.188 732.818 z"/>
<path transform="translate(0,0)" fill="rgb(253,198,61)" d="M 713.098 770.929 C 714.228 770.265 715.337 769.605 716.527 769.053 C 721.998 766.512 725.683 767.501 731.149 769.53 C 738.021 776.779 740.572 782.103 741.612 792.123 C 740.636 800.817 741.142 809.573 740.396 818.276 A 2173.28 2173.28 0 0 1 727.518 839.404 C 716.727 835.905 713.468 837.826 702.572 830.529 C 704.124 811.349 702.39 787.393 713.098 770.929 z"/>
<path transform="translate(0,0)" fill="rgb(234,113,15)" d="M 803.159 612.722 C 808.558 618.333 808.732 644.604 815.266 654.654 C 822.825 666.281 835.534 670.417 848.413 672.85 C 816.768 677.196 810.316 694.194 806.748 722.692 C 806.323 726.089 806.463 730.466 804.313 733.249 C 797.722 719.172 801.637 701.563 791.582 688.254 C 784.261 678.563 768.894 674.608 757.406 672.815 C 765.138 671.023 773.161 669.316 780.14 665.382 C 799.955 654.214 797.663 632.618 802.876 613.708 C 802.967 613.378 803.065 613.051 803.159 612.722 z"/>
<path transform="translate(0,0)" fill="rgb(234,113,15)" d="M 664.197 572.677 C 670.805 578.55 672.653 610.531 681.991 622.941 C 693.149 637.768 709.904 640.259 726.932 642.439 C 714.301 644.415 701.355 646.211 690.409 653.345 C 670.859 666.086 669.378 694.288 665.357 715.203 C 660.144 697.926 660.268 679.281 649.832 663.279 C 639.798 647.891 618.883 645.888 602.318 642.657 C 614.369 640.417 627.534 638.372 638.026 631.563 C 656.335 619.681 659.802 592.398 664.197 572.677 z"/>
<path transform="translate(0,0)" fill="rgb(6,23,38)" d="M 698.822 944.184 L 702.08 942.299 C 709.777 949.673 721.145 954.879 731.954 954.717 A 26.3797 26.3797 0 0 0 733.31 954.662 C 736.452 955.003 738.474 954.626 740.806 956.922 C 740.893 957.007 740.951 957.117 741.024 957.214 C 722.518 988.246 702.394 1018.43 665.08 1027.81 C 641.446 1033.76 614.257 1031.58 592.263 1020.91 C 588.744 1017.24 586.962 980.093 586.301 972.367 C 605.185 981.531 625.199 989.814 646.662 986.233 C 671.373 982.109 685.005 963.081 698.822 944.184 z"/>
<path transform="translate(0,0)" fill="rgb(253,198,61)" d="M 741.612 792.123 C 741.757 792.534 741.917 792.941 742.047 793.357 C 742.568 795.023 742.653 796.388 742.71 798.112 C 744.193 798.228 745.664 798.35 747.142 798.518 C 746.902 803.04 745.636 809.668 747.145 813.858 C 753.194 810.295 758.819 808.086 765.717 806.668 C 776.833 809.451 786.607 813.053 792.887 823.364 A 69.8942 69.8942 0 0 1 794.203 825.635 C 799.405 832.747 808.747 832.39 814.703 841.59 L 811.418 846.194 C 814.95 855.312 815.057 863.743 814.738 873.334 C 814.633 873.719 814.522 874.102 814.423 874.488 C 812.39 882.439 811.028 889.76 808.047 897.525 L 807.048 899.021 C 799.138 905.835 790.343 913.903 779.107 913.308 C 774.607 913.069 769.694 910.738 766.746 907.306 C 765.511 905.868 764.73 904.257 764.062 902.504 L 761.045 903.489 L 757.998 899.45 C 753.274 902.719 749.947 904.079 744.255 904.502 C 733.249 902.078 726.279 899.676 719.526 890.108 C 718.199 883.344 718.417 879.518 720.386 872.901 C 722.705 865.487 725.41 858.465 728.531 851.352 C 727.047 849.995 725.624 848.583 724.191 847.172 L 727.518 839.404 A 2173.28 2173.28 0 0 0 740.396 818.276 C 741.142 809.573 740.636 800.817 741.612 792.123 z"/>
<path transform="translate(0,0)" fill="rgb(128,20,2)" d="M 764.78 887.134 C 768.06 883.511 771.418 878.824 775.798 876.571 C 776.971 879.123 776.276 879.779 775.307 882.365 C 772.648 889.462 768.526 896.398 764.062 902.504 L 761.045 903.489 L 757.998 899.45 L 758.743 898.493 C 759.136 897.98 759.517 897.458 759.914 896.948 C 762.565 893.544 763.889 891.417 764.78 887.134 z"/>
<path transform="translate(0,0)" fill="rgb(234,113,15)" d="M 719.526 890.108 C 718.199 883.344 718.417 879.518 720.386 872.901 C 722.472 879.851 728.071 887.804 734.543 891.203 C 740.41 894.284 747.598 894.732 753.866 892.626 C 757.763 891.316 761.268 889.231 764.78 887.134 C 763.889 891.417 762.565 893.544 759.914 896.948 C 759.517 897.458 759.136 897.98 758.743 898.493 L 757.998 899.45 C 753.274 902.719 749.947 904.079 744.255 904.502 C 733.249 902.078 726.279 899.676 719.526 890.108 z"/>
<path transform="translate(0,0)" fill="rgb(95,18,4)" d="M 741.612 792.123 C 741.757 792.534 741.917 792.941 742.047 793.357 C 742.568 795.023 742.653 796.388 742.71 798.112 C 744.193 798.228 745.664 798.35 747.142 798.518 C 746.902 803.04 745.636 809.668 747.145 813.858 C 753.194 810.295 758.819 808.086 765.717 806.668 C 776.833 809.451 786.607 813.053 792.887 823.364 A 69.8942 69.8942 0 0 1 794.203 825.635 C 799.405 832.747 808.747 832.39 814.703 841.59 L 811.418 846.194 C 802.059 832.168 795.931 838.899 789.487 833.159 C 788.521 832.298 789.182 829.557 789.274 828.289 C 785.524 820.457 779.148 815.926 770.978 813.266 C 768.928 812.599 766.807 812.123 764.705 811.655 C 744.785 818.923 737.596 833.611 728.531 851.352 C 727.047 849.995 725.624 848.583 724.191 847.172 L 727.518 839.404 A 2173.28 2173.28 0 0 0 740.396 818.276 C 741.142 809.573 740.636 800.817 741.612 792.123 z"/>
<path transform="translate(0,0)" fill="rgb(234,113,15)" d="M 695.832 855.384 C 697.883 847.049 699.788 838.657 702.572 830.529 C 713.468 837.826 716.727 835.905 727.518 839.404 L 724.191 847.172 C 725.624 848.583 727.047 849.995 728.531 851.352 C 725.41 858.465 722.705 865.487 720.386 872.901 C 718.417 879.518 718.199 883.344 719.526 890.108 C 726.279 899.676 733.249 902.078 744.255 904.502 C 749.947 904.079 753.274 902.719 757.998 899.45 L 761.045 903.489 L 764.062 902.504 C 764.73 904.257 765.511 905.868 766.746 907.306 C 769.694 910.738 774.607 913.069 779.107 913.308 C 790.343 913.903 799.138 905.835 807.048 899.021 L 808.047 897.525 C 808.049 901.951 808.02 903.824 810.831 907.397 C 807.727 915.358 802.602 921.989 795.861 927.224 C 787.044 932.758 778.881 934.844 768.516 935.489 C 766.05 943.061 761.831 949.798 754.521 953.619 C 750.819 955.554 745.286 957.692 741.024 957.214 C 740.951 957.117 740.893 957.007 740.806 956.922 C 738.474 954.626 736.452 955.003 733.31 954.662 A 26.3797 26.3797 0 0 1 731.954 954.717 C 721.145 954.879 709.777 949.673 702.08 942.299 L 698.822 944.184 C 690.946 934.554 685.864 922.663 677.7 913.372 C 667.967 902.297 651.03 896.648 644.2 883.302 C 641.309 877.652 641 871.692 643.01 865.692 C 645.382 858.615 650.701 850.725 657.742 847.636 C 668.916 842.734 680.368 848.661 690.81 852.363 C 691.155 852.486 691.503 852.597 691.85 852.713 C 693.309 854.097 693.899 854.671 695.832 855.384 z"/>
<path transform="translate(0,0)" fill="rgb(95,18,4)" d="M 715.075 891.313 C 716.712 890.443 717.716 890.341 719.526 890.108 C 726.279 899.676 733.249 902.078 744.255 904.502 C 749.947 904.079 753.274 902.719 757.998 899.45 L 761.045 903.489 C 756.877 905.925 751.334 908.225 749.62 913.096 C 748.739 915.601 749.084 917.664 750.351 919.942 C 753.086 924.861 760.997 927.632 766.129 928.636 C 775.373 930.445 783.826 929.115 791.889 924.359 C 794.211 925.22 794.507 925.192 795.861 927.224 C 787.044 932.758 778.881 934.844 768.516 935.489 C 766.05 943.061 761.831 949.798 754.521 953.619 C 750.819 955.554 745.286 957.692 741.024 957.214 C 740.951 957.117 740.893 957.007 740.806 956.922 C 738.474 954.626 736.452 955.003 733.31 954.662 C 736.298 954.267 739.313 953.824 742.257 953.182 C 753.386 950.755 759.093 943.595 764.937 934.561 C 759.864 931.831 754.016 928.97 749.716 925.129 C 744.592 920.554 745.999 916.105 745.797 910.057 C 743.958 907.816 742.879 908.226 740.076 907.871 A 161.526 161.526 0 0 1 737.948 907.422 C 725.656 904.715 721.667 901.725 715.075 891.313 z"/>
<path transform="translate(0,0)" fill="rgb(234,113,15)" d="M 807.048 899.021 L 808.047 897.525 C 808.049 901.951 808.02 903.824 810.831 907.397 C 807.727 915.358 802.602 921.989 795.861 927.224 C 794.507 925.192 794.211 925.22 791.889 924.359 C 783.826 929.115 775.373 930.445 766.129 928.636 C 760.997 927.632 753.086 924.861 750.351 919.942 C 749.084 917.664 748.739 915.601 749.62 913.096 C 751.334 908.225 756.877 905.925 761.045 903.489 L 764.062 902.504 C 764.73 904.257 765.511 905.868 766.746 907.306 C 769.694 910.738 774.607 913.069 779.107 913.308 C 790.343 913.903 799.138 905.835 807.048 899.021 z"/>
<path transform="translate(0,0)" fill="rgb(95,18,4)" d="M 807.048 899.021 L 808.047 897.525 C 808.049 901.951 808.02 903.824 810.831 907.397 C 807.727 915.358 802.602 921.989 795.861 927.224 C 794.507 925.192 794.211 925.22 791.889 924.359 C 791.918 924.317 791.939 924.268 791.976 924.232 C 800.045 916.377 804.116 909.997 807.048 899.021 z"/>
<path transform="translate(0,0)" fill="rgb(253,198,61)" d="M 649.154 867.053 C 651.493 860.952 654.342 855.653 660.597 852.91 C 667.261 849.988 674.367 851.121 680.92 853.788 C 690.761 857.792 700.705 865.88 704.913 875.846 C 705.387 876.968 705.785 878.115 706.171 879.269 C 704.853 889.283 706.492 899.484 705.69 909.549 C 705.518 911.716 705.943 911.833 704.274 913.254 C 702.139 912.682 700.687 911.815 698.984 910.451 C 692.818 905.512 688.014 899.05 682.061 893.87 C 671.922 885.048 656.611 878.452 649.154 867.053 z"/>
<path transform="translate(0,0)" fill="rgb(128,20,2)" d="M 695.832 855.384 C 697.883 847.049 699.788 838.657 702.572 830.529 C 713.468 837.826 716.727 835.905 727.518 839.404 L 724.191 847.172 C 725.624 848.583 727.047 849.995 728.531 851.352 C 725.41 858.465 722.705 865.487 720.386 872.901 C 718.417 879.518 718.199 883.344 719.526 890.108 C 717.716 890.341 716.712 890.443 715.075 891.313 C 712.932 888.547 711.636 885.033 709.137 882.608 C 707.319 880.844 708.879 882.713 707.01 880.363 C 706.724 880.003 706.451 879.634 706.171 879.269 C 705.785 878.115 705.387 876.968 704.913 875.846 C 700.705 865.88 690.761 857.792 680.92 853.788 C 674.367 851.121 667.261 849.988 660.597 852.91 C 654.342 855.653 651.493 860.952 649.154 867.053 C 649.116 867.421 649.091 867.791 649.041 868.158 C 648.327 873.347 645.688 877.499 649.271 882.5 C 655.549 891.264 666.777 896.74 674.757 903.8 C 682.637 910.771 688.181 919.985 693.816 928.749 C 696.35 932.69 700.634 937.945 702.08 942.299 L 698.822 944.184 C 690.946 934.554 685.864 922.663 677.7 913.372 C 667.967 902.297 651.03 896.648 644.2 883.302 C 641.309 877.652 641 871.692 643.01 865.692 C 645.382 858.615 650.701 850.725 657.742 847.636 C 668.916 842.734 680.368 848.661 690.81 852.363 C 691.155 852.486 691.503 852.597 691.85 852.713 C 693.309 854.097 693.899 854.671 695.832 855.384 z"/>
<path transform="translate(0,0)" fill="rgb(234,113,15)" d="M 695.832 855.384 C 697.883 847.049 699.788 838.657 702.572 830.529 C 713.468 837.826 716.727 835.905 727.518 839.404 L 724.191 847.172 A 1306.53 1306.53 0 0 1 711.772 871.463 C 706.728 865.811 701.304 860.617 695.832 855.384 z"/>
<path transform="translate(0,0)" fill="rgb(253,198,61)" d="M 124.172 1111.21 C 134.988 1116.91 145.834 1122.18 154.891 1130.55 C 158.522 1129.54 162.156 1128.42 165.828 1127.58 C 166.419 1127.73 167.008 1127.89 167.6 1128.03 C 177.072 1130.32 186.214 1129.65 194.895 1135.17 L 192.802 1137.02 L 193.214 1139.44 C 203.819 1146.65 210.077 1155.15 212.4 1167.93 C 214.089 1177.23 213.489 1186.76 212.411 1196.09 C 212.58 1202.25 211.665 1207.54 207.29 1212.19 C 204.604 1215.05 201.353 1217 197.714 1218.41 L 200.953 1222.78 C 199.04 1223.99 198.059 1224.72 195.838 1225.25 C 194.586 1226.08 193.769 1226.19 193.329 1227.67 C 191.737 1233.02 188.519 1238.23 183.437 1240.9 C 173.799 1245.97 156.468 1238.32 154.072 1242.55 C 152.542 1241.31 151.441 1240.79 149.656 1240.04 C 135.856 1241.28 125.569 1234.34 114.881 1226.75 C 108.816 1220.42 105.391 1214.57 102.077 1206.55 C 101.649 1203.51 101.228 1200.47 101.033 1197.41 C 100.51 1189.22 101.108 1183.58 106.643 1177.24 C 110.883 1167.73 100.115 1160.84 98.2768 1151.86 C 97.6159 1148.64 97.9172 1144.82 97.9672 1141.53 C 101.93 1131.99 108.79 1126.26 116.796 1120.23 C 119.899 1117.58 122.413 1114.89 124.172 1111.21 z"/>
<path transform="translate(0,0)" fill="rgb(234,113,15)" d="M 212.411 1196.09 C 212.58 1202.25 211.665 1207.54 207.29 1212.19 C 204.604 1215.05 201.353 1217 197.714 1218.41 C 194.482 1219.13 191.199 1219.74 187.925 1218.96 C 182.874 1217.75 180.67 1215.19 178.063 1210.88 C 177.853 1210.53 177.663 1210.17 177.463 1209.82 L 175.606 1210.76 L 175.408 1209.53 L 176.956 1208.07 C 191.628 1207.7 200.572 1204.71 212.411 1196.09 z"/>
<path transform="translate(0,0)" fill="rgb(95,18,4)" d="M 124.172 1111.21 C 134.988 1116.91 145.834 1122.18 154.891 1130.55 C 158.522 1129.54 162.156 1128.42 165.828 1127.58 C 166.419 1127.73 167.008 1127.89 167.6 1128.03 C 177.072 1130.32 186.214 1129.65 194.895 1135.17 L 192.802 1137.02 L 193.214 1139.44 L 191.753 1138.84 C 176.991 1132.72 166.93 1132.92 151.931 1137.58 C 147.89 1133.55 143.999 1129.01 139.004 1126.14 C 133.574 1123.01 129.609 1123.19 123.678 1124.62 C 123.365 1124.49 123.022 1124.42 122.739 1124.24 C 120.671 1122.92 119.038 1121.42 116.796 1120.23 C 119.899 1117.58 122.413 1114.89 124.172 1111.21 z"/>
<path transform="translate(0,0)" fill="rgb(205,87,17)" d="M 116.796 1120.23 C 119.038 1121.42 120.671 1122.92 122.739 1124.24 C 123.022 1124.42 123.365 1124.49 123.678 1124.62 C 117.288 1128.61 112.829 1132.61 111.301 1140.32 C 110.268 1145.52 110.705 1151.81 111.025 1157.11 C 113.934 1161.23 118.799 1166.17 120.117 1171 C 119.255 1173.36 119.34 1173.24 117.097 1174.38 C 113.338 1175.02 110.157 1175.74 106.643 1177.24 C 110.883 1167.73 100.115 1160.84 98.2768 1151.86 C 97.6159 1148.64 97.9172 1144.82 97.9672 1141.53 C 101.93 1131.99 108.79 1126.26 116.796 1120.23 z"/>
<path transform="translate(0,0)" fill="rgb(128,20,2)" d="M 175.606 1210.76 L 177.463 1209.82 C 177.663 1210.17 177.853 1210.53 178.063 1210.88 C 180.67 1215.19 182.874 1217.75 187.925 1218.96 C 191.199 1219.74 194.482 1219.13 197.714 1218.41 L 200.953 1222.78 C 199.04 1223.99 198.059 1224.72 195.838 1225.25 C 194.586 1226.08 193.769 1226.19 193.329 1227.67 C 191.737 1233.02 188.519 1238.23 183.437 1240.9 C 173.799 1245.97 156.468 1238.32 154.072 1242.55 C 152.542 1241.31 151.441 1240.79 149.656 1240.04 C 148.977 1235.85 148.965 1232.12 149.25 1227.9 C 148.674 1225.06 148.397 1222.99 148.87 1220.07 L 150.617 1218.51 C 161.941 1219.73 167.915 1230.62 180.703 1226.25 L 182.905 1223.86 C 179.359 1219.84 177.259 1215.84 175.606 1210.76 z"/>
<path transform="translate(0,0)" fill="rgb(234,113,15)" d="M 148.87 1220.07 L 150.617 1218.51 C 161.941 1219.73 167.915 1230.62 180.703 1226.25 L 182.905 1223.86 C 183.28 1224.09 183.688 1224.28 184.029 1224.56 C 186.136 1226.29 186.379 1227.03 186.83 1229.56 C 184.877 1232.99 181.499 1234.66 177.777 1235.63 C 171.088 1237.36 162.502 1237.1 156.609 1233.12 C 153.722 1231.17 150.935 1226.69 150.463 1223.25 C 150.193 1221.29 150.101 1221.5 148.87 1220.07 z"/>
<path transform="translate(0,0)" fill="rgb(234,113,15)" d="M 106.643 1177.24 C 110.157 1175.74 113.338 1175.02 117.097 1174.38 C 112.475 1179.92 109.644 1185.56 110.138 1192.96 C 110.792 1202.77 117.343 1211.48 124.695 1217.54 C 131.622 1223.24 140.246 1227.15 149.25 1227.9 C 148.965 1232.12 148.977 1235.85 149.656 1240.04 C 135.856 1241.28 125.569 1234.34 114.881 1226.75 C 108.816 1220.42 105.391 1214.57 102.077 1206.55 C 101.649 1203.51 101.228 1200.47 101.033 1197.41 C 100.51 1189.22 101.108 1183.58 106.643 1177.24 z"/>
<path transform="translate(0,0)" fill="rgb(6,23,38)" d="M 162.097 995.813 C 168.626 992.937 175.704 988.499 182.96 991.276 C 187.926 993.176 191.426 997.701 193.363 1002.5 C 196.431 1010.11 196.68 1019.56 193.004 1027.01 C 187.754 1037.66 172.283 1041.64 161.835 1044.99 C 161.967 1059.71 162.217 1074.32 163.326 1088.99 C 164.267 1101.44 166.579 1115.19 165.828 1127.58 C 162.156 1128.42 158.522 1129.54 154.891 1130.55 C 145.834 1122.18 134.988 1116.91 124.172 1111.21 C 122.413 1114.89 119.899 1117.58 116.796 1120.23 C 108.79 1126.26 101.93 1131.99 97.9672 1141.53 C 96.7846 1144.16 96.295 1145.39 93.7846 1147.02 C 88.8294 1134.96 77.5647 1124.48 70.5529 1113.34 C 60.4845 1097.34 54.7254 1077.52 59.2548 1058.72 C 67.9245 1022.75 109.214 1014.36 139.442 1004.88 C 146.146 1002.78 154.966 1000.66 160.791 996.734 C 161.233 996.437 161.662 996.12 162.097 995.813 z"/>
<path transform="translate(0,0)" fill="rgb(253,254,254)" d="M 124.172 1111.21 C 116.971 1103.57 108.806 1092.43 105.395 1082.41 C 103.903 1078.02 103.5 1073.32 105.678 1069.09 C 112.974 1054.94 147.55 1049.81 161.835 1044.99 C 161.967 1059.71 162.217 1074.32 163.326 1088.99 C 164.267 1101.44 166.579 1115.19 165.828 1127.58 C 162.156 1128.42 158.522 1129.54 154.891 1130.55 C 145.834 1122.18 134.988 1116.91 124.172 1111.21 z"/>
<path transform="translate(0,0)" fill="rgb(9,54,64)" d="M 846.68 1140.1 C 848.627 1139.83 850.489 1139.55 852.457 1139.88 C 857.224 1140.69 861.866 1144.95 864.266 1148.98 C 866.21 1152.25 866.94 1155.93 865.739 1159.6 C 862.287 1170.14 840.796 1179.17 831.478 1184.33 C 850.694 1185.44 869.79 1188.12 889.044 1189.01 A 746.586 746.586 0 0 0 1059.99 1176.88 C 1071.61 1174.62 1083.41 1172.28 1094.87 1169.26 C 1102.24 1167.31 1109.75 1164.2 1117.29 1163.18 C 1120.22 1162.79 1124.14 1162.74 1126.74 1164.38 C 1129.69 1166.24 1131.29 1168.87 1131.98 1172.26 C 1132.62 1175.43 1132.19 1179.16 1130.17 1181.78 C 1120.91 1193.84 1034.78 1206.19 1016.5 1208.83 C 951.122 1216.46 888.559 1216.64 823.417 1207.13 C 832.89 1215.42 843.154 1222.73 852.983 1230.58 C 856.818 1233.65 861.398 1238.16 861.403 1243.47 C 861.407 1247.41 859.135 1251.7 856.566 1254.58 C 854.369 1257.04 850.832 1259.54 847.347 1259.2 C 840.358 1258.51 775.258 1209.09 768.075 1201.32 C 765.738 1198.79 762.417 1195.17 762.503 1191.54 C 772.671 1181.29 830.38 1149.08 846.68 1140.1 z"/>
<path transform="translate(0,0)" fill="rgb(6,23,38)" d="M 284.732 1284.06 C 287.896 1278.02 292.308 1273.23 299.022 1271.21 C 306.358 1269.01 314.593 1270.94 321.054 1274.74 C 328.258 1278.98 333.43 1285.06 337.475 1292.3 C 339.304 1296.64 340.531 1301.22 341.428 1305.84 C 349.776 1348.83 325.902 1378.2 303.394 1411.65 C 320.193 1403.56 338.747 1398.84 357.389 1402.55 C 371.092 1405.27 384.498 1412.93 392.221 1424.78 C 395.911 1430.44 401.537 1441.19 399.044 1448.23 C 398.035 1451.08 396.173 1452.4 393.525 1453.56 C 370.204 1463.8 273.089 1463.78 250.019 1452.92 C 247.192 1451.59 245.854 1450.28 245.115 1447.21 C 244.074 1442.88 244.377 1437.84 244.614 1433.41 C 246.187 1404 267.494 1386.78 281.592 1362.98 C 290.85 1347.35 296.936 1329.23 292.724 1310.98 C 290.632 1301.92 287.022 1293.13 284.732 1284.06 z"/>
<path transform="translate(0,0)" fill="rgb(6,23,38)" d="M 450.957 1285.06 C 454.299 1279.8 461.318 1274.18 467.137 1271.94 C 477.087 1268.1 484.867 1270.17 494.143 1274.17 C 508.958 1288.6 516.019 1310.71 516.165 1331.05 C 516.371 1359.74 501.852 1384.41 490.869 1409.96 C 512.74 1400.36 532.744 1395.63 555.912 1404.63 C 568.999 1409.71 581.641 1419.05 587.078 1432.37 C 589.064 1437.23 590.993 1445.08 588.46 1450.05 C 587.087 1452.74 580.495 1454.16 577.674 1454.78 C 553.868 1460.02 454.971 1463.97 437.08 1451.26 C 433.826 1448.95 432.507 1445.34 432.122 1441.49 C 427.8 1398.22 475.253 1367.2 466.903 1321.76 C 464.394 1308.11 454.889 1298.01 450.957 1285.06 z"/>
<path transform="translate(0,0)" fill="rgb(6,23,38)" d="M 970.567 818.141 C 973.014 817.935 976.076 817.45 978.458 818.141 C 982.486 819.312 986.273 823.963 988.019 827.582 C 989.984 831.653 990.447 836.383 988.81 840.648 C 984.123 852.864 957.965 860.419 946.488 865.246 A 1300.36 1300.36 0 0 1 966.053 867.814 C 1043.84 878.811 1118.37 906.937 1186.37 945.814 C 1195.73 951.163 1211.96 958.093 1218.11 966.898 C 1219.92 969.485 1220.83 972.582 1219.92 975.713 C 1218.8 979.53 1215 983.454 1211.38 984.997 C 1208.66 986.154 1205.92 986.256 1203.17 985.193 C 1191.65 980.736 1179.92 971.746 1169.14 965.474 C 1151.75 955.359 1133.27 946.167 1114.75 938.339 A 606.56 606.56 0 0 0 941.248 890.356 C 946.478 894.419 951.302 898.892 956.003 903.554 C 962.439 909.937 972.183 919.801 971.876 929.463 C 971.717 934.476 968.164 939.792 964.443 942.948 C 961.865 945.134 957.964 947.24 954.459 946.492 C 946.463 944.785 866.635 875.833 858.39 864.595 C 871.851 853.759 950.098 825.498 970.567 818.141 z"/>
<path transform="translate(0,0)" fill="rgb(53,71,81)" d="M 1528.08 1454.88 C 1477.29 1455.91 1426.31 1455.05 1375.5 1454.99 C 1342.79 1454.96 1308.94 1456.54 1276.33 1454.4 C 1271.27 1454.06 1263.78 1453.43 1259.47 1450.77 C 1257.15 1449.34 1255.65 1446.83 1255.14 1444.18 C 1253.52 1435.57 1261.25 1417.33 1266.47 1410.81 C 1270.85 1405.35 1276.52 1402.45 1283.33 1401.13 C 1298.69 1398.17 1325.38 1399.12 1341.98 1398.28 L 1468.83 1391.95 C 1489.41 1390.93 1510.41 1391.09 1530.88 1388.74 C 1523.87 1410.55 1517.76 1431.38 1514.76 1454.21 C 1519.11 1454.34 1523.81 1454.12 1528.08 1454.88 z"/>
<path transform="translate(0,0)" fill="rgb(234,113,15)" d="M 1186.9 590.466 C 1188.29 591.697 1188.81 592.441 1189.49 594.235 C 1192.16 601.383 1193.08 610.641 1194.74 618.177 C 1199.1 637.929 1203.84 658.714 1212.11 677.223 C 1230.82 719.09 1274.14 720.593 1312.16 734.952 C 1283.98 745.682 1259.96 746.684 1232.36 764.622 C 1226.22 768.614 1220.89 773.342 1216.85 779.519 C 1201.42 803.072 1194.66 850.196 1188.9 878.288 C 1183.95 872.269 1178.6 831.005 1175.81 819.515 C 1172.63 806.389 1168.66 792.361 1161.82 780.606 C 1148.83 758.268 1105.35 747.822 1081.23 741.554 C 1077.36 740.55 1068.23 739.099 1066.16 735.575 C 1067.68 733.755 1069.4 733.017 1071.55 732.144 C 1077.31 729.811 1083.78 728.812 1089.71 726.927 C 1103.67 722.49 1118.19 716.576 1131.66 710.751 C 1139.77 707.241 1147.58 702.967 1153.37 696.101 C 1167.92 678.845 1175.88 638.797 1180.68 616.174 C 1182.47 607.717 1183.7 598.509 1186.9 590.466 z"/>
<path transform="translate(0,0)" fill="rgb(253,198,61)" d="M 1188.95 770.899 C 1190.22 776.556 1190.46 782.396 1194.78 786.389 C 1194.47 791.694 1194.57 798.737 1192.05 803.463 L 1190.54 803.492 C 1187.92 798.999 1187.92 792.503 1187.25 787.373 C 1188.35 781.739 1189.01 776.652 1188.95 770.899 z"/>
<path transform="translate(0,0)" fill="url(#Gradient1)" d="M 1109.15 734.305 C 1119.95 730.446 1131.45 727.385 1142.64 724.886 C 1143.97 728.39 1144.5 729.144 1147.91 730.742 C 1152.08 732.692 1157.05 733.728 1161.5 734.934 C 1157.63 734.926 1155 734.635 1152.04 737.518 C 1151.73 737.818 1151.45 738.145 1151.16 738.459 C 1137.29 735.913 1123.2 735.324 1109.15 734.305 z"/>
<path transform="translate(0,0)" fill="rgb(244,157,3)" d="M 1161.5 734.934 C 1170.82 737.331 1177.19 740.389 1182.46 748.919 C 1185.95 754.574 1188.71 764.229 1188.95 770.899 C 1189.01 776.652 1188.35 781.739 1187.25 787.373 C 1184.35 777.85 1180.78 768.085 1176 759.327 C 1169.87 748.114 1163.34 742.008 1151.16 738.459 C 1151.45 738.145 1151.73 737.818 1152.04 737.518 C 1155 734.635 1157.63 734.926 1161.5 734.934 z"/>
<path transform="translate(0,0)" fill="rgb(250,245,7)" d="M 1142.64 724.886 C 1155.96 721.168 1172.55 717.418 1180.24 704.638 C 1187.42 692.69 1185.94 667.961 1189.16 653.281 C 1192.91 667.538 1197.56 694.07 1204.55 706.333 C 1207.23 711.041 1210.99 714.694 1215.62 717.481 C 1229.83 726.034 1245.75 726.653 1261.39 730.348 C 1244.55 734.57 1215.99 733.638 1206.4 750.195 C 1200.48 760.396 1197.44 774.897 1194.78 786.389 C 1190.46 782.396 1190.22 776.556 1188.95 770.899 C 1188.71 764.229 1185.95 754.574 1182.46 748.919 C 1177.19 740.389 1170.82 737.331 1161.5 734.934 C 1157.05 733.728 1152.08 732.692 1147.91 730.742 C 1144.5 729.144 1143.97 728.39 1142.64 724.886 z"/>
<path transform="translate(0,0)" fill="rgb(9,54,64)" d="M 1000.55 963.911 C 1005.74 964.215 1008.92 966.36 1013.05 969.31 C 1028.45 980.309 1042.64 993.477 1057.33 1005.43 C 1070.99 1016.53 1086.22 1027.1 1098.72 1039.46 C 1101.07 1041.78 1103.44 1043.92 1104.01 1047.3 C 1103.51 1049.48 1102.85 1050.88 1101.03 1052.28 C 1092.71 1058.68 1073.19 1066.22 1062.89 1071.21 C 1045.01 1079.86 1026.84 1090.51 1008.24 1097.37 C 1003.87 1098.98 998.859 1100.69 994.159 1099.79 C 989.588 1098.91 986.071 1095.44 983.623 1091.67 C 981.015 1087.65 979.282 1083.23 980.502 1078.42 C 983.662 1065.94 1010.62 1054.19 1021.61 1047.54 C 943.418 1040.54 880.199 1042.57 803.226 1059.18 C 777.309 1065.59 752.174 1072.92 727.325 1082.76 C 716.521 1087.03 701.688 1097.49 690.252 1097.78 C 686.774 1097.87 683.878 1095.92 681.575 1093.49 C 679.307 1091.09 677.722 1087.97 677.942 1084.6 C 678.238 1080.08 681.187 1076.62 684.601 1073.94 C 695.687 1065.22 716.252 1058.77 729.673 1053.75 A 609.499 609.499 0 0 1 1019.08 1022.6 C 1009.54 1014.13 997.069 1005.02 989.848 994.517 C 986.868 990.182 985.308 985.14 986.571 979.915 C 988.391 972.385 994.443 967.891 1000.55 963.911 z"/>
<path transform="translate(0,0)" fill="rgb(234,113,15)" d="M 164.756 868.733 L 165.387 869.648 C 171.522 878.68 179.397 898.376 191.556 900.192 C 195.539 900.787 197.982 899.574 200.891 897.082 C 202.777 895.466 204.469 894.041 205.559 891.79 C 205.663 892.168 205.773 892.545 205.87 892.926 C 211.097 913.279 209.839 937.602 210.701 958.555 C 213.717 1031.82 211.266 1108.43 254.471 1171.52 A 181.185 181.185 0 0 0 310.284 1224.67 C 357.073 1253.27 415.235 1259.81 468.179 1246.62 C 511.196 1235.91 550.415 1210.26 573.287 1171.79 C 577.48 1164.73 581.712 1157 584.296 1149.18 C 587.049 1140.85 588.169 1128.76 593.108 1121.64 C 591.812 1166.85 577.921 1209.2 544.502 1240.65 C 531.252 1253.12 515.743 1264.71 499.006 1271.99 C 497.377 1272.69 495.766 1273.45 494.143 1274.17 C 484.867 1270.17 477.087 1268.1 467.137 1271.94 C 461.318 1274.18 454.299 1279.8 450.957 1285.06 C 450.588 1285.15 450.217 1285.25 449.851 1285.35 C 444.678 1286.86 439.879 1289.04 434.541 1290.13 C 408.633 1295.39 364.089 1295.72 337.475 1292.3 C 333.43 1285.06 328.258 1278.98 321.054 1274.74 C 314.593 1270.94 306.358 1269.01 299.022 1271.21 C 292.308 1273.23 287.896 1278.02 284.732 1284.06 C 264.614 1282.79 227.816 1258.14 213.464 1244.38 C 207.773 1238.93 203.15 1230.7 196.986 1226.08 C 196.608 1225.8 196.22 1225.53 195.838 1225.25 C 198.059 1224.72 199.04 1223.99 200.953 1222.78 L 197.714 1218.41 C 201.353 1217 204.604 1215.05 207.29 1212.19 C 211.665 1207.54 212.58 1202.25 212.411 1196.09 C 213.489 1186.76 214.089 1177.23 212.4 1167.93 C 210.077 1155.15 203.819 1146.65 193.214 1139.44 L 192.802 1137.02 L 194.895 1135.17 C 186.214 1129.65 177.072 1130.32 167.6 1128.03 C 167.008 1127.89 166.419 1127.73 165.828 1127.58 C 166.579 1115.19 164.267 1101.44 163.326 1088.99 C 162.217 1074.32 161.967 1059.71 161.835 1044.99 C 172.283 1041.64 187.754 1037.66 193.004 1027.01 C 196.68 1019.56 196.431 1010.11 193.363 1002.5 C 191.426 997.701 187.926 993.176 182.96 991.276 C 175.704 988.499 168.626 992.937 162.097 995.813 C 158.067 982.371 161.197 882.223 164.756 868.733 z"/>
<path transform="translate(0,0)" fill="rgb(95,18,4)" d="M 193.214 1139.44 L 192.802 1137.02 L 194.895 1135.17 C 207.488 1143.45 214.714 1153.86 217.867 1168.67 C 220.784 1182.37 221.368 1200.19 213.381 1212.26 C 210.278 1216.95 205.547 1219.73 200.953 1222.78 L 197.714 1218.41 C 201.353 1217 204.604 1215.05 207.29 1212.19 C 211.665 1207.54 212.58 1202.25 212.411 1196.09 C 213.489 1186.76 214.089 1177.23 212.4 1167.93 C 210.077 1155.15 203.819 1146.65 193.214 1139.44 z"/>
<path transform="translate(0,0)" fill="url(#Gradient2)" d="M 443.408 547.417 C 460.763 579.8 475.651 608.808 472.833 646.638 C 498.912 630.381 509.196 605.143 520.516 577.914 C 532.371 597.97 542.211 618.882 546.607 641.897 C 553.909 680.131 544.781 713.236 523.12 744.853 C 490.755 779.535 452.509 796.154 405.094 797.648 C 346.501 799.494 294.96 772.343 245.743 743.87 C 217.703 791.517 210.622 838.015 205.559 891.79 C 204.469 894.041 202.777 895.466 200.891 897.082 C 197.982 899.574 195.539 900.787 191.556 900.192 C 179.397 898.376 171.522 878.68 165.387 869.648 L 164.756 868.733 C 161.007 858.307 155.842 848.321 151.682 838.038 A 139.674 139.674 0 0 1 142.748 763.992 C 145.753 745.058 153.786 723.989 170.061 712.631 C 184.839 702.318 199.047 703.658 215.741 706.736 C 216.761 698.817 218.265 690.865 221.32 683.461 C 225.665 672.93 232.879 664.125 242.018 657.368 C 281.544 628.139 331.199 650.339 373.784 632.289 C 412.382 615.93 428.458 584.083 443.408 547.417 z"/>
<path transform="translate(0,0)" fill="rgb(53,71,81)" d="M 189.88 714.514 C 199.051 714.354 211.279 713.878 219.233 719.115 L 218.047 720.194 C 205.54 731.442 193.824 739.749 185.825 755.194 C 182.515 761.584 174.408 787.832 171.452 790.288 C 166.685 774.408 163.196 757.285 168.151 740.963 C 171.628 729.511 179.425 720.23 189.88 714.514 z"/>
<path transform="translate(0,0)" fill="rgb(6,23,38)" d="M 227.554 702.864 C 231.899 701.98 235.735 697.142 239.768 694.983 A 113.364 113.364 0 0 1 283.424 681.909 C 316.049 679.304 341.518 692.165 371.726 701.655 A 167.838 167.838 0 0 0 459.438 705.137 C 487.696 698.606 509.349 685.622 524.804 660.88 C 527.947 671.392 524.738 682.602 519.654 691.989 C 505.885 717.414 479.499 736.38 452.031 744.266 A 160.756 160.756 0 0 1 374.036 746.23 C 349.518 740.729 327.149 729.096 303.105 722.433 C 262.681 711.231 225.359 721.66 203.959 759.4 C 191.894 780.679 189.639 806.641 185.545 830.363 C 181.133 817.448 173.699 803.669 171.452 790.288 C 174.408 787.832 182.515 761.584 185.825 755.194 C 193.824 739.749 205.54 731.442 218.047 720.194 L 219.233 719.115 L 220.012 721.856 L 221.384 722.591 C 225.285 717.904 224.421 708.739 227.554 702.864 z"/>
<path transform="translate(0,0)" fill="rgb(53,71,81)" d="M 444.581 568.661 C 455.693 611.462 451.344 634.689 429.317 672.396 C 439.877 671.451 450.144 669.952 460.198 666.452 C 494.934 654.363 508.445 633.381 523.715 602.07 C 527.866 620.817 530.138 642.15 524.804 660.88 C 509.349 685.622 487.696 698.606 459.438 705.137 A 167.838 167.838 0 0 1 371.726 701.655 C 341.518 692.165 316.049 679.304 283.424 681.909 A 113.364 113.364 0 0 0 239.768 694.983 C 235.735 697.142 231.899 701.98 227.554 702.864 C 248.6 638.98 298.655 657.706 349.807 652.926 C 365.79 651.433 382.193 646.558 396.112 638.501 C 424.032 622.339 436.456 598.851 444.581 568.661 z"/>
<path transform="translate(0,0)" fill="rgb(6,23,38)" d="M 1199.24 1180.34 C 1200.31 1179.01 1201.3 1177.99 1203.06 1177.66 C 1212.55 1175.88 1254.37 1179.25 1266.45 1179.71 L 1483.42 1187 C 1521.28 1188.28 1559.71 1191.4 1597.55 1190.95 C 1604.21 1190.87 1612.59 1190.62 1618.91 1188.41 C 1631.12 1184.15 1642.58 1173.97 1649.41 1163.28 C 1657.2 1151.08 1662.84 1137.38 1668.8 1124.21 C 1680.18 1099.07 1690.76 1073.45 1702.69 1048.57 C 1718.05 1016.55 1732.42 984.15 1747.32 951.934 L 1889.65 639.286 C 1894.2 629.252 1898.76 619.242 1902.68 608.94 C 1905.05 602.713 1908.08 589.173 1911.1 584.552 C 1912.01 583.156 1912.17 583.145 1913.29 582.259 C 1924.59 594.048 1954.97 620.628 1955.1 636.994 C 1955.14 642.894 1951.69 651.1 1949.47 656.564 C 1941.85 675.317 1932.59 693.585 1924.2 712.017 L 1880.34 809.294 L 1744.32 1110.48 C 1748.37 1131.54 1753.32 1152.42 1757.72 1173.41 L 1792.96 1338.86 L 1805.1 1395.23 C 1807.95 1407.95 1811.73 1421.09 1813.31 1434.02 C 1813.79 1437.9 1813.7 1441.07 1811.46 1444.43 C 1808.69 1448.58 1803.28 1452.6 1798.31 1453.43 C 1790.75 1454.7 1782.27 1454.13 1774.59 1454.2 L 1728.54 1454.66 C 1661.87 1455.58 1594.74 1456.14 1528.08 1454.88 C 1523.81 1454.12 1519.11 1454.34 1514.76 1454.21 C 1517.76 1431.38 1523.87 1410.55 1530.88 1388.74 C 1538.44 1381.34 1545.23 1373.55 1549.37 1363.72 C 1543.18 1322.34 1540.52 1280.48 1534.38 1239.1 L 1347.63 1231.17 C 1330.93 1230.45 1266.53 1230.69 1254.14 1225.62 C 1244.37 1221.63 1208.99 1189.41 1199.24 1180.34 z"/>
<path transform="translate(0,0)" fill="rgb(253,198,61)" d="M 523.12 744.853 C 556.768 790.597 572.943 873.694 581.341 929.215 C 583.483 943.373 583.46 958.43 586.301 972.367 C 586.962 980.093 588.744 1017.24 592.263 1020.91 C 590.141 1027.53 591.932 1038 592.319 1045.09 C 593.141 1060.19 596.769 1109.35 593.108 1121.64 C 588.169 1128.76 587.049 1140.85 584.296 1149.18 C 581.712 1157 577.48 1164.73 573.287 1171.79 C 550.415 1210.26 511.196 1235.91 468.179 1246.62 C 415.235 1259.81 357.073 1253.27 310.284 1224.67 A 181.185 181.185 0 0 1 254.471 1171.52 C 211.266 1108.43 213.717 1031.82 210.701 958.555 C 209.839 937.602 211.097 913.279 205.87 892.926 C 205.773 892.545 205.663 892.168 205.559 891.79 C 210.622 838.015 217.703 791.517 245.743 743.87 C 294.96 772.343 346.501 799.494 405.094 797.648 C 452.509 796.154 490.755 779.535 523.12 744.853 z"/>
<path transform="translate(0,0)" fill="rgb(249,236,195)" d="M 503.648 929.975 C 497.225 932.774 491.512 934.362 484.488 932.868 C 476.852 931.244 470.787 926.145 466.629 919.691 C 459.36 908.404 457.904 891.432 460.909 878.46 C 461.024 881.23 460.595 885.542 462.848 887.507 C 463.833 888.366 465.327 889.085 466.436 889.707 C 465.795 900.724 465.611 910.934 473.338 919.871 C 476.873 923.96 481.416 926.309 486.832 926.521 C 492.337 926.736 497.122 925.561 501.916 922.91 C 503.551 925.655 503.675 926.902 503.648 929.975 z"/>
<path transform="translate(0,0)" fill="rgb(152,66,9)" d="M 471.361 1038.57 L 473.622 1040.39 C 474.557 1042.65 475.01 1043.4 474.222 1045.88 C 471.445 1054.62 452.549 1063.59 444.297 1066.49 C 425.826 1072.96 405.157 1066.89 388.438 1058.68 L 386.028 1056.41 C 385.179 1053.86 385.291 1052.83 386.071 1050.27 C 387.831 1048.65 388.265 1047.97 390.886 1048.45 C 393.09 1048.85 396.258 1051 398.327 1052.01 C 406.907 1056.21 415.926 1058.84 425.541 1059 C 444.337 1059.3 458.23 1051.29 471.361 1038.57 z"/>
<path transform="translate(0,0)" fill="rgb(240,114,153)" d="M 517.744 918.848 L 520 916.29 L 521.161 916.43 C 533.096 917.756 552.994 914.201 561.326 925.091 C 562.919 927.174 563.066 929.429 562.578 931.926 C 561.458 937.645 555.46 942.538 550.57 945.032 C 542.589 949.103 531.338 950.439 522.781 947.502 C 516.771 945.44 512.561 940.863 509.806 935.244 C 508.599 932.782 508.291 930.077 508.081 927.371 C 511.727 925.636 514.852 921.693 517.744 918.848 z"/>
<path transform="translate(0,0)" fill="rgb(240,114,153)" d="M 270.236 928.168 C 276.857 927.096 285.244 927.871 291.378 930.715 C 296.071 932.891 300.067 936.395 301.683 941.434 C 302.791 944.891 302.469 948.723 300.546 951.833 C 296.012 959.164 287.328 960.233 279.59 961.761 C 272.896 962.332 265.842 962.662 259.487 960.134 C 255.071 958.377 251.041 955.398 249.273 950.839 A 11.6103 11.6103 0 0 1 249.655 941.576 C 253.404 933.77 262.733 931.004 270.236 928.168 z"/>
<path transform="translate(0,0)" fill="rgb(1,3,8)" d="M 485.94 796.042 C 495.498 795.315 503.869 797.821 512.034 802.792 C 523.168 809.572 537.42 823.621 539.879 836.812 C 540.381 839.506 539.939 840.666 538.523 842.909 C 535.655 843.644 534.964 843.045 532.257 842.027 C 525.178 836.513 518.355 831.425 509.959 828.084 C 500.849 824.458 477.851 824.109 473.277 817.064 C 471.881 814.913 471.932 812.845 472.515 810.442 C 474.112 803.865 480.348 799.054 485.94 796.042 z"/>
<path transform="translate(0,0)" fill="rgb(244,248,242)" d="M 460.909 878.46 C 462.555 869.135 466.564 861.007 474.573 855.549 C 482.375 850.232 493.12 848.093 502.366 850.019 C 511.197 851.86 518.477 857.753 523.262 865.263 C 529.413 874.917 530.806 886.673 528.192 897.72 C 526.589 904.496 524.126 910.634 520 916.29 L 517.744 918.848 C 515.142 915.794 514.013 913.602 513.412 909.625 C 516.047 901.706 516.307 892.165 513.287 884.301 C 510.535 877.134 505.223 870.953 497.988 868.091 C 492.335 865.856 486.041 866.013 480.602 868.776 C 471.994 873.15 468.994 881.074 466.436 889.707 C 465.327 889.085 463.833 888.366 462.848 887.507 C 460.595 885.542 461.024 881.23 460.909 878.46 z"/>
<path transform="translate(0,0)" fill="rgb(1,3,8)" d="M 304.805 803.13 C 312.468 802.72 317.207 803.698 323.354 808.628 C 326.284 810.978 328.672 814.023 328.686 817.957 C 328.692 820.002 328.118 822.063 326.506 823.368 C 323.563 825.748 318.03 827.387 314.518 828.663 C 297.845 834.721 285.408 839.879 273.179 853.392 C 273.099 853.481 273.017 853.57 272.939 853.661 C 271.402 855.445 269.79 857.675 267.966 859.149 C 266.027 860.716 264.521 860.834 262.159 860.544 C 260.754 859.348 260.357 859.323 259.777 857.45 C 257.686 850.705 262.17 841.889 265.412 836.045 C 274.444 819.766 286.671 808.431 304.805 803.13 z"/>
<path transform="translate(0,0)" fill="rgb(244,248,242)" d="M 304.607 930.827 C 295.212 923.103 287.455 912.051 286.203 899.724 C 285.161 889.478 287.854 878.333 294.547 870.374 C 300.546 863.241 309.547 858.446 318.87 857.768 C 329.043 857.029 340.076 860.888 347.496 867.889 C 353.005 873.087 360.599 885.532 359.976 893.569 C 359.731 896.726 357.448 898.326 355.202 900.171 C 353.281 890.804 348.993 881.857 340.791 876.389 C 335.832 873.082 329.931 871.708 324.065 873.026 C 317.46 874.511 312.171 879.059 308.863 884.864 C 303.05 895.064 303.32 906.699 305.671 917.841 L 305.622 919.67 C 305.527 924.578 306.634 926.145 304.607 930.827 z"/>
<path transform="translate(0,0)" fill="rgb(1,3,8)" d="M 466.436 889.707 C 468.994 881.074 471.994 873.15 480.602 868.776 C 486.041 866.013 492.335 865.856 497.988 868.091 C 505.223 870.953 510.535 877.134 513.287 884.301 C 516.307 892.165 516.047 901.706 513.412 909.625 C 514.013 913.602 515.142 915.794 517.744 918.848 C 514.852 921.693 511.727 925.636 508.081 927.371 C 506.614 928.181 504.945 928.919 503.648 929.975 C 503.675 926.902 503.551 925.655 501.916 922.91 C 497.122 925.561 492.337 926.736 486.832 926.521 C 481.416 926.309 476.873 923.96 473.338 919.871 C 465.611 910.934 465.795 900.724 466.436 889.707 z"/>
<path transform="translate(0,0)" fill="rgb(248,242,178)" d="M 501.916 922.91 C 506.876 919.023 510.274 915.114 513.412 909.625 C 514.013 913.602 515.142 915.794 517.744 918.848 C 514.852 921.693 511.727 925.636 508.081 927.371 C 506.614 928.181 504.945 928.919 503.648 929.975 C 503.675 926.902 503.551 925.655 501.916 922.91 z"/>
<path transform="translate(0,0)" fill="rgb(253,254,254)" d="M 481.336 873.567 C 483.896 874.202 486.072 874.911 487.686 877.076 C 489.53 879.549 490.007 882.272 489.409 885.253 C 488.507 889.75 486.616 891.784 482.835 894.203 C 480.754 893.069 478.306 891.874 476.685 890.108 C 474.934 888.201 473.79 886.098 473.974 883.449 C 474.294 878.839 477.994 876.211 481.336 873.567 z"/>
<path transform="translate(0,0)" fill="rgb(6,23,38)" d="M 305.671 917.841 C 303.32 906.699 303.05 895.064 308.863 884.864 C 312.171 879.059 317.46 874.511 324.065 873.026 C 329.931 871.708 335.832 873.082 340.791 876.389 C 348.993 881.857 353.281 890.804 355.202 900.171 C 355.429 910.056 355.362 920.474 347.768 927.971 C 343.066 932.614 336.511 934.56 330.071 935.014 C 329.587 935.656 328.773 936.759 328.258 937.324 C 326.745 938.984 326.081 939.254 323.819 939.35 C 317.359 939.625 309.371 934.919 304.607 930.827 C 306.634 926.145 305.527 924.578 305.622 919.67 L 305.671 917.841 z"/>
<path transform="translate(0,0)" fill="rgb(249,236,195)" d="M 305.671 917.841 C 309.965 925.345 313.661 931.063 322.467 933.61 C 324.944 934.326 327.522 934.67 330.071 935.014 C 329.587 935.656 328.773 936.759 328.258 937.324 C 326.745 938.984 326.081 939.254 323.819 939.35 C 317.359 939.625 309.371 934.919 304.607 930.827 C 306.634 926.145 305.527 924.578 305.622 919.67 L 305.671 917.841 z"/>
<path transform="translate(0,0)" fill="rgb(253,254,254)" d="M 317.121 879.589 A 15.1771 15.1771 0 0 1 325.458 882.631 C 327.586 884.265 328.832 886.431 328.947 889.126 C 329.171 894.366 326.32 897.021 322.891 900.505 C 319.245 900.44 315.725 900.188 313.031 897.376 C 311.459 895.735 310.836 893.734 310.894 891.497 C 311.024 886.422 313.742 883.071 317.121 879.589 z"/>
<path transform="translate(0,0)" fill="rgb(6,23,38)" d="M 362.062 1010.46 C 350.812 1000.55 338.476 980.941 337.729 965.655 C 337.564 962.286 338.188 960.167 339.835 957.269 C 352.365 955.201 366.383 959.77 378.765 961.66 C 389.126 963.241 400.599 964.206 411.114 963.834 C 424.277 963.368 438.036 961.137 450.816 958.102 C 462.775 955.262 475.34 950.26 487.741 950.736 C 492.113 956.6 492.113 962.329 491.027 969.416 C 488.7 984.61 480.157 1003.92 468.257 1013.94 C 457.253 1024.09 441.382 1029.83 426.635 1031.2 C 404.133 1033.28 379.369 1024.75 362.062 1010.46 z"/>
<path transform="translate(0,0)" fill="rgb(243,9,101)" d="M 362.062 1010.46 C 370.315 1000.05 384.298 996.071 397.023 994.53 C 420.646 991.669 446.188 996.395 465.256 1011.41 A 63.6817 63.6817 0 0 1 468.257 1013.94 C 457.253 1024.09 441.382 1029.83 426.635 1031.2 C 404.133 1033.28 379.369 1024.75 362.062 1010.46 z"/>
<path transform="translate(0,0)" fill="rgb(53,71,81)" d="M 1199.24 1180.34 A 125.079 125.079 0 0 1 1197.1 1178.32 C 1191.74 1173.09 1188.61 1168.03 1188.7 1160.34 C 1188.77 1154.83 1191.96 1148.77 1194.22 1143.84 C 1205.8 1118.61 1218.45 1093.81 1230.58 1068.84 L 1320 885.355 L 1403.62 712.756 C 1417.09 685.059 1429.8 656.559 1444.2 629.365 A 51.9887 51.9887 0 0 1 1454.05 616.348 C 1461.02 609.667 1470.01 605.427 1479.47 603.733 C 1501.79 599.736 1526.26 599.714 1548.96 598.053 L 1672.79 588.309 L 1815.05 576.799 C 1838.45 574.792 1870.02 570.183 1892.87 570.79 C 1902.34 571.042 1907.12 575.727 1913.29 582.259 C 1912.17 583.145 1912.01 583.156 1911.1 584.552 C 1908.08 589.173 1905.05 602.713 1902.68 608.94 C 1898.76 619.242 1894.2 629.252 1889.65 639.286 L 1747.32 951.934 C 1732.42 984.15 1718.05 1016.55 1702.69 1048.57 C 1690.76 1073.45 1680.18 1099.07 1668.8 1124.21 C 1662.84 1137.38 1657.2 1151.08 1649.41 1163.28 C 1642.58 1173.97 1631.12 1184.15 1618.91 1188.41 C 1612.59 1190.62 1604.21 1190.87 1597.55 1190.95 C 1559.71 1191.4 1521.28 1188.28 1483.42 1187 L 1266.45 1179.71 C 1254.37 1179.25 1212.55 1175.88 1203.06 1177.66 C 1201.3 1177.99 1200.31 1179.01 1199.24 1180.34 z"/>
<path transform="translate(0,0)" fill="rgb(253,254,254)" d="M 1657.82 603.725 C 1659.43 603.754 1661.78 603.833 1663.26 604.62 C 1665.92 606.039 1666.08 606.894 1666.97 609.57 C 1666.11 615.315 1663.67 618.07 1659.5 621.981 C 1656.97 622.141 1655.24 621.835 1652.82 621.242 C 1650.9 619.582 1649.64 618.855 1649.67 616.029 C 1649.74 610.912 1654.26 606.725 1657.82 603.725 z"/>
<path transform="translate(0,0)" fill="rgb(244,248,242)" d="M 1433.99 1131.61 C 1431.09 1144.74 1425.03 1155.49 1413.47 1162.96 C 1409.79 1165.33 1406.11 1166.71 1401.89 1167.77 C 1403.63 1161.54 1424.13 1139.03 1429.96 1135.23 C 1431.2 1134.42 1431.83 1133.98 1432.83 1132.9 L 1433.99 1131.61 z"/>
<path transform="translate(0,0)" fill="rgb(253,254,254)" d="M 1401.89 1167.77 C 1397.71 1168.21 1394.27 1168.34 1390.16 1167.19 C 1385.88 1166 1382.03 1164.1 1380.03 1159.9 C 1377.52 1154.66 1378.57 1147.79 1380.72 1142.62 C 1385.29 1131.59 1396.54 1121.84 1407.65 1117.74 C 1412.83 1115.84 1418.58 1115 1423.67 1117.61 C 1429.63 1120.68 1431.99 1125.52 1433.99 1131.61 L 1432.83 1132.9 C 1431.83 1133.98 1431.2 1134.42 1429.96 1135.23 C 1424.13 1139.03 1403.63 1161.54 1401.89 1167.77 z"/>
<path transform="translate(0,0)" fill="rgb(253,254,254)" d="M 1805.61 639.434 C 1809.1 639.265 1812.61 639.68 1815.15 642.374 C 1817.07 644.409 1817.77 646.399 1817.76 649.18 C 1817.74 653.191 1814.56 659.066 1812.95 662.721 C 1802.5 686.488 1790.96 709.846 1780.09 733.432 L 1704.44 897.779 L 1644.96 1026.76 C 1636.71 1044.51 1629.02 1062.77 1620.21 1080.23 C 1617.62 1085.36 1614.84 1090.14 1610.66 1094.16 C 1607.01 1097.68 1604.11 1099.88 1598.97 1100.55 C 1585.47 1102.32 1571.4 1101.23 1557.82 1100.98 L 1490.19 1099.51 L 1296.79 1096.8 C 1293.16 1096.72 1288 1096.78 1284.75 1095.17 C 1281 1093.3 1279.98 1091.15 1278.87 1087.4 C 1282.63 1070.51 1294.38 1051.59 1302.11 1035.72 L 1339.92 957.645 L 1444.95 738.557 C 1453.82 720.259 1461.79 701.338 1470.92 683.214 C 1473.47 678.163 1476.51 673.187 1480.15 668.851 C 1484.61 663.549 1494.58 661.519 1501.24 660.445 C 1513.15 658.528 1526.01 658.688 1538.05 658.079 A 2075.52 2075.52 0 0 0 1590.22 654.717 L 1805.61 639.434 z"/>
<path transform="translate(0,0)" fill="rgb(146,159,164)" d="M 1599.5 747.437 C 1607.07 746.774 1633.7 744.542 1639.66 748.346 C 1641.83 749.731 1641.83 750.898 1642.19 753.193 C 1641.69 754.842 1641.26 756.725 1639.97 757.976 C 1636.53 761.315 1627.59 760.692 1623.04 760.898 C 1611.28 761.041 1597.03 763.046 1585.61 761.315 C 1582.21 760.8 1580.03 760.013 1577.95 757.161 C 1577.94 754.768 1577.77 753.463 1579.54 751.554 C 1583.78 746.976 1593.79 747.651 1599.5 747.437 z"/>
<path transform="translate(0,0)" fill="rgb(146,159,164)" d="M 1553.41 829.355 C 1571.18 829.805 1588.94 829.399 1606.71 829.155 C 1619.21 828.983 1632.14 828.17 1644.49 830.336 L 1643.14 835.048 C 1642.77 836.332 1642.44 838.305 1641.69 839.41 C 1639.84 842.123 1638.13 842.118 1635.21 842.865 C 1604.08 843.526 1572.81 842.08 1541.72 843.777 C 1541.76 839.866 1541.24 835.284 1543.17 831.782 C 1546.02 829.526 1549.91 829.66 1553.41 829.355 z"/>
<path transform="translate(0,0)" fill="rgb(146,159,164)" d="M 1685.03 714.555 C 1694.62 714.102 1712.74 711.469 1721.36 714.27 C 1724.09 715.158 1724.8 715.978 1726.2 718.414 C 1726.04 720.844 1725.64 722.556 1723.73 724.263 C 1721.8 725.986 1718.8 726.713 1716.31 727.09 C 1708.55 728.267 1699.85 727.798 1691.97 728.089 L 1633.5 730.02 C 1623.44 730.125 1607.69 733.542 1598.5 729.819 C 1595.94 728.783 1595.28 727.789 1594.11 725.384 C 1594.46 723.751 1594.41 722.988 1595.55 721.66 C 1597.56 719.342 1599.85 718.192 1602.83 717.579 C 1610.7 715.964 1621.02 716.762 1629.18 716.501 L 1685.03 714.555 z"/>
<path transform="translate(0,0)" fill="rgb(146,159,164)" d="M 1636.69 798.541 C 1648.34 798.262 1687.37 795.464 1695.65 798.78 C 1697.12 799.369 1697.12 800.279 1697.74 801.62 C 1697.58 804.798 1697.44 806.265 1695.69 809.057 C 1688.77 812.938 1629.13 812.211 1616.75 812.432 C 1604.4 812.676 1570.3 815.085 1560.19 812.691 C 1557.93 812.155 1557.79 811.722 1556.6 809.88 C 1556.96 806.592 1558.18 804.307 1559.71 801.405 C 1566.12 797.002 1624.65 798.658 1636.69 798.541 z"/>
<path transform="translate(0,0)" fill="rgb(146,159,164)" d="M 1515.12 888.031 C 1544.79 886.975 1574.74 887.993 1604.45 887.984 C 1620.39 887.979 1640.38 885.931 1655.77 888.584 C 1657.73 888.921 1657.51 888.585 1658.69 890.321 C 1657.97 894.462 1655.79 897.907 1653.81 901.562 C 1636.93 902.155 1517.17 902.178 1511.66 899.269 C 1511.44 895.488 1513.7 891.478 1515.12 888.031 z"/>
<path transform="translate(0,0)" fill="rgb(146,159,164)" d="M 1503.47 920.331 C 1526 918.939 1548.95 920.312 1571.52 920.645 C 1594.93 920.991 1618.43 920.384 1641.82 921.612 C 1641.19 924.311 1640.68 927.313 1639.71 929.904 C 1638.61 932.839 1637.69 933.414 1634.93 934.765 C 1619.31 935.526 1507.21 935.355 1499.47 932.113 C 1497.11 931.125 1496.5 930.056 1495.43 927.836 L 1497.04 927.781 L 1495.48 927.447 C 1495.77 926.374 1495.83 925.935 1496.46 924.885 C 1498.27 921.917 1500.32 921.227 1503.47 920.331 z"/>
<path transform="translate(0,0)" fill="rgb(146,159,164)" d="M 1385.89 977.418 C 1399.83 976.087 1414.74 977.217 1428.75 977.543 L 1501.64 979.272 L 1574.11 980.988 C 1584.9 981.184 1596.1 980.126 1606.81 981.13 C 1610.57 981.482 1613.9 981.953 1616.43 985.02 C 1616.57 987.447 1616.54 988.237 1615.39 990.474 C 1613.59 993.986 1611.61 994.717 1608.09 995.801 C 1547.34 995.399 1486.43 993.227 1425.68 991.676 C 1416.51 991.442 1385.72 992.457 1378.96 990.496 C 1376.28 989.72 1375.6 988.696 1374.28 986.367 C 1374.34 984.11 1375.11 981.809 1376.74 980.159 C 1379.53 977.324 1382.15 977.784 1385.89 977.418 z"/>
<path transform="translate(0,0)" fill="rgb(146,159,164)" d="M 1363.41 1011.99 C 1379.46 1011.05 1395.98 1012.15 1412.08 1012.49 L 1503.21 1014.5 L 1568.44 1015.84 C 1577.56 1016.06 1588.56 1015.26 1597.47 1017.07 C 1599.96 1017.57 1600.24 1018.07 1601.56 1020.02 C 1601.84 1023.7 1599.88 1026.89 1598.34 1030.12 C 1575.35 1030.63 1365.76 1027.22 1360.45 1024.39 C 1359.35 1023.8 1359.38 1022.62 1359.05 1021.51 C 1359.73 1017.85 1361.51 1015.15 1363.41 1011.99 z"/>
<path transform="translate(0,0)" fill="rgb(9,54,64)" d="M 1526.25 710.458 C 1542.2 709.908 1558.41 709.282 1574.35 710.28 C 1572.35 721.35 1556.19 759.737 1548.84 767.887 C 1543.9 773.358 1532.05 772.296 1525.31 772.563 C 1512.97 773.226 1490.01 775.132 1478.58 771.684 C 1478.46 771.156 1478.23 770.642 1478.23 770.101 C 1478.1 763.133 1500.73 718.936 1505.43 713.754 C 1509.36 709.416 1520.77 710.578 1526.25 710.458 z"/>
<path transform="translate(0,0)" fill="rgb(253,254,254)" d="M 1546.15 731.823 L 1547.71 732.282 L 1548.34 733.704 C 1543.78 741.773 1520.56 753.906 1512.05 760.876 L 1510.96 761.777 C 1507.41 756.939 1504.17 751.94 1500.93 746.892 C 1500.73 746.523 1500.51 746.165 1500.34 745.786 C 1498.99 742.862 1498.4 740.2 1499.55 737.226 C 1505.29 738.54 1510.5 747.292 1514.07 751.83 C 1524.42 744.583 1534.87 737.564 1546.15 731.823 z"/>
<path transform="translate(0,0)" fill="rgb(9,54,64)" d="M 1475.64 793.414 C 1484.9 792.827 1526.42 791.329 1531.9 795.509 C 1531.21 804.677 1511.22 846.622 1504.71 853.95 C 1502.06 856.936 1499.97 856.803 1496.25 857.077 C 1487.1 857.083 1440.07 858.607 1436.05 854.961 C 1437.54 846.537 1458.97 802.516 1465.06 796.043 C 1467.62 793.326 1472.09 793.758 1475.64 793.414 z"/>
<path transform="translate(0,0)" fill="rgb(244,248,242)" d="M 1474.27 835.194 C 1484.9 824.156 1503.26 812.461 1517.46 806.966 C 1510.28 816.505 1490.1 832.544 1479.26 837.495 C 1475.45 840.37 1471.9 843.485 1468.31 846.612 C 1464.38 841.107 1460.06 834.366 1458.09 827.843 C 1457.35 825.36 1457.31 824.098 1458.53 821.851 L 1460.62 821.659 C 1464.94 824.699 1466.64 830.768 1470.43 834.486 C 1471.73 835.763 1472.56 835.252 1474.27 835.194 z"/>
<path transform="translate(0,0)" fill="rgb(9,54,64)" d="M 1424.57 879.093 C 1447.19 878.314 1470.03 878.906 1492.67 879.101 C 1489.46 889.867 1470.84 928.843 1464.73 938.125 C 1463.4 940.144 1461.98 941.374 1460.01 942.736 C 1445.46 945.119 1407.86 943.549 1392.36 941.861 C 1397.24 925.217 1414.61 894.302 1424.57 879.093 z"/>
<path transform="translate(0,0)" fill="rgb(244,248,242)" d="M 1462.21 902.737 L 1464.53 903.21 L 1465.13 904.585 C 1459.95 911.317 1433.14 926.265 1424.45 931.724 C 1422.13 927.711 1420.1 923.507 1417.98 919.382 C 1417.39 918.223 1416.79 917.058 1416.27 915.864 C 1415.24 913.493 1414.43 910.728 1415.41 908.296 L 1417.24 907.937 C 1423.79 911.467 1425.74 915.63 1429.01 922.037 C 1439.52 915.11 1450.41 907.176 1462.21 902.737 z"/>
</svg>