<svg width="1949" height="1331" viewBox="0 0 1949 1331" fill="none" xmlns="http://www.w3.org/2000/svg">
<path d="M1912.04 624.424C1792.56 856.138 1610.39 1060.66 1378.49 1188.85C1344.75 1207.49 1309.8 1224.64 1272.68 1235.47C1251.82 1241.56 1245.65 1243.1 1230.49 1256.97C1219.69 1266.88 1207.04 1273.66 1192.83 1277.4C1173.17 1282.57 1152.54 1282.29 1132.18 1281.98C960.713 1279.32 605.118 1273.86 530.178 1272.69C468.838 1271.74 404.656 1262.91 346.133 1280.96C295.597 1296.52 238.635 1306 191.042 1283.29C124.556 1251.57 101.464 1166.11 119.59 1096.38C135.13 1036.52 173.531 985.653 214.313 937.676C222.48 931.124 229.444 923.238 234.615 914.098C227.831 921.907 221.047 929.741 214.313 937.676C183.976 961.947 136.999 967.297 103.512 946.33C61.0146 919.731 49.3408 856.343 79.6778 817.07L47.8047 757.804C253.764 457.172 561.795 207.999 926.071 135.726C1135.2 94.2288 1354.07 144.791 1405.47 351.031C1422.81 420.615 1413.21 494.575 1389.5 562.341C1365.79 630.133 1328.54 692.599 1289.63 753.401C1415.05 617.767 1547.25 477.474 1722.52 412.192C1795.45 384.987 1882.53 375.819 1928.5 438.586C1967.6 491.938 1942.22 565.874 1912.04 624.424Z" fill="#F6F5F8"/>
<path d="M234.614 914.094C229.443 923.234 222.479 931.119 214.312 937.672C221.046 929.737 227.83 921.903 234.614 914.094Z" fill="#F6F5F8"/>
<path d="M1585.09 1296.82C1585.09 1315.45 1230.37 1330.57 792.82 1330.57C355.248 1330.57 0.546875 1315.45 0.546875 1296.82C0.546875 1278.16 355.248 1263.05 792.82 1263.05C1230.37 1263.05 1585.09 1278.16 1585.09 1296.82Z" fill="#DBCFDF"/>
<path d="M546.745 168.573C546.745 175.126 533.118 187.618 517.366 186.634C501.614 185.651 489.688 171.565 489.688 165.012C489.688 158.458 502.477 153.956 518.228 154.94C533.98 155.923 546.745 162.019 546.745 168.573Z" fill="#6A4466"/>
<path d="M589.806 59.982C603.816 58.1487 618.519 55.1938 631.705 60.2696C641.504 64.0413 648.964 71.7917 654.906 80.213C660.643 88.3443 667.955 97.4324 664.945 107.848C660.406 123.56 643.892 128.879 627.609 128.961C595.886 129.12 566.077 113.83 534.558 110.23C491.629 105.327 448.99 119.03 412.43 142.059C431.338 111.314 457.303 86.7765 491.046 73.9607" fill="#F99A5D"/>
<path d="M549.669 131.734C548.799 132.962 547.877 134.192 546.956 135.395C543.439 131.23 538.034 129.657 532.824 128.149C537.578 128.202 541.657 131.793 546.418 131.427C548.773 131.247 551.18 129.762 551.692 127.484C552.076 125.743 551.359 123.977 550.514 122.44C547.468 117.014 542.373 112.764 536.485 110.716C530.622 108.694 523.992 108.897 518.231 111.304C523.454 104.263 528.651 97.1983 533.848 90.1328C534.949 88.6479 536.101 86.9065 535.794 85.0887C535.512 83.3985 533.95 82.17 532.312 81.7596C530.673 81.3759 528.932 81.6834 527.294 82.1446C517.284 84.9858 509.886 93.3826 504.228 102.088C501.438 106.414 498.826 111.356 499.671 116.424C495.498 121.238 495.063 128.918 498.672 134.192C495.933 137.673 495.088 142.332 495.473 146.736C495.901 151.65 498.011 154.758 499.847 165.94C500.057 167.219 500.19 168.524 500.453 169.789C500.633 170.655 501.152 171.948 500.44 172.643C494.884 180.811 490.737 190.001 488.305 199.627L488.407 201.932C493.894 212.666 509.224 213.965 517.95 216.115C522.123 217.139 526.143 218.47 529.65 220.876C537.067 206.038 534.186 187.873 540.428 172.516C545.866 159.466 557.23 149.009 559.859 135.856C561.087 129.917 553.151 126.767 549.669 131.734ZM533.515 144.535C534.078 144.688 537.457 145.865 537.867 145.508C531.681 151.347 530.33 151.641 530.136 152.292C531.052 149.473 530.938 146.308 529.751 143.485C531.006 143.945 532.235 144.176 533.515 144.535Z" fill="#FFBAB4"/>
<path d="M541.649 169.797C535.625 181.515 536.363 197.437 533.303 210.426C528.49 213.038 523.319 214.957 517.943 216.11C508.961 213.897 493.896 212.681 488.399 201.927L488.297 199.621C490.729 189.996 494.876 180.806 500.432 172.638C514.18 174.482 528.285 173.483 541.649 169.797Z" fill="#FFACA5"/>
<path d="M695.031 1279.37C693.443 1284.03 688.503 1286.84 683.613 1287.51C675.463 1288.62 668.456 1285.06 651.893 1285.36C640.856 1285.47 602.49 1298.93 570.329 1296.49C562.649 1295.9 555.224 1293.52 548.722 1289.43C538.097 1282.72 538.123 1267.77 541.886 1261.04L555.788 1253.97C565.9 1257.4 576.96 1253.82 586.739 1249.52C596.493 1245.24 606.477 1240.12 617.127 1240.45C626.036 1240.74 634.587 1244.83 643.496 1244.55C652.636 1244.24 660.905 1239.38 668.79 1234.77C670.864 1233.57 673.552 1232.39 675.446 1233.85C676.605 1234.76 676.315 1234.77 688.118 1258.71C689.808 1262.16 691.37 1265.75 693.469 1268.92C695.441 1271.84 696.157 1276.01 695.031 1279.37Z" fill="#854D88"/>
<path d="M670.275 1149.73V1214.83L664.284 1230.32L610.906 1211.35V1158.97L670.275 1149.73Z" fill="#FFBAB4"/>
<path d="M670.275 1149.73V1184.19C649.556 1188.8 628.093 1184.56 610.906 1173.84V1158.97L670.275 1149.73Z" fill="#FFACA5"/>
<path d="M665.36 1217.12C648.465 1228.5 633.269 1203.63 620.555 1198.53C614.574 1196.12 606.902 1196.55 602.663 1201.41C599.533 1204.99 598.936 1210.05 597.618 1214.62C591.689 1235.21 571.982 1246.45 551.753 1253.17C548.08 1254.39 543.937 1255.87 542.405 1259.42C537.824 1270.05 555.921 1277.46 563.318 1279.46C577.021 1283.18 607.7 1283.51 623.177 1281.35C641.745 1278.76 648.917 1274.05 660.496 1268.48C662.537 1267.5 663.467 1267.46 665.763 1267.64C674.409 1268.32 683.166 1267.58 691.574 1265.45C689.771 1260.86 687.967 1256.26 686.164 1251.67C683.009 1243.64 679.095 1221.32 670.275 1208.64C670.208 1212.92 668.194 1215.22 665.36 1217.12Z" fill="url(#paint0_linear_5364_4717)"/>
<path d="M817.976 69.7035C825.867 66.3776 833.987 62.8981 839.945 56.7478C845.904 50.5974 849.19 41.0191 845.562 33.2629C842.938 27.6538 837.113 23.9691 831.021 22.8543C814.496 19.8309 803.06 33.2696 792.557 27.7403C789.175 25.96 787.067 22.5236 784.814 19.4364C768.544 -2.85844 743.098 -4.56718 730.299 9.28284C726.318 13.5904 723.476 19.5184 717.949 21.4817C713.535 23.05 708.703 21.5782 704.038 21.1532C692.427 20.0964 680.687 26.0901 673.864 35.5437C661.487 52.6948 664.019 79.3747 684.826 98.5366C690.143 103.433 696.478 107.558 703.605 108.765C710.732 109.972 718.722 107.785 723.111 102.041C727.262 96.6081 727.554 89.2854 728.373 82.4976C729.193 75.7099 731.269 68.205 737.233 64.8628C744.117 61.005 752.623 64.4705 759.802 67.7466C788.087 80.6535 784.833 58.3604 796.077 55.2257C799.414 54.2952 803.055 55.5849 805.759 57.7507C808.463 59.916 810.407 62.8655 812.305 65.7638" fill="url(#paint1_linear_5364_4717)"/>
<path d="M810.685 121.537C812.403 113.914 814.131 106.186 813.832 98.3771C813.533 90.5687 810.966 82.5379 805.262 77.1962C797.945 70.3441 787.161 69.1423 777.904 65.2963C766.067 60.3785 756.318 50.8764 743.96 47.4748C732.096 44.2092 718.668 47.3512 709.485 55.5414C700.301 63.7321 695.649 76.7137 697.542 88.8731C699.491 101.4 708.027 113.353 704.308 125.967C713.789 120.756 726.047 121.024 735.292 126.646C739.365 129.123 742.806 132.501 746.658 135.31C760.606 145.48 765.968 136.227 774.094 138.577C780.71 140.491 783.339 149.686 790.085 151.069C793.687 151.808 797.422 149.921 799.876 147.183C802.331 144.446 803.753 140.961 805.128 137.552" fill="url(#paint2_linear_5364_4717)"/>
<path d="M792.826 164.677C793.109 162.374 788.779 197.486 783.124 243.4L704.656 256.176L708.01 203.462L709.776 175.66L792.826 164.677Z" fill="#FFBAB4"/>
<path d="M792.824 164.68L792.645 166.089C787.806 168.903 782.481 170.824 777.028 172.257C773.137 183.445 763.843 192.073 753.629 197.731C739.855 205.36 722.959 208.15 708.008 203.465L709.775 175.663L792.824 164.68Z" fill="#FFACA5"/>
<path d="M814.712 153.697C808.388 159.151 800.554 162.351 792.49 164.476C788.599 175.663 779.306 184.291 769.091 189.948C754.191 198.192 735.656 200.802 719.86 194.402C704.065 188.001 692.083 171.746 693.082 154.747C693.696 144.199 698.842 134.547 702.144 124.512C709.94 100.847 703.304 89.739 710.465 84.9327C715.901 81.2901 723.01 86.6468 726.593 88.4914C734.709 92.7152 744.642 93.2529 753.167 89.9252C759.362 87.4926 764.687 83.2425 770.908 80.8625C777.104 78.5073 785.117 78.6097 789.29 83.7802C794.592 90.351 792.411 118.63 791.21 134.445C794.999 131.501 798.788 128.659 802.654 125.818C806.545 122.976 811.486 121.004 816.12 122.284C820.267 123.462 823.416 127.15 824.517 131.296C826.748 139.957 821.462 147.85 814.712 153.697Z" fill="url(#paint3_linear_5364_4717)"/>
<path d="M919.737 1286.38C913.998 1295.32 902.549 1296.8 892.751 1297.57C876.434 1298.84 859.982 1299.35 843.733 1297.39C833.992 1296.21 823.947 1293.96 816.34 1287.76C811.54 1283.85 807.485 1278.28 801.396 1277.16C797.505 1276.44 793.35 1277.72 789.599 1276.45C783.972 1274.56 781.604 1267.87 781.186 1261.94C780.455 1251.58 783.457 1240.99 789.519 1232.55C792.113 1236.05 793.453 1240.31 795.677 1244.05C797.902 1247.8 801.543 1251.24 805.899 1251.2C810.73 1251.16 814.56 1246.94 819.302 1246.01C831.199 1243.69 839.398 1261.66 851.319 1258.98C857.256 1257.65 861.671 1251.08 867.723 1251.71C872.358 1252.19 875.599 1256.8 880.142 1257.84C882.762 1258.44 885.479 1257.77 888.147 1257.45C895.542 1256.55 903.001 1258.47 909.515 1261.94C914.743 1264.73 921.095 1268.08 922.121 1274.35C922.795 1278.47 922 1282.85 919.737 1286.38Z" fill="#854D88"/>
<path d="M850.552 1167.11V1203.21L828.561 1223.28L808.08 1221.72L791.491 1204.93C788.859 1144.9 789.768 1165.62 789.571 1161.12L850.552 1167.11Z" fill="#FFBAB4"/>
<path d="M850.552 1167.11V1178.82C831.485 1186.26 810.948 1190.63 790.722 1187.44L789.57 1161.12L850.552 1167.11Z" fill="#FFACA5"/>
<path d="M806.635 1209.87C807.147 1209.45 807.302 1208.43 807.578 1207.83C817.278 1187.03 838.115 1181 851.765 1189.99C865.514 1199.05 866.103 1217.92 875.279 1230.74C887.313 1247.56 911.467 1252.61 920.955 1270.98C912.835 1262.49 899 1261.19 889.618 1268.27C884.319 1272.27 880.798 1278.34 875.295 1282.05C866.7 1287.85 855.371 1286.72 845.091 1285.37C839.372 1284.62 833.603 1283.85 828.163 1281.93C808.448 1274.97 812.802 1260.07 802.36 1256.05C798.048 1254.39 792.678 1255.94 788.956 1253.2C786.171 1251.16 785.853 1247.3 784.872 1243.99C780.319 1228.61 790.009 1199.86 791.35 1196.46C793.585 1203.33 802.655 1203.07 806.635 1209.87Z" fill="url(#paint4_linear_5364_4717)"/>
<path d="M860.87 1171.85C860.87 1183.91 787.293 1183.91 787.293 1171.85L722.369 823.342L713.332 774.777L712.718 780.921L674.137 1166.32C674.137 1177.99 603.325 1177.99 603.325 1166.32C608.251 992.587 594.919 634.505 609.674 551.051C610.877 544.368 612.234 539.453 613.796 536.534L619.684 543.574C878.721 508.545 818.191 516.555 818.783 516.974C826.156 522.172 836.089 522.121 843.949 526.525C853.189 531.744 860.81 1168.77 860.87 1171.85Z" fill="url(#paint5_linear_5364_4717)"/>
<path d="M852.142 684.38C756.728 675.932 670.401 659.496 603.992 625.472C604.616 605.185 606.142 571.034 609.675 551.051C612.875 548.362 616.23 545.878 619.685 543.574C878.722 508.545 818.192 516.555 818.784 516.974C826.157 522.172 836.091 522.121 843.95 526.525C848.276 528.968 851.967 678.244 852.142 684.38Z" fill="#6A4466"/>
<path d="M826.354 1156.9C811.9 1004.6 796.568 807.489 787.293 654.733C787.23 653.685 788.026 652.782 789.076 652.719C790.156 652.691 791.027 653.455 791.09 654.503C800.363 807.22 815.691 1004.28 830.14 1156.54C830.24 1157.58 829.473 1158.51 828.427 1158.61C827.454 1158.73 826.457 1157.99 826.354 1156.9Z" fill="#6A4466"/>
<path d="M626.29 1148.58C631.128 999.704 639.539 814.909 648.241 666.307C648.387 663.8 652.184 664.014 652.038 666.53C643.338 815.102 634.929 999.858 630.091 1148.7C630.009 1151.24 626.206 1151.09 626.29 1148.58Z" fill="#6A4466"/>
<path d="M727.337 705.195C725.98 743.852 722.447 784.558 722.37 823.344L713.333 774.778L712.719 780.922L712.81 780.008C715.652 755.047 720.194 729.285 727.337 705.195Z" fill="#6A4466"/>
<path d="M851.255 613.006C849.362 629.298 852.194 639.446 850.825 640.016C849.903 650.056 603.111 633.163 604.057 623.098C603.236 619.364 604.466 609.25 604.915 595.781C617.514 605.191 825.707 619.355 851.255 613.006Z" fill="white"/>
<path d="M1021.49 455.354C1017.27 472.635 1002.55 486.869 985.137 490.504C963.53 494.984 947.555 483.618 933.935 468.488C910.275 442.21 889.964 412.439 881.401 378.27C881.401 379.143 878.473 393.15 873.568 427.91C873.568 427.91 873.568 427.91 873.568 427.935C860.409 520.508 854.316 613.568 849.989 615.309C849.042 625.217 604.245 607.015 605.218 597.08C602.043 583.026 611.081 486.869 611.413 407.506C611.465 400.107 611.413 392.863 611.285 385.847C608.714 385.592 563.093 387.022 508.677 367.235C488.58 359.965 467.101 352.054 459.036 330.344C453.462 315.241 464.665 265.576 468.201 249.676C469.763 242.636 489.809 167.778 489.809 166.141C489.066 180.451 545.9 183.651 546.719 169.314C544.645 204.946 542.306 256.394 534.533 295.194C567.64 282.717 604.124 271.561 635.632 261.964C654.448 256.204 673.47 250.444 693.131 248.524C701.938 247.68 711.564 246.86 720.089 249.471C727.744 251.775 734.707 254.694 742.849 252.8C748.071 251.571 753.396 247.449 758.747 246.553C764.2 245.631 769.268 243.25 774.491 241.535C787.932 237.132 800.194 244.659 814.044 247.628C836.624 252.467 859 256.871 879.916 266.061C886.674 269.031 893.561 272.102 899.577 276.301C919.316 285.774 940.743 297.754 950.472 317.365C958.791 334.139 956.831 342.259 950.19 357.712C943.918 372.329 948.218 379.933 941.921 394.527C969.595 405.356 976.636 410.604 989.692 389.202L1005.46 407.43C1019.21 418.668 1025.71 438.1 1021.49 455.354Z" fill="url(#paint6_linear_5364_4717)"/>
<path d="M754.195 122.487C754.195 126.004 756.272 128.853 758.849 128.853C761.417 128.853 763.503 126.004 763.503 122.487C763.503 118.969 761.417 116.109 758.849 116.109C756.272 116.109 754.195 118.969 754.195 122.487Z" fill="#6A4466"/>
<path d="M711.398 115.096C711.398 118.614 713.475 121.463 716.052 121.463C718.62 121.463 720.705 118.613 720.705 115.096C720.705 111.579 718.62 108.719 716.052 108.719C713.475 108.719 711.398 111.579 711.398 115.096Z" fill="#6A4466"/>
<path d="M770.655 107.917C764.885 101.684 755.633 101.704 747.263 103.322C744.774 103.799 744.08 100.062 746.539 99.5876C756.276 97.6982 766.675 98.0184 773.449 105.335C774.162 106.106 774.116 107.308 773.343 108.023C772.572 108.735 771.368 108.69 770.655 107.917Z" fill="#6A4466"/>
<path d="M706.232 103.186C705.657 102.305 705.905 101.127 706.784 100.553C712.368 96.9047 719.981 96.7244 725.732 100.102C726.639 100.633 726.942 101.8 726.41 102.704C725.877 103.609 724.709 103.914 723.808 103.383C719.273 100.723 713.266 100.863 708.865 103.737C707.98 104.315 706.802 104.06 706.232 103.186Z" fill="#6A4466"/>
<path d="M715.51 134.704C716.586 130.672 720.573 128.559 723.476 127.319C725.99 126.256 729.085 125.082 730.418 122.898C730.966 121.999 732.14 121.715 733.032 122.265C733.929 122.811 734.213 123.983 733.665 124.879C730.086 130.748 720.562 130.539 719.185 135.684C718.69 137.534 719.774 139.872 721.702 141.124C723.98 142.604 726.887 142.628 728.921 142.394C731.429 142.084 731.86 145.879 729.363 146.173C719.287 147.34 713.949 140.543 715.51 134.704Z" fill="#FFACA5"/>
<path d="M728.923 161.669C728.02 161.132 727.723 159.965 728.258 159.06C728.797 158.157 729.961 157.86 730.867 158.395C734.97 160.836 741.771 159.854 747.221 151.947C747.814 151.082 749.001 150.866 749.867 151.461C750.732 152.057 750.95 153.241 750.353 154.106C743.752 163.685 734.733 165.114 728.923 161.669Z" fill="#FFACA5"/>
<path d="M793.382 143.574C792.977 142.604 793.434 141.49 794.403 141.085C800.469 138.551 805.752 134.427 809.681 129.157C810.309 128.312 811.498 128.141 812.343 128.769C813.184 129.397 813.359 130.589 812.731 131.431C808.394 137.247 802.564 141.8 795.871 144.596C794.916 144.996 793.791 144.555 793.382 143.574Z" fill="#FFACA5"/>
<path d="M797.513 154.752C797.132 153.773 797.617 152.672 798.596 152.291C809.006 148.239 809.183 140.181 805.28 137.523C804.411 136.932 804.186 135.749 804.778 134.881C805.369 134.014 806.552 133.782 807.42 134.38C813.749 138.688 813.549 150.557 799.974 155.836C799.013 156.214 797.897 155.744 797.513 154.752Z" fill="#FFACA5"/>
<path d="M1054.52 308.71C1031.3 328.499 1001.81 339.431 972.185 346.829C981.698 370.679 994.432 399.288 994.432 402.256C994.357 409.65 971.071 423.745 948.018 415.031C943.879 413.473 940.699 409.961 939.262 405.917C918.665 347.84 914.389 349.74 910.999 337.485C905.839 318.416 920.233 315.189 925.13 305.151C929.284 296.633 925.327 284.327 930.481 277.989C932.043 276.094 934.628 274.865 937.009 275.48C939.723 276.196 941.361 278.962 942.488 281.547C945.97 289.689 947.327 298.725 946.405 307.533C956.978 309.964 968.038 310.4 978.79 308.787C981.298 308.403 984.012 307.814 985.702 305.92C990.463 300.595 983.295 291.044 989.055 285.54C990.668 284.004 992.947 283.339 995.148 283.544C1000.45 284.056 1003.88 288.537 1005.24 293.323C1006.31 297.112 1006.26 301.106 1006.21 305.049C1011.35 302.591 1014.32 297.19 1017.93 292.761C1021.54 288.306 1027.3 284.338 1032.65 286.36C1035.7 287.512 1037.88 290.609 1037.95 293.836C1038.03 297.061 1035.98 300.261 1033.01 301.541C1039.69 299.289 1046.38 297.061 1053.08 294.808C1055.44 294.015 1058.2 293.272 1060.28 294.629C1065.53 298.06 1057.21 306.405 1054.52 308.71Z" fill="#FFBAB4"/>
<path d="M1160.57 279.187L1158.09 296.624C1156.14 311.619 1086.69 311.921 1002.96 297.315C919.24 282.709 852.941 258.726 854.885 243.732L854.939 243.375L857.337 225.539L895.915 232.367C924.393 231.665 965.153 235.208 1010.01 243.029C1056.32 251.11 1097.3 262.065 1124.35 272.782L1160.57 279.187Z" fill="#6A4466"/>
<path d="M1160.57 278.65C1163.19 263.777 1097.45 239.779 1013.74 225.05C930.032 210.321 860.051 210.438 857.434 225.312C854.817 240.185 920.554 264.182 1004.26 278.912C1087.97 293.641 1157.95 293.524 1160.57 278.65Z" fill="#854D88"/>
<path d="M1150.08 257.181L1145.01 270.75C1144.93 271.053 1144.82 271.355 1144.67 271.636C1138.79 283.725 1077.14 283.411 1003.32 270.588C928.326 257.559 868.606 236.461 867.85 222.914L867.828 222.903L867.85 222.849C867.828 222.59 867.839 222.341 867.872 222.082C867.98 221.218 868.358 220.397 868.973 219.64L873.187 207.562L898.866 212.164C958.183 209.097 1071.37 229.336 1122.77 252.288L1150.08 257.181Z" fill="#F99A5D"/>
<path d="M1150.24 256.554C1152.58 243.168 1092.43 221.451 1015.9 208.047C939.356 194.643 875.409 194.628 873.065 208.014C870.721 221.399 930.868 243.116 1007.41 256.52C1083.95 269.924 1147.89 269.939 1150.24 256.554Z" fill="#F8C55E"/>
<path d="M1116.3 240.705C1115.01 250.645 1066.58 253.442 1010.19 243.645C953.804 233.848 909.137 217.855 910.426 207.915C911.714 197.983 958.47 197.867 1014.86 207.664C1071.25 217.461 1117.59 230.773 1116.3 240.705Z" fill="#F6F5F8"/>
<path d="M719.695 49.1553C723.744 47.5549 728.474 49.987 732.052 52.4677C741.105 58.7449 749.288 66.6448 759.607 70.5021C768.422 73.7967 778.135 73.8715 787.113 76.6901C798.507 80.2679 808.403 88.3978 814.123 98.8825L819.738 68.9569C783.953 35.217 750.298 28.0165 719.695 49.1553Z" fill="#F6F5F8"/>
<path d="M695.951 245.366C693.772 244.21 706.214 210.263 707.89 210.525C720.152 218.459 725.044 232.652 729.356 252.315C719.214 253.329 703.343 253.406 695.951 245.366Z" fill="#DBCFDF"/>
<path d="M729.359 252.314C735.452 213.953 769.69 226.783 785.201 209.231C786.431 207.838 787.951 206.3 787.944 204.441C787.938 202.91 788.835 201.397 788.919 199.188C792.571 203.339 796.776 206.216 799.801 212.657C802.534 218.477 802.09 226.208 801.223 232.406C800.47 237.783 800.163 240.529 801.888 245.677C773.486 253.464 748.683 257.958 729.359 252.314Z" fill="#DBCFDF"/>
<path d="M710.163 502.708C653.338 305.807 655.138 317.03 656.809 315.499L727.733 250.418C728.5 249.702 729.709 249.756 730.419 250.533C731.131 251.306 731.079 252.509 730.304 253.219L660.252 317.503L713.815 501.646C714.109 502.655 713.529 503.71 712.521 504.004C711.526 504.296 710.458 503.726 710.163 502.708Z" fill="#DBCFDF"/>
<path d="M608.467 489.922C607.457 489.634 606.871 488.581 607.159 487.57C607.449 486.558 608.514 485.971 609.511 486.262C668.198 503.009 751.675 504.77 864.702 491.655C867.214 491.365 867.633 495.145 865.141 495.434C787.703 504.419 683.825 511.421 608.467 489.922Z" fill="#DBCFDF"/>
<path d="M682.598 329.211C682.598 332.877 679.605 335.904 675.904 335.904C672.205 335.904 669.211 332.877 669.211 329.211C669.211 325.511 672.204 322.484 675.904 322.484C679.605 322.484 682.598 325.511 682.598 329.211Z" fill="#DBCFDF"/>
<path d="M695.98 365.313C695.98 368.979 692.987 372.006 689.287 372.006C685.587 372.006 682.594 368.979 682.594 365.313C682.594 361.613 685.587 358.586 689.287 358.586C692.987 358.586 695.98 361.613 695.98 365.313Z" fill="#DBCFDF"/>
<path d="M707.567 401.868C707.567 405.533 704.573 408.56 700.873 408.56C697.174 408.56 694.18 405.533 694.18 401.868C694.18 398.168 697.173 395.141 700.873 395.141C704.573 395.141 707.567 398.168 707.567 401.868Z" fill="#DBCFDF"/>
<path d="M718.895 438.43C718.895 442.096 715.901 445.123 712.201 445.123C708.502 445.123 705.508 442.096 705.508 438.43C705.508 434.73 708.501 431.703 712.201 431.703C715.901 431.703 718.895 434.73 718.895 438.43Z" fill="#DBCFDF"/>
<path d="M731.668 475.43C731.668 479.096 728.674 482.123 724.974 482.123C721.274 482.123 718.281 479.096 718.281 475.43C718.281 471.73 721.275 468.703 724.974 468.703C728.674 468.703 731.668 471.73 731.668 475.43Z" fill="#DBCFDF"/>
<path d="M662.926 113.376C664.283 108.255 665.998 99.859 663.694 94.8148C661.722 90.5145 657.37 86.1109 653.914 82.9367C603.632 36.4073 498.43 99.2506 437.458 130.016C392.759 152.597 344.27 172.335 294.297 169.16C237.39 165.494 223.907 129.676 235.543 101.676C248.011 71.7227 285.183 52.5223 312.397 38.2627C343.451 21.981 378.09 9.94799 413.521 10.8177C469.024 12.2003 519.663 45.8152 575.088 48.4267C591.857 49.2195 608.293 47.4527 624.754 51.8056C638.194 55.3644 651.046 62.6097 659.059 73.9764C667.073 85.3172 669.428 101.087 662.926 113.376Z" fill="url(#paint7_linear_5364_4717)"/>
<path d="M881.374 378.45C878.506 394.553 875.921 411.22 873.565 427.911C871.62 420.82 870.263 413.6 869.495 406.304C866.986 382.929 870.467 358.942 879.556 337.258C879.351 351.006 879.965 364.753 881.374 378.45Z" fill="#DBCFDF"/>
<path d="M611.414 407.502C611.465 400.103 611.414 392.859 611.285 385.844H610.773C619.375 377.728 626.928 368.512 633.174 358.477C627.568 375.476 620.246 391.912 611.414 407.502Z" fill="#DBCFDF"/>
<path d="M553.993 288.156C544.726 297.705 533.052 304.823 520.328 308.663C525.32 303.978 530.133 299.088 534.742 294.045C534.69 294.429 534.614 294.813 534.537 295.197C540.988 292.765 547.465 290.409 553.993 288.156Z" fill="#DBCFDF"/>
<path d="M484.599 184.674C483.668 184.187 483.308 183.037 483.796 182.106C484.283 181.18 485.429 180.814 486.364 181.304C504.795 190.953 527.069 191.57 545.953 182.944C546.907 182.512 548.038 182.93 548.474 183.886C548.909 184.841 548.489 185.97 547.533 186.407C527.611 195.499 504.092 194.881 484.599 184.674Z" fill="#DBCFDF"/>
<path d="M990.434 408.502C978.785 417.974 961.966 420.304 948.013 415.03C945.837 414.211 943.917 412.854 942.406 411.165C946.221 413.161 951.034 412.189 955.284 411.011C968.708 407.308 982.401 401.978 990.075 390.172C991.227 392.988 992.379 395.778 993.48 398.568C994.954 402.141 995.168 404.676 990.434 408.502Z" fill="#FFACA5"/>
<path d="M936.54 411.009C936.103 410.052 936.523 408.924 937.478 408.488C938.437 408.045 939.562 408.471 939.999 409.426C953.332 438.588 998.068 434.422 1001.97 412.539C1002.15 411.503 1003.14 410.815 1004.18 411.001C1005.21 411.185 1005.9 412.173 1005.72 413.208C1004.79 418.402 1001.59 423.427 996.931 426.995C980.195 439.818 947.669 435.348 936.54 411.009Z" fill="#DBCFDF"/>
<path d="M509.163 335.357C495.95 333.838 493.234 327.442 494.807 315.763L511.63 190.971C511.769 189.929 512.7 189.189 513.77 189.34C514.81 189.481 515.54 190.438 515.401 191.48L498.578 316.272C497.252 326.097 498.763 330.326 509.599 331.579C551.421 336.379 592.545 309.107 635.478 312.044C637.908 312.211 637.823 315.893 635.218 315.841C592.966 312.91 552.192 340.328 509.163 335.357Z" fill="#DBCFDF"/>
<path d="M944.046 446.231C935.354 433.885 928.074 420.448 921.033 407.456C912.579 391.853 906.367 380.313 900.306 364.995C896.802 356.149 893.493 347.793 886.243 341.234C885.465 340.53 885.403 339.326 886.109 338.548C886.812 337.77 888.015 337.708 888.796 338.414C898.712 347.384 901.631 358.861 906.694 370.583C913.34 385.951 934.715 426.368 947.156 444.042C952.634 451.82 960.255 461.374 970.657 466.232C981.063 471.084 987.826 466.854 989.646 458.07C991.413 449.564 987.102 439.135 988.249 429.768C988.557 427.226 992.328 427.757 992.024 430.229C990.911 439.332 995.41 449.025 993.373 458.842C989.715 476.461 968.044 480.327 944.046 446.231Z" fill="#DBCFDF"/>
<path d="M603.373 1150.5C602.343 1150.29 601.68 1149.29 601.89 1148.26C602.923 1143.2 605.19 1152.97 674.274 1148.82C675.29 1148.77 676.225 1149.56 676.286 1150.61C676.349 1151.65 675.55 1152.55 674.501 1152.62C652.791 1153.92 624.785 1154.87 603.373 1150.5Z" fill="#6A4466"/>
<path d="M786.1 1161.25C785.048 1161.23 784.21 1160.36 784.227 1159.31C784.243 1158.27 785.15 1157.38 786.159 1157.44C858.111 1158.57 862.007 1150.63 862.75 1155.39C862.912 1156.42 862.202 1157.4 861.164 1157.56C837.547 1161.24 810.017 1161.62 786.1 1161.25Z" fill="#6A4466"/>
<path d="M1004.78 215.955C1005.42 212.336 989.152 206.462 968.453 202.838C947.755 199.213 930.461 199.209 929.828 202.829C929.194 206.448 945.459 212.321 966.158 215.946C986.856 219.571 1004.15 219.575 1004.78 215.955Z" fill="#EE566E"/>
<path d="M991.699 213.669C992.112 211.313 981.525 207.49 968.052 205.13C954.58 202.771 943.324 202.768 942.911 205.125C942.499 207.481 953.086 211.303 966.558 213.663C980.031 216.022 991.287 216.025 991.699 213.669Z" fill="#F6F5F8"/>
<path d="M973.36 207.533C973.231 208.526 968.558 208.537 962.921 207.558C957.284 206.579 952.819 204.98 952.948 203.987C953.077 202.994 957.751 202.982 963.388 203.961C969.024 204.94 973.489 206.54 973.36 207.533Z" fill="#9EE4A6"/>
<path d="M989.705 214.799C989.399 217.165 968.984 213.636 969.293 211.252C969.421 210.259 974.095 210.248 979.732 211.227C985.369 212.207 989.834 213.806 989.705 214.799Z" fill="#9EE4A6"/>
<path d="M1102.94 234.929C1103.76 230.61 1088.88 224.161 1069.72 220.524C1050.55 216.887 1034.34 217.44 1033.52 221.759C1032.7 226.077 1047.58 232.526 1066.75 236.163C1085.92 239.8 1102.12 239.247 1102.94 234.929Z" fill="#EE566E"/>
<path d="M1090.82 232.631C1091.35 229.82 1081.67 225.622 1069.2 223.255C1056.72 220.888 1046.17 221.248 1045.64 224.059C1045.1 226.87 1054.79 231.067 1067.26 233.435C1079.74 235.802 1090.29 235.442 1090.82 232.631Z" fill="#F6F5F8"/>
<path d="M1073.86 225.914C1073.49 228.758 1054.58 225.232 1054.95 222.386C1055.1 221.198 1059.46 221.023 1064.68 221.998C1069.91 222.972 1074.01 224.726 1073.86 225.914Z" fill="#9EE4A6"/>
<path d="M1088.85 234.024C1088.48 236.868 1069.57 233.342 1069.94 230.495C1070.1 229.307 1074.45 229.133 1079.68 230.107C1084.9 231.082 1089.01 232.836 1088.85 234.024Z" fill="#9EE4A6"/>
<path d="M1048.3 239.373C1048.99 235.45 1031.36 229.085 1008.93 225.157C986.5 221.228 967.759 221.224 967.072 225.147C966.385 229.07 984.012 235.435 1006.44 239.363C1028.87 243.291 1047.62 243.296 1048.3 239.373Z" fill="#EE566E"/>
<path d="M1034.13 236.886C1034.57 234.333 1023.1 230.19 1008.5 227.633C993.901 225.076 981.702 225.074 981.255 227.627C980.808 230.18 992.281 234.323 1006.88 236.88C1021.48 239.437 1033.68 239.44 1034.13 236.886Z" fill="#F6F5F8"/>
<path d="M1014.25 230.236C1013.92 232.801 991.794 228.977 992.129 226.393C992.268 225.317 997.333 225.305 1003.44 226.366C1009.55 227.427 1014.39 229.161 1014.25 230.236Z" fill="#9EE4A6"/>
<path d="M1031.97 238.119C1031.83 239.196 1026.76 239.208 1020.65 238.147C1014.55 237.085 1009.71 235.353 1009.85 234.276C1009.99 233.2 1015.05 233.188 1021.16 234.249C1027.27 235.31 1032.11 237.043 1031.97 238.119Z" fill="#9EE4A6"/>
<path d="M497.364 133.96C496.783 133.085 497.022 131.903 497.898 131.324C508.23 124.467 521.469 122.572 533.323 126.247C534.326 126.559 534.887 127.625 534.575 128.628C534.265 129.629 533.197 130.187 532.194 129.88C521.43 126.537 509.395 128.262 500 134.493C499.132 135.072 497.948 134.839 497.364 133.96Z" fill="#FFACA5"/>
<path d="M498.589 118.047C497.943 117.217 498.093 116.022 498.922 115.378C500.744 113.96 502.763 112.825 504.926 112.002C505.912 111.623 507.006 112.121 507.38 113.104C507.753 114.085 507.261 115.185 506.278 115.558C504.47 116.245 502.782 117.196 501.259 118.38C500.433 119.024 499.233 118.877 498.589 118.047Z" fill="#FFACA5"/>
<path d="M525.755 158.251C524.998 157.522 524.975 156.319 525.703 155.561C526.556 154.675 527.227 153.595 527.641 152.44C527.997 151.45 529.088 150.937 530.074 151.292C531.063 151.647 531.577 152.737 531.222 153.726C530.626 155.383 529.666 156.93 528.445 158.199C527.72 158.952 526.517 158.982 525.755 158.251Z" fill="#FFACA5"/>
<path d="M214.273 116.82C223.647 176.101 277.2 219.094 338.413 216.674C274.881 225.541 213.646 184.614 196.75 120.576L214.273 116.82Z" fill="#F6F5F8"/>
<path d="M184.483 129.828C171.768 169.588 191.315 214.714 232.265 233.131C187.552 219.992 158.763 174.159 167.043 125.703L184.483 129.828Z" fill="#F6F5F8"/>
<path d="M524.866 1311.27C547.039 1311.27 565.013 1293.3 565.013 1271.12C565.013 1248.95 547.039 1230.98 524.866 1230.98C502.693 1230.98 484.719 1248.95 484.719 1271.12C484.719 1293.3 502.693 1311.27 524.866 1311.27Z" fill="#DBCFDF"/>
<path d="M253.588 712.867H204.539V1233.22H253.588V712.867Z" fill="#DBCFDF"/>
<path d="M229.065 712.867H180.016V1233.22H229.065V712.867Z" fill="#F6F5F8"/>
<path d="M441.33 745.172H159.078V1094.29H441.33V745.172Z" fill="#DBCFDF"/>
<path d="M295.506 804.077C301.118 780.31 286.4 756.492 262.633 750.88C238.865 745.268 215.048 759.986 209.435 783.754C203.823 807.521 218.541 831.339 242.309 836.951C266.077 842.563 289.894 827.845 295.506 804.077Z" fill="#6A4466"/>
<path d="M286.045 804.077C291.657 780.31 276.939 756.492 253.172 750.88C229.404 745.268 205.587 759.986 199.974 783.754C194.362 807.521 209.08 831.339 232.848 836.951C256.616 842.563 280.433 827.845 286.045 804.077Z" fill="#854D88"/>
<path d="M279.811 802.603C284.61 782.279 272.024 761.914 251.701 757.115C231.377 752.316 211.012 764.901 206.213 785.224C201.414 805.548 213.999 825.914 234.322 830.713C254.646 835.512 275.012 822.927 279.811 802.603Z" fill="#F6F5F8"/>
<path d="M280.862 793.832C280.862 806.832 274.312 818.297 264.323 825.106C254.335 818.297 247.773 806.831 247.773 793.832C247.773 780.834 254.335 769.368 264.323 762.57C274.312 769.368 280.862 780.834 280.862 793.832Z" fill="#DBCFDF"/>
<path d="M280.862 793.832C280.862 806.832 274.312 818.297 264.323 825.106C254.335 818.297 247.773 806.831 247.773 793.832C247.773 780.834 254.335 769.368 264.323 762.57C274.312 769.368 280.862 780.834 280.862 793.832Z" fill="#DBCFDF"/>
<path d="M280.506 804.077C286.118 780.31 271.4 756.492 247.633 750.88C223.865 745.268 200.048 759.986 194.435 783.754C188.823 807.521 203.541 831.339 227.309 836.951C251.077 842.563 274.894 827.845 280.506 804.077Z" fill="#6A4466"/>
<path d="M271.045 804.077C276.657 780.31 261.939 756.492 238.172 750.88C214.404 745.268 190.587 759.986 184.974 783.754C179.362 807.521 194.08 831.339 217.848 836.951C241.616 842.563 265.433 827.845 271.045 804.077Z" fill="#854D88"/>
<path d="M265.234 800.958C269.183 780.451 255.76 760.625 235.253 756.676C214.745 752.727 194.92 766.15 190.971 786.657C187.022 807.165 200.445 826.99 220.952 830.939C241.459 834.888 261.285 821.465 265.234 800.958Z" fill="#F6F5F8"/>
<path d="M265.87 793.84C265.87 806.839 259.32 818.304 249.331 825.114C239.343 818.304 232.781 806.839 232.781 793.84C232.781 780.842 239.343 769.376 249.331 762.578C259.32 769.376 265.87 780.842 265.87 793.84Z" fill="#DBCFDF"/>
<path d="M265.87 793.84C265.87 806.839 259.32 818.304 249.331 825.114C239.343 818.304 232.781 806.839 232.781 793.84C232.781 780.842 239.343 769.376 249.331 762.578C259.32 769.376 265.87 780.842 265.87 793.84Z" fill="#DBCFDF"/>
<path d="M265.147 804.077C270.759 780.31 256.041 756.492 232.273 750.88C208.505 745.268 184.688 759.986 179.076 783.754C173.464 807.521 188.182 831.339 211.949 836.951C235.717 842.563 259.535 827.845 265.147 804.077Z" fill="#6A4466"/>
<path d="M255.686 804.077C261.298 780.31 246.58 756.492 222.812 750.88C199.044 745.268 175.227 759.986 169.615 783.754C164.003 807.521 178.721 831.339 202.488 836.951C226.256 842.563 250.074 827.845 255.686 804.077Z" fill="#854D88"/>
<path d="M249.451 802.603C254.25 782.279 241.665 761.914 221.342 757.115C201.018 752.316 180.652 764.901 175.853 785.224C171.054 805.548 183.64 825.914 203.963 830.713C224.287 835.512 244.652 822.927 249.451 802.603Z" fill="#F6F5F8"/>
<path d="M250.51 793.84C250.51 806.839 243.96 818.304 233.972 825.114C223.983 818.304 217.422 806.839 217.422 793.84C217.422 780.842 223.983 769.376 233.972 762.578C243.96 769.376 250.51 780.842 250.51 793.84Z" fill="#DBCFDF"/>
<path d="M250.51 793.84C250.51 806.839 243.96 818.304 233.972 825.114C223.983 818.304 217.422 806.839 217.422 793.84C217.422 780.842 223.983 769.376 233.972 762.578C243.96 769.376 250.51 780.842 250.51 793.84Z" fill="#DBCFDF"/>
<path d="M385.053 804.085C390.665 780.317 375.947 756.5 352.179 750.888C328.412 745.276 304.594 759.994 298.982 783.761C293.37 807.529 308.088 831.346 331.856 836.959C355.623 842.571 379.441 827.853 385.053 804.085Z" fill="#6A4466"/>
<path d="M375.592 804.085C381.204 780.317 366.486 756.5 342.718 750.888C318.951 745.276 295.133 759.994 289.521 783.762C283.909 807.529 298.627 831.346 322.395 836.959C346.163 842.571 369.98 827.853 375.592 804.085Z" fill="#854D88"/>
<path d="M369.358 802.611C374.157 782.287 361.571 761.921 341.248 757.123C320.924 752.324 300.559 764.909 295.76 785.232C290.961 805.556 303.546 825.922 323.869 830.721C344.193 835.519 364.559 822.934 369.358 802.611Z" fill="#F6F5F8"/>
<path d="M370.409 793.84C370.409 806.839 363.859 818.304 353.87 825.114C343.882 818.304 337.32 806.839 337.32 793.84C337.32 780.842 343.882 769.376 353.87 762.578C363.859 769.376 370.409 780.842 370.409 793.84Z" fill="#DBCFDF"/>
<path d="M370.409 793.84C370.409 806.839 363.859 818.304 353.87 825.114C343.882 818.304 337.32 806.839 337.32 793.84C337.32 780.842 343.882 769.376 353.87 762.578C363.859 769.376 370.409 780.842 370.409 793.84Z" fill="#DBCFDF"/>
<path d="M370.053 804.085C375.665 780.317 360.947 756.5 337.179 750.888C313.412 745.276 289.594 759.994 283.982 783.761C278.37 807.529 293.088 831.346 316.856 836.959C340.623 842.571 364.441 827.853 370.053 804.085Z" fill="#6A4466"/>
<path d="M360.592 804.085C366.204 780.317 351.486 756.5 327.718 750.888C303.951 745.276 280.133 759.994 274.521 783.761C268.909 807.529 283.627 831.346 307.395 836.959C331.163 842.571 354.98 827.853 360.592 804.085Z" fill="#854D88"/>
<path d="M354.358 802.611C359.157 782.287 346.571 761.922 326.248 757.123C305.924 752.324 285.559 764.909 280.76 785.232C275.961 805.556 288.546 825.922 308.869 830.721C329.193 835.519 349.559 822.934 354.358 802.611Z" fill="#F6F5F8"/>
<path d="M355.409 793.84C355.409 806.839 348.859 818.304 338.87 825.114C328.882 818.304 322.32 806.839 322.32 793.84C322.32 780.842 328.882 769.376 338.87 762.578C348.859 769.376 355.409 780.842 355.409 793.84Z" fill="#DBCFDF"/>
<path d="M355.409 793.84C355.409 806.839 348.859 818.304 338.87 825.114C328.882 818.304 322.32 806.839 322.32 793.84C322.32 780.842 328.882 769.376 338.87 762.578C348.859 769.376 355.409 780.842 355.409 793.84Z" fill="#DBCFDF"/>
<path d="M354.694 804.085C360.306 780.317 345.588 756.5 321.82 750.888C298.052 745.276 274.235 759.994 268.623 783.762C263.011 807.529 277.729 831.346 301.496 836.959C325.264 842.571 349.081 827.853 354.694 804.085Z" fill="#6A4466"/>
<path d="M345.233 804.085C350.845 780.317 336.127 756.5 312.359 750.888C288.591 745.276 264.774 759.994 259.162 783.761C253.55 807.529 268.268 831.346 292.035 836.959C315.803 842.571 339.62 827.853 345.233 804.085Z" fill="#854D88"/>
<path d="M338.998 802.611C343.797 782.287 331.212 761.921 310.888 757.123C290.565 752.324 270.199 764.909 265.4 785.232C260.601 805.556 273.186 825.922 293.51 830.721C313.833 835.519 334.199 822.934 338.998 802.611Z" fill="#F6F5F8"/>
<path d="M340.049 793.84C340.049 806.839 333.5 818.304 323.511 825.114C313.522 818.304 306.961 806.839 306.961 793.84C306.961 780.842 313.522 769.376 323.511 762.578C333.5 769.376 340.049 780.842 340.049 793.84Z" fill="#DBCFDF"/>
<path d="M340.049 793.84C340.049 806.839 333.5 818.304 323.511 825.114C313.522 818.304 306.961 806.839 306.961 793.84C306.961 780.842 313.522 769.376 323.511 762.578C333.5 769.376 340.049 780.842 340.049 793.84Z" fill="#DBCFDF"/>
<path d="M541.432 712.867V1234.67L492.383 1233.22V712.867H541.432Z" fill="#DBCFDF"/>
<path d="M516.908 712.867H467.859V1233.22H516.908V712.867Z" fill="#F6F5F8"/>
<path d="M1058.34 712.867V1234.05L1009.29 1233.22V712.867H1058.34Z" fill="#DBCFDF"/>
<path d="M1033.81 712.867H984.758V1233.22H1033.81V712.867Z" fill="#F6F5F8"/>
<path d="M1308.52 712.867H1259.47V1233.22H1308.52V712.867Z" fill="#DBCFDF"/>
<path d="M1283.99 712.867H1234.95V1233.22H1283.99V712.867Z" fill="#F6F5F8"/>
<path d="M1008.99 1074.43H155.492V1094.29H1008.99V1074.43Z" fill="white"/>
<path d="M602.755 745.172H406.539V1074.43H602.755V745.172Z" fill="white"/>
<path d="M1270.99 1054.57H602.754L492.383 1074.43H993.72H1263.55L1270.99 1054.57Z" fill="#DBCFDF"/>
<path d="M1284 818.195H602.758L505.391 838.053H1006.73H1276.56L1284 818.195Z" fill="#DBCFDF"/>
<path d="M159.076 745.172H140.336V1094.29H159.076V745.172Z" fill="#F6F5F8"/>
<path d="M993.682 834.008H155.492V853.865H993.682V834.008Z" fill="white"/>
<path d="M1308.52 1074.43H1033.81V1094.29H1308.52V1074.43Z" fill="#DBCFDF"/>
<path d="M1308.52 834.008H1033.81V853.865H1308.52V834.008Z" fill="#DBCFDF"/>
<path d="M240.139 1311.27C262.312 1311.27 280.286 1293.3 280.286 1271.12C280.286 1248.95 262.312 1230.98 240.139 1230.98C217.967 1230.98 199.992 1248.95 199.992 1271.12C199.992 1293.3 217.967 1311.27 240.139 1311.27Z" fill="#DBCFDF"/>
<path d="M221.624 1311.27C243.796 1311.27 261.771 1293.3 261.771 1271.12C261.771 1248.95 243.796 1230.98 221.624 1230.98C199.451 1230.98 181.477 1248.95 181.477 1271.12C181.477 1293.3 199.451 1311.27 221.624 1311.27Z" fill="#F6F5F8"/>
<path d="M221.625 1292.76C233.573 1292.76 243.258 1283.07 243.258 1271.13C243.258 1259.18 233.573 1249.49 221.625 1249.49C209.678 1249.49 199.992 1259.18 199.992 1271.13C199.992 1283.07 209.678 1292.76 221.625 1292.76Z" fill="#DBCFDF"/>
<path d="M506.35 1311.27C528.523 1311.27 546.497 1293.3 546.497 1271.12C546.497 1248.95 528.523 1230.98 506.35 1230.98C484.178 1230.98 466.203 1248.95 466.203 1271.12C466.203 1293.3 484.178 1311.27 506.35 1311.27Z" fill="#F6F5F8"/>
<path d="M506.352 1292.76C518.299 1292.76 527.985 1283.07 527.985 1271.13C527.985 1259.18 518.299 1249.49 506.352 1249.49C494.404 1249.49 484.719 1259.18 484.719 1271.13C484.719 1283.07 494.404 1292.76 506.352 1292.76Z" fill="#DBCFDF"/>
<path d="M1043.42 1311.27C1065.59 1311.27 1083.57 1293.3 1083.57 1271.12C1083.57 1248.95 1065.59 1230.98 1043.42 1230.98C1021.25 1230.98 1003.27 1248.95 1003.27 1271.12C1003.27 1293.3 1021.25 1311.27 1043.42 1311.27Z" fill="#DBCFDF"/>
<path d="M1024.9 1311.27C1047.08 1311.27 1065.05 1293.3 1065.05 1271.12C1065.05 1248.95 1047.08 1230.98 1024.9 1230.98C1002.73 1230.98 984.758 1248.95 984.758 1271.12C984.758 1293.3 1002.73 1311.27 1024.9 1311.27Z" fill="#F6F5F8"/>
<path d="M1024.91 1292.76C1036.85 1292.76 1046.54 1283.07 1046.54 1271.13C1046.54 1259.18 1036.85 1249.49 1024.91 1249.49C1012.96 1249.49 1003.27 1259.18 1003.27 1271.13C1003.27 1283.07 1012.96 1292.76 1024.91 1292.76Z" fill="#DBCFDF"/>
<path d="M1295.61 1311.27C1317.78 1311.27 1335.76 1293.3 1335.76 1271.12C1335.76 1248.95 1317.78 1230.98 1295.61 1230.98C1273.44 1230.98 1255.46 1248.95 1255.46 1271.12C1255.46 1293.3 1273.44 1311.27 1295.61 1311.27Z" fill="#DBCFDF"/>
<path d="M1277.09 1311.27C1299.27 1311.27 1317.24 1293.3 1317.24 1271.12C1317.24 1248.95 1299.27 1230.98 1277.09 1230.98C1254.92 1230.98 1236.95 1248.95 1236.95 1271.12C1236.95 1293.3 1254.92 1311.27 1277.09 1311.27Z" fill="#F6F5F8"/>
<path d="M1277.09 1292.76C1289.04 1292.76 1298.73 1283.07 1298.73 1271.13C1298.73 1259.18 1289.04 1249.49 1277.09 1249.49C1265.15 1249.49 1255.46 1259.18 1255.46 1271.13C1255.46 1283.07 1265.15 1292.76 1277.09 1292.76Z" fill="#DBCFDF"/>
<path d="M1308.52 712.867H285.57V745.17H1308.52V712.867Z" fill="#955FBE"/>
<path d="M1051.55 712.867H42.8125V745.17H1051.55V712.867Z" fill="#B081E9"/>
<path d="M406.537 745.172H387.797V1094.29H406.537V745.172Z" fill="white"/>
<path d="M374.337 1040.02H204.773V1074.43H374.337V1040.02Z" fill="#F99A5D"/>
<path d="M338.149 1040.02H168.586V1074.43H338.149V1040.02Z" fill="#F8C55E"/>
<path d="M385.766 1005.62H216.203V1040.02H385.766V1005.62Z" fill="#F99A5D"/>
<path d="M349.579 1005.62H180.016V1040.02H349.579V1005.62Z" fill="#F8C55E"/>
<path d="M374.337 971.219H204.773V1005.62H374.337V971.219Z" fill="#F99A5D"/>
<path d="M338.149 971.219H168.586V1005.62H338.149V971.219Z" fill="#F8C55E"/>
<path d="M602.758 1043.06V1068.25L612.581 1072.76L756.976 1073.76L757.402 1073.71L833.858 1064.73V1036.78C808.098 1037.48 623.211 1042.51 602.758 1043.06Z" fill="url(#paint8_linear_5364_4717)"/>
<path d="M833.863 1036.79C833.253 1037.38 757.167 1047.72 757.167 1047.72L613.133 1046.46L602.758 1043.06L678.64 1033.24L833.863 1036.79Z" fill="#F8C55E"/>
<path d="M753.497 1034.95L673.768 1046.99V1072.81L640 1072.95V1046.7L722.003 1034L753.497 1034.95Z" fill="#EE566E"/>
<path d="M602.758 1012.06V1037.24L612.581 1041.76C643.112 1041.95 535.781 1041.25 757.402 1042.7L833.858 1033.72V1005.77C808.098 1006.47 623.211 1011.5 602.758 1012.06Z" fill="url(#paint9_linear_5364_4717)"/>
<path d="M833.863 1005.78C833.253 1006.37 757.167 1016.71 757.167 1016.71L613.133 1015.46L602.758 1012.05L678.64 1002.23L833.863 1005.78Z" fill="#F8C55E"/>
<path d="M753.497 1003.94L673.768 1015.98V1041.81L640 1041.94V1015.69L722.003 1002.99L753.497 1003.94Z" fill="#EE566E"/>
<path d="M617.398 981.04V1006.22L627.222 1010.74C657.753 1010.94 550.422 1010.24 772.043 1011.69L848.499 1002.71V974.758C822.739 975.458 637.852 980.484 617.398 981.04Z" fill="url(#paint10_linear_5364_4717)"/>
<path d="M848.504 974.763C847.893 975.357 771.808 985.692 771.808 985.692L627.774 984.441L617.398 981.039L693.28 971.219L848.504 974.763Z" fill="#F8C55E"/>
<path d="M768.138 972.926L688.409 984.965V1010.79L654.641 1010.93V984.672L736.643 971.977L768.138 972.926Z" fill="#EE566E"/>
<path d="M490.644 608.406C490.598 746.31 250.219 746.31 250.172 608.406C250.172 611.792 303.983 614.527 370.408 614.527C436.832 614.527 490.644 611.792 490.644 608.406Z" fill="url(#paint11_linear_5364_4717)"/>
<path d="M490.643 608.406C490.643 617.241 489.646 625.517 487.792 633.238C475.875 635.973 427.859 638.014 370.408 638.014C312.956 638.014 264.941 635.973 253.024 633.238C251.169 625.517 250.172 617.241 250.172 608.406C250.172 611.792 303.983 614.527 370.408 614.527C436.832 614.527 490.643 611.792 490.643 608.406Z" fill="#AFCAF4"/>
<path d="M490.646 608.397C490.646 611.792 436.836 614.532 370.409 614.532C303.981 614.532 250.172 611.792 250.172 608.397C250.172 605.031 303.981 602.289 370.409 602.289C436.836 602.289 490.646 605.031 490.646 608.397Z" fill="white"/>
<path d="M477.59 608.407C477.59 609.971 429.625 611.234 370.412 611.234C311.199 611.234 263.234 609.971 263.234 608.407C263.234 606.857 311.2 605.594 370.412 605.594C429.625 605.594 477.59 606.857 477.59 608.407Z" fill="#854D88"/>
<path d="M344.212 602.653C343.748 603.695 343.192 604.715 342.612 605.689C341.615 607.382 340.456 609.005 339.158 610.489C338.972 610.697 338.81 610.905 338.601 611.091C317.295 610.929 298.816 610.582 285.509 610.118C284.535 609.074 283.607 607.962 282.75 606.779C281.475 605.109 280.338 603.325 279.342 601.423C276.258 595.65 274.496 588.95 275.562 582.481C276.328 577.891 278.669 573.462 282.263 570.472C285.787 567.527 290.447 564.978 294.945 563.98C298.887 563.1 303.06 563.239 306.954 564.259C310.432 565.162 313.748 567.713 317.411 567.667C320.633 567.62 323.74 565.673 326.823 564.908C330.904 563.888 335.448 563.981 339.111 566.23C341.499 567.737 343.261 569.985 344.536 572.536C345.255 573.927 345.811 575.411 346.252 576.894C348.756 585.357 347.945 594.7 344.212 602.653Z" fill="url(#paint12_linear_5364_4717)"/>
<path d="M339.796 566.763C336.462 566.162 333.173 568.099 330.695 570.412C328.202 572.725 326.1 575.504 323.186 577.246C319.762 579.288 315.542 579.664 311.592 579.123C307.447 578.537 303.318 576.901 300.479 573.822C298.347 571.494 297.085 568.506 295.283 565.893C291.018 559.721 284.05 556.056 277.367 552.632C282.939 551.056 288.72 549.839 294.487 550.335C300.254 550.83 306.066 553.248 309.61 557.813C316.263 548.998 328.833 545.183 339.27 548.788C337.603 548.217 332.602 552.527 331.416 553.548C329.388 555.26 326.174 558.084 325.363 560.711C324.372 563.851 328.847 562.619 330.995 562.874C334.225 563.264 337.348 564.601 339.796 566.763Z" fill="url(#paint13_linear_5364_4717)"/>
<path d="M399.319 604.83C399.157 605.107 398.971 605.41 398.786 605.687C397.557 607.658 396.073 609.514 394.427 611.16C386.707 611.206 378.661 611.229 370.408 611.229C363.476 611.229 356.706 611.206 350.144 611.16C348.498 609.467 347.084 607.612 345.878 605.665C345.252 604.691 344.719 603.671 344.209 602.651C340.383 594.652 339.92 585.308 342.911 576.521C343.375 575.177 343.931 573.832 344.534 572.534C346.481 568.592 349.217 565.021 352.857 562.587C356.289 560.291 360.555 559.132 364.681 559.642C368.715 560.129 373.19 561.591 376.552 563.885C379.52 565.903 381.954 568.661 383.67 571.792C385.177 574.597 385.548 578.283 387.797 580.625C389.79 582.665 392.921 583.499 395.285 585.006C398.415 587.023 401.104 590.014 401.87 593.747C402.658 597.55 401.267 601.492 399.319 604.83Z" fill="url(#paint14_linear_5364_4717)"/>
<path d="M401.953 594.521C400.319 592.004 397.075 591.056 394.079 590.859C391.075 590.653 388.007 590.98 385.115 590.156C381.721 589.185 378.92 586.689 376.874 583.812C374.738 580.781 373.29 577.123 373.557 573.424C373.766 570.636 374.93 568.01 375.524 565.262C376.921 558.766 375.061 552.046 373.219 545.656C377.615 548.296 381.906 551.291 385.083 555.313C388.261 559.336 390.224 564.554 389.426 569.61C399.15 568.558 409.235 574.358 413.238 583.281C412.595 581.859 406.781 581.244 405.402 581.098C403.067 580.827 399.297 580.465 397.109 581.535C394.481 582.799 397.99 584.941 399.127 586.482C400.833 588.803 401.865 591.63 401.953 594.521Z" fill="url(#paint15_linear_5364_4717)"/>
<path d="M451.349 610.255C446.132 610.394 440.266 610.533 433.844 610.672C422.669 610.881 409.825 611.043 395.914 611.159C395.937 610.579 395.984 609.976 396.03 609.396C396.146 608.144 396.331 606.916 396.586 605.664C396.888 604.087 397.328 602.511 397.861 600.934C398.789 598.198 400.064 595.509 401.71 593.12C403.356 590.733 405.374 588.647 407.784 587.023C411.216 584.727 415.482 583.568 419.609 584.055C423.364 584.519 427.491 585.818 430.761 587.858C431.016 587.974 431.248 588.136 431.48 588.298C434.447 590.315 436.882 593.098 438.597 596.227C440.127 599.033 440.475 602.719 442.724 605.038C443.211 605.548 443.767 605.965 444.347 606.359C446.202 607.542 448.428 608.283 450.212 609.443C450.607 609.699 450.978 609.953 451.349 610.255Z" fill="url(#paint16_linear_5364_4717)"/>
<path d="M468.18 607.707C468.087 607.521 467.948 607.383 467.717 607.22C466.14 606.153 461.55 605.644 460.344 605.527C458.002 605.249 454.223 604.901 452.044 605.967C451.673 606.153 451.418 606.339 451.279 606.547C450.514 607.591 452.252 609.005 453.435 610.188C452.763 610.211 452.09 610.211 451.372 610.257H451.349C446.132 610.396 440.266 610.536 433.844 610.675C433.102 609.933 432.407 609.098 431.804 608.24C431.317 607.545 430.877 606.826 430.482 606.061C429.091 603.534 428.303 600.705 428.489 597.853C428.698 595.071 429.857 592.451 430.459 589.692C430.598 589.09 430.691 588.487 430.761 587.861C431.502 581.949 429.833 575.874 428.164 570.078C432.546 572.721 436.835 575.712 440.011 579.746C443.188 583.757 445.158 588.997 444.37 594.052C453.922 593.008 463.822 598.572 467.949 607.243C468.041 607.383 468.111 607.545 468.18 607.707Z" fill="url(#paint17_linear_5364_4717)"/>
<path d="M520.961 622.203L521.733 641.423H556.569L560.18 623.961L520.961 622.203Z" fill="#F67F5E"/>
<path d="M574.589 662.465C546.526 727.185 563.248 688.62 556.818 703.448L552.445 713.525H520.537L500.53 660.13L500.398 659.753L519.764 643.099L521.737 641.422H556.571L562.999 648.919L574.589 662.465Z" fill="url(#paint18_linear_5364_4717)"/>
<path d="M574.592 662.459L574.251 663.25C545.351 665.271 520.67 664.301 500.535 660.124L500.398 659.756L521.735 641.422H556.573L569.61 656.643L574.592 662.459Z" fill="#F99A5D"/>
<path d="M567.192 626.952L512.328 623.717C512.983 612.482 520.164 605.766 529.119 603.336C542.319 599.746 559.411 605.438 565.294 619.662C566.222 621.887 566.878 624.318 567.192 626.952Z" fill="url(#paint19_linear_5364_4717)"/>
<path d="M556.017 665.584C537.474 665.584 518.749 664.265 500.129 661.64C499.089 661.494 498.364 660.531 498.511 659.491C498.656 658.453 499.605 657.715 500.661 657.873C525.202 661.336 549.935 662.508 574.157 661.35C575.149 661.254 576.098 662.11 576.148 663.16C576.199 664.209 575.389 665.101 574.339 665.151C568.259 665.439 562.148 665.584 556.017 665.584Z" fill="#F8C55E"/>
<path d="M530.062 606.193C530.467 607.106 529.537 608.41 527.977 609.102C526.418 609.795 524.827 609.609 524.422 608.697C524.02 607.791 524.949 606.487 526.509 605.795C528.069 605.102 529.659 605.288 530.062 606.193Z" fill="#6A4466"/>
<path d="M539.311 605.372C539.312 606.371 537.934 607.187 536.228 607.189C534.521 607.191 533.142 606.378 533.141 605.379C533.14 604.388 534.517 603.572 536.224 603.57C537.931 603.568 539.31 604.382 539.311 605.372Z" fill="#6A4466"/>
<path d="M536.142 610.886C536.372 611.858 535.219 612.969 533.559 613.363C531.899 613.757 530.369 613.283 530.138 612.311C529.91 611.347 531.063 610.236 532.723 609.842C534.383 609.448 535.913 609.922 536.142 610.886Z" fill="#6A4466"/>
<path d="M550.505 686.507C550.505 694.289 544.195 700.599 536.413 700.599C528.63 700.599 522.32 694.289 522.32 686.507C522.32 678.724 528.63 672.414 536.413 672.414C544.195 672.414 550.505 678.724 550.505 686.507Z" fill="#F8C55E"/>
<path d="M543.781 686.504C543.781 690.575 540.48 693.875 536.41 693.875C532.339 693.875 529.039 690.575 529.039 686.504C529.039 682.433 532.339 679.133 536.41 679.133C540.48 679.133 543.781 682.433 543.781 686.504Z" fill="#F99A5D"/>
<path d="M991.034 640.359H1170.5L1189.95 712.639H978.023L991.034 640.359Z" fill="#DBCFDF"/>
<path d="M890.806 640.359H1064.56L1051.55 712.639H867.438L890.806 640.359Z" fill="url(#paint20_linear_5364_4717)"/>
<path d="M1064.56 627.797H920.992V640.36H1064.56V627.797Z" fill="url(#paint21_linear_5364_4717)"/>
<path d="M1144.17 627.797H1064.11V640.36H1144.17V627.797Z" fill="#6A4466"/>
<path d="M1163.89 517.547V550.755C1163.89 597.039 1124.8 630.164 1090 627.648H955.22C944.411 628.43 934.142 625.937 924.264 621.013C897.752 607.802 881.328 580.359 881.328 550.755V517.547H1163.89Z" fill="url(#paint22_linear_5364_4717)"/>
<path d="M947.508 627.648H955.224C952.612 627.829 950.06 627.829 947.508 627.648Z" fill="#DBCFDF"/>
<path d="M1163.9 517.547V550.755C1163.9 597.039 1124.81 630.164 1090.01 627.648H1046.62C1079.09 625.463 1112.8 593.626 1112.8 550.755V517.547H1163.9Z" fill="#EE566E"/>
<path d="M1046.62 627.648C1044.07 627.829 1041.52 627.829 1038.91 627.648H1046.62Z" fill="#DBCFDF"/>
<path d="M1164.91 516.104C1164.91 523.056 1101.22 528.701 1022.66 528.701C944.092 528.701 880.406 523.056 880.406 516.104C880.406 509.144 944.092 503.508 1022.66 503.508C1101.22 503.508 1164.91 509.144 1164.91 516.104Z" fill="white"/>
<path d="M1107.18 519.918C1071.51 522.675 1001.37 523.319 952.795 520.818C943.216 520.339 935.17 519.738 929.075 519.078C911.957 517.239 909.931 514.58 936.521 512.441C941.925 511.991 948.291 511.571 955.437 511.24C960.211 511.001 965.315 510.79 970.72 510.61C1084.38 507.344 1171.46 515.065 1107.18 519.918Z" fill="#6A4466"/>
<path d="M1116.73 519.017C1080.88 523.297 994.447 522.963 952.79 520.817C943.212 520.338 935.165 519.737 929.07 519.077C931.202 516.494 933.724 514.242 936.517 512.44C941.892 508.898 948.196 506.856 954.622 506.735C960.206 506.646 965.761 508.027 970.715 510.608C974.889 512.771 978.642 515.774 981.554 519.466C992.32 502.348 1016.88 499.217 1031.67 514.272C1040.22 503.583 1050.79 493.654 1062.83 485.388C1071.15 479.684 1081.03 474.67 1090.97 476.501C1103.51 478.817 1108.81 490.884 1097.21 503.853C1092.63 508.979 1086.97 513.165 1083.82 519.286C1091.48 512.84 1100.68 509.07 1109.97 507.936C1118.76 506.879 1122.33 512.2 1116.73 519.017Z" fill="#F8C55E"/>
<path d="M1116 676.218C1116 686.595 1107.59 694.981 1097.22 694.981C1086.86 694.981 1078.45 686.595 1078.45 676.218C1078.45 665.84 1086.86 657.43 1097.22 657.43C1107.59 657.43 1116 665.84 1116 676.218Z" fill="white"/>
<path d="M1116.01 676.216C1116.01 683.748 1109.9 689.835 1102.37 689.835C1094.86 689.835 1088.75 683.748 1088.75 676.216C1088.75 668.683 1094.86 662.578 1102.37 662.578C1109.9 662.578 1116.01 668.683 1116.01 676.216Z" fill="#B9A7C1"/>
<path d="M1168.57 676.218C1168.57 686.595 1160.16 694.981 1149.79 694.981C1139.43 694.981 1131.02 686.595 1131.02 676.218C1131.02 665.84 1139.43 657.43 1149.79 657.43C1160.16 657.43 1168.57 665.84 1168.57 676.218Z" fill="white"/>
<path d="M1168.58 676.216C1168.58 683.748 1162.47 689.835 1154.94 689.835C1147.43 689.835 1141.32 683.748 1141.32 676.216C1141.32 668.683 1147.43 662.578 1154.94 662.578C1162.47 662.578 1168.58 668.683 1168.58 676.216Z" fill="#B9A7C1"/>
<path d="M963.349 659.625L960.363 668.789H891.078L894.064 659.625H963.349Z" fill="#B9A7C1"/>
<path d="M957.13 678.492L954.144 687.656H884.859L887.845 678.492H957.13Z" fill="#B9A7C1"/>
<defs>
<linearGradient id="paint0_linear_5364_4717" x1="541.672" y1="1239.89" x2="691.575" y2="1239.89" gradientUnits="userSpaceOnUse">
<stop stop-color="#EE566E"/>
<stop offset="0.9964" stop-color="#FF7869"/>
</linearGradient>
<linearGradient id="paint1_linear_5364_4717" x1="666.383" y1="54.7617" x2="847.077" y2="54.7617" gradientUnits="userSpaceOnUse">
<stop stop-color="#DBCFDF"/>
<stop offset="0.9823" stop-color="#B9A7C1"/>
</linearGradient>
<linearGradient id="paint2_linear_5364_4717" x1="697.125" y1="98.7168" x2="813.866" y2="98.7168" gradientUnits="userSpaceOnUse">
<stop stop-color="#6A4466"/>
<stop offset="0.9928" stop-color="#854D88"/>
</linearGradient>
<linearGradient id="paint3_linear_5364_4717" x1="758.526" y1="226.948" x2="758.847" y2="175.389" gradientUnits="userSpaceOnUse">
<stop offset="0.0002195" stop-color="#FFACA5"/>
<stop offset="1" stop-color="#FFBAB4"/>
</linearGradient>
<linearGradient id="paint4_linear_5364_4717" x1="783.664" y1="1236.2" x2="920.955" y2="1236.2" gradientUnits="userSpaceOnUse">
<stop stop-color="#EE566E"/>
<stop offset="0.9964" stop-color="#FF7869"/>
</linearGradient>
<linearGradient id="paint5_linear_5364_4717" x1="602.476" y1="848.395" x2="860.87" y2="848.395" gradientUnits="userSpaceOnUse">
<stop stop-color="#6A4466"/>
<stop offset="0.9928" stop-color="#854D88"/>
</linearGradient>
<linearGradient id="paint6_linear_5364_4717" x1="706.876" y1="614.571" x2="765.274" y2="200.109" gradientUnits="userSpaceOnUse">
<stop stop-color="#DBCFDF"/>
<stop offset="0.9895" stop-color="#F6F5F8"/>
</linearGradient>
<linearGradient id="paint7_linear_5364_4717" x1="660.576" y1="116.763" x2="560.466" y2="107.982" gradientUnits="userSpaceOnUse">
<stop stop-color="#F99A5D"/>
<stop offset="0.9964" stop-color="#F8C55E"/>
</linearGradient>
<linearGradient id="paint8_linear_5364_4717" x1="655.54" y1="989.818" x2="782.934" y2="1116.1" gradientUnits="userSpaceOnUse">
<stop stop-color="#F99A5D"/>
<stop offset="0.9964" stop-color="#F8C55E"/>
</linearGradient>
<linearGradient id="paint9_linear_5364_4717" x1="655.54" y1="958.81" x2="782.933" y2="1085.09" gradientUnits="userSpaceOnUse">
<stop stop-color="#F99A5D"/>
<stop offset="0.9964" stop-color="#F8C55E"/>
</linearGradient>
<linearGradient id="paint10_linear_5364_4717" x1="670.18" y1="927.794" x2="797.574" y2="1054.08" gradientUnits="userSpaceOnUse">
<stop stop-color="#F99A5D"/>
<stop offset="0.9964" stop-color="#F8C55E"/>
</linearGradient>
<linearGradient id="paint11_linear_5364_4717" x1="250.172" y1="660.12" x2="490.644" y2="660.12" gradientUnits="userSpaceOnUse">
<stop stop-color="#D6E2FB"/>
<stop offset="0.9999" stop-color="#AFCAF4"/>
</linearGradient>
<linearGradient id="paint12_linear_5364_4717" x1="275.25" y1="587.244" x2="347.693" y2="587.244" gradientUnits="userSpaceOnUse">
<stop stop-color="#DD3852"/>
<stop offset="1" stop-color="#EE566E"/>
</linearGradient>
<linearGradient id="paint13_linear_5364_4717" x1="277.368" y1="563.391" x2="339.796" y2="563.391" gradientUnits="userSpaceOnUse">
<stop stop-color="#71C780"/>
<stop offset="1" stop-color="#9EE4A6"/>
</linearGradient>
<linearGradient id="paint14_linear_5364_4717" x1="340.961" y1="585.376" x2="402.094" y2="585.376" gradientUnits="userSpaceOnUse">
<stop stop-color="#DD3852"/>
<stop offset="1" stop-color="#EE566E"/>
</linearGradient>
<linearGradient id="paint15_linear_5364_4717" x1="366.274" y1="552.182" x2="404.13" y2="592.476" gradientUnits="userSpaceOnUse">
<stop stop-color="#71C780"/>
<stop offset="1" stop-color="#9EE4A6"/>
</linearGradient>
<linearGradient id="paint16_linear_5364_4717" x1="395.914" y1="597.552" x2="451.349" y2="597.552" gradientUnits="userSpaceOnUse">
<stop stop-color="#DD3852"/>
<stop offset="1" stop-color="#EE566E"/>
</linearGradient>
<linearGradient id="paint17_linear_5364_4717" x1="428.164" y1="590.376" x2="468.18" y2="590.376" gradientUnits="userSpaceOnUse">
<stop stop-color="#71C780"/>
<stop offset="1" stop-color="#9EE4A6"/>
</linearGradient>
<linearGradient id="paint18_linear_5364_4717" x1="500.398" y1="677.474" x2="574.589" y2="677.474" gradientUnits="userSpaceOnUse">
<stop stop-color="#F99A5D"/>
<stop offset="0.9964" stop-color="#F8C55E"/>
</linearGradient>
<linearGradient id="paint19_linear_5364_4717" x1="512.328" y1="614.621" x2="567.192" y2="614.621" gradientUnits="userSpaceOnUse">
<stop stop-color="#F99A5D"/>
<stop offset="0.9964" stop-color="#F8C55E"/>
</linearGradient>
<linearGradient id="paint20_linear_5364_4717" x1="867.438" y1="676.499" x2="1064.56" y2="676.499" gradientUnits="userSpaceOnUse">
<stop stop-color="#DBCFDF"/>
<stop offset="0.9895" stop-color="#F6F5F8"/>
</linearGradient>
<linearGradient id="paint21_linear_5364_4717" x1="920.992" y1="634.078" x2="1064.56" y2="634.078" gradientUnits="userSpaceOnUse">
<stop stop-color="#6A4466"/>
<stop offset="0.9928" stop-color="#854D88"/>
</linearGradient>
<linearGradient id="paint22_linear_5364_4717" x1="1022.48" y1="538.067" x2="1016.72" y2="669.377" gradientUnits="userSpaceOnUse">
<stop stop-color="#EE566E"/>
<stop offset="0.9964" stop-color="#FF7869"/>
</linearGradient>
</defs>
</svg>
