<svg version="1.1" xmlns="http://www.w3.org/2000/svg" style="display: block;" viewBox="0 0 2048 2048" width="512" height="512">
<defs>
	<linearGradient id="Gradient1" gradientUnits="userSpaceOnUse" x1="329.331" y1="306.539" x2="261.799" y2="175.188">
		<stop class="stop0" offset="0" stop-opacity="1" stop-color="rgb(242,224,216)"/>
		<stop class="stop1" offset="1" stop-opacity="1" stop-color="rgb(253,255,255)"/>
	</linearGradient>
	<linearGradient id="Gradient2" gradientUnits="userSpaceOnUse" x1="1678.74" y1="778.164" x2="1594.33" y2="741.619">
		<stop class="stop0" offset="0" stop-opacity="1" stop-color="rgb(251,254,239)"/>
		<stop class="stop1" offset="1" stop-opacity="1" stop-color="rgb(253,253,255)"/>
	</linearGradient>
	<linearGradient id="Gradient3" gradientUnits="userSpaceOnUse" x1="535.286" y1="1364.11" x2="602.977" y2="1386.08">
		<stop class="stop0" offset="0" stop-opacity="1" stop-color="rgb(196,187,164)"/>
		<stop class="stop1" offset="1" stop-opacity="1" stop-color="rgb(202,183,171)"/>
	</linearGradient>
</defs>
<path transform="translate(0,0)" fill="rgb(6,23,43)" d="M 1666.88 1348.7 C 1687.23 1347.98 1734.85 1346.16 1750.46 1360.81 C 1753.29 1363.46 1754.92 1366.8 1754.97 1370.7 C 1755.03 1377.05 1750.02 1388.46 1745.4 1392.83 C 1742.42 1395.66 1738.61 1397.23 1734.48 1397.09 C 1716.66 1396.5 1683.17 1370.18 1669.98 1358.89 L 1666.23 1355.93 L 1663.67 1352.6 C 1664.58 1350.85 1665.46 1350.04 1666.88 1348.7 z"/>
<path transform="translate(0,0)" fill="rgb(6,23,43)" d="M 1164.29 6.12091 C 1170.31 6.02697 1178.44 7.5612 1183.21 11.5071 C 1186.16 13.9426 1187.57 17.411 1187.76 21.1635 C 1188.56 36.9185 1166.03 61.4284 1155.65 72.9307 C 1153.06 75.9026 1149.45 81.1171 1145.67 82.4962 C 1144.13 83.0591 1144.46 82.7122 1142.83 81.7045 C 1140.23 75.9763 1147.94 28.8833 1150.7 21.0208 C 1153.44 13.2183 1156.88 9.62427 1164.29 6.12091 z"/>
<path transform="translate(0,0)" fill="rgb(6,23,43)" d="M 769.536 38.0968 C 771.278 38.0074 773.025 37.9107 774.769 38.004 C 778.324 38.1944 781.055 40.3662 783.18 43.0689 C 791.449 53.5857 799.782 98.3945 797.354 112.33 C 796.989 114.421 797.412 113.699 795.732 114.831 C 791.97 114.169 789.323 111.294 786.532 108.868 C 775.124 95.5797 759.994 79.8388 753.809 63.2404 C 751.994 58.3683 751.391 53.0931 753.804 48.3107 C 756.94 42.0948 763.432 40.2045 769.536 38.0968 z"/>
<path transform="translate(0,0)" fill="rgb(252,250,239)" d="M 323.621 643.139 C 311.268 642.998 299.473 640.061 287.576 636.99 C 234.908 623.394 188.019 594.747 150.113 555.961 C 93.2942 497.826 63.8057 420.34 65.0302 339.367 C 66.1777 263.484 99.2131 184.865 153.963 132.167 C 208.872 79.3153 288.18 45.7892 364.832 47.4451 C 442.127 49.1148 522.133 79.5317 575.908 136.269 C 582.621 143.352 592.646 161.865 602.536 162.26 C 614.326 162.731 627.146 159.094 639.056 158.354 L 772.175 149.993 L 1289.01 116.314 L 1396.99 108.355 C 1419.11 106.516 1440.85 105.277 1463.01 104.214 C 1474.98 103.64 1486.99 102.352 1498.95 103.641 C 1513.01 105.157 1526.66 109.583 1540.22 113.391 C 1577.99 123.994 1604.64 132.15 1633.39 160.905 C 1661.96 189.477 1675.89 228.839 1675.67 268.704 C 1675.39 318.797 1670.05 369.611 1666.6 419.618 C 1662.98 472.029 1660.97 524.679 1656.8 577.023 C 1725.75 557.601 1788.13 564.053 1851.03 599.441 C 1906.7 630.757 1947.5 685.345 1964.31 746.73 C 1980.73 806.736 1972.68 877.185 1941.72 931.29 C 1932.73 946.999 1919.79 960.717 1911.49 976.646 C 1918.78 1000.91 1918.91 1025.62 1906.8 1048.32 C 1901.26 1058.72 1892.66 1069.21 1883.33 1076.42 C 1879.43 1079.44 1873.19 1082.18 1870.36 1086.2 C 1865.44 1093.2 1866.94 1109 1865.09 1117.65 C 1859.34 1144.56 1832.07 1169.68 1806.06 1177.24 C 1783.96 1183.66 1760.81 1180.23 1740.89 1168.93 C 1717.23 1155.51 1713.81 1140.65 1699.46 1119.61 C 1678.39 1112.96 1661.38 1106.97 1645.56 1090.8 C 1641.43 1086.58 1637.98 1081.56 1633.84 1077.46 L 1633.31 1076.98 C 1630.36 1069.83 1627.35 1062.73 1624.98 1055.37 L 1593.84 1562.17 L 1586.43 1683.2 C 1584.87 1706.78 1585 1730.67 1579.05 1753.73 C 1570.85 1785.51 1553.42 1811.74 1528.78 1833.28 A 149.747 149.747 0 0 1 1448.31 1869.71 C 1430.01 1871.97 1411.03 1871.11 1392.62 1871.09 L 1307.84 1870.99 L 1023.97 1870.95 L 616.387 1870.91 L 487.757 1870.99 C 462.614 1871.01 437.114 1871.94 412.038 1870.21 C 387.146 1868.5 363.529 1861.17 343.694 1845.65 C 334.846 1838.73 326.763 1830.85 317.803 1824.07 C 303.374 1813.14 288.811 1803.81 276.86 1789.99 C 250.088 1759.04 247.186 1731.99 248.799 1692.5 A 1055.49 1055.49 0 0 1 251.594 1644.5 C 255.528 1593.97 258.422 1543.28 263.03 1492.83 L 267.948 1434.98 C 269.335 1419.98 271.915 1403.98 271.167 1388.91 C 269.634 1387.82 268.156 1388.6 266.334 1388.9 C 259.452 1390.06 252.46 1391.82 245.495 1392.28 C 226.77 1393.53 205.142 1383.8 188.424 1376.05 C 157.922 1387.88 134.257 1403.85 100.93 1389.24 C 83.3995 1381.56 70.6714 1367.32 63.816 1349.55 C 55.7777 1328.72 59.7172 1308.79 63.6826 1287.55 C 42.2819 1266.57 18.4047 1248.21 18.1747 1215.36 C 18.0468 1197.1 25.767 1180.59 38.6532 1167.86 C 51.6068 1155.06 65.8496 1149.86 82.9059 1144.55 C 89.0642 1142.63 95.6158 1140.85 100.837 1136.89 C 109.74 1130.14 114.497 1114.92 120.526 1105.59 C 133.235 1085.92 158.404 1070.14 182.161 1070.48 C 202.559 1070.77 222.704 1081.48 236.583 1096.03 C 247.325 1107.29 255.386 1121.74 262.62 1135.43 C 268.915 1136.42 284.09 1140.73 289.446 1138.55 L 289.412 1136.59 C 292.18 1092.33 294.94 1047.98 298.415 1003.77 C 300.583 976.194 303.731 948.762 304.936 921.111 L 306.5 901.673 C 300.541 904.294 294.634 906.86 288.476 908.983 C 282.26 934.938 278.748 952.65 254.379 967.858 A 61.6126 61.6126 0 0 1 207.176 975.75 C 183.247 970.142 168.876 953.791 155.346 934.409 C 128.607 935.821 102.991 937.91 81.6417 918.758 C 68.4497 906.923 59.2049 890.996 58.3554 873.033 C 57.1412 847.359 70.3425 836.716 80.8239 816.082 C 70.5029 794.103 62.1155 772.615 70.804 748.449 C 77.0489 731.079 91.6038 717.955 108.042 710.251 C 128.92 700.466 146.736 703.629 168.45 708.234 C 192.041 693.953 214.856 675.011 244.609 682.718 C 261.844 687.183 276.738 699.663 285.43 715.026 C 293.564 729.404 296.044 743.44 295.066 759.782 C 301.456 762.518 307.983 765.09 314.055 768.486 C 316.818 738.678 317.758 708.773 320.096 678.937 C 321.015 667.205 321.206 654.648 323.621 643.139 z"/>
<path transform="translate(0,0)" fill="rgb(6,23,43)" d="M 225.044 732.075 C 230.301 732.134 235.795 732.526 239.787 736.393 C 249.828 746.121 246.865 781.22 247.043 795.768 C 259.553 800.609 272.245 808.312 283.885 815.046 C 291.049 819.191 301.049 824.944 302.992 833.649 C 303.809 837.307 302.917 840.923 300.776 843.957 C 292.03 856.348 260.126 862.304 245.541 865.218 C 241.895 881.719 243.468 914.928 230.224 926.396 C 227.682 928.597 225.163 929.152 221.884 928.673 C 207.895 926.628 191.652 899.285 183.915 888.704 L 177.482 880.284 C 162.064 883.47 126.081 890.669 112.916 881.97 C 110.305 880.244 108.33 877.758 107.988 874.539 C 106.68 862.247 131.89 833.12 139.636 822.572 C 133.172 809.601 115.075 779.592 118.505 765.495 C 119.244 762.454 121.067 759.891 123.84 758.374 C 136.51 751.441 169.93 764.731 183.504 769.315 C 194.911 757.262 209.633 738.721 225.044 732.075 z"/>
<path transform="translate(0,0)" fill="rgb(253,244,196)" d="M 164.61 820.711 C 166.604 820.64 167.079 820.115 168.606 821.608 C 170.2 823.167 171.552 825.122 171.385 827.442 C 170.799 835.575 160.912 841.491 156.439 847.747 L 155.387 850.207 C 149.746 852.175 146.291 856.923 140.108 856.794 C 143.894 850.041 149.429 843.447 154.642 837.715 C 157.122 831.361 163.159 828.324 164.61 820.711 z"/>
<path transform="translate(0,0)" fill="rgb(252,250,239)" d="M 186.692 794.29 C 196.78 788.338 215.648 764.124 223.367 762.612 L 224.686 765.317 C 221.822 767.378 218.363 769.287 217.359 772.905 C 209.75 783.607 199.963 803.101 185.666 805.238 C 178.266 806.344 169.97 797.563 162.54 795.445 C 158.25 794.223 154.441 792.712 149.92 793.609 L 142.354 780.777 C 157.266 784.873 171.86 789.936 186.692 794.29 z"/>
<path transform="translate(0,0)" fill="rgb(245,152,18)" d="M 224.686 765.317 C 224.273 779.607 225.334 794.041 225.895 808.327 L 258.959 826.578 C 251.333 831.908 230.918 829.827 219.783 833.736 C 222.265 816.333 216.094 797.34 217.018 779.72 L 217.359 772.905 C 218.363 769.287 221.822 767.378 224.686 765.317 z"/>
<path transform="translate(0,0)" fill="rgb(247,110,20)" d="M 258.959 826.578 C 263.666 829.03 268.014 831.502 272.337 834.607 C 256.247 839.342 239.783 843.252 223.983 848.867 C 221.765 865.773 221.615 882.53 218.077 899.296 C 207.363 885.802 198.126 871.211 187.486 857.729 L 185.99 857.818 C 173.192 858.634 149.292 865.216 138.201 862.173 L 137.605 860.581 C 138.366 859.159 138.862 857.85 140.108 856.794 C 146.291 856.923 149.746 852.175 155.387 850.207 C 165.031 849.653 174.158 845.588 183.803 844.905 C 184.352 844.866 184.903 844.852 185.453 844.819 C 193.081 844.348 198.87 848.836 205.654 848.679 C 209.48 848.59 216.339 837.354 219.077 834.468 L 219.783 833.736 C 230.918 829.827 251.333 831.908 258.959 826.578 z"/>
<path transform="translate(0,0)" fill="rgb(253,195,41)" d="M 149.92 793.609 C 154.441 792.712 158.25 794.223 162.54 795.445 C 169.97 797.563 178.266 806.344 185.666 805.238 C 199.963 803.101 209.75 783.607 217.359 772.905 L 217.018 779.72 C 216.094 797.34 222.265 816.333 219.783 833.736 L 219.077 834.468 C 216.339 837.354 209.48 848.59 205.654 848.679 C 198.87 848.836 193.081 844.348 185.453 844.819 C 184.903 844.852 184.352 844.866 183.803 844.905 C 174.158 845.588 165.031 849.653 155.387 850.207 L 156.439 847.747 C 160.912 841.491 170.799 835.575 171.385 827.442 C 171.552 825.122 170.2 823.167 168.606 821.608 C 167.079 820.115 166.604 820.64 164.61 820.711 C 158.312 814.612 153.793 801.581 149.92 793.609 z"/>
<path transform="translate(0,0)" fill="rgb(6,23,43)" d="M 180.204 1122.06 C 182.441 1122 184.968 1121.82 187.135 1122.44 C 200.366 1126.23 219.794 1170.53 227.334 1183.53 C 245.695 1187.03 279.235 1188.08 294.423 1197.98 C 297.3 1199.85 300.598 1202.64 300.882 1206.32 C 301.926 1219.84 263.235 1254.04 253.275 1265.02 C 257.15 1280.67 268.515 1319.55 262.287 1334.18 C 261.025 1337.15 258.95 1339.34 255.887 1340.47 C 241.931 1345.64 202.917 1323.63 188.272 1317.29 C 176.351 1315.88 143.756 1347.16 124.669 1344.63 C 120.506 1344.07 116.847 1342.09 114.331 1338.7 C 105.271 1326.49 115.963 1282.76 118.471 1266.82 C 105.797 1253.56 76.6994 1233.88 70.5571 1217.86 C 69.4441 1214.96 68.9004 1211.58 70.4147 1208.71 C 77.2185 1195.82 127.99 1187.94 141.759 1184.8 C 149.386 1168.02 163.454 1129.93 180.204 1122.06 z"/>
<path transform="translate(0,0)" fill="rgb(252,250,239)" d="M 161.468 1205.86 C 166.868 1195.31 176.04 1160.17 182.625 1154.21 C 183.964 1155.04 185.421 1158.76 186.246 1160.26 C 182.168 1178.87 178.848 1199.28 168.76 1215.68 C 155.689 1219.05 141.93 1220.59 128.572 1222.49 C 122.577 1223.34 115.534 1223.55 109.919 1225.65 L 100.709 1219 C 120.65 1213.26 141.666 1211.89 161.468 1205.86 z"/>
<path transform="translate(0,0)" fill="rgb(247,110,20)" d="M 209.244 1240.62 C 222.927 1231.84 239.165 1226.02 254.14 1219.75 C 256.922 1220.09 257.194 1221.45 258.859 1223.55 C 248.505 1234.37 236.944 1244.08 226.842 1255.08 C 230.087 1274.84 235.937 1293.84 239.767 1313.42 C 222.566 1305.45 205.237 1295.34 187.455 1288.99 C 168.79 1296.18 152.156 1308.11 134.045 1316.57 C 135.076 1311.49 135.751 1305.91 137.448 1301.01 L 137.827 1301.3 C 142.816 1300.87 153.615 1289.21 158.345 1285.46 C 167.88 1277.91 177.362 1271.07 188.382 1265.87 C 195.161 1268.72 201.831 1271.36 207.9 1275.57 C 207.842 1263.86 208.482 1252.3 209.244 1240.62 z"/>
<path transform="translate(0,0)" fill="rgb(253,195,41)" d="M 186.246 1160.26 C 195.147 1175.25 201.448 1191.93 211.001 1206.44 C 229.939 1210.38 249.517 1211.74 268.617 1214.95 C 265.307 1217.74 261.883 1220.45 258.859 1223.55 C 257.194 1221.45 256.922 1220.09 254.14 1219.75 C 239.165 1226.02 222.927 1231.84 209.244 1240.62 C 208.482 1252.3 207.842 1263.86 207.9 1275.57 C 201.831 1271.36 195.161 1268.72 188.382 1265.87 C 177.362 1271.07 167.88 1277.91 158.345 1285.46 C 153.615 1289.21 142.816 1300.87 137.827 1301.3 L 137.448 1301.01 C 139.058 1286.83 142.138 1272.12 145.268 1258.19 C 133.625 1247.2 121.716 1236.47 109.919 1225.65 C 115.534 1223.55 122.577 1223.34 128.572 1222.49 C 141.93 1220.59 155.689 1219.05 168.76 1215.68 C 178.848 1199.28 182.168 1178.87 186.246 1160.26 z"/>
<path transform="translate(0,0)" fill="rgb(6,23,43)" d="M 342.697 104.412 C 363.168 101.289 388.398 103.687 408.703 107.391 A 241.008 241.008 0 0 1 543.528 182.849 C 553.757 194.284 562.386 206.832 571.077 219.436 C 591.525 216.924 612.864 216.708 633.458 215.369 L 759.409 207.097 L 1161.15 180.789 L 1392.27 165.066 L 1451.68 160.887 C 1466.29 159.852 1481.54 158.026 1496.14 159.407 C 1508.51 160.577 1518.8 166.679 1530.38 170.418 C 1538.13 172.918 1546.48 173.754 1554.39 175.673 A 86.5469 86.5469 0 0 1 1600.24 204.223 C 1611.21 217.504 1619.62 235.81 1621.5 253.018 C 1623.53 271.558 1620.66 290.593 1619.4 309.099 L 1614.49 387.41 L 1603.4 554.986 C 1600.94 593.69 1599.36 632.784 1595.51 671.363 C 1633.83 638.228 1681.09 620.551 1731.82 621.489 A 188.133 188.133 0 0 1 1866.83 680.508 C 1903.54 719.133 1919.88 769.098 1918.35 821.787 C 1916.72 877.979 1892.97 917.619 1853.05 955.095 A 157.87 157.87 0 0 1 1853.83 958.055 C 1858.83 977.438 1867.86 1008.39 1856.73 1026.31 C 1846.36 1043 1827.76 1048.12 1809.89 1052.31 C 1810.55 1068.73 1818.74 1092.03 1812.33 1107.32 C 1809.29 1114.56 1802.66 1121.82 1795.18 1124.54 C 1786.68 1127.63 1776.34 1127.89 1768.24 1123.53 C 1750.15 1113.8 1747.93 1083.29 1742.14 1065.2 A 278.644 278.644 0 0 1 1730.99 1067 C 1716.19 1068.93 1699.63 1068.18 1687.51 1058.41 C 1670.36 1044.58 1667.83 1012.65 1665.17 992.092 C 1630.07 981.121 1603.39 961.618 1579.17 934.521 C 1579.23 952.393 1577.48 970.414 1576.28 988.246 L 1571.93 1057.82 L 1556.18 1301.87 C 1554.06 1336.43 1550.88 1371.12 1549.83 1405.72 C 1547.53 1428.57 1546.94 1451.67 1545.41 1474.57 L 1534.28 1648.21 L 1530.96 1699.3 C 1530.28 1711.1 1530.34 1722.99 1527.88 1734.6 A 104.881 104.881 0 0 1 1482.9 1800.48 A 99.6082 99.6082 0 0 1 1434.98 1816.58 C 1408.97 1818.25 1382.28 1817.09 1356.18 1817.08 L 1213.56 1817.04 L 769.285 1817.05 L 524.576 1817.05 L 459.477 1817.15 C 440.989 1817.18 421.364 1818.47 403.201 1814.58 C 378.319 1809.25 363.14 1796.37 349.53 1775.46 C 336.995 1771.97 326.674 1766.44 318.011 1756.58 C 308.973 1746.29 302.746 1733.34 302.25 1719.53 C 301.808 1707.25 303.614 1694.37 304.51 1682.11 L 309.075 1617.17 L 326.632 1375.55 L 364.01 839.804 L 380.274 593.145 C 316.203 594.935 259.264 578.905 208.927 538.152 A 241.836 241.836 0 0 1 121.286 376.354 C 114.566 309.479 132.888 243.042 176.089 191 C 218.288 140.165 277.203 110.331 342.697 104.412 z"/>
<path transform="translate(0,0)" fill="rgb(247,110,20)" d="M 1673.23 904.911 C 1675.92 908.777 1678.6 912.454 1680.52 916.782 C 1679.8 917.127 1679.08 917.444 1678.38 917.812 C 1671.36 921.499 1663.11 919.615 1655.49 918.92 C 1665.33 917.379 1666.27 910.794 1673.23 904.911 z"/>
<path transform="translate(0,0)" fill="rgb(97,141,154)" d="M 1497.79 191.682 C 1507.15 191.538 1514.55 195.984 1521.09 202.469 C 1527.81 209.127 1530.75 216.073 1535.42 223.909 C 1533.93 224.781 1533.29 225.041 1531.68 225.397 L 1528.79 223.009 C 1521.47 209.447 1510.42 200.065 1497.79 191.682 z"/>
<path transform="translate(0,0)" fill="rgb(247,110,20)" d="M 1782.4 1057.24 L 1783.4 1057.4 C 1783.96 1058.13 1784.27 1058.4 1784.54 1059.4 C 1786.21 1065.51 1786.62 1093.53 1783.62 1097.84 L 1781.73 1097.67 L 1778.92 1093.99 C 1774.46 1082.85 1771.12 1071.26 1767.53 1059.81 C 1772.51 1059.26 1777.47 1058.15 1782.4 1057.24 z"/>
<path transform="translate(0,0)" fill="rgb(34,93,113)" d="M 595.619 267.458 C 599.227 271.645 625.588 304.887 626.499 305.409 C 627.093 305.749 629.239 306.067 629.988 306.126 C 631.763 306.267 633.605 306.161 635.385 306.115 C 626.215 308.438 613.962 307.625 604.409 308.146 C 601.396 294.606 598.074 281.113 595.619 267.458 z"/>
<path transform="translate(0,0)" fill="rgb(247,110,20)" d="M 1702.8 964.972 C 1707.93 974.879 1712.15 985.137 1715.9 995.636 A 1839.59 1839.59 0 0 0 1692.44 998.675 C 1690.56 988.934 1689.49 974.044 1685.1 965.452 C 1691.06 964.669 1697.02 966.831 1702.8 964.972 z"/>
<path transform="translate(0,0)" fill="rgb(34,93,113)" d="M 409.253 589.295 C 416.268 588.076 423.259 586.59 430.251 585.232 C 429.815 601.783 429.929 618.312 429.253 634.867 C 424.52 635.162 419.782 635.376 415.083 636.037 L 406.984 636.34 C 405.8 621.178 407.822 604.449 409.253 589.295 z"/>
<path transform="translate(0,0)" fill="rgb(34,93,113)" d="M 1824.23 1001.51 C 1827.5 1001.15 1830.39 1000.42 1833.38 1002.18 C 1835.06 1004.53 1835.74 1005.25 1835.56 1008.31 C 1835.25 1013.44 1829.46 1019.17 1825.36 1021.67 C 1816.42 1027.11 1718.95 1044.79 1709.51 1041.42 C 1707.58 1040.73 1705.49 1037.87 1704.14 1036.36 C 1722.34 1035.42 1741.28 1030.14 1759.25 1026.81 C 1778.33 1023.26 1799.42 1021.45 1817.7 1015.09 C 1820.53 1010.89 1823.07 1006.48 1824.23 1001.51 z"/>
<path transform="translate(0,0)" fill="rgb(202,249,253)" d="M 1824.23 1001.51 C 1823.07 1006.48 1820.53 1010.89 1817.7 1015.09 C 1799.42 1021.45 1778.33 1023.26 1759.25 1026.81 C 1741.28 1030.14 1722.34 1035.42 1704.14 1036.36 A 32.1134 32.1134 0 0 1 1699.44 1030 C 1698.25 1027.86 1697.85 1026.91 1698.64 1024.52 C 1711.68 1021.14 1725.78 1020.01 1739.09 1017.63 A 7227.16 7227.16 0 0 0 1824.23 1001.51 z"/>
<path transform="translate(0,0)" fill="rgb(247,110,20)" d="M 1702.68 903.673 C 1712.42 906.084 1720.27 919.357 1725.19 927.518 C 1731.04 937.211 1736.35 947.381 1743.33 956.318 C 1752.49 951.724 1766.05 941.23 1776.06 940.707 L 1775.54 985.489 C 1764.81 987.186 1753.72 988.414 1743.3 991.524 A 1846.73 1846.73 0 0 1 1702.68 903.673 z"/>
<path transform="translate(0,0)" fill="rgb(238,224,195)" d="M 1210.84 1484.69 C 1232.93 1491.83 1257.4 1494.9 1280.43 1497.17 C 1285.13 1498.2 1289.6 1498.37 1294.38 1498.49 C 1281.93 1515.92 1246.78 1563.86 1230.89 1575.33 A 375.732 375.732 0 0 0 1210.84 1484.69 z"/>
<path transform="translate(0,0)" fill="rgb(251,83,69)" d="M 233.713 185.225 C 238.817 179.009 247.464 173.66 254.387 169.528 C 280.361 154.024 307.929 144.102 338.109 141.033 C 389.614 135.796 442.64 144.883 483.688 178.421 L 479.788 178.68 C 477.864 178.819 476.528 179.118 474.719 178.335 C 473.323 177.732 472.509 177.614 470.992 177.517 C 421.389 149.365 364.134 139.377 308.486 154.92 C 280.488 162.741 258.261 175.432 235.157 192.594 C 226.724 201.632 217.131 209.751 209.071 219.104 C 178.536 254.538 165.678 298.789 160.235 344.285 C 159.877 358.819 161.872 387.856 169.076 400.746 L 170.031 400.377 C 170.18 398.339 170.372 396.297 170.426 394.254 C 171.986 396.786 171.815 400.55 171.112 403.368 C 169.935 408.089 166.59 411.57 164.945 415.957 C 158.503 388.644 151.83 361.293 154.901 332.913 C 155.672 322.597 157.487 312.434 159.703 302.339 C 168.938 260.259 196.621 208.992 233.713 185.225 z"/>
<path transform="translate(0,0)" fill="rgb(203,177,157)" d="M 1280.43 1497.17 C 1307.32 1497.19 1332.46 1497.44 1356.92 1484.65 A 1952.76 1952.76 0 0 1 1270.71 1593.14 C 1255.48 1611.15 1238.92 1628.23 1224.31 1646.73 C 1232.03 1622.9 1231.62 1600.04 1230.89 1575.33 C 1246.78 1563.86 1281.93 1515.92 1294.38 1498.49 C 1289.6 1498.37 1285.13 1498.2 1280.43 1497.17 z"/>
<path transform="translate(0,0)" fill="url(#Gradient1)" d="M 235.157 192.594 C 258.261 175.432 280.488 162.741 308.486 154.92 C 364.134 139.377 421.389 149.365 470.992 177.517 C 471.29 177.846 471.574 178.186 471.885 178.502 C 473.346 179.991 474.816 180.892 476.567 181.996 C 477.303 183.903 477.412 184.665 476.892 186.648 C 415.061 161.974 351.922 159.429 290.072 186.26 C 245.92 205.412 203.564 249.397 185.976 294.309 C 173.073 327.258 169.702 359.233 170.426 394.254 C 170.372 396.297 170.18 398.339 170.031 400.377 L 169.076 400.746 C 161.872 387.856 159.877 358.819 160.235 344.285 C 165.678 298.789 178.536 254.538 209.071 219.104 C 217.131 209.751 226.724 201.632 235.157 192.594 z"/>
<path transform="translate(0,0)" fill="rgb(202,249,253)" d="M 415.083 636.037 C 420.158 648.21 363.918 1426.63 357.396 1513.44 L 344.731 1672.11 C 343.68 1686.63 339.596 1708.87 341.926 1722.57 C 343.844 1733.85 355.829 1738.3 360.384 1747.92 L 354.86 1748.55 C 348.342 1745.34 342.619 1741.46 337.772 1735.99 C 331.594 1729.01 330.781 1722.93 330.942 1713.98 C 331.25 1696.75 333.559 1679.26 335.02 1662.08 C 336.89 1640.09 338.112 1618.05 339.708 1596.04 L 358.43 1339.47 L 406.984 636.34 L 415.083 636.037 z"/>
<path transform="translate(0,0)" fill="rgb(202,249,253)" d="M 590.477 252.921 C 588.548 251.352 587.389 250.647 586.708 248.148 C 591.826 245.65 695.481 241.182 710.497 240.279 L 1258.15 204.265 L 1408.61 194.043 C 1429.42 192.612 1450.28 190.471 1471.11 189.474 C 1480.44 189.027 1488.7 189.388 1497.79 191.682 C 1510.42 200.065 1521.47 209.447 1528.79 223.009 C 1529.27 225.609 1530.3 228.491 1528.98 230.937 C 1520.24 228.334 1512.57 206.107 1482.32 202.882 C 1470.12 201.582 1457.68 203.935 1445.51 204.895 L 1394.35 208.499 L 1177.87 223.249 L 809.67 248.372 L 664.919 257.258 C 642.358 258.759 619.497 259.605 597.039 262.187 C 595.19 258.325 593.904 255.579 590.477 252.921 z"/>
<path transform="translate(0,0)" fill="rgb(247,110,20)" d="M 1751.1 652.833 C 1787.75 655.237 1826.44 679.143 1850.15 706.33 A 157.487 157.487 0 0 1 1888.85 822.844 C 1886.29 857.966 1872.74 892.599 1848.58 918.516 C 1841.25 926.386 1832.8 933.149 1824.92 940.454 C 1824.9 952.22 1825.89 963.923 1826.75 975.65 L 1801.16 979.881 C 1801.57 948.5 1800.21 911.843 1802.86 881.137 C 1811.2 883.375 1823.31 887.866 1831.37 883.001 C 1833.06 881.977 1833.27 881.251 1834.26 879.621 C 1834.97 874.72 1832.2 870.241 1829.41 866.391 C 1828.5 865.139 1828.44 865.108 1827.56 864.126 C 1835.83 851.06 1836.93 807.794 1835.46 791.436 C 1829.7 727.063 1798.27 691.964 1751.1 652.833 z"/>
<path transform="translate(0,0)" fill="rgb(34,93,113)" d="M 360.384 1747.92 C 370.968 1748.87 381.963 1747.68 392.602 1747.65 C 424.581 1747.56 456.526 1746.56 488.499 1746.23 L 742.125 1745.89 L 1146.41 1746.29 C 1165.31 1746.33 1184.27 1745.99 1203.16 1746.41 C 1248.62 1747.41 1294.57 1749.55 1340.02 1747.04 C 1360.25 1745.92 1379.52 1743.11 1396.77 1731.74 C 1414.29 1720.2 1421.88 1701.76 1426.43 1682.03 C 1432.29 1656.58 1432.44 1628.74 1434.2 1602.72 A 8218.47 8218.47 0 0 1 1442.9 1481.25 A 33741.3 33741.3 0 0 0 1480.1 1020.3 A 8303.27 8303.27 0 0 1 1496.58 818.811 C 1498.29 800.418 1500.8 782.156 1502.63 763.8 C 1503.72 752.908 1503.58 741.246 1505.79 730.548 C 1505.85 730.232 1505.93 729.918 1506 729.603 C 1505.99 741.047 1505.13 752.477 1504.87 763.918 C 1503.01 845.435 1496.73 926.535 1491.02 1007.86 L 1467.92 1346.23 L 1453.79 1557.22 A 5831.34 5831.34 0 0 1 1447.75 1644.3 C 1446.45 1662.28 1445.92 1680.68 1443.09 1698.48 C 1441.14 1710.74 1435.62 1722.57 1426.93 1731.51 C 1412.1 1746.78 1391.54 1750.82 1371.01 1750.83 L 658.956 1750.11 L 449.542 1749.77 C 422.934 1749.72 379.678 1752.32 354.86 1748.55 L 360.384 1747.92 z"/>
<path transform="translate(0,0)" fill="rgb(203,177,157)" d="M 1200.27 1608.68 C 1199.22 1625.77 1198.06 1653.32 1183.88 1665.34 C 1175.3 1672.61 1160.58 1673.97 1149.68 1674.64 C 1112.08 1676.98 1073.6 1675.7 1035.87 1676.28 L 753.24 1679.61 A 13908.8 13908.8 0 0 1 514.386 1682.11 L 450.46 1682.77 C 437.892 1682.92 424.829 1683.8 412.323 1682.5 C 403.525 1681.58 395.184 1677.84 389.543 1670.86 C 387.773 1668.67 386.483 1666.41 385.305 1663.87 C 399.081 1661.88 414.092 1663.03 428.031 1662.97 A 2204.74 2204.74 0 0 0 487.957 1661.55 L 675.425 1655.62 C 713.857 1654.22 751.9 1653.27 790.24 1650.01 C 802.241 1651.62 815.742 1650.29 827.891 1650.06 C 861.26 1649.42 894.561 1647.53 927.913 1646.45 L 1064.49 1641.59 C 1087.87 1640.75 1113.96 1641.86 1136.91 1637.7 C 1147.22 1635.84 1157.48 1631.38 1166.71 1626.55 C 1174.71 1622.36 1192.33 1608.93 1200.27 1608.68 z"/>
<path transform="translate(0,0)" fill="rgb(152,36,59)" d="M 527.091 222.951 C 554.189 247.645 569.063 300.378 570.671 335.937 C 573.196 391.758 555.689 447.906 517.678 489.506 C 481.632 528.954 429.536 555.066 375.883 557.236 C 319.747 559.507 267.25 544.315 225.259 505.425 C 217.766 498.485 210.741 490.675 205.638 481.795 C 217.772 485.69 229.013 493.374 240.816 498.39 C 275.743 513.233 315.969 516.662 353.287 510.525 C 410.579 501.103 464.803 467.863 498.471 420.473 A 214.629 214.629 0 0 0 537.032 267.42 C 534.958 252.562 529.641 238.692 527.26 224.065 C 527.2 223.694 527.148 223.322 527.091 222.951 z"/>
<path transform="translate(0,0)" fill="rgb(203,177,157)" d="M 1430.72 272.921 C 1438.87 276.369 1445.02 282.742 1448.27 290.995 C 1451.05 298.071 1451.27 305.584 1450.93 313.074 C 1450.05 332.627 1447.38 352.149 1445.58 371.636 L 1435.06 483.327 C 1423.19 603.544 1410.28 723.991 1401.9 844.497 A 19241.3 19241.3 0 0 0 1378.56 1224.64 L 1373.06 1359.63 C 1372.16 1386.21 1372.47 1413.63 1369.83 1440.07 C 1353.77 1456.28 1335.6 1461.81 1313.2 1463.66 C 1315.35 1451.86 1329.63 1426.39 1334.88 1413.58 C 1340.64 1399.53 1346.99 1384.81 1348.74 1369.63 C 1350.97 1350.32 1351.3 1330.36 1352.22 1310.92 A 7321.07 7321.07 0 0 1 1356.56 1229.76 L 1364.63 1101.49 A 8680.32 8680.32 0 0 1 1376.44 920.203 L 1383.58 829.73 C 1385.41 808.718 1388.77 785.326 1388.34 764.4 C 1388.28 761.675 1387.73 759.356 1386.69 756.856 C 1395.9 724.162 1397.19 688.033 1400.14 654.254 L 1411.03 531.001 C 1416.13 474.313 1421.72 417.759 1426.08 360.997 C 1428.33 331.652 1431.88 302.397 1430.72 272.921 z"/>
<path transform="translate(0,0)" fill="rgb(34,93,113)" d="M 1555.24 207.656 C 1561.68 209.385 1567.29 214.43 1571.98 219.043 C 1582.29 229.18 1589.4 241.393 1591.1 255.917 C 1593.9 279.81 1589.32 314.787 1587.73 339.765 L 1576.68 506.081 L 1568.26 637.441 C 1566.88 659.168 1566.99 682.354 1563.49 703.801 C 1561.42 716.435 1554.34 727.641 1549.21 739.202 C 1541.11 757.503 1536.47 777.736 1535.01 797.67 C 1533.48 818.603 1534.91 839.58 1540.51 859.875 C 1544.62 874.799 1550.61 888.877 1550.63 904.599 C 1550.65 919.756 1549.39 935.055 1548.61 950.203 C 1546.67 987.909 1543.8 1025.51 1541.54 1063.19 L 1520.53 1399.08 L 1505.55 1631.14 A 2735.91 2735.91 0 0 0 1502.17 1685.41 C 1501.46 1699.13 1501.39 1713.22 1499.07 1726.78 C 1496.42 1742.25 1488.72 1755.99 1477.63 1767.04 C 1467.02 1777.61 1453.54 1784.96 1438.51 1786.61 C 1422.17 1788.41 1405.45 1787.46 1389.05 1787.34 L 1323.74 1787.43 A 21659.5 21659.5 0 0 1 1073.36 1787.45 L 434.412 1787.41 C 414.182 1786.99 400.229 1784.61 381.677 1776.24 C 414.946 1774.64 448.699 1775.46 482.017 1775.43 L 655.452 1775.42 L 1163.61 1775.41 L 1301.64 1775.33 C 1331.15 1775.31 1382.5 1779.21 1409.44 1770.76 C 1432.66 1763.48 1451.13 1747.36 1462.3 1725.79 C 1468.04 1714.69 1469.7 1703.56 1470.86 1691.26 C 1472.57 1673.19 1473.17 1654.98 1474.47 1636.88 L 1486.45 1452.97 L 1523.51 890.857 A 41639 41639 0 0 0 1553.24 436.097 L 1561.28 315.723 C 1562.76 294.06 1564.99 272.115 1565.34 250.419 C 1565.6 234.938 1559.91 222.044 1555.24 207.656 z"/>
<path transform="translate(0,0)" fill="rgb(253,195,41)" d="M 1685.1 965.452 C 1647.2 957.299 1614.46 936.226 1591.98 904.35 C 1566.99 868.918 1558.92 825.391 1566.61 782.996 C 1574.02 742.129 1599.31 704.15 1633.37 680.601 C 1667 657.347 1710.48 645.4 1751.1 652.833 C 1798.27 691.964 1829.7 727.063 1835.46 791.436 C 1836.93 807.794 1835.83 851.06 1827.56 864.126 C 1820.54 858.919 1811.07 854.293 1802.05 855.709 C 1794.83 856.843 1789.29 861.911 1785.27 867.745 C 1773.23 885.217 1776.67 919.515 1776.06 940.707 C 1766.05 941.23 1752.49 951.724 1743.33 956.318 C 1736.35 947.381 1731.04 937.211 1725.19 927.518 C 1720.27 919.357 1712.42 906.084 1702.68 903.673 C 1697.2 894.825 1689.56 885.19 1678.96 882.666 C 1672 881.007 1664.83 882.704 1658.94 886.646 C 1652.89 890.691 1647.52 897.289 1646.4 904.651 C 1645.91 907.864 1646.39 911.869 1648.5 914.485 C 1650.46 916.923 1652.7 917.789 1655.49 918.92 C 1663.11 919.615 1671.36 921.499 1678.38 917.812 C 1679.08 917.444 1679.8 917.127 1680.52 916.782 A 5078.89 5078.89 0 0 1 1702.8 964.972 C 1697.02 966.831 1691.06 964.669 1685.1 965.452 z"/>
<path transform="translate(0,0)" fill="url(#Gradient2)" d="M 1704.13 662.372 C 1709.84 661.776 1716.04 661.391 1721.78 661.595 C 1725.96 661.744 1729.97 661.804 1732.94 664.981 C 1730.08 675.981 1705.25 682.221 1695.46 686.913 C 1688.06 690.458 1680.71 694.546 1673.76 698.903 C 1660.51 707.201 1648.64 716.991 1638.49 728.897 C 1612.35 759.535 1601.54 797.983 1605.75 837.962 C 1607.17 851.487 1611 864.761 1611.93 878.304 C 1611.96 878.701 1611.97 879.099 1612 879.496 C 1611.04 880.165 1608.95 881.393 1607.72 881.573 C 1605.48 881.896 1604.19 881.352 1602.48 880.013 C 1590.98 871.026 1581.08 832.065 1579.63 817.492 C 1575.98 780.588 1586.1 743.91 1610.05 715.273 C 1633.49 687.253 1667.27 665.849 1704.13 662.372 z"/>
<path transform="translate(0,0)" fill="rgb(251,83,69)" d="M 170.426 394.254 C 169.702 359.233 173.073 327.258 185.976 294.309 C 203.564 249.397 245.92 205.412 290.072 186.26 C 351.922 159.429 415.061 161.974 476.892 186.648 C 477.412 184.665 477.303 183.903 476.567 181.996 C 474.816 180.892 473.346 179.991 471.885 178.502 C 471.574 178.186 471.29 177.846 470.992 177.517 C 472.509 177.614 473.323 177.732 474.719 178.335 C 476.528 179.118 477.864 178.819 479.788 178.68 L 483.688 178.421 C 489.67 183.239 496.163 187.729 501.86 192.846 C 512.158 201.752 519.919 211.388 527.091 222.951 C 527.148 223.322 527.2 223.694 527.26 224.065 C 529.641 238.692 534.958 252.562 537.032 267.42 A 214.629 214.629 0 0 1 498.471 420.473 C 464.803 467.863 410.579 501.103 353.287 510.525 C 315.969 516.662 275.743 513.233 240.816 498.39 C 229.013 493.374 217.772 485.69 205.638 481.795 C 185.483 462.319 174.988 441.874 164.945 415.957 C 166.59 411.57 169.935 408.089 171.112 403.368 C 171.815 400.55 171.986 396.786 170.426 394.254 z"/>
<path transform="translate(0,0)" fill="rgb(255,153,140)" d="M 470.992 177.517 C 472.509 177.614 473.323 177.732 474.719 178.335 C 476.528 179.118 477.864 178.819 479.788 178.68 L 483.688 178.421 C 489.67 183.239 496.163 187.729 501.86 192.846 C 500.589 194.927 500.91 195.339 498.461 196.09 C 491.227 194.155 483.008 191.022 476.892 186.648 C 477.412 184.665 477.303 183.903 476.567 181.996 C 474.816 180.892 473.346 179.991 471.885 178.502 C 471.574 178.186 471.29 177.846 470.992 177.517 z"/>
<path transform="translate(0,0)" fill="rgb(252,250,239)" d="M 211.551 263.155 C 213.804 262.898 216.255 262.509 218.526 262.73 C 221.628 263.033 225.015 265.394 226.928 267.762 C 228.949 270.264 229.653 273.551 229.264 276.699 C 228.648 281.677 225.738 283.787 222.099 286.816 C 219.738 287.362 216.659 287.812 214.284 287.187 C 208.844 285.756 206.333 279.654 203.837 275.166 C 205.877 270.476 207.827 266.729 211.551 263.155 z"/>
<path transform="translate(0,0)" fill="rgb(252,250,239)" d="M 259.128 210.741 C 261.686 210.471 264.247 210.626 266.714 211.411 C 270.422 212.592 273.498 215.675 275.084 219.176 C 276.472 222.239 276.572 225.421 275.379 228.578 C 273.945 232.37 271.903 233.812 268.331 235.497 C 266.12 235.686 263.532 235.839 261.349 235.373 C 258.036 234.667 254.868 231.987 253.113 229.163 C 251.308 226.259 250.851 223.097 251.619 219.779 C 252.705 215.085 255.217 213.259 259.128 210.741 z"/>
<path transform="translate(0,0)" fill="rgb(252,250,239)" d="M 448.548 230.057 C 456.189 230.232 464.254 232.699 469.802 238.176 C 474.167 242.484 476.185 248.212 476.075 254.302 C 475.987 259.146 471.521 266.803 469.183 271.116 C 451.463 303.814 430.461 335.408 411.204 367.263 C 401.277 383.684 365.966 446.439 356.366 455.272 C 351.783 459.49 346.704 461.494 340.412 460.986 C 334.953 460.546 329.92 456.755 325.942 453.293 C 318.13 446.492 311.741 437.63 305.104 429.686 A 1114.42 1114.42 0 0 0 276.839 396.853 C 267.24 386.205 247.386 368.107 248.443 352.909 C 248.838 347.226 252.438 341.92 256.605 338.228 A 20.837 20.837 0 0 1 272.785 333.027 C 277.943 333.556 282.483 335.786 286.563 338.902 C 297.595 347.325 306.701 360.015 315.743 370.489 C 323.1 379.01 330.826 387.192 338.063 395.818 A 6396.52 6396.52 0 0 0 399.156 297.217 C 410.335 278.793 420.793 257.253 434.451 240.67 C 438.659 235.56 442.494 232.827 448.548 230.057 z"/>
<path transform="translate(0,0)" fill="rgb(238,224,195)" d="M 1173.45 1312.85 C 1176.91 1312.38 1180.28 1311.75 1183.69 1310.98 C 1186.64 1303.95 1188.75 1296.6 1191.76 1289.6 C 1196.03 1279.63 1201.4 1269.99 1205.93 1260.1 C 1215.79 1238.56 1225.09 1216.6 1234.33 1194.79 A 3402.19 3402.19 0 0 0 1297.76 1028.89 C 1314.81 979.177 1332.78 928.78 1348.14 878.604 L 1370.63 804.256 C 1375.25 788.863 1378.95 770.942 1386.69 756.856 C 1387.73 759.356 1388.28 761.675 1388.34 764.4 C 1388.77 785.326 1385.41 808.718 1383.58 829.73 L 1376.44 920.203 A 8680.32 8680.32 0 0 0 1364.63 1101.49 L 1356.56 1229.76 A 7321.07 7321.07 0 0 0 1352.22 1310.92 C 1351.3 1330.36 1350.97 1350.32 1348.74 1369.63 C 1346.99 1384.81 1340.64 1399.53 1334.88 1413.58 C 1329.63 1426.39 1315.35 1451.86 1313.2 1463.66 C 1286.55 1466.17 1259.83 1461.99 1233.66 1457.23 C 1222.47 1455.19 1209.12 1451.47 1197.8 1452.12 C 1191.26 1452.49 1184.29 1455.26 1180.14 1460.48 C 1176.99 1464.44 1175.59 1469.27 1176.37 1474.27 C 1178.21 1486.16 1183.45 1497.91 1186.81 1509.46 C 1194.38 1535.44 1204.28 1582.72 1200.27 1608.68 C 1192.33 1608.93 1174.71 1622.36 1166.71 1626.55 C 1157.48 1631.38 1147.22 1635.84 1136.91 1637.7 C 1113.96 1641.86 1087.87 1640.75 1064.49 1641.59 L 927.913 1646.45 C 894.561 1647.53 861.26 1649.42 827.891 1650.06 C 815.742 1650.29 802.241 1651.62 790.24 1650.01 C 797.587 1641.81 824.703 1638.03 836.235 1634.34 C 861.82 1626.15 886.739 1616.93 910.868 1605.04 C 996.362 1562.91 1064.79 1497.12 1118.58 1419.01 C 1131.26 1400.58 1145.6 1380.65 1152.81 1359.38 C 1122.01 1358.65 1084.63 1361.73 1054.89 1358.83 C 1067.57 1357.77 1080.73 1358.29 1093.47 1358.23 L 1165.5 1358.12 C 1175.65 1358.13 1188.16 1359.86 1198.03 1358.27 C 1202.93 1357.48 1207.57 1355.54 1211.37 1352.32 A 24.2094 24.2094 0 0 0 1219.73 1334.88 C 1219.94 1329.41 1218.29 1324.34 1214.44 1320.4 C 1204.53 1310.23 1186.4 1312.93 1173.45 1312.85 z"/>
<path transform="translate(0,0)" fill="rgb(62,167,171)" d="M 597.039 262.187 C 619.497 259.605 642.358 258.759 664.919 257.258 L 809.67 248.372 L 1177.87 223.249 L 1394.35 208.499 L 1445.51 204.895 C 1457.68 203.935 1470.12 201.582 1482.32 202.882 C 1512.57 206.107 1520.24 228.334 1528.98 230.937 C 1530.3 228.491 1529.27 225.609 1528.79 223.009 L 1531.68 225.397 C 1533.29 225.041 1533.93 224.781 1535.42 223.909 C 1538.29 238.877 1535.94 252.048 1535.34 267.041 A 4878.18 4878.18 0 0 1 1528.71 380.032 L 1512.06 641.811 C 1510.23 671.077 1507.58 700.33 1506 729.603 C 1505.93 729.918 1505.85 730.232 1505.79 730.548 C 1503.58 741.246 1503.72 752.908 1502.63 763.8 C 1500.8 782.156 1498.29 800.418 1496.58 818.811 A 8303.27 8303.27 0 0 0 1480.1 1020.3 A 33741.3 33741.3 0 0 1 1442.9 1481.25 A 8218.47 8218.47 0 0 0 1434.2 1602.72 C 1432.44 1628.74 1432.29 1656.58 1426.43 1682.03 C 1421.88 1701.76 1414.29 1720.2 1396.77 1731.74 C 1379.52 1743.11 1360.25 1745.92 1340.02 1747.04 C 1294.57 1749.55 1248.62 1747.41 1203.16 1746.41 C 1184.27 1745.99 1165.31 1746.33 1146.41 1746.29 L 742.125 1745.89 L 488.499 1746.23 C 456.526 1746.56 424.581 1747.56 392.602 1747.65 C 381.963 1747.68 370.968 1748.87 360.384 1747.92 C 355.829 1738.3 343.844 1733.85 341.926 1722.57 C 339.596 1708.87 343.68 1686.63 344.731 1672.11 L 357.396 1513.44 C 363.918 1426.63 420.158 648.21 415.083 636.037 C 419.782 635.376 424.52 635.162 429.253 634.867 L 413.196 961.972 A 18641.1 18641.1 0 0 1 392.004 1271.9 L 370.199 1538.54 A 5861.78 5861.78 0 0 1 365.354 1598.61 C 363.757 1615.63 361.341 1632.97 361.197 1650.05 C 361.072 1664.75 365.359 1677.75 375.144 1688.94 C 381.154 1695.8 388.885 1700.98 396.624 1705.69 C 405.59 1703.92 424.949 1707.59 435.554 1707.74 C 476.176 1708.29 516.979 1707.24 557.611 1707.07 L 1067.72 1704.16 A 4782.11 4782.11 0 0 0 1135.37 1703.33 C 1183.14 1702.49 1209.66 1701.17 1245.14 1665.27 C 1271.19 1638.91 1294.25 1610.09 1317.73 1581.49 C 1337.65 1557.24 1358.85 1532.53 1375.98 1506.2 C 1382.92 1495.54 1389.34 1483.93 1393.16 1471.73 C 1401.22 1446.04 1399.33 1416.02 1400.3 1389.26 C 1401.27 1362.85 1402.45 1336.49 1403.09 1310.07 A 8644.65 8644.65 0 0 1 1419.7 985.46 C 1425.21 897.342 1429.61 809.236 1437.9 721.303 L 1459.74 486.327 L 1467.56 399.245 C 1470.89 362.809 1474.4 326.618 1474.19 290 C 1466.3 272.54 1457.65 256.97 1438.62 249.608 C 1429.29 245.999 1418.83 245.479 1408.93 245.546 C 1376.81 245.763 1344.26 249.482 1312.22 251.839 A 13697.3 13697.3 0 0 0 1156.8 263.243 L 635.385 306.115 C 633.605 306.161 631.763 306.267 629.988 306.126 C 629.239 306.067 627.093 305.749 626.499 305.409 C 625.588 304.887 599.227 271.645 595.619 267.458 C 592.58 262.712 590.732 258.581 590.477 252.921 C 593.904 255.579 595.19 258.325 597.039 262.187 z"/>
<path transform="translate(0,0)" fill="rgb(34,93,113)" d="M 1474.19 290 L 1474.79 290.96 C 1476.94 294.416 1479.15 297.86 1481.19 301.38 C 1486.43 310.416 1489.49 319.876 1490.06 330.333 C 1491.24 351.663 1486.36 382.719 1484.38 404.537 L 1470.09 558.984 C 1460.94 657.004 1450.47 754.823 1442.89 852.996 A 13847.9 13847.9 0 0 0 1422.81 1190.49 C 1419.83 1249.48 1416.57 1308.93 1415.37 1367.98 A 4202.3 4202.3 0 0 0 1415 1431.44 C 1414.96 1448.61 1416.04 1466.6 1412.22 1483.43 C 1401.14 1532.18 1279.9 1688.81 1239.49 1714.1 C 1227.46 1721.62 1216.09 1724.6 1201.96 1725.45 C 1176.65 1726.97 1150.8 1725.97 1125.44 1725.93 L 988.561 1725.5 A 29029 29029 0 0 1 598.749 1723.27 L 475.688 1722.07 C 457.294 1721.91 435.639 1724.47 417.782 1720.53 C 409.479 1718.7 402.138 1711.93 396.624 1705.69 C 405.59 1703.92 424.949 1707.59 435.554 1707.74 C 476.176 1708.29 516.979 1707.24 557.611 1707.07 L 1067.72 1704.16 A 4782.11 4782.11 0 0 0 1135.37 1703.33 C 1183.14 1702.49 1209.66 1701.17 1245.14 1665.27 C 1271.19 1638.91 1294.25 1610.09 1317.73 1581.49 C 1337.65 1557.24 1358.85 1532.53 1375.98 1506.2 C 1382.92 1495.54 1389.34 1483.93 1393.16 1471.73 C 1401.22 1446.04 1399.33 1416.02 1400.3 1389.26 C 1401.27 1362.85 1402.45 1336.49 1403.09 1310.07 A 8644.65 8644.65 0 0 1 1419.7 985.46 C 1425.21 897.342 1429.61 809.236 1437.9 721.303 L 1459.74 486.327 L 1467.56 399.245 C 1470.89 362.809 1474.4 326.618 1474.19 290 z"/>
<path transform="translate(0,0)" fill="rgb(252,250,239)" d="M 642.525 328.88 C 654.413 329.249 667.556 327.087 679.488 326.16 L 756.686 320.134 L 1190.75 284.838 L 1332.18 274.198 C 1356.02 272.477 1380.12 269.78 1404.01 269.315 C 1412.81 269.144 1422.66 268.956 1430.72 272.921 C 1431.88 302.397 1428.33 331.652 1426.08 360.997 C 1421.72 417.759 1416.13 474.313 1411.03 531.001 L 1400.14 654.254 C 1397.19 688.033 1395.9 724.162 1386.69 756.856 C 1378.95 770.942 1375.25 788.863 1370.63 804.256 L 1348.14 878.604 C 1332.78 928.78 1314.81 979.177 1297.76 1028.89 A 3402.19 3402.19 0 0 1 1234.33 1194.79 C 1225.09 1216.6 1215.79 1238.56 1205.93 1260.1 C 1201.4 1269.99 1196.03 1279.63 1191.76 1289.6 C 1188.75 1296.6 1186.64 1303.95 1183.69 1310.98 C 1180.28 1311.75 1176.91 1312.38 1173.45 1312.85 C 1186.4 1312.93 1204.53 1310.23 1214.44 1320.4 C 1218.29 1324.34 1219.94 1329.41 1219.73 1334.88 A 24.2094 24.2094 0 0 1 1211.37 1352.32 C 1207.57 1355.54 1202.93 1357.48 1198.03 1358.27 C 1188.16 1359.86 1175.65 1358.13 1165.5 1358.12 L 1093.47 1358.23 C 1080.73 1358.29 1067.57 1357.77 1054.89 1358.83 C 1084.63 1361.73 1122.01 1358.65 1152.81 1359.38 C 1145.6 1380.65 1131.26 1400.58 1118.58 1419.01 C 1064.79 1497.12 996.362 1562.91 910.868 1605.04 C 886.739 1616.93 861.82 1626.15 836.235 1634.34 C 824.703 1638.03 797.587 1641.81 790.24 1650.01 C 751.9 1653.27 713.857 1654.22 675.425 1655.62 L 487.957 1661.55 A 2204.74 2204.74 0 0 1 428.031 1662.97 C 414.092 1663.03 399.081 1661.88 385.305 1663.87 C 381.511 1644.37 389.091 1592.62 391.229 1569.91 L 400.804 1462.22 L 427.038 1115.1 A 10900.1 10900.1 0 0 0 445.199 812.025 C 448.029 751.075 449.059 689.873 453.104 628.998 C 453.947 611.429 454.021 593.809 454.294 576.222 C 485.865 564.769 517.345 542.381 540.33 518.073 C 590.969 464.52 607.27 403.447 605.285 331.327 C 617.692 330.946 630.155 329.898 642.525 328.88 z"/>
<path transform="translate(0,0)" fill="rgb(203,177,157)" d="M 614.993 1071.18 C 620.292 1074.13 623.715 1078.83 625.353 1084.68 C 627.845 1093.59 624.209 1104.06 619.566 1111.64 C 614.337 1120.17 607.109 1127.44 597.316 1130.16 L 587.482 1120.24 C 603.316 1104.55 614.813 1095.33 614.993 1071.18 z"/>
<path transform="translate(0,0)" fill="rgb(203,177,157)" d="M 613.201 1161.87 C 619.3 1172.97 625.245 1179.66 621.612 1193.3 C 619.963 1199.5 616.234 1204.41 610.611 1207.5 C 604.001 1211.13 596.064 1211.55 588.93 1209.33 C 580.699 1206.77 574.154 1201.45 569.931 1194 C 571.931 1194.26 573.918 1194.62 575.913 1194.91 C 585.055 1196.26 594.664 1195.82 602.231 1189.81 C 610.892 1182.94 612.252 1172.14 613.201 1161.87 z"/>
<path transform="translate(0,0)" fill="rgb(203,177,157)" d="M 540.52 1168.27 C 545.276 1172.41 549.577 1176.99 553.945 1181.53 C 553.441 1181.89 552.934 1182.24 552.434 1182.6 C 539.164 1192.13 527.445 1212.57 508.617 1209.83 C 502.204 1208.89 492.491 1204.69 488.957 1198.92 C 488.231 1197.74 487.841 1196.36 487.417 1195.06 C 490.432 1195.42 493.519 1195.86 496.556 1195.94 C 515.548 1196.49 528.182 1180.35 540.52 1168.27 z"/>
<path transform="translate(0,0)" fill="rgb(203,177,157)" d="M 492.194 1603.87 C 498.252 1608.48 502.631 1613.45 503.879 1621.21 C 505.02 1628.31 502.623 1635.41 498.415 1641.1 A 30.3818 30.3818 0 0 1 477.647 1653.18 C 469.754 1654.08 461.345 1652.13 455.061 1647.14 C 450.277 1643.35 446.83 1639.22 444.522 1633.53 C 449.624 1635.25 454.651 1636.96 460.075 1637.3 C 468.577 1637.85 477.111 1635.86 483.439 1629.89 C 491.105 1622.65 492.011 1613.75 492.194 1603.87 z"/>
<path transform="translate(0,0)" fill="rgb(203,177,157)" d="M 1355.32 339.623 C 1360.66 341.911 1363.99 344.796 1366.16 350.301 C 1368.9 357.254 1368.41 366.98 1365.44 373.795 C 1362.62 380.264 1357.08 384.884 1350.57 387.387 C 1342.65 390.43 1332.79 390.886 1324.96 387.296 C 1320.95 385.456 1314.61 380.032 1313.33 375.714 C 1313.04 374.74 1313.02 374.029 1312.88 372.976 C 1312.83 372.594 1312.76 372.213 1312.71 371.832 C 1316.07 373.015 1319.46 374.004 1323.03 374.261 C 1330.82 374.82 1338.7 372.917 1344.62 367.655 C 1353.06 360.146 1354.65 350.251 1355.32 339.623 z"/>
<path transform="translate(0,0)" fill="rgb(6,23,43)" d="M 1312.71 371.832 C 1307.72 369.024 1302.94 363.537 1300.42 358.441 C 1297.03 351.602 1296.95 343.41 1299.62 336.324 C 1302.43 328.885 1308.21 322.576 1315.53 319.391 C 1322.65 316.292 1330.99 316.04 1338.15 319.133 C 1346.92 322.917 1352.04 331.032 1355.32 339.623 C 1354.65 350.251 1353.06 360.146 1344.62 367.655 C 1338.7 372.917 1330.82 374.82 1323.03 374.261 C 1319.46 374.004 1316.07 373.015 1312.71 371.832 z"/>
<path transform="translate(0,0)" fill="rgb(238,224,195)" d="M 1323.17 335.017 C 1324.45 334.965 1325.74 334.886 1327.02 335.034 C 1330.44 335.432 1334.44 337.183 1336.28 340.243 C 1337.84 342.823 1338.17 344.942 1337.5 347.881 C 1336.55 352.094 1332.93 354.383 1329.45 356.366 C 1328.87 356.352 1328.29 356.345 1327.71 356.323 C 1323.38 356.158 1318.97 354.769 1316.29 351.112 C 1314.71 348.946 1314.48 346.64 1314.94 344.07 C 1315.75 339.61 1319.7 337.281 1323.17 335.017 z"/>
<path transform="translate(0,0)" fill="rgb(6,23,43)" d="M 444.522 1633.53 C 441.102 1630.06 438.095 1626.47 436.04 1622.01 C 432.483 1614.28 432.073 1605.8 435.262 1597.87 A 30.8526 30.8526 0 0 1 452.736 1580.72 A 28.1432 28.1432 0 0 1 474.989 1581.57 C 484.345 1586.14 488.879 1594.5 492.194 1603.87 C 492.011 1613.75 491.105 1622.65 483.439 1629.89 C 477.111 1635.86 468.577 1637.85 460.075 1637.3 C 454.651 1636.96 449.624 1635.25 444.522 1633.53 z"/>
<path transform="translate(0,0)" fill="rgb(215,203,204)" d="M 460.34 1596.9 C 462.382 1597.07 464.564 1597.28 466.508 1597.97 C 469.523 1599.04 472.166 1601.57 473.479 1604.47 C 474.788 1607.35 474.792 1610.55 473.483 1613.45 C 471.672 1617.47 468.717 1618.73 464.844 1620.19 C 463.167 1620.16 461.56 1620.15 459.931 1619.7 C 456.953 1618.88 453.436 1616.79 452.059 1613.9 C 450.786 1611.22 450.63 1608.66 451.473 1605.85 C 452.885 1601.16 456.315 1599.24 460.34 1596.9 z"/>
<path transform="translate(0,0)" fill="rgb(203,177,157)" d="M 645.398 802.316 C 648.456 806.855 653.031 809.805 656.175 814.485 C 651.222 837.443 629.411 872.021 618.016 893.756 C 608.126 912.622 598.977 933.391 587.107 951.065 C 584.794 954.511 582.675 957.051 579.159 959.299 C 570.838 964.619 559.205 965.143 549.853 962.547 C 544.949 961.185 538.691 956.949 536.122 952.474 C 535.339 951.111 534.913 949.531 534.451 948.047 C 538.295 948.988 542.138 949.759 546.085 950.13 C 554.253 950.898 563.273 949.379 569.555 943.707 C 574.531 939.213 578.771 933.659 582.373 928.029 C 598.001 903.597 610.768 876.182 624.077 850.428 C 630.637 837.732 639.822 823.473 644.339 809.955 C 645.157 807.505 645.304 804.879 645.398 802.316 z"/>
<path transform="translate(0,0)" fill="rgb(203,177,157)" d="M 652.282 570.016 C 656.722 572.878 661.165 577.232 662.445 582.552 C 663.105 585.297 662.616 587.035 661.721 589.675 C 655.073 609.288 639.224 636.143 629.344 655.124 C 618.551 675.859 608.372 698.615 595.596 718.099 C 590.635 725.665 583.935 730.347 574.991 732.296 C 570.396 733.297 565.509 733.05 560.839 732.788 C 553.405 728.035 545.559 723.62 541.859 715.191 A 100.86 100.86 0 0 0 545.893 716.41 C 555.765 719.142 566.017 718.12 574.869 712.825 C 580.031 709.738 583.935 704.736 587.321 699.846 C 600.04 681.477 609.714 659.922 619.926 640.068 C 630.759 619.008 646.943 593.008 652.282 570.016 z"/>
<path transform="translate(0,0)" fill="url(#Gradient3)" d="M 619.56 1295.8 C 623.163 1297.32 627.454 1299.38 629.079 1303.25 C 632.093 1310.43 626.268 1320.44 623.218 1326.94 C 612.423 1349.94 600.49 1372.34 588.825 1394.89 C 579.847 1412.25 571.279 1433.02 558.582 1447.96 C 555.303 1451.82 550.326 1455.1 545.63 1456.92 C 537.41 1460.11 528.772 1458.62 521.02 1454.83 C 515.547 1452.16 508.623 1447.02 506.63 1440.98 C 506.341 1440.11 506.129 1439.21 505.903 1438.32 C 508.416 1439.26 510.954 1440.24 513.53 1440.98 C 522.796 1443.66 532.266 1443.69 540.781 1438.73 C 547.492 1434.82 552.788 1427.5 556.979 1421.07 C 565.424 1408.1 572.074 1393.32 579.264 1379.59 C 591.259 1356.69 613.425 1319.16 619.56 1295.8 z"/>
<path transform="translate(0,0)" fill="rgb(6,23,43)" d="M 550.968 859.743 C 567.724 843.528 606.014 795.392 623.665 787.216 C 626.697 785.811 630.386 785.719 633.502 786.931 C 639.933 789.434 642.757 796.486 645.398 802.316 C 645.304 804.879 645.157 807.505 644.339 809.955 C 639.822 823.473 630.637 837.732 624.077 850.428 C 610.768 876.182 598.001 903.597 582.373 928.029 C 578.771 933.659 574.531 939.213 569.555 943.707 C 563.273 949.379 554.253 950.898 546.085 950.13 C 542.138 949.759 538.295 948.988 534.451 948.047 A 94.7117 94.7117 0 0 1 520.95 936.121 C 507.326 921.342 484.96 888.254 486.236 868.042 C 486.742 860.026 489.895 852.429 496.036 847.116 A 31.0848 31.0848 0 0 1 518.454 839.702 C 531.729 840.732 542.495 850.315 550.968 859.743 z"/>
<path transform="translate(0,0)" fill="rgb(170,227,206)" d="M 580.614 861.447 C 586.795 853.71 594.425 845.086 602.295 839.07 C 598.789 849.254 593.288 858.112 587.968 867.415 C 586.059 868.867 584.293 870.374 582.015 871.208 C 582.032 867.575 582.077 864.814 580.614 861.447 z"/>
<path transform="translate(0,0)" fill="rgb(202,249,253)" d="M 580.614 861.447 C 582.077 864.814 582.032 867.575 582.015 871.208 C 580.152 873.232 578.583 875.177 577.029 877.447 C 573.024 883.394 567.933 893.753 560.625 895.409 C 557.952 894.591 556.919 893.724 554.969 891.843 C 559.861 884.393 566.494 877.746 572.384 871.053 L 580.614 861.447 z"/>
<path transform="translate(0,0)" fill="rgb(202,249,253)" d="M 514.477 888.271 C 511.539 883.22 509.226 877.499 508.958 871.597 C 508.829 868.75 509.322 865.652 511.61 863.697 C 513.301 862.251 515.535 861.8 517.706 861.921 C 526.945 862.435 533.132 870.497 538.807 876.794 L 537.002 878.756 C 534.869 878.616 533.198 878.196 531.181 877.566 C 528.997 876.884 527.845 876.636 525.567 877.291 C 521.438 880.328 518.558 885.895 514.477 888.271 z"/>
<path transform="translate(0,0)" fill="rgb(73,181,135)" d="M 587.968 867.415 C 583.354 881.177 567.184 920.093 554.487 925.849 C 550.79 927.525 546.942 927.531 543.215 925.941 C 532.491 921.368 518.91 898.739 514.477 888.271 C 518.558 885.895 521.438 880.328 525.567 877.291 C 527.845 876.636 528.997 876.884 531.181 877.566 C 533.198 878.196 534.869 878.616 537.002 878.756 L 538.807 876.794 C 542.651 880.561 550.392 890.548 554.969 891.843 C 556.919 893.724 557.952 894.591 560.625 895.409 C 567.933 893.753 573.024 883.394 577.029 877.447 C 578.583 875.177 580.152 873.232 582.015 871.208 C 584.293 870.374 586.059 868.867 587.968 867.415 z"/>
<path transform="translate(0,0)" fill="rgb(6,23,43)" d="M 559.723 626.391 C 568.633 613.721 615.964 562.697 627.978 555.342 C 631.108 553.425 634.044 552.704 637.679 553.684 C 645.182 555.706 648.771 563.811 652.282 570.016 C 646.943 593.008 630.759 619.008 619.926 640.068 C 609.714 659.922 600.04 681.477 587.321 699.846 C 583.935 704.736 580.031 709.738 574.869 712.825 C 566.017 718.12 555.765 719.142 545.893 716.41 A 100.86 100.86 0 0 1 541.859 715.191 C 525.036 703.915 504.291 674.312 497.378 655.424 C 492.742 642.757 492.906 631.247 498.63 619.038 C 507.3 609.477 514.75 605.25 527.483 603.959 C 541.077 607.401 550.627 616.281 559.723 626.391 z"/>
<path transform="translate(0,0)" fill="rgb(215,203,204)" d="M 583.469 632.852 C 587.854 627.93 599.434 613.063 605.949 612.408 C 606.097 616.596 602.97 620.513 600.565 623.698 C 595.941 627.562 591.844 631.748 587.695 636.104 C 586.521 634.783 584.917 633.861 583.469 632.852 z"/>
<path transform="translate(0,0)" fill="rgb(252,250,239)" d="M 516.148 647.1 C 515.555 644.624 515.074 642.346 515.089 639.786 C 515.11 636.182 515.926 632.174 518.921 629.813 C 520.871 628.276 523.218 627.903 525.62 628.047 C 532.973 628.486 536.631 633.508 541.017 638.665 C 540.454 638.823 539.893 638.987 539.329 639.139 C 530.062 641.633 523.938 640.207 516.148 647.1 z"/>
<path transform="translate(0,0)" fill="rgb(251,83,69)" d="M 587.695 636.104 C 591.844 631.748 595.941 627.562 600.565 623.698 C 600.735 625.906 600.829 628.171 600.221 630.325 C 597.373 640.414 575.768 680.368 568.688 688.372 C 565.472 692.007 560.568 695.986 555.404 695.823 C 548.91 695.619 542.549 687.11 538.961 682.258 C 530.651 671.021 523.451 659.002 516.148 647.1 C 523.938 640.207 530.062 641.633 539.329 639.139 C 539.893 638.987 540.454 638.823 541.017 638.665 C 548.336 644.051 552.469 651.438 559.025 657.24 C 568.581 650.456 575.794 641.588 583.469 632.852 C 584.917 633.861 586.521 634.783 587.695 636.104 z"/>
<path transform="translate(0,0)" fill="rgb(252,250,239)" d="M 559.025 657.24 C 568.581 650.456 575.794 641.588 583.469 632.852 C 584.917 633.861 586.521 634.783 587.695 636.104 C 582.859 643.095 574.774 660.651 565.905 661.739 C 564.04 661.968 562.372 660.7 561.092 659.446 C 560.372 658.741 559.706 657.982 559.025 657.24 z"/>
<path transform="translate(0,0)" fill="rgb(6,23,43)" d="M 526.632 1350.91 C 545.222 1329.52 565.128 1304.83 586.727 1286.7 C 591.175 1282.97 598.544 1277.65 604.796 1279.03 C 611.711 1280.56 616.335 1290.17 619.56 1295.8 C 613.425 1319.16 591.259 1356.69 579.264 1379.59 C 572.074 1393.32 565.424 1408.1 556.979 1421.07 C 552.788 1427.5 547.492 1434.82 540.781 1438.73 C 532.266 1443.69 522.796 1443.66 513.53 1440.98 C 510.954 1440.24 508.416 1439.26 505.903 1438.32 A 91.2048 91.2048 0 0 1 503.004 1435.56 C 486.303 1419.08 458.04 1384.65 458.523 1359.79 C 458.699 1350.69 462.376 1341.45 469.308 1335.41 C 475.352 1330.14 483.685 1327.92 491.593 1328.52 C 506.747 1329.67 517.21 1340.18 526.632 1350.91 z"/>
<path transform="translate(0,0)" fill="rgb(170,227,206)" d="M 557.298 1349.91 C 562.989 1342.71 568.983 1337.09 576.281 1331.54 C 574.26 1337.28 572.37 1343.61 568.363 1348.28 A 400.565 400.565 0 0 0 560.744 1356.23 C 559.806 1354.05 558.466 1351.98 557.298 1349.91 z"/>
<path transform="translate(0,0)" fill="rgb(202,249,253)" d="M 481.97 1370.36 C 481.491 1368.84 481.201 1367.38 481.02 1365.8 C 480.563 1361.81 481.339 1356.39 484.188 1353.32 C 485.854 1351.52 487.6 1350.57 490.118 1350.79 C 498.716 1351.54 507.906 1362.78 513.766 1368.65 C 507.946 1372.22 490.802 1367.55 481.97 1370.36 z"/>
<path transform="translate(0,0)" fill="rgb(73,181,135)" d="M 560.744 1356.23 A 400.565 400.565 0 0 1 568.363 1348.28 C 568.263 1351.08 567.971 1353.63 567.021 1356.28 C 563.774 1365.35 539.723 1410.29 533.773 1415.96 C 530.882 1418.72 527.192 1420.81 523.073 1420.49 C 516.654 1420 511.52 1414.06 507.857 1409.33 C 498.611 1397.41 488.831 1383.79 481.97 1370.36 C 490.802 1367.55 507.946 1372.22 513.766 1368.65 C 518.778 1372.74 523.662 1377.09 529.289 1380.31 C 539.397 1371.18 548.302 1360.12 557.298 1349.91 C 558.466 1351.98 559.806 1354.05 560.744 1356.23 z"/>
<path transform="translate(0,0)" fill="rgb(202,249,253)" d="M 557.298 1349.91 C 558.466 1351.98 559.806 1354.05 560.744 1356.23 C 554.803 1363.91 541.371 1386.44 531.949 1387.65 L 530.583 1387.04 C 529.634 1384.53 528.968 1383.05 529.289 1380.31 C 539.397 1371.18 548.302 1360.12 557.298 1349.91 z"/>
<path transform="translate(0,0)" fill="rgb(6,23,43)" d="M 953.2 895.545 C 971.121 894.959 989.642 893.586 1007.5 895.205 C 1009.13 896.166 1010.71 897.125 1012.2 898.291 C 1017.76 902.63 1021.32 908.817 1022.11 915.869 C 1022.73 921.417 1021.53 927.204 1017.81 931.497 C 1014.02 935.883 1008.54 937.856 1002.96 938.721 C 992.568 940.328 981.594 939.812 971.098 939.974 L 931.187 940.882 C 873.317 942.144 815.359 942.38 757.523 944.689 C 741.832 945.117 707.361 949.444 695.622 939.572 C 691.064 935.739 688.806 930.045 688.629 924.163 C 688.447 918.128 690.626 911.848 694.802 907.441 C 698.749 903.275 703.331 901.967 708.868 901.216 C 729.701 898.391 760.518 899.547 782.624 899.054 A 13018.3 13018.3 0 0 0 953.2 895.545 z"/>
<path transform="translate(0,0)" fill="rgb(6,23,43)" d="M 907.726 1386.49 L 972.039 1386.03 C 983.558 1385.95 996.118 1384.84 1007.48 1386.55 C 1011.78 1387.2 1015.35 1388.38 1018.68 1391.27 C 1023.28 1395.28 1026.15 1401.39 1026.56 1407.45 C 1026.99 1413.69 1024.75 1419.39 1020.44 1423.89 C 1016.04 1428.49 1010.31 1430.47 1004.14 1431.35 C 987.524 1433.71 955.189 1431.76 937.286 1431.85 L 787.75 1433.11 L 723.014 1433.86 C 712.351 1433.96 700.572 1435.06 690.012 1433.62 C 685.281 1432.98 680.715 1431.49 677.048 1428.34 C 672.701 1424.6 668.88 1417.19 668.81 1411.44 C 668.737 1405.46 671.966 1399.27 676.059 1395.08 C 679.695 1391.36 683.384 1389.94 688.421 1389.14 C 707.774 1386.1 737.5 1388.12 757.917 1387.92 L 907.726 1386.49 z"/>
<path transform="translate(0,0)" fill="rgb(6,23,43)" d="M 540.808 1075.35 C 549.736 1065.74 559.148 1055.32 571.591 1050.29 C 579.605 1047.04 589.058 1046.61 597.075 1050.1 C 605.941 1053.97 611.568 1062.47 614.993 1071.18 C 614.813 1095.33 603.316 1104.55 587.482 1120.24 L 597.316 1130.16 C 605.043 1140.2 609.637 1149.73 613.201 1161.87 C 612.252 1172.14 610.892 1182.94 602.231 1189.81 C 594.664 1195.82 585.055 1196.26 575.913 1194.91 C 573.918 1194.62 571.931 1194.26 569.931 1194 C 564.297 1190.13 559.119 1185.99 553.945 1181.53 C 549.577 1176.99 545.276 1172.41 540.52 1168.27 C 528.182 1180.35 515.548 1196.49 496.556 1195.94 C 493.519 1195.86 490.432 1195.42 487.417 1195.06 C 483.847 1193.39 480.732 1191.3 477.806 1188.64 C 471.971 1183.35 469.187 1176.4 469.196 1168.56 C 469.217 1149.52 483.202 1134.52 495.851 1121.97 C 487.528 1114.41 477.72 1104.41 473.83 1093.67 C 471.168 1086.31 471.085 1077.95 474.586 1070.85 A 25.6422 25.6422 0 0 1 490.386 1057.56 C 509.436 1051.8 525.449 1066.63 540.808 1075.35 z"/>
<path transform="translate(0,0)" fill="rgb(252,250,239)" d="M 494.301 1088.71 C 493.668 1085.8 493.958 1084.59 494.843 1081.87 C 497.301 1079.88 499.102 1079.28 502.304 1079.75 C 510.287 1080.93 525.102 1088.6 530.151 1095.19 C 530.027 1097.35 529.964 1099.46 529.498 1101.58 L 530.51 1103.67 C 518.895 1097.07 508.089 1089.43 494.301 1088.71 z"/>
<path transform="translate(0,0)" fill="rgb(252,250,239)" d="M 524.832 1121.21 C 527.707 1122.23 528.435 1122.27 530.261 1124.65 C 527.726 1135.69 503.938 1148.25 501.517 1173.21 C 499.734 1174.65 499.007 1175.1 496.533 1175 C 494.765 1174.92 492.66 1173.71 491.511 1172.46 C 490.433 1171.3 490.336 1169.5 490.411 1167.96 C 491.102 1153.88 514.918 1129.79 524.832 1121.21 z"/>
<path transform="translate(0,0)" fill="rgb(252,250,239)" d="M 542.755 1103.58 C 552.909 1095.65 560.139 1084.56 570.664 1076.88 C 575.278 1073.51 581.516 1069.66 587.458 1070.64 C 590.259 1072.51 590.864 1072.73 592.256 1075.94 C 589.993 1080.09 582.452 1080.31 578.223 1083.05 C 565.744 1091.16 556.523 1103.31 544.114 1111.43 C 539.287 1109.1 534.904 1106.77 530.51 1103.67 L 529.498 1101.58 C 529.964 1099.46 530.027 1097.35 530.151 1095.19 C 534.233 1098.23 538.427 1100.92 542.755 1103.58 z"/>
<path transform="translate(0,0)" fill="rgb(152,36,59)" d="M 580.733 1143.79 C 586.817 1149.45 589.543 1156.98 589.697 1165.22 C 589.762 1168.71 589.141 1171.14 587.404 1174.12 C 585.062 1175.53 583.984 1176.19 581.217 1175.46 C 571.504 1172.91 556.335 1152.64 549.106 1145.12 C 557.684 1144.65 573.122 1146.09 580.733 1143.79 z"/>
<path transform="translate(0,0)" fill="rgb(251,83,69)" d="M 592.256 1075.94 C 593.107 1083.43 591.247 1086.88 586.456 1092.7 C 577.943 1103.06 566.483 1110.25 558.648 1121.34 C 565.885 1128.57 574.523 1135.71 580.733 1143.79 C 573.122 1146.09 557.684 1144.65 549.106 1145.12 C 545.884 1143.26 542.631 1141.47 539.613 1139.29 C 528.427 1147.82 514.092 1169.96 501.517 1173.21 C 503.938 1148.25 527.726 1135.69 530.261 1124.65 C 528.435 1122.27 527.707 1122.23 524.832 1121.21 C 522.172 1117.51 517.758 1114.23 514.361 1111.18 C 506.471 1104.1 500.191 1097.64 494.301 1088.71 C 508.089 1089.43 518.895 1097.07 530.51 1103.67 C 534.904 1106.77 539.287 1109.1 544.114 1111.43 C 556.523 1103.31 565.744 1091.16 578.223 1083.05 C 582.452 1080.31 589.993 1080.09 592.256 1075.94 z"/>
<path transform="translate(0,0)" fill="rgb(6,23,43)" d="M 1048.69 654.566 C 1061.01 653.849 1074.42 652.318 1085.07 659.964 C 1089.22 662.937 1092.3 667.165 1092.8 672.343 C 1093.43 678.781 1090.87 686.525 1086.58 691.35 C 1082.48 695.958 1077.4 697.921 1071.44 698.875 C 1060.7 700.594 1049.16 700.247 1038.26 700.587 A 4290.73 4290.73 0 0 0 976.612 702.557 L 735.75 712.07 C 725.297 712.763 711.821 714.188 703.274 706.921 C 698.71 703.041 695.593 696.624 695.151 690.654 C 694.713 684.745 697.535 678.588 701.467 674.314 C 705.358 670.084 709.588 668.213 715.173 667.317 C 726.495 665.502 738.823 666.085 750.299 665.743 A 3048.51 3048.51 0 0 0 803.925 663.603 L 1048.69 654.566 z"/>
<path transform="translate(0,0)" fill="rgb(203,177,157)" d="M 605.285 331.327 C 617.692 330.946 630.155 329.898 642.525 328.88 C 640.017 329.577 638.088 329.561 636.434 331.657 C 637.984 341.861 641.868 351.566 643.238 361.771 C 651.591 423.995 639.042 487.901 601.297 538.912 C 587.354 557.756 568.796 577.263 549.451 590.576 C 542.435 595.403 534.185 598.863 527.483 603.959 C 514.75 605.25 507.3 609.477 498.63 619.038 L 496.507 617.887 C 482.928 622.157 467.529 629.445 453.104 628.998 C 453.947 611.429 454.021 593.809 454.294 576.222 C 485.865 564.769 517.345 542.381 540.33 518.073 C 590.969 464.52 607.27 403.447 605.285 331.327 z"/>
<path transform="translate(0,0)" fill="rgb(6,23,43)" d="M 1041.86 1131.5 C 1056.53 1130.92 1081.63 1126.48 1093.69 1136.51 C 1097.63 1139.79 1102.23 1146.01 1102.5 1151.29 C 1102.84 1157.68 1099.51 1164.82 1095.31 1169.5 C 1090.64 1174.72 1084.77 1175.22 1078.17 1175.94 C 1065 1177.38 1051.39 1176.91 1038.14 1177.14 L 966.82 1178.33 L 738.576 1182.81 C 726.268 1183.13 699.052 1186.84 688.696 1179.51 C 683.343 1175.72 679.645 1169.4 678.943 1162.89 A 23.5927 23.5927 0 0 1 684.755 1144.88 C 688.674 1140.51 693.678 1138.63 699.362 1137.87 C 710.756 1136.35 723.223 1137.19 734.736 1137.12 A 3108.42 3108.42 0 0 0 794.845 1136.19 L 1041.86 1131.5 z"/>
<path transform="translate(0,0)" fill="rgb(6,23,43)" d="M 1125.44 823.51 C 1141.05 823.477 1194.36 819.216 1205.05 828.236 C 1209.62 832.093 1212.54 838.005 1212.96 843.958 C 1213.4 850.132 1211.5 856.62 1207.16 861.136 C 1202.42 866.052 1195.26 867.375 1188.74 868.009 C 1176.11 869.237 1162.56 868.097 1149.84 868.142 L 1065.37 868.499 L 779.5 869.82 C 760.838 869.785 725.232 872.747 708.742 868.947 C 705.218 868.135 702.28 866.696 699.612 864.229 C 695.149 860.103 692.858 854.052 692.77 848.039 C 692.684 842.158 694.838 836.17 699.033 831.985 C 703.999 827.03 710.887 825.68 717.632 825.111 C 731.813 823.915 746.918 825.174 761.194 825.203 L 844.557 824.855 L 1125.44 823.51 z"/>
<path transform="translate(0,0)" fill="rgb(6,23,43)" d="M 1189.79 578.56 C 1200.67 578.015 1213.24 575.907 1222.57 582.9 C 1227.41 586.537 1230.51 592.287 1231.13 598.292 A 23.2141 23.2141 0 0 1 1225.14 616.26 C 1220.59 621.306 1217.05 621.803 1210.67 622.612 C 1192.87 624.864 1174.18 624.53 1156.23 625.09 A 7330.65 7330.65 0 0 0 1064.15 628.156 L 739.25 638.941 C 728.531 639.305 713.609 641.45 704.691 634.448 C 700.068 630.818 697.526 625.344 697.139 619.532 A 24.355 24.355 0 0 1 703.467 601.578 C 708.355 596.196 713.277 595.498 720.194 594.673 C 736.987 592.669 754.655 593.514 771.602 592.938 A 10334.2 10334.2 0 0 1 883.093 589.337 L 1189.79 578.56 z"/>
<path transform="translate(0,0)" fill="rgb(6,23,43)" d="M 1181.84 1056.49 C 1190.92 1056.42 1199.71 1055.8 1207.31 1061.77 A 22.0407 22.0407 0 0 1 1215.65 1077.04 A 21.0915 21.0915 0 0 1 1210.18 1093.42 C 1205.85 1098.19 1199.68 1101.11 1193.32 1101.82 C 1179.93 1103.31 1165.02 1101.9 1151.41 1102.01 L 1053.02 1102.81 L 901.711 1104.72 C 839.52 1105.18 777.22 1104.97 715.052 1106.64 C 705.305 1106.85 697.1 1106.25 689.179 1099.91 C 685.006 1096.58 681.768 1091.85 681.415 1086.4 C 680.999 1079.97 685.109 1071.3 689.509 1066.7 C 693.044 1063.01 697.464 1061.73 702.435 1061.25 C 717.913 1059.77 734.379 1060.89 749.952 1060.86 A 7548.84 7548.84 0 0 0 835.177 1059.89 L 1181.84 1056.49 z"/>
<path transform="translate(0,0)" fill="rgb(6,23,43)" d="M 1173.45 1312.85 C 1186.4 1312.93 1204.53 1310.23 1214.44 1320.4 C 1218.29 1324.34 1219.94 1329.41 1219.73 1334.88 A 24.2094 24.2094 0 0 1 1211.37 1352.32 C 1207.57 1355.54 1202.93 1357.48 1198.03 1358.27 C 1188.16 1359.86 1175.65 1358.13 1165.5 1358.12 L 1093.47 1358.23 C 1080.73 1358.29 1067.57 1357.77 1054.89 1358.83 C 1045.25 1358.05 1035.12 1358.67 1025.44 1358.71 L 969.872 1358.83 A 18425.8 18425.8 0 0 0 775.406 1359.87 C 760.554 1359.95 745.711 1359.86 730.861 1360.16 C 720.167 1360.38 708.734 1361.44 698.097 1360.35 C 692.19 1359.74 687.348 1358.18 682.783 1354.26 C 678.289 1350.41 675.043 1344.75 674.759 1338.76 C 674.451 1332.27 677.64 1325.71 682.123 1321.16 C 686.624 1316.59 691.665 1315.01 697.928 1314.43 C 713.706 1312.96 730.672 1314.27 746.592 1314.3 L 835.512 1314.03 L 1053.01 1313.25 C 1093.14 1313.14 1133.33 1313.71 1173.45 1312.85 z"/>
</svg>