<svg version="1.1" xmlns="http://www.w3.org/2000/svg" style="display: block;" viewBox="0 0 2048 2048" width="512" height="512">
<defs>
	<linearGradient id="Gradient1" gradientUnits="userSpaceOnUse" x1="1270.19" y1="741.702" x2="1267.87" y2="763.729">
		<stop class="stop0" offset="0" stop-opacity="1" stop-color="rgb(0,0,0)"/>
		<stop class="stop1" offset="1" stop-opacity="1" stop-color="rgb(1,18,1)"/>
	</linearGradient>
	<linearGradient id="Gradient2" gradientUnits="userSpaceOnUse" x1="953.294" y1="996.986" x2="914.443" y2="772.207">
		<stop class="stop0" offset="0" stop-opacity="1" stop-color="rgb(197,135,79)"/>
		<stop class="stop1" offset="1" stop-opacity="1" stop-color="rgb(213,163,98)"/>
	</linearGradient>
</defs>
<path transform="translate(0,0)" fill="rgb(254,254,254)" d="M 936.401 9.40924 C 956.29 7.35571 974.821 13.9496 991.404 24.4998 C 1055.12 65.0337 1090.03 144.377 1105.54 215.636 C 1137.37 198.379 1175.86 188.915 1211.6 183.871 C 1247.98 178.736 1288.2 172.16 1319.69 196.261 C 1333.82 207.069 1341.16 221.474 1343.48 238.956 C 1351 295.889 1323.6 364.918 1288.98 409.566 C 1232.87 481.936 1154.62 516.129 1065.81 527.165 C 1063.76 536.22 1060.96 545.156 1058.42 554.086 C 1062.41 566.889 1063.23 577.952 1064.6 591.139 C 1065.52 600.028 1068.91 602.548 1075.38 607.874 C 1097.23 588.814 1134.5 559.209 1162.91 553.494 C 1181.95 549.663 1201.76 553.028 1217.87 564.024 C 1242.7 580.981 1260.06 622.071 1265.24 650.588 L 1266.74 650.386 C 1313.42 644.255 1371.62 660.829 1408.79 689.62 C 1428.42 704.828 1448.5 726.205 1451.47 751.993 C 1454.27 776.253 1439.6 801.056 1424.9 819.23 C 1405.78 842.857 1383.75 855.47 1353.19 858.641 C 1355.11 870.864 1354.96 884.916 1353.09 897.153 C 1351.59 906.99 1346.91 919.939 1348.39 929.718 C 1351.05 947.316 1359.86 965.534 1365.11 982.646 A 1141.77 1141.77 0 0 1 1387.8 1072.21 C 1400.94 1136.16 1407.19 1200.99 1414.51 1265.76 C 1417.9 1295.76 1422.44 1325.61 1425.58 1355.64 C 1429.59 1393.89 1431.95 1432.89 1433.46 1471.33 C 1455.67 1482.52 1480.94 1489.66 1504.8 1496.43 C 1542.7 1507.2 1585.81 1517.34 1622.49 1530.21 C 1645.97 1538.44 1665.89 1548.2 1676.94 1571.59 C 1685.99 1590.75 1683.95 1626.98 1682.48 1648.18 C 1681.94 1655.98 1680.35 1664.44 1680.66 1672.21 C 1680.9 1678.39 1684.06 1685.57 1685.76 1691.56 C 1689.35 1704.19 1690.83 1718.16 1689.93 1731.28 C 1688.79 1748.15 1682.91 1764.58 1677.27 1780.39 C 1685.03 1811.32 1693.33 1846.53 1677.07 1876.28 C 1672.08 1885.39 1665.34 1893.65 1658.33 1901.27 C 1630.79 1931.21 1597.55 1940.12 1559.62 1949.91 A 1971.11 1971.11 0 0 0 1498.24 1966.36 C 1485.93 1970.76 1473.05 1974.1 1460.47 1977.72 C 1401.24 1994.75 1358.12 2000.62 1296.13 1998.03 C 1266.98 1996.82 1240.48 1984 1212.4 1977.49 C 1178.69 1969.68 1119.85 1964.91 1091.6 1950.67 C 1069.42 1939.49 1052.11 1920.17 1035.54 1902.13 A 4426.88 4426.88 0 0 1 815.7 1901.89 C 725.171 1899.97 610.557 1884.68 528.162 1846.41 C 495.658 1831.31 462.595 1809.08 437.859 1783.08 C 382.536 1724.94 354.149 1639.46 352.963 1559.97 C 352.41 1522.95 357.65 1484.79 365.398 1448.66 A 988.355 988.355 0 0 1 379.711 1390.59 C 386.581 1366.46 394.521 1341.95 399.223 1317.31 C 402.3 1301.19 403.558 1284.71 406.275 1268.51 C 418.184 1197.53 430.321 1126.73 450.589 1057.56 C 460.828 1022.61 473.871 988.076 487.332 954.252 C 493.186 939.544 507.271 913.509 509.361 899.533 C 510.46 892.185 508.112 884.093 507.494 876.735 C 506.811 868.602 506.706 860.343 506.926 852.188 C 508.296 801.268 540.47 761.766 584.021 737.971 C 606.103 725.906 630.136 717.828 654.026 710.23 C 667.437 705.966 683.181 704.902 695.818 699.129 C 705.113 694.883 747.981 660.918 755.958 653.168 L 756.989 652.154 C 754.618 632.336 757.368 609.605 762.773 590.451 C 758.335 586.154 753.916 581.783 749.726 577.243 C 729.457 555.282 719.738 522.858 721.287 493.244 C 722.375 472.439 729.486 449.75 745.499 435.649 C 754.312 427.888 764.769 422.082 774.845 416.153 C 799.997 401.353 822.105 388.687 852.152 390.387 C 837.08 357.007 827.435 323.697 823.993 287.181 C 817.346 216.666 839.455 147.844 866.302 83.7002 C 873.848 65.6727 881.656 44.44 894.314 29.3829 C 905.711 15.8249 919.1 10.7927 936.401 9.40924 z"/>
<path transform="translate(0,0)" fill="rgb(0,0,0)" d="M 940.094 66.8508 C 942.029 66.6729 943.809 66.4975 945.726 66.9352 C 968.863 72.2198 1002.66 115.238 1014.51 134.519 A 266.76 266.76 0 0 1 1045.55 333.98 C 1067.09 305.568 1094.48 283.655 1126.53 268.021 C 1166.45 248.549 1205.73 243.451 1249.2 239.519 C 1258.53 238.675 1270.1 235.713 1279.07 239.123 C 1282.17 240.3 1284.68 242.415 1285.94 245.535 C 1292.49 261.826 1277.3 310.183 1270.86 325.635 C 1245.47 386.543 1196.4 425.492 1136.73 450.331 A 280.499 280.499 0 0 1 1023.67 467.418 C 1017.32 490.966 1002.97 521.776 1001.65 545.157 C 1000.75 560.991 1007.93 588.4 1005.63 600.364 C 1004.95 603.911 1002.01 607.082 999.093 609.021 C 990.635 614.644 978.104 614.633 968.599 612.23 C 963.304 610.891 954.82 608.207 952.075 603.041 C 942.61 585.226 966.77 475.392 972.502 452.522 C 962.041 444.268 952.334 433.853 943.279 424.068 C 898.494 375.678 879.035 312.211 881.643 247.109 A 283.923 283.923 0 0 1 890.203 188.602 C 896.596 162.934 907.684 139.272 917.351 114.788 C 922.694 101.257 927.157 86.2861 934.338 73.6826 C 935.865 71.0038 937.844 68.9266 940.094 66.8508 z"/>
<path transform="translate(0,0)" fill="rgb(145,209,74)" d="M 978.298 509.728 C 980.657 499.414 987.818 462.529 993.036 455.956 L 994.268 456.34 L 996.221 461.179 C 995.468 477.134 988.234 494.826 983.725 510.193 L 978.298 509.728 z"/>
<path transform="translate(0,0)" fill="rgb(78,130,41)" d="M 996.221 461.179 C 997.915 464.386 999.356 465.238 1002.44 467.012 L 1003.85 467.844 C 1004.15 468.015 1004.45 468.178 1004.74 468.345 A 633.518 633.518 0 0 1 986.629 520.47 C 985.845 516.997 984.421 513.777 983.725 510.193 C 988.234 494.826 995.468 477.134 996.221 461.179 z"/>
<path transform="translate(0,0)" fill="rgb(145,209,74)" d="M 978.298 509.728 L 983.725 510.193 C 984.421 513.777 985.845 516.997 986.629 520.47 C 977.83 544.337 983.663 572.725 986.418 597.297 C 980.67 596.312 974.972 596.095 969.156 595.859 C 968.437 566.642 972.673 538.31 978.298 509.728 z"/>
<path transform="translate(0,0)" fill="rgb(229,247,164)" d="M 956.632 410.792 C 938.151 390.268 923.611 364.968 913.933 339.196 C 886.638 266.509 902.887 199.679 930.899 131.111 C 935.833 119.034 940.109 105.909 945.962 94.3037 C 947.108 92.0312 947.686 90.5042 950.165 89.5918 L 952.222 91.3393 L 952.199 92.9638 C 951.875 109.608 943.878 127.715 939.019 143.563 C 920.7 203.317 910.513 260.98 926.691 322.886 A 408.885 408.885 0 0 0 947.273 381.505 C 950.521 388.874 956.187 395.692 958.146 403.529 C 958.966 406.809 958.061 407.937 956.632 410.792 z"/>
<path transform="translate(0,0)" fill="rgb(78,130,41)" d="M 1003.7 157.995 C 1021.16 181.624 1031.88 231.029 1033.56 260.193 C 1034.46 275.855 1033.35 291.513 1031.06 307.016 C 1027.36 332.048 1020.21 357.93 1010.67 381.334 C 1004.25 397.102 996.458 412.377 990.439 428.296 C 988.399 411.732 985.568 394.327 986.056 377.599 C 986.552 379.841 987.07 382.048 987.688 384.261 L 988.933 384.614 C 992.081 379.004 992.015 370.836 993.609 364.516 C 1005.68 316.629 1014.15 267.391 1010.8 217.756 C 1009.67 200.972 1001.98 172.731 1003.7 157.995 z"/>
<path transform="translate(0,0)" fill="rgb(78,130,41)" d="M 1262.33 277.589 C 1256.49 326.083 1229.85 366.894 1191.94 396.843 C 1140.35 437.607 1090.23 447.54 1026.29 448.975 C 1030.9 443.166 1041.9 426.08 1047.05 422.796 L 1048.8 423.4 C 1064.81 418.516 1081.87 417.15 1098.02 412.549 C 1145.84 398.924 1197.49 367.939 1228.73 328.789 C 1241.23 313.125 1248.89 293.888 1261.49 278.579 C 1261.77 278.245 1262.05 277.919 1262.33 277.589 z"/>
<path transform="translate(0,0)" fill="rgb(145,209,74)" d="M 1256.62 257.531 A 219.543 219.543 0 0 1 1268.97 256.237 C 1266.89 263.403 1264.84 270.559 1262.33 277.589 C 1262.05 277.919 1261.77 278.245 1261.49 278.579 C 1248.89 293.888 1241.23 313.125 1228.73 328.789 C 1197.49 367.939 1145.84 398.924 1098.02 412.549 C 1081.87 417.15 1064.81 418.516 1048.8 423.4 L 1047.05 422.796 C 1058.55 408.367 1075.05 394.965 1089.76 383.854 C 1095.98 388.958 1103.9 397.509 1112.31 396.791 C 1116.01 395.212 1117.62 392.05 1119.78 388.826 C 1114.34 383.457 1107.59 379.125 1101.35 374.725 C 1125.56 359.006 1151.43 346.364 1175.68 330.944 C 1178.75 328.989 1182.2 327.32 1182.99 323.648 C 1182.04 320.024 1179.21 317.524 1176.73 314.85 C 1153.15 320.975 1118.92 344.746 1098.16 358.727 C 1098.49 355.251 1099.29 351.425 1097.84 348.157 C 1095.88 347.093 1094.85 346.867 1092.56 347.755 C 1087.29 349.79 1085.08 359.419 1083.44 364.275 C 1080.25 373.764 1065.58 383.34 1058.03 389.901 C 1039.23 406.231 1023.28 424.538 1006.98 443.267 C 1012.44 421.668 1027.88 385.127 1041.38 367.89 C 1044.88 362.23 1049.04 356.806 1053.22 351.636 A 241.282 241.282 0 0 1 1193.87 265.402 C 1214.46 261.177 1235.73 259.651 1256.62 257.531 z"/>
<path transform="translate(0,0)" fill="rgb(229,247,164)" d="M 1041.38 367.89 C 1044.88 362.23 1049.04 356.806 1053.22 351.636 A 241.282 241.282 0 0 1 1193.87 265.402 C 1214.46 261.177 1235.73 259.651 1256.62 257.531 L 1260.25 258.831 L 1260.35 261.209 C 1254.38 267.391 1232.08 268.594 1223.16 270.008 C 1191.25 275.065 1168.35 282.484 1139.69 297.267 C 1123.69 305.515 1107.99 316.143 1093.73 327.168 C 1086.01 333.139 1050.08 368.194 1044.17 368.331 C 1042.53 368.369 1043.15 368.393 1041.38 367.89 z"/>
<path transform="translate(0,0)" fill="rgb(145,209,74)" d="M 952.222 91.3393 C 973.453 111.429 991.379 131.113 1003.7 157.995 C 1001.98 172.731 1009.67 200.972 1010.8 217.756 C 1014.15 267.391 1005.68 316.629 993.609 364.516 C 992.015 370.836 992.081 379.004 988.933 384.614 L 987.688 384.261 C 987.07 382.048 986.552 379.841 986.056 377.599 C 983.562 340.819 977.715 303.012 978.471 266.203 C 985.45 261.598 998.282 255.565 1000.29 247.041 C 999.89 242.583 997.161 240.313 994.033 237.455 C 988.181 241.667 982.105 245.743 976.5 250.27 C 976.235 241.353 977.983 218.209 972.305 211.839 C 970.525 209.843 969.024 209.936 966.568 209.669 C 963.868 210.883 962.52 211.675 961.445 214.688 C 958.055 224.19 960.941 241.423 962 251.566 C 956.511 246.886 950.03 240.039 942.094 240.951 C 939.672 241.229 939.085 241.941 937.349 243.498 C 936.833 246.614 937.001 248.528 938.863 251.185 C 943.924 258.408 954.735 263.276 961.936 268.492 L 969.661 370.015 C 971.158 390.342 971.03 411.692 974.598 431.703 C 968.85 425.066 961.372 418.073 956.632 410.792 C 958.061 407.937 958.966 406.809 958.146 403.529 C 956.187 395.692 950.521 388.874 947.273 381.505 A 408.885 408.885 0 0 1 926.691 322.886 C 910.513 260.98 920.7 203.317 939.019 143.563 C 943.878 127.715 951.875 109.608 952.199 92.9638 L 952.222 91.3393 z"/>
<path transform="translate(0,0)" fill="rgb(0,0,0)" d="M 838.303 448.953 C 839.073 448.913 839.846 448.905 840.617 448.915 C 846.93 448.997 850.847 451.972 855.083 456.427 C 861.736 463.423 874.737 480.934 873.768 490.916 C 873.219 496.572 868.224 500.58 864.241 504.068 C 885.404 539.033 892.384 621.199 898.817 663.019 C 902.464 686.732 907.208 710.271 910.764 733.974 C 917.113 733.642 923.549 733.91 929.908 733.984 C 934.702 724.782 940.243 715.982 947.188 708.24 C 964.168 689.314 987.034 678.301 1012.47 677.229 C 1038.68 676.125 1059.66 685.216 1078.7 702.757 C 1087.29 686.882 1096.76 672.273 1108.86 658.819 C 1119.95 646.485 1164.7 608.275 1181.64 608.805 C 1184.5 608.894 1186.54 610.007 1188.5 612.022 C 1194.55 618.24 1208.65 653.704 1207.6 661.773 C 1207.11 665.563 1204.58 667.841 1201.69 670.156 C 1190.1 679.454 1175.17 685.641 1162.66 693.923 C 1149.2 702.834 1137.58 714.342 1124.92 724.331 C 1143.53 726.369 1155.84 735.269 1169.27 747.566 C 1200.33 725.936 1232.73 712.072 1270.86 709.347 C 1312 706.406 1350.73 714.858 1382.4 742.481 C 1386.79 746.313 1395.16 754.361 1394.53 760.72 C 1393.86 767.639 1376.43 784.998 1370.16 789.405 C 1345.71 806.605 1288.93 809.099 1260.53 804.512 C 1279.14 820.764 1292.81 837.024 1296.97 862.153 C 1300.48 883.401 1295.78 904.557 1283.29 922.094 C 1298.74 963.76 1312.91 1005.74 1323.25 1049.02 C 1340.94 1123.08 1348.7 1198.37 1357.51 1273.82 A 3036 3036 0 0 1 1378.15 1515.39 C 1408.34 1521.38 1440.25 1537.27 1470.01 1546.78 C 1507.2 1558.65 1545.08 1567.94 1582.19 1580.21 C 1592.79 1583.71 1604.83 1586.63 1614.82 1591.46 C 1619.12 1593.54 1622.19 1597.27 1623.67 1601.78 C 1629.73 1620.19 1623.41 1655.44 1615.09 1672.79 C 1623.95 1685.79 1629.99 1700.81 1631.48 1716.53 C 1633.59 1738.82 1625.76 1753.63 1611.79 1770.39 C 1616.66 1779.1 1620.95 1787.8 1623.9 1797.36 C 1629.18 1814.44 1632.2 1832.98 1623.24 1849.41 C 1609.26 1875.04 1579.69 1881.85 1553.85 1889.27 A 1112.73 1112.73 0 0 0 1485.09 1907.83 C 1453.74 1917.28 1422.19 1927.76 1390.03 1934.01 C 1362.65 1939.34 1332.61 1941.41 1304.83 1938.88 C 1272.98 1935.97 1243.19 1923.11 1212.04 1916.37 C 1185.44 1910.61 1157.04 1909.28 1130.97 1902.02 C 1122.3 1899.61 1113.24 1895.2 1105.84 1890.1 A 81.1329 81.1329 0 0 1 1071.87 1838.7 C 1013.7 1842.92 956.454 1843.63 898.174 1843.43 C 781.598 1843.03 636.504 1840.01 532.7 1781.34 C 476.257 1749.45 440.854 1700.6 423.645 1638.53 C 401.63 1559.12 416.435 1481.24 436.838 1403.49 C 443.664 1377.48 451.442 1351.64 456.689 1325.24 C 465.101 1282.93 470.087 1240 477.794 1197.56 C 492.497 1116.6 514.777 1039.25 547.027 963.491 C 555.381 943.866 563.795 923.551 574.26 904.959 C 570.107 893.931 566.093 882.786 564.667 871.025 C 556.53 803.939 632.232 775.981 684.819 763.17 C 699.013 759.712 715.444 759.283 728.859 753.584 C 742.566 747.762 753.027 731.83 765.772 723.531 C 774.85 717.619 785.77 716.788 792.792 707.663 C 801.2 696.734 808.042 681.736 811.409 668.383 C 818.58 639.956 819.631 570.865 815.725 540.968 C 811.754 543.124 807.327 544.663 803.144 546.376 C 796.616 541.96 792.049 536.997 788.147 530.182 C 779.286 514.705 778.253 499.622 782.743 482.505 C 790.766 476.695 800.152 472.77 808.604 467.594 C 818.518 461.522 827.671 453.718 838.303 448.953 z"/>
<path transform="translate(0,0)" fill="rgb(254,254,254)" d="M 1185.65 838.901 C 1189.03 840.829 1193.79 843.462 1195.35 847.115 C 1194.66 850.42 1193.42 850.752 1190.86 852.831 L 1187.95 854.349 L 1186.23 853.774 C 1184.34 849.487 1185.32 843.527 1185.65 838.901 z"/>
<path transform="translate(0,0)" fill="rgb(116,131,95)" d="M 1114.88 1801.24 C 1127.55 1803.54 1139.62 1809.25 1152.4 1811.84 L 1149.28 1819.14 C 1137.34 1814.11 1125.71 1808.39 1114.88 1801.24 z"/>
<path transform="translate(0,0)" fill="rgb(249,52,81)" d="M 1038.37 717.482 C 1049.68 715.271 1057.13 719.445 1067.86 719.601 L 1064.07 731.866 C 1056.04 726.731 1047.59 720.167 1038.37 717.482 z"/>
<path transform="translate(0,0)" fill="rgb(251,247,217)" d="M 796.6 495.262 C 802.347 496.408 803.991 498.761 807.117 503.531 C 810.496 508.686 813.058 514.341 816.167 519.655 C 814.507 521.767 812.955 523.434 810.924 525.192 L 809.317 524.594 C 803.398 516.595 798.632 504.983 796.6 495.262 z"/>
<path transform="translate(0,0)" fill="rgb(170,212,96)" d="M 1090.97 1691.38 C 1099.48 1695.29 1106.84 1707.44 1111.73 1715.22 C 1106.16 1715.5 1099.17 1709.49 1094.89 1712.46 L 1094.24 1715.07 L 1092.53 1713.84 C 1090.85 1706.43 1091.42 1698.92 1090.97 1691.38 z"/>
<path transform="translate(0,0)" fill="rgb(165,178,139)" d="M 1132.96 1715.74 C 1154.11 1719.66 1174.91 1725.38 1196.13 1729.24 C 1193.77 1731.95 1192.75 1732.59 1189.27 1733.49 A 187.486 187.486 0 0 1 1132.96 1715.74 z"/>
<path transform="translate(0,0)" fill="rgb(116,131,95)" d="M 1196.13 1729.24 C 1220.27 1733.52 1244.66 1738.41 1267.59 1747.26 L 1266.78 1749.61 C 1241.89 1741.41 1215.03 1738.11 1189.27 1733.49 C 1192.75 1732.59 1193.77 1731.95 1196.13 1729.24 z"/>
<path transform="translate(0,0)" fill="rgb(126,125,113)" d="M 1267.59 1747.26 L 1268.4 1747.45 C 1277.28 1749.6 1285.8 1753.2 1294.59 1755.69 C 1325.6 1764.49 1365.9 1772.98 1396.22 1758.41 L 1400.06 1761.91 C 1365.53 1774.75 1343.27 1771.7 1308.36 1761.99 C 1294.44 1758.11 1280.47 1754.25 1266.78 1749.61 L 1267.59 1747.26 z"/>
<path transform="translate(0,0)" fill="rgb(116,131,95)" d="M 1267.21 1844.26 L 1268.55 1842.87 C 1271.95 1843.73 1274.05 1843.87 1277.54 1843.46 C 1276.44 1842.15 1272.39 1841.1 1270.67 1840.42 L 1271.82 1839.14 C 1309.19 1852.01 1348.26 1860.02 1387.64 1851.72 C 1385.91 1854.13 1383.46 1854.59 1380.69 1855.03 A 1964.16 1964.16 0 0 1 1356.85 1858.52 L 1357.08 1858.41 L 1356.51 1859.45 L 1355.46 1859.13 L 1357.46 1858.31 L 1358.29 1859.58 C 1364.62 1859.53 1371.37 1858.49 1377.54 1859.83 C 1347.25 1867.33 1297.41 1853.09 1267.21 1844.26 z"/>
<path transform="translate(0,0)" fill="rgb(204,141,77)" d="M 641.93 822.64 C 653.169 816.734 684.431 796.792 696.576 799.363 C 692.983 805.329 689.246 810.908 684.996 816.426 C 670.842 821.997 654.138 827.287 647.398 842.298 A 70.5053 70.5053 0 0 0 646.556 844.269 C 646.538 843.869 646.512 843.469 646.502 843.069 C 646.489 842.549 646.497 842.029 646.487 841.51 C 646.405 837.176 651.082 831.695 653.234 827.897 C 652.683 825.68 651.889 824.697 650.369 823.015 C 647.881 822.336 646.687 822.166 644.286 823.303 C 639.021 825.796 634.242 831.967 632.167 837.278 C 632.033 837.621 631.913 837.969 631.786 838.315 L 630.507 837.302 C 632.495 830.786 637.094 827.125 641.93 822.64 z"/>
<path transform="translate(0,0)" fill="rgb(62,60,63)" d="M 1396.22 1758.41 C 1441.51 1741.19 1488.02 1729.5 1534.2 1715.19 C 1549.89 1710.33 1564.82 1703.49 1580.38 1698.39 C 1561.39 1712.24 1537.84 1718.2 1515.71 1725.19 C 1477.24 1737.36 1437.48 1746.73 1400.06 1761.91 L 1396.22 1758.41 z"/>
<path transform="translate(0,0)" fill="rgb(240,197,116)" d="M 602.338 828.841 C 632.104 799.04 671.111 793.559 709.352 781.993 C 704.914 787.682 700.565 793.348 696.576 799.363 C 684.431 796.792 653.169 816.734 641.93 822.64 C 642.125 822.374 642.313 822.103 642.513 821.841 C 646.2 817.024 652.031 815.584 655.313 810.817 L 654.9 808.705 C 653.111 807.549 652.763 807.158 650.545 807.594 C 640.881 809.491 621.438 822.713 613.394 829.549 C 611.403 831.241 608.723 835.043 606.632 836.062 C 605.16 831.516 611.112 830.999 611.702 826.665 L 609.602 825.556 C 606.9 826.561 605.229 829.088 603.4 831.213 L 602.338 828.841 z"/>
<path transform="translate(0,0)" fill="rgb(78,130,41)" d="M 1152.4 1811.84 C 1192.55 1818.35 1233.68 1824.48 1271.82 1839.14 L 1270.67 1840.42 C 1272.39 1841.1 1276.44 1842.15 1277.54 1843.46 C 1274.05 1843.87 1271.95 1843.73 1268.55 1842.87 L 1267.21 1844.26 C 1254.69 1842.35 1242.28 1838.74 1229.76 1836.55 C 1202.56 1831.79 1175.2 1829.46 1149.28 1819.14 L 1152.4 1811.84 z"/>
<path transform="translate(0,0)" fill="rgb(78,130,41)" d="M 1387.64 1851.72 C 1402.53 1847.59 1418.11 1843.76 1432.51 1838.18 C 1450.93 1831.03 1468.41 1822.3 1487.27 1816.13 A 864.989 864.989 0 0 1 1529.97 1803.66 C 1549.14 1798.69 1567.56 1794.79 1585.52 1786.07 C 1577.76 1792.64 1569.52 1798.78 1560.23 1803.01 C 1525.95 1818.61 1481.95 1829.48 1445.52 1840.63 C 1428.25 1845.91 1394.26 1858.07 1377.54 1859.83 C 1371.37 1858.49 1364.62 1859.53 1358.29 1859.58 L 1357.46 1858.31 L 1355.46 1859.13 L 1356.51 1859.45 L 1357.08 1858.41 L 1356.85 1858.52 A 1964.16 1964.16 0 0 0 1380.69 1855.03 C 1383.46 1854.59 1385.91 1854.13 1387.64 1851.72 z"/>
<path transform="translate(0,0)" fill="rgb(78,130,41)" d="M 1154.05 644.598 C 1159.8 640.289 1171.87 630.826 1178.88 630.431 L 1180.55 631.981 C 1181.15 640.94 1184.8 649.344 1188.23 657.533 C 1157.82 673.843 1128.73 692.226 1107.48 720.131 C 1102.46 726.721 1093.47 742.581 1084.18 742.546 C 1082.58 740.815 1082.6 740.866 1082.69 738.615 C 1082.86 734.732 1085.84 727.928 1088.38 725.15 C 1099.98 702.23 1114.23 681.101 1132.42 662.852 C 1138.92 655.939 1146.36 650.125 1154.05 644.598 z"/>
<path transform="translate(0,0)" fill="rgb(170,212,96)" d="M 1154.05 644.598 C 1159.8 640.289 1171.87 630.826 1178.88 630.431 L 1180.55 631.981 C 1180.02 635.687 1180.22 636.593 1177.1 638.962 C 1172.47 642.483 1165.21 647.673 1159.76 649.412 C 1150.3 656.906 1141.12 664.533 1132.15 672.617 C 1120.75 685.206 1109.5 698.156 1100.06 712.295 C 1096.81 717.16 1094.4 722.481 1091.3 727.434 L 1089.59 727.282 L 1088.38 725.15 C 1099.98 702.23 1114.23 681.101 1132.42 662.852 C 1138.92 655.939 1146.36 650.125 1154.05 644.598 z"/>
<path transform="translate(0,0)" fill="rgb(78,130,41)" d="M 1362.93 749.807 C 1366.87 752.257 1370.27 754.932 1373.79 757.934 C 1364.54 772.668 1352.8 779.043 1336.19 782.779 C 1293.52 792.381 1253.71 784.962 1211.48 778.726 C 1205.16 777.791 1189.96 777.263 1184.94 773.571 C 1183.32 772.38 1181.87 769.503 1181.73 767.525 C 1181.5 764.365 1183.35 761.701 1185.62 759.756 C 1187.05 758.537 1188.67 757.635 1190.29 756.704 C 1196.26 758.625 1208.74 753.025 1215.85 752.398 C 1218.01 755.704 1219.78 759.299 1223.39 761.148 C 1225.82 761.205 1227.52 761.107 1229.83 760.32 C 1241.11 768.67 1300.52 763.83 1314.66 761.695 A 336.535 336.535 0 0 0 1321.28 760.645 C 1329.48 759.742 1358.07 755.736 1362.93 749.807 z"/>
<path transform="translate(0,0)" fill="rgb(170,212,96)" d="M 1190.29 756.704 C 1205.51 746.483 1221.24 739.441 1238.9 734.547 C 1284.6 721.877 1322.1 726.822 1362.93 749.807 C 1358.07 755.736 1329.48 759.742 1321.28 760.645 A 336.535 336.535 0 0 1 1314.66 761.695 C 1300.52 763.83 1241.11 768.67 1229.83 760.32 C 1227.52 761.107 1225.82 761.205 1223.39 761.148 C 1219.78 759.299 1218.01 755.704 1215.85 752.398 C 1208.74 753.025 1196.26 758.625 1190.29 756.704 z"/>
<path transform="translate(0,0)" fill="url(#Gradient1)" d="M 1215.85 752.398 C 1243.11 743.351 1268.44 740.641 1297.13 742.936 C 1303.08 743.411 1310.76 743.553 1316.18 746.208 C 1318.51 747.351 1319.22 748.095 1320.07 750.501 L 1318.82 757.512 C 1291.06 749.396 1256.95 750.357 1229.83 760.32 C 1227.52 761.107 1225.82 761.205 1223.39 761.148 C 1219.78 759.299 1218.01 755.704 1215.85 752.398 z"/>
<path transform="translate(0,0)" fill="rgb(251,247,217)" d="M 925.843 897.318 A 353.316 353.316 0 0 1 919.921 896.67 L 918.821 895.1 C 917.758 866.309 921.136 832.076 926.93 803.739 C 933.788 770.201 947.45 728.93 977.678 709.185 C 993.218 699.034 1014.73 694.791 1032.92 698.859 C 1045.09 701.582 1061.13 708.713 1067.86 719.601 C 1057.13 719.445 1049.68 715.271 1038.37 717.482 C 1031.29 716.58 1024.16 717.035 1017.05 717.256 C 999.055 719.071 985.002 726.2 973.618 740.277 C 946.466 773.855 940.169 820.817 932.293 861.992 C 930.109 873.411 926.304 885.702 925.843 897.318 z"/>
<path transform="translate(0,0)" fill="rgb(251,247,217)" d="M 833.032 527.662 C 834.578 528.048 835.7 527.885 836.632 529.304 C 842.038 537.53 841.806 550.251 844.985 559.503 C 855.251 607.875 852.168 683.999 824.593 726.265 C 814.336 741.988 799.114 751.311 784.64 762.681 C 754.708 786.192 713.909 826.622 702.306 862.747 C 697.809 860.834 693.229 859.098 688.681 857.306 C 706.025 820.35 727.196 788.599 756.359 759.686 C 762.44 753.658 769.122 746.48 776.201 741.743 C 784.364 736.282 797.842 738.495 804.318 731.689 C 809.992 725.727 813.689 715.558 817.214 708.12 C 822.662 696.625 827.746 684.96 830.751 672.555 C 836.629 648.296 838.649 594.681 837.156 569.568 C 836.345 555.937 833.332 542.368 833.044 528.753 C 833.037 528.389 833.036 528.026 833.032 527.662 z"/>
<path transform="translate(0,0)" fill="rgb(176,27,53)" d="M 1099.92 766.823 C 1115.43 769.295 1131.23 774.151 1140.89 787.434 C 1144.47 792.357 1146.97 798.217 1149.56 803.717 L 1148.03 805.093 L 1150.44 805.511 L 1150.48 805.575 C 1153.17 801.357 1152.4 793.11 1151.29 788.378 C 1148.41 776.135 1138.96 766.792 1128.44 760.554 C 1122.79 757.202 1112.01 754.39 1108.08 749.774 C 1108.64 747.896 1108.1 748.503 1109.91 747.523 C 1116.07 744.184 1128.24 743.738 1134.76 746.169 C 1147.79 751.027 1157.23 762.865 1162.49 775.37 C 1171.75 797.394 1170.34 835.207 1161.16 856.953 C 1157.19 866.352 1152.41 871.525 1142.85 875.198 C 1128.52 880.703 1080.55 889.769 1065.45 890.033 A 49.0715 49.0715 0 0 0 1066.88 888.413 C 1087.64 863.912 1112.32 831.372 1107.25 797.033 C 1105.85 787.547 1100.58 778.036 1100.01 768.772 C 1099.97 768.123 1099.95 767.473 1099.92 766.823 z"/>
<path transform="translate(0,0)" fill="rgb(204,141,77)" d="M 796.6 495.262 C 812.87 489.315 828.557 478.209 842.236 467.752 C 846.153 475.605 850.704 483.025 854.884 490.72 C 851.426 494.008 846.706 497.636 846.795 502.88 C 846.982 513.868 854.295 527.908 857.479 538.587 C 860.518 548.776 862.914 559.315 865.015 569.737 C 869.314 591.066 871.239 612.977 874.089 634.534 A 1296.33 1296.33 0 0 0 891.508 739.607 C 895.196 756.666 898.692 775.402 907.693 790.52 C 897.316 824.496 900.87 860.925 896.742 895.752 C 879.124 894.209 860.685 894.56 843.292 891.468 C 845.052 891.257 846.119 890.939 847.671 890.079 C 852.15 881.717 857.765 859.425 860.471 849.276 A 252.149 252.149 0 0 0 868.006 803.175 C 872.261 748.459 870.855 690.546 863.253 636.182 C 862.061 627.66 861.343 615.837 857.017 608.331 L 854.629 608.414 C 850.225 602.497 853.818 568.709 844.985 559.503 C 841.806 550.251 842.038 537.53 836.632 529.304 C 835.7 527.885 834.578 528.048 833.032 527.662 C 834.328 525.014 835.167 523.994 834.911 521.009 C 832.526 517.741 828.104 516.626 824.462 515.176 A 165.145 165.145 0 0 1 816.167 519.655 C 813.058 514.341 810.496 508.686 807.117 503.531 C 803.991 498.761 802.347 496.408 796.6 495.262 z"/>
<path transform="translate(0,0)" fill="rgb(78,130,41)" d="M 1368.07 1704.49 C 1368.62 1704.3 1369.16 1704.1 1369.72 1703.91 C 1377.32 1701.33 1385.69 1701.32 1393.42 1698.72 C 1423.92 1688.46 1453.61 1676.32 1484.5 1667.16 C 1514.78 1658.18 1548.28 1651.11 1576.62 1637.3 C 1589.96 1630.8 1600.52 1623.42 1609.4 1611.43 C 1608.55 1632.64 1605.65 1659.15 1589.18 1674.62 C 1581.55 1681.79 1569.1 1686.94 1559.46 1690.71 C 1528.16 1702.93 1494.99 1710.34 1462.93 1720.33 C 1435.96 1728.73 1409.22 1740.01 1381.69 1746.19 C 1372.92 1748.15 1363.94 1748.66 1354.98 1748.16 C 1351.31 1747.96 1347.5 1747.75 1343.88 1747.09 C 1347.38 1746.93 1350.2 1746.81 1353.44 1745.4 C 1354.95 1745.14 1356.22 1744.89 1357.45 1743.9 C 1365.06 1737.83 1371.31 1722.4 1371.91 1712.97 C 1372.11 1709.98 1371.91 1708.78 1370.03 1706.48 L 1368.07 1704.49 z"/>
<path transform="translate(0,0)" fill="rgb(78,130,41)" d="M 1362.14 1880.36 C 1400.86 1869.83 1438.77 1857.25 1477.18 1845.68 C 1509.01 1836.09 1545.03 1828.63 1574.41 1813.07 C 1584.61 1807.67 1594.31 1800.05 1600.18 1789.99 A 68.0406 68.0406 0 0 0 1603.31 1783.89 C 1608.85 1801.64 1611.64 1816.04 1602.65 1833.4 C 1593.11 1851.84 1578.54 1862.69 1558.99 1868.84 C 1534.88 1876.42 1510.25 1882.59 1486.02 1889.86 C 1437.49 1904.42 1384.83 1926.82 1333.45 1923.82 C 1336.03 1923.43 1340.36 1923.44 1342 1921.5 L 1340.11 1919.48 C 1340.9 1915.36 1346.38 1910.49 1349.04 1907.07 C 1355.11 1899.28 1359.36 1891.87 1363.48 1882.92 L 1362.14 1880.36 z"/>
<path transform="translate(0,0)" fill="rgb(0,0,0)" d="M 1363.48 1882.92 C 1367.5 1888.15 1366.06 1896.24 1365.28 1902.58 C 1364.64 1907.78 1363.21 1915.29 1358.92 1918.69 C 1354.9 1921.88 1346.9 1920.82 1342 1921.5 L 1340.11 1919.48 C 1340.9 1915.36 1346.38 1910.49 1349.04 1907.07 C 1355.11 1899.28 1359.36 1891.87 1363.48 1882.92 z"/>
<path transform="translate(0,0)" fill="rgb(78,130,41)" d="M 1368.41 1789.31 C 1374.98 1789.49 1381.26 1787.11 1387.44 1785.11 C 1413.65 1776.62 1438.76 1764.83 1464.94 1756.13 C 1497.36 1745.36 1531.21 1737.53 1562.94 1724.91 C 1573.98 1720.53 1587.13 1714.98 1595.68 1706.57 C 1602.57 1699.8 1605.43 1692.01 1607.88 1682.97 C 1611.41 1708.33 1613.67 1727.22 1597.21 1748.9 C 1590.39 1757.87 1582.41 1765.37 1572.24 1770.38 C 1561.34 1775.75 1548.88 1778.6 1537.23 1781.96 C 1518.51 1787.37 1499.64 1792.52 1481.08 1798.42 C 1443.45 1810.39 1406.9 1829.82 1367.39 1835.02 C 1354.96 1836.66 1339.02 1837.32 1326.9 1834.16 C 1329.3 1834.25 1331.63 1834.37 1334.02 1834.03 C 1335.97 1833.75 1335.9 1833 1336.97 1831.49 C 1351.44 1819.95 1361.8 1806.49 1371.73 1791.07 L 1368.41 1789.31 z"/>
<path transform="translate(0,0)" fill="rgb(0,0,0)" d="M 1371.73 1791.07 L 1374.06 1790.61 C 1375.84 1793.29 1375.19 1796.56 1374.56 1799.55 C 1372.22 1810.64 1365.95 1823.98 1356.24 1830.28 C 1351.63 1833.27 1344.44 1834.13 1339.17 1832.65 C 1338.06 1832.34 1337.81 1832.08 1336.97 1831.49 C 1351.44 1819.95 1361.8 1806.49 1371.73 1791.07 z"/>
<path transform="translate(0,0)" fill="rgb(145,209,74)" d="M 1091.29 1782.98 C 1095.39 1787.53 1102.46 1791.4 1105.59 1796.09 L 1104.53 1797.8 C 1103.23 1800.76 1102.16 1802.02 1103.13 1805.35 C 1106.5 1816.88 1125.72 1826.42 1136.03 1830.64 C 1167.14 1843.38 1201.85 1845.27 1234.48 1851.85 C 1258.88 1856.77 1282.79 1864.42 1307.04 1870.05 C 1325.34 1873.5 1343.73 1877.67 1362.14 1880.36 L 1363.48 1882.92 C 1359.36 1891.87 1355.11 1899.28 1349.04 1907.07 C 1346.38 1910.49 1340.9 1915.36 1340.11 1919.48 L 1342 1921.5 C 1340.36 1923.44 1336.03 1923.43 1333.45 1923.82 C 1297.16 1921.78 1265.52 1910.75 1230.75 1902.08 C 1210.36 1896.99 1189.75 1893.85 1169.03 1890.43 C 1142.89 1886.12 1115.01 1880.56 1098.89 1857.16 C 1083.9 1835.4 1086.85 1807.53 1091.29 1782.98 z"/>
<path transform="translate(0,0)" fill="rgb(229,247,164)" d="M 1102.4 1835.25 C 1108.81 1836.14 1140.31 1854.96 1148.16 1859.29 C 1148.45 1861.9 1147.29 1862.85 1145.97 1865.03 C 1142.37 1867.02 1139.35 1868.38 1135.15 1868.12 C 1124.97 1867.47 1114.23 1860.57 1107.94 1852.79 C 1103.31 1847.05 1101.64 1842.56 1102.4 1835.25 z"/>
<path transform="translate(0,0)" fill="rgb(229,247,164)" d="M 1265.56 1881.98 C 1285.95 1881.84 1314.51 1886.64 1333.87 1893.27 C 1337.27 1894.43 1339.35 1895.09 1340.94 1898.39 C 1340.95 1902.11 1339.6 1905 1338.21 1908.41 C 1336.88 1908.76 1337.37 1908.7 1335.81 1908.79 C 1320.77 1909.7 1277.11 1902.08 1266.05 1892.58 C 1264.45 1889.22 1265.21 1885.56 1265.56 1881.98 z"/>
<path transform="translate(0,0)" fill="rgb(229,247,164)" d="M 1093.63 1813.04 C 1093.53 1808.69 1093.32 1803.86 1094.54 1799.64 C 1095.28 1797.11 1096.11 1796.13 1098.33 1794.84 C 1101.24 1795 1102.32 1796.09 1104.53 1797.8 C 1103.23 1800.76 1102.16 1802.02 1103.13 1805.35 C 1106.5 1816.88 1125.72 1826.42 1136.03 1830.64 C 1167.14 1843.38 1201.85 1845.27 1234.48 1851.85 C 1258.88 1856.77 1282.79 1864.42 1307.04 1870.05 C 1304.24 1871.76 1301.33 1873.8 1297.93 1873.76 C 1278.66 1873.54 1258.33 1866.99 1239.43 1863.61 C 1210.6 1858.46 1181.52 1854.89 1152.69 1849.54 C 1124.16 1844.25 1110.34 1837.36 1093.63 1813.04 z"/>
<path transform="translate(0,0)" fill="rgb(145,209,74)" d="M 1090.97 1691.38 C 1091.42 1698.92 1090.85 1706.43 1092.53 1713.84 L 1094.24 1715.07 L 1094.89 1712.46 C 1099.17 1709.49 1106.16 1715.5 1111.73 1715.22 C 1136.8 1745.97 1187.74 1747.98 1223.94 1754.83 A 540.009 540.009 0 0 1 1277.21 1767.92 C 1283.26 1769.71 1290.42 1771.25 1296.09 1773.86 L 1318.98 1779.62 C 1335.3 1782.83 1351.96 1787.1 1368.41 1789.31 L 1371.73 1791.07 C 1361.8 1806.49 1351.44 1819.95 1336.97 1831.49 C 1335.9 1833 1335.97 1833.75 1334.02 1834.03 C 1331.63 1834.37 1329.3 1834.25 1326.9 1834.16 C 1294.7 1829.26 1264.72 1816.78 1233.4 1808.37 C 1209.84 1802.05 1185.6 1799.28 1161.79 1794.07 C 1138.37 1788.95 1113.6 1784.5 1099.8 1762.56 C 1089.16 1745.66 1086.78 1710.55 1090.97 1691.38 z"/>
<path transform="translate(0,0)" fill="rgb(170,212,96)" d="M 1296.09 1773.86 L 1318.98 1779.62 C 1316.56 1782.28 1315.69 1782.76 1312.08 1783.02 C 1302.85 1783.66 1289.42 1783.16 1280.74 1779.87 C 1287.75 1779.18 1297.02 1781.61 1303.45 1779.75 L 1303.42 1778.24 C 1300.09 1777.22 1297.81 1776.97 1296.09 1773.86 z"/>
<path transform="translate(0,0)" fill="rgb(229,247,164)" d="M 1107.96 1740.74 C 1109.18 1741.16 1110.33 1741.57 1111.51 1742.11 C 1119.65 1745.84 1142.68 1755.65 1145.89 1763.98 C 1145.71 1766.77 1145.33 1767.86 1143.65 1770.09 C 1132.35 1768.98 1122.28 1767.07 1112.75 1760.49 C 1108.55 1757.59 1104.96 1753.7 1104.46 1748.41 C 1104.15 1745.2 1106.12 1743.1 1107.96 1740.74 z"/>
<path transform="translate(0,0)" fill="rgb(229,247,164)" d="M 1269.15 1791.18 C 1277.76 1790.03 1335.52 1801 1342.1 1806.27 C 1343.53 1807.42 1343.78 1808 1343.89 1809.77 C 1344.12 1813.62 1341.95 1817.26 1339.53 1820.07 C 1321.35 1820.51 1282.23 1812.49 1267.61 1802.34 C 1265.08 1800.59 1264.09 1799.11 1263.65 1796.11 C 1265.17 1793.38 1266.55 1792.83 1269.15 1791.18 z"/>
<path transform="translate(0,0)" fill="rgb(229,247,164)" d="M 1094.24 1715.07 L 1094.89 1712.46 C 1099.17 1709.49 1106.16 1715.5 1111.73 1715.22 C 1136.8 1745.97 1187.74 1747.98 1223.94 1754.83 A 540.009 540.009 0 0 1 1277.21 1767.92 C 1283.26 1769.71 1290.42 1771.25 1296.09 1773.86 C 1297.81 1776.97 1300.09 1777.22 1303.42 1778.24 L 1303.45 1779.75 C 1297.02 1781.61 1287.75 1779.18 1280.74 1779.87 C 1269.71 1776.73 1258.63 1773.25 1247.39 1770.99 C 1212.58 1764.01 1176.24 1760.88 1141.94 1751.61 C 1121.57 1746.1 1104.59 1733.4 1094.24 1715.07 z"/>
<path transform="translate(0,0)" fill="rgb(145,209,74)" d="M 1343.88 1747.09 C 1315.2 1746.22 1290.43 1735.97 1263.56 1727.34 C 1250.54 1723.16 1237.19 1719.83 1223.88 1716.7 C 1195.08 1709.92 1159.54 1706.84 1132.38 1697.78 C 1121.36 1694.11 1111.12 1688.73 1103.06 1680.23 C 1080.97 1656.95 1082.84 1629.13 1083.49 1599.27 C 1086.75 1607.53 1091.2 1615.33 1095.42 1623.14 C 1122.7 1655.74 1194.38 1659.15 1235.09 1668.1 C 1255.71 1672.63 1275.91 1679.19 1296.09 1685.34 A 604.612 604.612 0 0 1 1327.62 1694.21 C 1341.1 1697.62 1354.64 1700.87 1368.07 1704.49 L 1370.03 1706.48 C 1371.91 1708.78 1372.11 1709.98 1371.91 1712.97 C 1371.31 1722.4 1365.06 1737.83 1357.45 1743.9 C 1356.22 1744.89 1354.95 1745.14 1353.44 1745.4 C 1350.2 1746.81 1347.38 1746.93 1343.88 1747.09 z"/>
<path transform="translate(0,0)" fill="rgb(170,212,96)" d="M 1296.09 1685.34 A 604.612 604.612 0 0 1 1327.62 1694.21 C 1314.1 1698 1299.86 1693.43 1286.91 1689.57 C 1289.8 1687.82 1292.98 1686.61 1296.09 1685.34 z"/>
<path transform="translate(0,0)" fill="rgb(0,0,0)" d="M 1370.03 1706.48 C 1371.91 1708.78 1372.11 1709.98 1371.91 1712.97 C 1371.31 1722.4 1365.06 1737.83 1357.45 1743.9 C 1356.22 1744.89 1354.95 1745.14 1353.44 1745.4 C 1350.8 1743.81 1348.05 1742.47 1346.16 1739.96 C 1349.4 1728.78 1362.68 1717.2 1369.4 1707.41 L 1370.03 1706.48 z"/>
<path transform="translate(0,0)" fill="rgb(229,247,164)" d="M 1104.05 1650.77 C 1109.49 1653.44 1114.38 1657.16 1119.67 1660.11 C 1127.65 1664.57 1139.15 1668.23 1145.68 1674.57 C 1144.88 1677.55 1143.05 1679.07 1141.01 1681.31 C 1134.06 1683.68 1126.64 1681.89 1120.12 1678.88 C 1112.66 1675.43 1104.78 1669.34 1102.18 1661.22 C 1100.84 1657.02 1102.2 1654.52 1104.05 1650.77 z"/>
<path transform="translate(0,0)" fill="rgb(229,247,164)" d="M 1265.32 1702.17 C 1277.78 1701.4 1333.18 1710.22 1341.77 1718.08 C 1343.96 1720.08 1343.95 1720.84 1344.28 1723.61 C 1343.18 1726.31 1342.6 1727.61 1340.27 1729.52 C 1329.77 1731.56 1319.61 1729.7 1309.37 1727.11 C 1298.07 1724.26 1268.31 1718.09 1262.5 1708.26 C 1262.56 1704.83 1263.16 1704.69 1265.32 1702.17 z"/>
<path transform="translate(0,0)" fill="rgb(229,247,164)" d="M 1095.42 1623.14 C 1122.7 1655.74 1194.38 1659.15 1235.09 1668.1 C 1255.71 1672.63 1275.91 1679.19 1296.09 1685.34 C 1292.98 1686.61 1289.8 1687.82 1286.91 1689.57 C 1259.33 1682 1230.04 1677.34 1201.83 1672.54 C 1176.49 1668.24 1132.08 1666.52 1110.94 1651.74 C 1104.46 1647.21 1094.45 1634.87 1093.57 1626.79 C 1093.4 1625.2 1094.55 1624.34 1095.42 1623.14 z"/>
<path transform="translate(0,0)" fill="rgb(166,100,49)" d="M 1066.65 1649.8 C 1068.27 1654.52 1077.39 1673.64 1077.4 1676.38 C 1077.42 1681.24 1074 1687.31 1073.32 1692.56 C 1069.52 1721.67 1070.53 1741.57 1081.21 1768.98 C 1074.39 1783.68 1070.46 1797.88 1070.93 1814.18 C 1006.08 1816.45 941.705 1817.98 876.795 1817.69 C 841.076 1817.53 804.445 1817.83 768.881 1814.44 C 780.356 1810.94 791.102 1805.81 802.858 1802.94 C 824.746 1797.58 847.183 1795.06 868.966 1789.07 C 918.864 1775.33 989.641 1745.04 1030.94 1713.16 C 1036.44 1708.92 1042.37 1703.93 1046.39 1698.21 C 1047.03 1697.29 1066.64 1649.83 1066.65 1649.8 z"/>
<path transform="translate(0,0)" fill="rgb(240,197,116)" d="M 844.985 559.503 C 853.818 568.709 850.225 602.497 854.629 608.414 L 857.017 608.331 C 861.343 615.837 862.061 627.66 863.253 636.182 C 870.855 690.546 872.261 748.459 868.006 803.175 A 252.149 252.149 0 0 1 860.471 849.276 C 857.765 859.425 852.15 881.717 847.671 890.079 C 846.119 890.939 845.052 891.257 843.292 891.468 C 795.767 886.551 747.701 877.846 702.306 862.747 C 713.909 826.622 754.708 786.192 784.64 762.681 C 799.114 751.311 814.336 741.988 824.593 726.265 C 852.168 683.999 855.251 607.875 844.985 559.503 z"/>
<path transform="translate(0,0)" fill="url(#Gradient2)" d="M 606.632 836.062 C 608.723 835.043 611.403 831.241 613.394 829.549 C 621.438 822.713 640.881 809.491 650.545 807.594 C 652.763 807.158 653.111 807.549 654.9 808.705 L 655.313 810.817 C 652.031 815.584 646.2 817.024 642.513 821.841 C 642.313 822.103 642.125 822.374 641.93 822.64 C 637.094 827.125 632.495 830.786 630.507 837.302 C 628.297 844.625 628.865 851.858 632.555 858.64 C 645.724 882.841 685.249 897.7 710.154 904.539 C 722.175 907.84 748.077 910.736 754.521 921.845 C 754.767 925.135 754.587 926.977 752.295 929.504 C 748.502 933.684 743.136 936.216 738.024 938.376 L 740.979 939.208 C 743.982 940.066 746.942 940.871 750.004 941.496 C 807.614 953.253 866.217 956.679 924.829 958.536 C 1011.22 961.274 1145.61 962.2 1219.76 912.806 C 1238.25 900.487 1254.1 882.82 1251.74 858.996 C 1250.99 851.434 1248.27 844.188 1246.44 836.845 C 1245.65 833.678 1243.87 828.851 1244.73 825.633 C 1244.86 825.149 1245.03 824.677 1245.18 824.198 C 1259.33 834.246 1270.09 847.982 1273.02 865.536 C 1275.54 880.587 1271.99 894.894 1263.11 907.244 C 1235.67 945.394 1158.64 964.639 1113.27 971.625 A 1020.76 1020.76 0 0 1 994.831 982.033 C 895.262 984.246 700.441 971.484 619.694 912.073 C 604.989 901.254 592.174 887.449 589.321 868.701 A 46.8866 46.8866 0 0 1 598.533 833.076 C 599.711 831.545 600.888 830.123 602.338 828.841 L 603.4 831.213 C 605.229 829.088 606.9 826.561 609.602 825.556 L 611.702 826.665 C 611.112 830.999 605.16 831.516 606.632 836.062 z"/>
<path transform="translate(0,0)" fill="rgb(251,247,217)" d="M 606.632 836.062 C 608.723 835.043 611.403 831.241 613.394 829.549 C 621.438 822.713 640.881 809.491 650.545 807.594 C 652.763 807.158 653.111 807.549 654.9 808.705 L 655.313 810.817 C 652.031 815.584 646.2 817.024 642.513 821.841 C 642.313 822.103 642.125 822.374 641.93 822.64 C 637.094 827.125 632.495 830.786 630.507 837.302 C 628.297 844.625 628.865 851.858 632.555 858.64 C 645.724 882.841 685.249 897.7 710.154 904.539 C 722.175 907.84 748.077 910.736 754.521 921.845 C 754.767 925.135 754.587 926.977 752.295 929.504 C 748.502 933.684 743.136 936.216 738.024 938.376 C 711.897 934.252 685.219 924.488 661.159 913.665 C 639.868 904.087 612.085 888.642 603.796 865.091 C 600.141 854.706 601.848 845.667 606.632 836.062 z"/>
<path transform="translate(0,0)" fill="rgb(249,52,81)" d="M 925.843 897.318 C 926.304 885.702 930.109 873.411 932.293 861.992 C 940.169 820.817 946.466 773.855 973.618 740.277 C 985.002 726.2 999.055 719.071 1017.05 717.256 C 1019.07 720.988 1026.57 723.017 1030.27 725.649 C 1053.65 742.299 1057.99 754.768 1088.42 763.831 A 138.734 138.734 0 0 0 1099.92 766.823 C 1099.95 767.473 1099.97 768.123 1100.01 768.772 C 1100.58 778.036 1105.85 787.547 1107.25 797.033 C 1112.32 831.372 1087.64 863.912 1066.88 888.413 A 49.0715 49.0715 0 0 1 1065.45 890.033 C 1032.34 896.917 996.355 897.613 962.643 897.631 C 950.526 897.637 937.906 896.58 925.843 897.318 z"/>
<path transform="translate(0,0)" fill="rgb(247,216,213)" d="M 1006.24 745.157 C 1011.83 745.003 1016.76 745.341 1021.93 747.704 C 1026.68 749.877 1031.1 753.516 1032.87 758.575 C 1034.21 762.403 1033.84 766.211 1031.97 769.791 C 1028.72 776.015 1023.2 778.545 1016.87 780.709 A 84.3969 84.3969 0 0 1 1020.22 783.421 C 1022.77 785.64 1023.87 787.34 1024.08 790.832 C 1022.89 793.954 1021.65 795.313 1019.13 797.473 C 1013.49 799.029 1006.91 799.955 1001.38 797.541 C 994.928 794.721 990.558 789.269 988.206 782.72 C 985.332 774.719 985.736 765.735 989.788 758.209 C 993.455 751.399 998.974 747.402 1006.24 745.157 z"/>
<path transform="translate(0,0)" fill="rgb(240,197,116)" d="M 1186.67 794.858 C 1206.91 801.688 1227.73 811.925 1245.18 824.198 C 1245.03 824.677 1244.86 825.149 1244.73 825.633 C 1243.87 828.851 1245.65 833.678 1246.44 836.845 C 1248.27 844.188 1250.99 851.434 1251.74 858.996 C 1254.1 882.82 1238.25 900.487 1219.76 912.806 C 1145.61 962.2 1011.22 961.274 924.829 958.536 C 866.217 956.679 807.614 953.253 750.004 941.496 C 746.942 940.871 743.982 940.066 740.979 939.208 L 738.024 938.376 C 743.136 936.216 748.502 933.684 752.295 929.504 C 754.587 926.977 754.767 925.135 754.521 921.845 C 748.077 910.736 722.175 907.84 710.154 904.539 C 685.249 897.7 645.724 882.841 632.555 858.64 C 628.865 851.858 628.297 844.625 630.507 837.302 L 631.786 838.315 C 631.913 837.969 632.033 837.621 632.167 837.278 C 634.242 831.967 639.021 825.796 644.286 823.303 C 646.687 822.166 647.881 822.336 650.369 823.015 C 651.889 824.697 652.683 825.68 653.234 827.897 C 651.082 831.695 646.405 837.176 646.487 841.51 C 646.497 842.029 646.489 842.549 646.502 843.069 C 646.512 843.469 646.538 843.869 646.556 844.269 C 646.882 851.814 650.641 857.112 656.201 862.028 C 668.78 873.149 686.753 878.87 702.424 884.121 C 798.401 916.28 935.858 921.424 1036.8 913.129 C 1077.72 909.768 1191.22 894.019 1219.14 862.304 C 1222.29 858.723 1225.23 853.985 1224.71 849.041 C 1224.58 847.726 1224.33 846.426 1224.08 845.129 A 131.877 131.877 0 0 0 1208.09 831.762 C 1202.44 827.837 1190.24 822.999 1186.54 817.765 C 1186.91 815.601 1187.25 813.653 1187.26 811.448 C 1187.26 810.96 1187.23 810.473 1187.22 809.986 L 1186.67 794.858 z"/>
<path transform="translate(0,0)" fill="rgb(166,100,49)" d="M 1187.22 809.986 C 1200.43 815.635 1217.25 821.325 1223.35 835.595 C 1224.74 838.859 1224.51 841.679 1224.08 845.129 A 131.877 131.877 0 0 0 1208.09 831.762 C 1202.44 827.837 1190.24 822.999 1186.54 817.765 C 1186.91 815.601 1187.25 813.653 1187.26 811.448 C 1187.26 810.96 1187.23 810.473 1187.22 809.986 z"/>
<path transform="translate(0,0)" fill="rgb(166,100,49)" d="M 794.113 994.131 C 794.554 994.115 794.994 994.092 795.435 994.081 C 809.425 993.746 824.109 996.663 838.087 998.03 A 1676.65 1676.65 0 0 0 904.981 1002.93 C 1003.14 1008.48 1182.7 1005.55 1263.83 941.259 C 1305.53 1044.44 1318.51 1150.55 1330.96 1260.08 C 1335.69 1301.7 1341.46 1343.21 1344.58 1385 A 6109.3 6109.3 0 0 1 1350.04 1467.19 C 1350.78 1481.26 1350.46 1495.75 1352.07 1509.72 C 1314.03 1500.26 1272.12 1510.09 1234.85 1519.3 C 1224.04 1521.98 1211.48 1526.46 1200.45 1527.24 C 1201.58 1522.99 1204.41 1520.1 1207.21 1516.81 C 1227.54 1492.91 1261.29 1487.89 1279.21 1462.12 C 1300.83 1431.03 1296.63 1367.79 1291.9 1330.85 C 1288.21 1302.02 1281.56 1273.85 1279.46 1244.75 C 1278.1 1225.76 1279.03 1206.46 1278.42 1187.42 A 763.159 763.159 0 0 0 1267.38 1078.9 C 1263.41 1057.18 1256.83 1022.77 1236.84 1009.61 C 1231.51 1006.1 1224.76 1003.71 1218.34 1003.63 C 1204.47 1003.47 1168.46 1013.87 1152.13 1017.09 C 1120.16 1023.39 1088.78 1027.24 1056.35 1030.06 C 1038.47 1031.61 1020.72 1033.32 1002.74 1032.86 C 983.929 1032.38 964.856 1031.03 946.113 1029.32 C 932.457 1028.07 897.668 1022.24 886.397 1024.59 C 883.995 1025.09 881.995 1025.2 879.533 1025.15 L 878.525 1025.12 C 859.753 1020.33 839.285 1015.83 821.479 1008.11 C 812.325 1004.14 804.077 998.203 794.928 994.454 C 794.658 994.343 794.385 994.239 794.113 994.131 z"/>
<path transform="translate(0,0)" fill="rgb(170,212,96)" d="M 1312.13 1523.42 C 1365.62 1521.61 1432.89 1553.15 1484.46 1569.68 C 1504.37 1576.06 1524.68 1581.28 1544.74 1587.16 C 1564.27 1592.88 1583.61 1599.25 1603.09 1605.13 C 1554.5 1636.11 1499.98 1646.2 1446.27 1664.43 C 1423.5 1672.16 1401.16 1683.94 1377.26 1687.69 C 1368.09 1688.77 1358.76 1687.23 1349.83 1685.21 C 1320.95 1678.7 1293.46 1666.62 1264.66 1659.6 C 1222.17 1649.26 1170.77 1644.85 1130.88 1629.34 C 1106.97 1620.05 1098.81 1608.85 1088.72 1586.19 C 1099.14 1578.55 1111.07 1573.13 1123.09 1568.51 C 1149.9 1558.22 1178.42 1551.42 1206.2 1544.3 C 1241.35 1535.31 1275.71 1525.51 1312.13 1523.42 z"/>
<path transform="translate(0,0)" fill="rgb(0,0,0)" d="M 1308.15 1534.41 C 1322.61 1532.57 1339.16 1534.3 1353.34 1537.4 C 1367.76 1540.55 1381.68 1545.77 1395.71 1550.27 C 1424.94 1559.63 1453.94 1569.54 1483.04 1579.27 C 1500.62 1585.14 1535.31 1593.63 1550.08 1602.58 L 1550.68 1605.8 C 1549.92 1608.26 1549.15 1610 1547.36 1611.9 C 1540.73 1618.89 1530.57 1624.03 1521.77 1627.71 C 1503.25 1635.47 1482.76 1639.59 1463.52 1645.56 C 1440.22 1652.79 1414.33 1662.81 1391 1668.26 C 1383.06 1670.11 1375.37 1670.89 1367.24 1671.17 C 1318.94 1671.14 1290.16 1656.1 1245.62 1644.71 C 1212.55 1636.25 1190.54 1636.41 1157.14 1622.31 C 1149.83 1619.23 1142.12 1616 1135.53 1611.57 C 1129.99 1607.84 1125.41 1601.98 1124.42 1595.24 A 17.2153 17.2153 0 0 1 1127.94 1581.94 C 1136.67 1570.75 1158.26 1568.15 1171.35 1564.31 C 1216.89 1550.98 1260.73 1539.08 1308.15 1534.41 z"/>
<path transform="translate(0,0)" fill="rgb(145,209,74)" d="M 1304.85 1545.43 C 1318.07 1543.48 1333.76 1544.43 1346.85 1546.96 C 1380.04 1553.39 1423.05 1570.41 1455.74 1581.79 C 1481.9 1590.9 1508.36 1598.47 1534.67 1606.96 L 1534.41 1607.92 C 1528.34 1612.83 1519.15 1616.56 1511.82 1619.26 C 1493.12 1626.17 1473.25 1630.39 1454.18 1636.26 C 1426.41 1644.82 1398.55 1658.12 1369.46 1660.78 C 1355.15 1661.17 1340.24 1659.75 1326.21 1657 C 1302.12 1652.28 1279 1642.51 1255.32 1635.92 C 1218.36 1625.63 1176.99 1625.17 1144.09 1602.89 C 1140.77 1600.64 1137.03 1597.91 1136.49 1593.63 C 1136.25 1591.77 1137.11 1589.86 1138.31 1588.46 C 1146.18 1579.33 1170.59 1576.65 1181.99 1573.45 C 1222.71 1562.01 1262.51 1549.55 1304.85 1545.43 z"/>
<path transform="translate(0,0)" fill="rgb(0,0,0)" d="M 1323.53 1573.19 C 1334.48 1572.32 1345.05 1573.13 1354.99 1578.26 C 1361.54 1581.64 1367.5 1586.93 1369.4 1594.3 C 1370.96 1600.33 1369.46 1606.55 1366.03 1611.65 C 1358.69 1622.57 1346.56 1625.58 1334.5 1627.92 C 1322.78 1629.25 1312.33 1629.42 1301.63 1623.44 C 1295.54 1620.04 1290.12 1614.79 1288.42 1607.83 C 1286.98 1601.93 1288.49 1595.8 1291.77 1590.78 C 1298.62 1580.3 1311.73 1575.43 1323.53 1573.19 z"/>
<path transform="translate(0,0)" fill="rgb(165,178,139)" d="M 1302.32 1593.96 C 1310.46 1587.8 1320.52 1583.28 1330.84 1582.73 L 1331.74 1583.59 C 1328.8 1586.25 1323.19 1592.67 1321.21 1594.23 C 1318.03 1596.72 1310.88 1594.72 1306.22 1597.02 L 1302.32 1593.96 z"/>
<path transform="translate(0,0)" fill="rgb(170,212,96)" d="M 1302.32 1593.96 L 1306.22 1597.02 C 1308.18 1600.68 1310.31 1602.55 1314.1 1604.23 C 1316.12 1605.12 1317.44 1605.53 1318.87 1607.29 C 1319.1 1611.2 1316.42 1615 1314.64 1618.37 C 1312.21 1617.2 1309.75 1615.99 1307.42 1614.61 C 1303.68 1612.4 1299.01 1608.67 1298.37 1604.04 C 1297.74 1599.49 1299.67 1597.29 1302.32 1593.96 z"/>
<path transform="translate(0,0)" fill="rgb(170,212,96)" d="M 1342.72 1582.12 C 1348.2 1586.07 1358.4 1592.46 1359.66 1599.57 C 1360.15 1602.3 1359.76 1603.79 1358.14 1606.02 C 1356.68 1608.04 1354.08 1609.34 1351.97 1610.56 C 1346.63 1613.71 1337.11 1617.3 1330.88 1617.66 C 1328.63 1617.78 1328.5 1617.81 1326.77 1616.26 C 1327.14 1613.6 1327.89 1612.16 1329.2 1609.88 C 1334.38 1607.79 1342.71 1609.73 1348.83 1608.38 L 1350.28 1608.05 C 1349.47 1605.49 1349.07 1604.33 1346.52 1603.14 C 1342.08 1601.09 1335.9 1601.77 1332.42 1598.23 L 1332.09 1596.65 C 1334.27 1594.38 1335.52 1594.17 1338.66 1594.13 C 1341.27 1594.09 1343.88 1594.15 1346.48 1594.2 L 1347.62 1593.03 C 1346.87 1588.98 1344.7 1585.66 1342.72 1582.12 z"/>
<path transform="translate(0,0)" fill="rgb(204,141,77)" d="M 878.525 1025.12 L 879.533 1025.15 C 881.995 1025.2 883.995 1025.09 886.397 1024.59 C 897.668 1022.24 932.457 1028.07 946.113 1029.32 C 964.856 1031.03 983.929 1032.38 1002.74 1032.86 C 1020.72 1033.32 1038.47 1031.61 1056.35 1030.06 C 1088.78 1027.24 1120.16 1023.39 1152.13 1017.09 C 1168.46 1013.87 1204.47 1003.47 1218.34 1003.63 C 1224.76 1003.71 1231.51 1006.1 1236.84 1009.61 C 1256.83 1022.77 1263.41 1057.18 1267.38 1078.9 A 763.159 763.159 0 0 1 1278.42 1187.42 C 1279.03 1206.46 1278.1 1225.76 1279.46 1244.75 C 1281.56 1273.85 1288.21 1302.02 1291.9 1330.85 C 1296.63 1367.79 1300.83 1431.03 1279.21 1462.12 C 1261.29 1487.89 1227.54 1492.91 1207.21 1516.81 C 1204.41 1520.1 1201.58 1522.99 1200.45 1527.24 C 1171.07 1535.63 1112.16 1550.06 1087.55 1566.16 C 1081.24 1570.29 1076 1575.51 1072.29 1582.11 C 1062 1600.44 1061.5 1629.87 1066.65 1649.8 C 1066.64 1649.83 1047.03 1697.29 1046.39 1698.21 C 1042.37 1703.93 1036.44 1708.92 1030.94 1713.16 C 989.641 1745.04 918.864 1775.33 868.966 1789.07 C 847.183 1795.06 824.746 1797.58 802.858 1802.94 C 791.102 1805.81 780.356 1810.94 768.881 1814.44 C 701.734 1810.45 633.232 1799.06 571.303 1771.93 C 560.668 1767.28 549.149 1762.64 539.692 1755.84 L 539.753 1751.15 C 539.871 1737.1 543.03 1721.88 552.189 1710.75 C 555.988 1713.53 559.467 1717.79 563.111 1720.92 C 575.112 1731.22 592.635 1745.54 608.124 1749.77 C 611.16 1750.6 612.997 1750.32 615.727 1748.87 C 617.246 1746.44 617.869 1744.45 618.612 1741.72 C 616.641 1736.04 591.655 1723.46 585.443 1719.17 C 579.733 1715.22 574.597 1710.96 569.569 1706.18 C 570.67 1705.32 571.748 1704.66 573.001 1704.03 C 601.08 1689.88 631.717 1711.85 658.525 1720.58 C 732.214 1744.58 826.615 1736.51 898.39 1708.19 C 911.079 1703.19 923.646 1696.35 935.795 1690.11 C 961.887 1676.7 988.494 1658.91 1009.36 1638.34 C 1072.45 1576.12 1111.01 1469.76 1137.77 1386.78 A 1017.87 1017.87 0 0 0 1162.83 1292.93 C 1167.2 1272.84 1172.34 1252.1 1173.46 1231.55 C 1175.69 1190.64 1156.66 1145.78 1138.2 1109.97 C 1132 1097.95 1123.53 1081.01 1111.42 1073.95 C 1087.84 1060.19 1013.96 1057.13 982.521 1051.33 A 770.723 770.723 0 0 1 878.525 1025.12 z"/>
<path transform="translate(0,0)" fill="rgb(240,197,116)" d="M 594.332 921.362 C 630.555 955.358 693.604 973.654 741.71 983.821 C 758.697 987.411 776.326 989.255 793.065 993.835 L 794.113 994.131 C 794.385 994.239 794.658 994.343 794.928 994.454 C 804.077 998.203 812.325 1004.14 821.479 1008.11 C 839.285 1015.83 859.753 1020.33 878.525 1025.12 A 770.723 770.723 0 0 0 982.521 1051.33 C 1013.96 1057.13 1087.84 1060.19 1111.42 1073.95 C 1123.53 1081.01 1132 1097.95 1138.2 1109.97 C 1156.66 1145.78 1175.69 1190.64 1173.46 1231.55 C 1172.34 1252.1 1167.2 1272.84 1162.83 1292.93 A 1017.87 1017.87 0 0 1 1137.77 1386.78 C 1111.01 1469.76 1072.45 1576.12 1009.36 1638.34 C 988.494 1658.91 961.887 1676.7 935.795 1690.11 C 923.646 1696.35 911.079 1703.19 898.39 1708.19 C 826.615 1736.51 732.214 1744.58 658.525 1720.58 C 631.717 1711.85 601.08 1689.88 573.001 1704.03 C 571.748 1704.66 570.67 1705.32 569.569 1706.18 C 574.597 1710.96 579.733 1715.22 585.443 1719.17 C 591.655 1723.46 616.641 1736.04 618.612 1741.72 C 617.869 1744.45 617.246 1746.44 615.727 1748.87 C 612.997 1750.32 611.16 1750.6 608.124 1749.77 C 592.635 1745.54 575.112 1731.22 563.111 1720.92 C 559.467 1717.79 555.988 1713.53 552.189 1710.75 C 543.03 1721.88 539.871 1737.1 539.753 1751.15 L 539.692 1755.84 A 194.517 194.517 0 0 1 464.179 1674.05 C 444.835 1634.19 437.007 1590.3 438.189 1546.19 C 440.192 1471.43 466.775 1403.06 481.606 1330.67 C 489.892 1290.22 494.974 1249.03 501.834 1208.32 C 510.505 1156.85 522.119 1105.13 539.366 1055.81 C 541.685 1044.27 546.809 1032.24 551.019 1021.22 C 563.992 987.28 579.26 954.401 594.332 921.362 z"/>
<path transform="translate(0,0)" fill="rgb(0,0,0)" d="M 599.689 1655.61 C 603.219 1655.82 606.705 1656.83 608.978 1659.79 C 610.293 1661.5 610.618 1663.56 610.435 1665.66 C 609.982 1670.84 606.97 1673.27 603.135 1676.27 C 602.932 1676.28 602.728 1676.29 602.525 1676.29 C 599.053 1676.17 595.702 1675.32 593.502 1672.37 C 591.904 1670.23 591.794 1667.61 592.234 1665.08 C 593.086 1660.2 595.914 1658.39 599.689 1655.61 z"/>
<path transform="translate(0,0)" fill="rgb(0,0,0)" d="M 552.189 1710.75 C 543.288 1699.86 535.044 1688.4 528.271 1676.06 C 523.203 1666.82 509.473 1640.84 514.334 1630.29 C 515.5 1627.77 516.577 1627.71 519.018 1626.78 C 521.986 1627.3 523.555 1627.41 525.325 1630.17 C 529.464 1636.62 530.835 1645.48 533.596 1652.63 C 541.206 1672.34 554.645 1691.38 569.569 1706.18 C 574.597 1710.96 579.733 1715.22 585.443 1719.17 C 591.655 1723.46 616.641 1736.04 618.612 1741.72 C 617.869 1744.45 617.246 1746.44 615.727 1748.87 C 612.997 1750.32 611.16 1750.6 608.124 1749.77 C 592.635 1745.54 575.112 1731.22 563.111 1720.92 C 559.467 1717.79 555.988 1713.53 552.189 1710.75 z"/>
<path transform="translate(0,0)" fill="rgb(251,247,217)" d="M 622.011 980.099 C 625.526 980.138 628.881 980.547 632.301 981.391 A 29.1836 29.1836 0 0 1 650.896 995.563 C 655.194 1003.35 655.37 1012.48 652.62 1020.82 C 649.205 1031.18 642.5 1037.5 633.015 1042.36 C 627.413 1043.99 622.276 1044.69 616.637 1042.7 C 610.457 1040.52 605.97 1035.93 603.222 1030.05 C 598.828 1020.67 598.818 1009.23 602.538 999.617 C 606.387 989.674 612.633 984.42 622.011 980.099 z"/>
<path transform="translate(0,0)" fill="rgb(251,247,217)" d="M 689.947 1398.15 C 696.378 1397.82 702.55 1400.1 708.03 1403.33 C 718.032 1409.21 724.549 1419.41 727.277 1430.55 C 730.85 1445.12 729.207 1464.38 721.169 1477.19 C 713.881 1488.8 703.752 1495.07 690.697 1498.09 C 683.73 1498.21 677.661 1496.82 671.534 1493.4 C 661.383 1487.72 654.271 1477.55 651.426 1466.37 A 60.2572 60.2572 0 0 1 658.782 1420.26 C 666.137 1408.5 676.439 1401.17 689.947 1398.15 z"/>
<path transform="translate(0,0)" fill="rgb(251,247,217)" d="M 539.366 1055.81 C 539.662 1055.76 539.959 1055.71 540.254 1055.65 C 549.532 1053.71 559.255 1044.75 568.963 1050.46 C 572.292 1052.42 574.968 1055.52 575.693 1059.38 C 577.604 1069.55 556.541 1132.28 552.637 1148.61 C 546.986 1172.24 543.441 1196.39 539.095 1220.29 C 531.988 1259.37 524.138 1298.61 513.549 1336.9 C 488.542 1427.34 450.309 1504.11 470.301 1601.04 A 289.796 289.796 0 0 0 499.603 1682.39 C 505.573 1693.47 512.164 1703.85 519.881 1713.8 C 526.347 1722.14 533.606 1730.12 539.153 1739.1 C 539.113 1743.09 538.773 1747.26 539.753 1751.15 L 539.692 1755.84 A 194.517 194.517 0 0 1 464.179 1674.05 C 444.835 1634.19 437.007 1590.3 438.189 1546.19 C 440.192 1471.43 466.775 1403.06 481.606 1330.67 C 489.892 1290.22 494.974 1249.03 501.834 1208.32 C 510.505 1156.85 522.119 1105.13 539.366 1055.81 z"/>
<path transform="translate(0,0)" fill="rgb(251,247,217)" d="M 711.965 1088.22 C 721.918 1087.21 731.039 1087.79 739.977 1092.81 C 755.151 1101.33 764.728 1118.1 769.106 1134.47 C 781.111 1179.34 759.51 1267.62 736.268 1307.08 C 727.582 1321.82 716.958 1327.94 700.775 1332.08 C 688.751 1334.25 675.606 1333.74 664.854 1327.43 C 652.062 1319.93 646.008 1306.77 642.549 1292.97 C 629.846 1242.29 640.493 1168.93 667.388 1124.52 C 678.036 1106.95 691.575 1093.33 711.965 1088.22 z"/>
</svg>