<svg width="16" height="17" viewBox="0 0 16 17" fill="none" xmlns="http://www.w3.org/2000/svg">
<path d="M14.9701 4.8099C14.4568 5.04323 13.9034 5.19656 13.3301 5.2699C13.9168 4.91656 14.3701 4.35656 14.5834 3.68323C14.0301 4.01656 13.4168 4.2499 12.7701 4.38323C12.2434 3.8099 11.5034 3.47656 10.6634 3.47656C9.09677 3.47656 7.81677 4.75656 7.81677 6.33656C7.81677 6.56323 7.84344 6.78323 7.8901 6.9899C5.51677 6.8699 3.40344 5.7299 1.99677 4.00323C1.7501 4.42323 1.6101 4.91656 1.6101 5.43656C1.6101 6.4299 2.1101 7.3099 2.88344 7.8099C2.4101 7.8099 1.9701 7.67656 1.58344 7.47656V7.49656C1.58344 8.88323 2.5701 10.0432 3.87677 10.3032C3.45726 10.418 3.01683 10.434 2.5901 10.3499C2.77118 10.9182 3.1258 11.4155 3.60412 11.7718C4.08243 12.1282 4.6604 12.3257 5.25677 12.3366C4.24586 13.1369 2.99277 13.5694 1.70344 13.5632C1.47677 13.5632 1.2501 13.5499 1.02344 13.5232C2.2901 14.3366 3.79677 14.8099 5.4101 14.8099C10.6634 14.8099 13.5501 10.4499 13.5501 6.6699C13.5501 6.54323 13.5501 6.42323 13.5434 6.29656C14.1034 5.89656 14.5834 5.3899 14.9701 4.8099Z" fill="#565656"/>
</svg>
