<svg width="16" height="13" viewBox="0 0 16 13" fill="none" xmlns="http://www.w3.org/2000/svg">
<path fill-rule="evenodd" clip-rule="evenodd" d="M8.0026 1C8.5726 1 9.15727 1.01448 9.72394 1.03817L10.3933 1.06976L11.0339 1.10727L11.6339 1.14742L12.1819 1.18954C12.7767 1.23422 13.3365 1.48467 13.7626 1.89676C14.1887 2.30886 14.4538 2.85617 14.5113 3.4423L14.5379 3.722L14.5879 4.3209C14.6346 4.94151 14.6693 5.61806 14.6693 6.265C14.6693 6.91194 14.6346 7.58849 14.5879 8.2091L14.5379 8.808L14.5113 9.0877C14.4538 9.67393 14.1886 10.2213 13.7623 10.6334C13.3361 11.0455 12.7762 11.2959 12.1813 11.3405L11.6346 11.3819L11.0346 11.4227L10.3933 11.4602L9.72394 11.4918C9.15049 11.5163 8.57659 11.5291 8.0026 11.53C7.42862 11.5291 6.85472 11.5163 6.28127 11.4918L5.61194 11.4602L4.97127 11.4227L4.37127 11.3819L3.82327 11.3405C3.22848 11.2958 2.66874 11.0453 2.24263 10.6332C1.81653 10.2211 1.5514 9.67383 1.49394 9.0877L1.46727 8.808L1.41727 8.2091C1.36649 7.56224 1.33936 6.91379 1.33594 6.265C1.33594 5.61806 1.3706 4.94151 1.41727 4.3209L1.46727 3.722L1.49394 3.4423C1.55138 2.85628 1.81641 2.30905 2.24238 1.89696C2.66835 1.48488 3.22793 1.23437 3.8226 1.18954L4.36994 1.14742L4.96994 1.10727L5.61127 1.06976L6.2806 1.03817C6.85427 1.01364 7.4284 1.00091 8.0026 1ZM6.66927 4.66905V7.86095C6.66927 8.16501 7.0026 8.35455 7.26927 8.20318L10.0693 6.60723C10.1302 6.5726 10.1808 6.52274 10.216 6.46266C10.2512 6.40258 10.2697 6.3344 10.2697 6.265C10.2697 6.1956 10.2512 6.12742 10.216 6.06734C10.1808 6.00726 10.1302 5.9574 10.0693 5.92277L7.26927 4.32748C7.20844 4.29281 7.13944 4.27457 7.06921 4.27458C6.99897 4.27459 6.92997 4.29286 6.86916 4.32754C6.80834 4.36223 6.75785 4.41212 6.72276 4.47218C6.68768 4.53224 6.66923 4.60037 6.66927 4.66971V4.66905Z" fill="#565656"/>
</svg>
